<?xml version="1.0" encoding="utf-8"?>
<!-- Generator: Adobe Illustrator 20.1.0, SVG Export Plug-In . SVG Version: 6.00 Build 0)  -->
<svg version="1.1" id="Слой_1" xmlns="http://www.w3.org/2000/svg" xmlns:xlink="http://www.w3.org/1999/xlink" x="0px" y="0px"
	 viewBox="0 0 500 263" style="enable-background:new 0 0 500 263;" xml:space="preserve">
<style type="text/css">
	.st0{fill:#212336;}
	.st1{fill:#52A161;}
	.st2{font-family:'SitkaBanner';}
	.st3{font-size:25.161px;}
</style>
<g transform="translate(0.000000,500.000000) scale(0.100000,-0.100000)">
	<path class="st0" d="M1682.6,4581.2l-139.4-418.8h-39.4h-38.4v-84.8c0-67.6,3-85.8,16.2-90.8c30.3-12.1,202-6.1,218.1,7.1
		c14.1,10.1,46.5,101.9,65.6,186.7c5,22.2,7.1,22.2,179.8,22.2h174.7l21.2-67.6c12.1-38.3,26.3-85.8,33.3-107
		c14.1-46.4,24.2-49.4,149.5-45.4l95.9,3l3,87.8l3,87.8l-38.4,3l-38.4,3l-48.5,151.4c-27.3,83.8-133.3,395.6-165.6,496.5
		l-58.6,184.7h-127.2h-127.2L1682.6,4581.2z M1994.6,4636.7c20.2-69.6,45.4-154.4,56.6-187.7c11.1-34.3,20.2-64.6,20.2-68.6
		c0-3-54.5-6.1-121.2-6.1c-135.3,0-131.3-2-107,72.7c16.2,47.4,68.7,220,87.9,288.6c7.1,23.2,16.2,39.4,20.2,35.3
		C1955.2,4766.9,1974.4,4706.3,1994.6,4636.7z"/>
	<path class="st0" d="M2495.5,4920.3v-80.7l38.4-3l37.4-3v-333v-333l-37.4-3l-38.4-3v-84.8c0-66.6,3-84.8,16.2-89.8
		c24.2-9.1,713.9-7.1,729.1,2c9.1,7.1,12.1,48.4,10.1,174.6l-3,165.5h-90.9h-90.9l-5-80.7l-5-80.7h-131.3h-131.3l-3,321.9
		c-2,229.1,1,326,9.1,335c6.1,8.1,27.3,14.1,46.5,14.1h34.3l-3,78.7l-3,77.7l-188.8,3l-189.9,2V4920.3z"/>
	<path class="st0" d="M4247.6,4581.2l-139.4-418.8h-39.4h-39.4l3-87.8l3-88.8l113.1-3c134.3-3,123.2-13.1,175.7,172.6l13.1,47.4
		h173.7h173.7l10.1-27.2c17.2-48.4,42.4-136.2,42.4-149.4c0-34.3,30.3-45.4,124.2-45.4c143.4,0,138.3-3,138.3,96.9v83.8l-42.4,3
		l-42.4,3l-42.4,126.1c-23.2,69.6-84.8,256.3-136.3,415.8l-94.9,290.6h-127.2h-127.2L4247.6,4581.2z M4535.4,4719.4
		c7.1-20.2,15.1-50.5,20.2-67.6c5-16.1,18.2-61.6,30.3-100.9c12.1-38.3,25.2-83.8,29.3-100.9c4-16.1,11.1-40.4,15.1-52.5l7.1-23.2
		h-126.2h-127.2l9.1,23.2c9.1,23.2,43.4,136.2,81.8,269.5c12.1,41.4,24.2,81.7,26.3,88.8C4507.1,4777,4523.3,4759.8,4535.4,4719.4z"
		/>
	<path class="st1" d="M3348.8,4919.3v-70.6h43.4h42.4v-343.1c0-188.6-1-346-2-350.2c-2-5-20.2-7.1-40.4-6.1l-38.4,2v-70.6V4011
		h189.9h188.8l-3,70.6l-4,69.6l-49.5-3c-61.6-3-61.6-5-57.6,165.5l3,126.1H3773c83.8,0,154.6,4,157.5,8.1c3,5,7.1,37.3,8.1,72.7
		l2,64.6l-159.6,3l-159.6,3v126.1v126.1h166.6h166.6v-73.7v-72.7h75.7h75.7v146.3v146.3h-378.7h-378.7V4919.3z"/>
	<path class="st0" d="M344.5,4583.2c-30.3-50.5-56.6-97.9-58.6-103.9c-3-12.1,0-19.2,88.9-170.6c29.3-49.5,63.6-111,77.8-136.2
		c14.1-25.2,48.5-84.8,77.8-133.2l51.5-87.8l321.1-3c275.7-3,323.2-1,334.3,12.1c18.2,22.2,107,172.6,107,182.7
		c0,4-141.4,9.1-314.1,11.1l-315.1,3l-16.2,24.2c-20.2,29.3-211.1,358.3-254.5,438c-18.2,31.3-35.3,57.5-38.4,57.5
		S374.8,4634.7,344.5,4583.2z"/>
	<path class="st1" d="M1.2,4429.8c0-3,11.1-23.2,25.2-45.4s98-165.5,118.2-201.8C221.3,4042.3,294,3921.2,294,3903
		c0-12.1-238.3-420.8-257.5-452.1l-36.4-55.5h108.1c98,0,107,2,112.1,20.2c3,11.1,254.5,428.9,265.6,450.1
		c18.2,39.4,18.2,39.4-3,79.7c-12.1,22.2-24.2,42.4-27.3,45.4c-3,3-11.1,16.1-19.2,30.3c-8.1,14.1-30.3,52.5-49.5,85.8
		c-19.2,33.3-40.4,70.6-46.5,82.8c-6.1,13.1-107,190.7-119.2,209.9l-23.2,35.3h-98C45.6,4434.9,1.2,4432.8,1.2,4429.8z"/>
	<path class="st0" d="M3192.3,3905c0-19.2-1-38.3-2-42.4c-2-5,12.1-9.1,30.3-11.1l32.3-3v-90.8c0-87.8-6.1-103.9-29.3-75.7
		c-21.2,25.2-100,56.5-141.4,56.5c-80.8,0-153.5-53.5-192.9-143.3c-16.2-36.3-21.2-69.6-21.2-134.2c0-112,20.2-176.6,75.7-232.1
		c77.8-77.7,187.8-82.8,267.6-12.1l36.4,31.3l3-32.3l3-33.3l82.8,3l82.8,3v35.3c0,31.3-3,35.3-30.3,40.4l-30.3,5l-3,336.1l-2,335
		h-80.8h-80.8V3905z M3176.1,3625.5c66.7-43.4,92.9-150.4,62.6-252.3c-39.4-136.2-174.7-157.4-236.3-38.3
		c-20.2,39.4-23.2,56.5-20.2,133.2c3,71.7,8.1,92.8,28.3,123.1c14.1,19.2,34.3,39.4,45.4,45.4
		C3090.3,3653.8,3140.8,3648.7,3176.1,3625.5z"/>
	<path class="st0" d="M1553.3,3883.8c-4-4-7.1-40.4-7.1-81.7v-73.7h-35.3c-19.2,0-35.3-4-36.4-10.1c-1-5-1-21.2-1-35.3
		c0-14.1,0-29.3,1-35.3c1-5,16.2-10.1,35.3-10.1h35.3l3-201.8l2.4-164c0.4-24.2,10.4-47.2,27.9-64.1l0,0
		c36.9-23.7,33.8-20.7,104-32.3c84.8-5,95.9,0,95.9,51.5c0,24.2-4,27.2-30.3,27.2c-4.1,0-9.1,0.1-14.3,0.4
		c-25.2,1.4-49.5,10.9-69.1,26.8l0,0c-4.5,2.4-7.5,7.3-7.5,12.4V3461v175.6l58.6,3l57.6,3v40.4v40.4l-57.6,3l-57.6,3l-3,77.7
		l-3,77.7l-45.4,3C1581.6,3889.9,1557.4,3887.9,1553.3,3883.8z"/>
	<path class="st0" d="M584.4,3859.6c-6.1-4-201-329-264.6-442c-10.1-18.2-25.2-43.4-33.3-56.5c-14.1-21.2-12.1-27.2,20.2-80.7
		c19.2-32.3,46.5-84.8,60.6-107c24.2-38.3,34.9-51.3,45.4-31.3c2.8,5.3,41.4,78.7,90.9,163.5c50.5,83.8,90.9,154.4,90.9,155.4
		c0,2,24.2,43.4,54.5,92.8l54.5,88.8l319.1,3c175.7,1,319.1,6.1,319.1,11.1c0,7.1-80.8,149.4-108.1,189.7
		c-6.1,9.1-93.9,13.1-324.2,15.1C734.8,3863.7,589.4,3862.7,584.4,3859.6z"/>
	<path class="st0" d="M2083.5,3718.3c-18.2-11.1-41.4-34.3-51.5-51.5c-26.3-43.4-34.3-41.4-35.3,11.1l-1,45.4h-80.8H1834V3683
		c0-36.3,3-40.4,28.3-43.4l27.3-3l-2-183.7l-3-183.7l-27.3-3c-25.2-3-28.3-7.1-28.3-43.4v-39.4h116.1h116.1v39.4
		c0,36.3-3,40.4-27.3,43.4l-28.3,3v131.2c0,119.1,2,134.2,22.2,162.5c33.3,47.4,71.7,67.6,129.3,69.6l50.5,2v49.4v49.4l-45.4,3
		C2130.9,3738.5,2106.7,3732.5,2083.5,3718.3z"/>
	<path class="st0" d="M2424.8,3726.4c-68.7-19.2-131.3-85.8-131.3-139.3c0-17.2,6.1-20.2,48.5-20.2c45.4,0,50.5,3,73.7,37.3
		c58.6,90.8,219.1,52.5,209-50.5c-3-29.3-7.1-32.3-38.4-35.3c-137.3-9.1-243.4-43.4-282.8-90.8c-25.2-31.3-30.3-45.4-30.3-92.8
		c0-87.8,37.4-135.2,128.3-162.5c54.5-15.1,125.2,1,176.7,42.4c20.2,16.1,39.4,29.3,42.4,29.3s6.1-13.1,6.1-30.3v-30.3h85.8h85.8
		v40.4c0,38.3-2,40.4-30.3,40.4h-30.3v152.4c0,90.8-5,169.5-12.1,193.8c-16.2,52.5-63.6,99.9-116.1,116.1
		C2562.1,3740.5,2474.3,3740.5,2424.8,3726.4z M2624.8,3399.4c3-44.4-1-54.5-33.3-91.8c-54.5-64.6-131.3-77.7-174.7-29.3
		c-69.7,73.7-2,149.4,154.5,170.6C2618.7,3454.9,2621.7,3452.9,2624.8,3399.4z"/>
	<path class="st0" d="M4066.8,3718.3c-22.2-11.1-49.5-29.3-61.6-40.4c-29.3-27.2-33.3-25.2-37.4,13.1l-3,32.3H3884h-80.8V3683
		c0-36.3,3-40.4,28.3-43.4c15.1-2,27.3-6.1,27.3-10.1c1-13.1,2-340.1,1-352.2c-1-8.1-14.1-13.1-31.3-13.1c-28.3,0-30.3-2-30.3-40.4
		v-40.4h116.1h116.1v39.4c0,36.3-3,40.4-27.3,43.4l-28.3,3l-3,116.1c-4,143.3,6.1,179.6,60.6,226.1s107,50.5,144.4,10.1
		c25.2-27.2,25.2-28.3,25.2-232.1v-205.9h85.8h85.8v39.4c0,36.3-3,40.4-27.3,43.4l-28.3,3l-5,183.7c-5,199.8-9.1,210.9-73.7,259.4
		C4200.1,3741.6,4116.3,3744.6,4066.8,3718.3z"/>
	<path class="st0" d="M4585.9,3722.4c-119.2-51.5-174.7-217-121.2-361.3c54.5-144.3,218.1-191.7,329.2-93.9l36.4,31.3l-3-76.7
		c-4-63.6-8.1-81.7-27.3-101.9c-0.1-0.1-0.2-0.2-0.2-0.2c-15.7-16.1-36.7-26.3-59-29c-54.9-6.4-126.7,13.9-137.6,21.3
		c-10.5,7.2-22.3,19.9-29.4,30.5c-13.3,19.7-21.8,20.9-64.7,20.9c-57.6,0-60.6-3-43.4-47.4c9.4-25.3,26.7-48.5,51.3-68.6
		c21-17.2,47.6-34.4,73.3-42.9c34.9-11.6,35.5-14.1,110.1-18.6c69-0.8,91.3,5.4,118.7,19.4c12.8,6.6,11.2,6.2,36.7,22.9
		c78.1,56.1,83.6,97.1,82.6,372.5c0,117.1,0,218,1,225c0,7.1,13.1,12.1,30.3,12.1c29.3,0,30.3,2,30.3,45.4v46.4l-82.8-3
		c-82.8-3-83.8-3-88.9-31.3l-5-29.3l-27.3,21.2C4731.3,3738.5,4652.5,3751.6,4585.9,3722.4z M4753.5,3628.5
		c64.6-39.4,91.9-148.3,58.6-233.1c-22.2-56.5-65.6-84.8-128.3-84.8c-43.4,0-53.5,4-77.8,31.3c-48.5,53.5-58.6,174.6-20.2,244.2
		C4617.2,3645.7,4693.9,3664.9,4753.5,3628.5z"/>
	<path class="st0" d="M3499.3,3714.3c-3-8.1-4-27.2-2-43.4c2-22.2,9.1-29.3,31.3-31.3c15.1-2,27.3-6.1,27.3-10.1
		c2.7-106.7,0.5-307.2-3.7-347.3c-0.6-5.7-3.8-10.7-9-13.2c-6.2-2.9-14.8-4.8-23.6-4.8c-21.2,0-24.2-4-24.2-40.4v-40.4h116.1h116.1
		v39.4c0,36.3-3,40.4-27.3,43.4l-28.3,3l-5,227.1l-5,227.1l-78.8,3C3522.5,3728.4,3503.3,3726.4,3499.3,3714.3z"/>
</g>
<rect x="354.3" y="113.7" class="st0" width="9.1" height="9.1"/>
<text transform="matrix(1.0007 0 0 1 154.4517 229.0098)" class="st0 st2 st3">Agente de Carga</text>
<text transform="matrix(1.0007 0 0 1 154.4517 255.249)" class="st0 st2 st3">Internetional Freight Forwarders</text>
</svg>
