<svg id="Слой_1" data-name="Слой 1" xmlns="http://www.w3.org/2000/svg" viewBox="0 0 199.35 35.66"><defs><style>.cls-1{fill:#333;}</style></defs><title>астра киев</title><path class="cls-1" d="M310.06,782.39h-2.82l-6.85,10.27V782.39h-3V798h2.92L307,787.73V798h3V782.39Zm13.7,8.76v4h.81a4.93,4.93,0,0,0,2.52-.4,1.46,1.46,0,0,0,.6-1.41,2,2,0,0,0-.81-1.61,4,4,0,0,0-2.52-.6Zm0-5.94v3.32h.71a2.37,2.37,0,0,0,1.61-.5,1.36,1.36,0,0,0,.5-1.21,1.67,1.67,0,0,0-.5-1.21,2.09,2.09,0,0,0-1.51-.4Zm-3,12.79V782.39h2.52a11.44,11.44,0,0,1,3.12.3,4.23,4.23,0,0,1,2.22,1.41,3.27,3.27,0,0,1,.81,2.32A3,3,0,0,1,329,788a4.93,4.93,0,0,1-1.21,1.31,4.39,4.39,0,0,1,2.82,4.13,4.47,4.47,0,0,1-2.52,4,6.29,6.29,0,0,1-3,.5h-4.33ZM184,786.52l-2.12,5.34h4.23Zm-1.51-4.13h3l6,15.61h-3.12l-1.21-3.22h-6.45L179.51,798h-3.12Zm26,2.72-2.12,2a6.4,6.4,0,0,0-4.84-2.22,5.24,5.24,0,0,0-3.83,1.51,5.17,5.17,0,0,0-1.51,3.73,5.25,5.25,0,0,0,2.62,4.63,5.34,5.34,0,0,0,2.82.71,6.09,6.09,0,0,0,2.42-.5,8.32,8.32,0,0,0,2.42-1.81l2,2.12a8.76,8.76,0,0,1-6.85,2.92,8.12,8.12,0,0,1-6-2.32,7.74,7.74,0,0,1-2.32-5.94,8.17,8.17,0,0,1,1.11-4.13,7.67,7.67,0,0,1,3-2.92,8.93,8.93,0,0,1,4.33-1.11,9.53,9.53,0,0,1,3.73.81,14.35,14.35,0,0,1,3,2.52m1-2.72h8.76v2.92h-2.82V798h-3.12V785.31h-2.82Zm17.23,4.13-2.12,5.34h4.23Zm-1.61-4.13h3l6,15.61h-3.12l-1.21-3.22h-6.45L222.12,798H219Zm14.51,6h.91a5.71,5.71,0,0,0,1.61-.2,1.81,1.81,0,0,0,.71-.5,1.23,1.23,0,0,0,.3-.91,1.37,1.37,0,0,0-.71-1.31,4.12,4.12,0,0,0-1.91-.3h-.81Zm-3-6h3.22a10.55,10.55,0,0,1,3.73.5,3.38,3.38,0,0,1,1.81,1.51,4.93,4.93,0,0,1,.71,2.52,4,4,0,0,1-.91,2.72,5.17,5.17,0,0,1-2.32,1.51,12.06,12.06,0,0,1-3.12.2V798h-3Zm10.78,0h8.76v2.92h-2.92V798h-3V785.31h-2.82Zm17.23,4.13-2.12,5.34h4.23ZM263,782.39h3l6,15.61H269l-1.21-3.22h-6.45L260,798h-3.12Zm11.58,8.46H280v2.72H274.6Zm9.17-8.46h3v5.34l4.33-5.34h3.63l-5.54,7,6,8.66h-3.53l-4.94-7v7h-3V782.39Zm-131.66-3.53,2.62,27.2a10.63,10.63,0,0,0,5-5l-3.93-15.31a12.27,12.27,0,0,1-2.72,22.67L151,778.76h-2.62l-2.22,29.72a12.33,12.33,0,0,1-9-11.89,12.53,12.53,0,0,1,6.65-11l-4,15.41a9.64,9.64,0,0,0,4.94,5l2.72-27.2a18.13,18.13,0,1,0,4.63,0m23.47,22.77H330.91V801H175.58M331,805.35v.71H328.3v5.14h-.91v-5.84H331Zm-13.7,0v2.42H320v-2.42h.91v5.84H320v-2.72h-2.72v2.72h-.91v-5.84Zm-10.88,0v4.33a9.08,9.08,0,0,0,.5-.91l2.22-2.92v-.5h.91v5.84h-.91V807c0,.1-.1.3-.5.81l-2.22,2.92v.6h-.91v-5.84h.91Zm-10.07,1a9.7,9.7,0,0,1-.5,3.22,3,3,0,0,1-.4.81h2.72V806h-1.81Zm2.72-1v5.14h.6v2.22h-.81V811.2H295v1.51h-.81v-2.22h.4a3.15,3.15,0,0,0,.5-1,10,10,0,0,0,.5-3.53v-.5h3.53Zm-10.58,0v5.84h-.91v-5.14h-1.81c-.1,2.62-.2,3.32-.4,3.83a1.72,1.72,0,0,1-1.71,1.21v-.71h.1a1.08,1.08,0,0,0,.91-.6c.2-.3.3-.91.4-3.83v-.6h3.42Zm-11.08,2.92c0-1.91-.91-2.22-1.61-2.22s-1.61.4-1.61,2.22.91,2.22,1.61,2.22S277.43,810.19,277.43,808.27Zm-1.61-3c1.51,0,2.62,1.11,2.62,3s-1.11,3-2.62,3-2.62-1.11-2.62-3S274.3,805.25,275.81,805.25Zm-11.48.1,1.21,2,1.31-2h.91L266,808l2,3.22h-1.11l-1.51-2.32-1.51,2.32H263l1.91-3-1.81-2.82h1.21Zm-11.58,0,1.81,4.43,1.71-4.43h1.21v5.84h-.91v-4.94c0,.1-.2.4-.4,1l-1.51,3.83h-.4l-1.61-3.83a10.45,10.45,0,0,1-.4-1v4.94h-.71v-5.84Zm-8.26,2.92c0-1.91-.91-2.22-1.61-2.22s-1.61.4-1.61,2.22.91,2.22,1.61,2.22S244.49,810.19,244.49,808.27Zm-1.61-3c1.51,0,2.62,1.11,2.62,3s-1.11,3-2.62,3-2.62-1.11-2.62-3A2.61,2.61,0,0,1,242.87,805.25Zm-12.29,3.63a1.59,1.59,0,0,0,.4,1.21,1.28,1.28,0,0,0,1.11.5,1.19,1.19,0,0,0,1.11-.71,3,3,0,0,0,.4-1.61,3.23,3.23,0,0,0-.3-1.61,1.26,1.26,0,0,0-1.11-.6,1.28,1.28,0,0,0-1.11.5,1.93,1.93,0,0,0-.5,1.21Zm-.91,4.23v-7.66h.81v1.11a1.93,1.93,0,0,1,1.71-1.21,2.19,2.19,0,0,1,1.61.71,3.72,3.72,0,0,1,.71,2.32,4.06,4.06,0,0,1-.6,2.22,2,2,0,0,1-1.71.91,1.63,1.63,0,0,1-1.61-1v2.82h-.91Zm-6.45-7.76v5.84h-.91v-5.14H219.6v5.14h-.91v-5.84h4.53Zm-11.48,2.92c0-1.91-.91-2.22-1.61-2.22s-1.61.4-1.61,2.22.91,2.22,1.61,2.22S211.75,810.19,211.75,808.27Zm-1.61-3c1.51,0,2.62,1.11,2.62,3s-1.11,3-2.62,3-2.62-1.11-2.62-3A2.61,2.61,0,0,1,210.14,805.25Zm-12.29,3.63a1.59,1.59,0,0,0,.4,1.21,1.28,1.28,0,0,0,1.11.5,1.19,1.19,0,0,0,1.11-.71,3,3,0,0,0,.4-1.61,3.23,3.23,0,0,0-.3-1.61,1.26,1.26,0,0,0-1.11-.6,1.28,1.28,0,0,0-1.11.5,1.93,1.93,0,0,0-.5,1.21Zm-.91,4.23v-7.66h.81v1.11a1.93,1.93,0,0,1,1.71-1.21,2.19,2.19,0,0,1,1.61.71,3.72,3.72,0,0,1,.71,2.32,4.06,4.06,0,0,1-.6,2.22,2,2,0,0,1-1.71.91,1.63,1.63,0,0,1-1.61-1v2.82h-.91Zm-5.64-7.76v.71h-2.72v5.14h-.91v-5.84Zm-11.58,2.92a3.91,3.91,0,0,0-1.81.3,1.08,1.08,0,0,0-.2,1.81,1.56,1.56,0,0,0,.81.2,2,2,0,0,0,1.41-.6,2.37,2.37,0,0,0,.5-1.31v-.4Zm-3.12-1.41c.3-1.21,1.21-1.61,2.52-1.61a3,3,0,0,1,1.71.4,2.44,2.44,0,0,1,.6,2v2.22a5.78,5.78,0,0,0,.1,1.21h-.91a4.52,4.52,0,0,1-.1-1.11,2.25,2.25,0,0,1-2,1.21,2.09,2.09,0,0,1-1.51-.5,1.37,1.37,0,0,1-.5-1.21,1.74,1.74,0,0,1,.81-1.51,4.22,4.22,0,0,1,2.52-.5h.81v-.2a1.82,1.82,0,0,0-.2-1,1.38,1.38,0,0,0-1.21-.4c-.5,0-1.51.1-1.61,1Zm137.3-24.48h3V797.9h-3Zm-1.51-3.12h2.22v2.42h-2.22Zm3.53,0h2.22v2.42h-2.22Z" transform="translate(-131.66 -778.76)"/></svg>