<?xml version="1.0" encoding="utf-8"?>
<!-- Generator: Adobe Illustrator 20.1.0, SVG Export Plug-In . SVG Version: 6.00 Build 0)  -->
<svg version="1.1" id="Слой_1" xmlns="http://www.w3.org/2000/svg" xmlns:xlink="http://www.w3.org/1999/xlink" x="0px" y="0px"
	 viewBox="0 0 2000 460" style="enable-background:new 0 0 2000 460;" xml:space="preserve">
<style type="text/css">
	.st0{fill:#003F86;}
</style>
<g transform="translate(0.000000,460.000000) scale(0.100000,-0.100000)">
	<path class="st0" d="M5675,4589c-95-14-233-56-325-100c-91-43-200-109-200-121c0-5,311-8,690-8c380,0,690,3,690,8
		c0,12-110,79-200,121C6127,4584,5890,4620,5675,4589z"/>
	<path class="st0" d="M4858,4057c-34-53-98-187-98-204c0-11,210-13,1080-13c857,0,1080,3,1080,13c0,18-45,112-88,184l-37,63h-955
		h-955L4858,4057z"/>
	<path class="st0" d="M4686,3543c-7-48-8-171,0-200l6-23h1148h1147l7,38c8,48,8,117,0,176l-7,46H5840H4693L4686,3543z"/>
	<path class="st0" d="M14420,3164c-477-43-815-126-1137-279c-463-221-721-485-848-868c-47-143-65-264-65-436c0-509,210-885,660-1181
		c384-252,880-363,1625-363c511,0,985,57,1498,179l147,36v669v669h-307c-285,1-512,9-676,26l-67,7v-167v-166l23,5
		c27,6,311,25,373,25h44V881V443l-97-37c-257-95-818-143-1177-101c-689,81-1149,385-1299,861c-77,242-87,564-26,804
		c79,311,355,605,725,772c251,114,724,182,1087,158c470-31,866-170,1174-411c56-44,63-47,72-31c15,27,181,434,181,443
		c0,11-129,62-258,103c-206,65-422,105-767,142C15163,3161,14533,3174,14420,3164z"/>
	<path class="st0" d="M16920,1590V80h1541h1540l-7,23c-5,12-7,102-6,200c1,135-1,177-11,177c-6,0-68-7-136-15
		c-203-24-550-34-1448-41l-851-7l-4,94c-2,52-1,313,0,580l4,487l166,6c227,10,2051,11,2079,2c22-7,22-7,17,96c-3,57-2,128,3,159
		l10,56l-1145-5l-1145-5l6,234c4,129,7,336,7,462v227h808c827,0,1196-9,1430-35c74-8,139-15,145-15c9,0,12,48,12,170v170h-1507
		h-1508V1590z"/>
	<path class="st0" d="M0,1542V28l1048,5c634,3,1096,9,1172,16c489,43,742,135,961,351c81,80,103,108,137,180c61,127,76,194,76,340
		c0,184-40,308-139,432c-119,151-301,242-605,303c-74,15-136,28-138,30c-1,1,26,12,60,25c235,85,449,238,549,392
		c105,163,116,385,28,560c-87,172-304,290-646,348c-190,33-440,40-1491,43L0,3055V1542z M2220,2719c164-20,305-89,362-179
		c98-154,68-344-76-485c-133-130-305-187-696-231c-104-11-282-17-622-21l-478-5v465v466l148,3C1167,2738,2139,2729,2220,2719z
		 M1770,1520c217-12,364-34,528-76c262-67,370-149,432-330c116-336-124-661-551-743c-157-31-382-42-951-48l-518-6v597v596l108,1
		c59,1,206,5,327,8C1490,1530,1593,1530,1770,1520z"/>
	<path class="st0" d="M4750,3055c0-16,48-121,82-182l42-73h962h963l20,28c23,33,95,176,105,210l7,22H5841
		C5241,3060,4750,3058,4750,3055z"/>
	<path class="st0" d="M3966,3020.8c-3-17.5-6-433.3-6-924.1c0-967,2-1005.9,56-1196.8c48-171.4,108-276.6,233-404.1
		c200-204.5,511-336,936-395.4C5307,82.9,5375,80,5707,80c337,0,395,1.9,500,19.5c232,39,423,92.5,604,169.4
		c373,159.7,658,508.3,708,865.7c7,49.7,11,397.3,11,997.2V3052l-57-7.8c-69-10.7-268-10.7-335-1l-48,6.8v-835.5
		c0-683.6-3-857.9-15-961.1c-32-268.8-102-417.8-271-583.3c-130-125.6-256-196.7-434-243.4c-196-50.6-346-58.4-625-59.4
		c-230,0-195,2.9-310,23.4c-176,30.2-354,81.8-438,125.6c-208,109.1-362,341.8-407,615.4c-9,51.6-14,350.6-17,997.2l-5,923.2
		l-97-7.8c-122-10.7-313-10.7-417-1l-81,8.8L3966,3020.8z"/>
	<path class="st0" d="M8220,1558V65h220h220l2,1102l3,1101l450-345c591-454,1464-1134,1998-1555l428-338h124h125v1505v1504h-220
		h-220l-2-1045l-3-1046l-630,488c-1038,803-1225,947-1580,1214c-187,141-389,288-448,328l-108,72h-180h-179V1558z"/>
	<path class="st0" d="M5120,2536c0-2,27-22,60-45c329-231,782-269,1147-96c80,38,233,131,233,141c0,2-324,4-720,4
		S5120,2538,5120,2536z"/>
</g>
</svg>
