<?xml version="1.0" encoding="utf-8"?>
<!-- Generator: Adobe Illustrator 20.1.0, SVG Export Plug-In . SVG Version: 6.00 Build 0)  -->
<svg version="1.1" id="Слой_1" xmlns="http://www.w3.org/2000/svg" xmlns:xlink="http://www.w3.org/1999/xlink" x="0px" y="0px"
	 viewBox="0 0 2000 341" style="enable-background:new 0 0 2000 341;" xml:space="preserve">
<style type="text/css">
	.st0{fill:#0069BE;}
</style>
<g transform="translate(0.000000,341.000000) scale(0.100000,-0.100000)">
	<path class="st0" d="M13815.7,3064.4c-207.3-46.9-306.4-140.6-349.7-332.2c-11.3-46.9-16.5-121.8-16.5-231.2v-160.4h-319.8h-319.8
		v-78.1v-78.1h87.7c48.5,0,87.7-3.1,87.7-6.2s-66-186.4-146.5-407.1l-147.5-400.9l-131,404c-72.2,222.8-132,406.1-132,408.2
		c0,1,44.4,2.1,98,2.1h98v78.1v78.1h-412.6H11799v-78.1v-78.1h85.6h86.6l254.8-717.4l254.8-717.4l-46.4-118.7
		c-77.4-203-118.6-270.7-178.5-295.7c-26.8-11.5-44.4-12.5-74.3-4.2c-79.4,21.9-132,116.6-154.7,281.1
		c-20.6,144.7-14.4,135.4-84.6,135.4c-50.5,0-60.9-3.1-60.9-17.7c0-10.4-7.2-101-15.5-201c-20.6-255.1-22.7-238.5,35.1-283.2
		c77.4-60.4,146.5-83.3,244.5-82.3c240.4,1,330.1,80.2,455.9,401.9c21.7,57.3,157.8,444.6,302.2,862.2l262,757h141.3h142.4V1565
		V945.4h-108.3h-109.3l3.1-69.8l3.1-70.8l457-3.1l455.9-2.1v72.9v72.9h-134.1h-134.1V1565v619.6h232.1h232.1v-488.4
		c0-486.3,0-489.4,25.8-599.8c52.6-222.8,146.5-304.1,379.6-328c178.5-17.7,238.3,3.1,401.3,143.7c60.9,53.1,113.5,95.8,116.6,95.8
		s5.2-46.9,5.2-104.1V799.6h273.4h273.4v72.9v72.9h-98h-98v697.7v697.7h-309.5h-309.5v-78.1v-78.1h98h99l-3.1-512.3l-3.1-513.4
		l-24.8-55.2c-67-149.9-254.8-209.3-343.5-109.3c-10.3,11.5-27.9,47.9-39.2,81.2c-19.6,58.3-20.6,86.4-20.6,662.3v602.9l-440.5,2.1
		l-441.5,3.1l-3.1,284.3l-2.1,284.3l24.8,25c20.6,20.8,36.1,26,77.4,26c81.5,0,90.8-16.7,183.6-328l18.6-62.5l59.8-3.1l58.8-3.1
		V2777v209.3l-61.9,31.2C14125.1,3077.9,13958,3095.6,13815.7,3064.4z"/>
	<path class="st0" d="M5222.9,3031.1c-92.8-48.9-138.2-127-139.3-236.4c0-188.5,151.6-295.7,338.3-240.5
		c108.3,33.3,167.1,117.7,167.1,240.5c-1,113.5-52.6,198.9-146.5,237.4C5391,3054,5264.1,3052.9,5222.9,3031.1z"/>
	<path class="st0" d="M17748.3,1868.9V749.5H18852h1103.8v1119.4v1119.4H18852h-1103.8V1868.9z M19522.5,2207.3
		c0-183.3-2.1-333.2-5.2-333.2c-3.1,0-154.7,98.9-336.3,218.7l-330.1,218.7l-330.1-218.7c-181.6-119.7-332.2-218.7-334.2-218.7
		c-3.1,0-5.2,149.9-5.2,333.2v333.2h670.5h670.5V2207.3z M18515.8,1639.8c178.5-122.9,329.1-223.9,335.3-223.9
		c6.2,0,157.8,101,335.3,223.9c178.5,122.9,327,223.9,330.1,223.9c3.1,0,6.2-154.1,6.2-343.6v-343.6H18852h-670.5v343.6
		c0,189.5,2.1,343.6,5.2,343.6S18337.3,1762.7,18515.8,1639.8z"/>
	<path class="st0" d="M60,2955.1v-83.3h118.6h118.6v-963.2V945.4H178.6H60v-72.9v-72.9h753h753v453v453h-59.8h-60.9l-6.2-102
		c-14.4-246.8-97-437.3-231.1-535.2c-72.2-53.1-285.7-122.9-377.5-122.9h-69.1v963.2v963.2h128.9h128.9v83.3v83.3H539.7H60V2955.1z"
		/>
	<path class="st0" d="M7157,2956.1v-84.3h123.8h123.8v-963.2V945.4h-123.8H7157v-73.9v-72.9l570.4,3.1
		c545.7,4.2,572.5,5.2,649.9,27.1c218.7,61.4,378.6,190.6,514.7,416.5c67.1,112.5,116.6,229.1,150.6,354
		c23.7,91.6,26.8,118.7,26.8,304.1c1,187.4-1,211.4-26.8,313.4c-54.7,219.7-143.4,383.2-291.9,539.4
		c-128.9,136.4-246.5,207.2-420.9,253c-80.5,21.9-111.4,22.9-628.2,26l-544.7,4.2V2956.1z M8212.3,2835.3
		c160.9-81.2,274.4-279.1,323.9-562.3c22.7-132.2,25.8-559.2,5.2-687.2c-52.6-318.6-165-534.2-319.8-610.2
		c-43.3-21.9-67.1-25-205.3-28.1l-157.8-4.2v965.3v965.3l147.5-4.2C8143.2,2866.6,8156.6,2864.5,8212.3,2835.3z"/>
	<path class="st0" d="M11020.2,2391.7c-81.5-12.5-197-70.8-266.1-134.3c-105.2-96.8-221.8-294.7-267.2-454c-34-116.6-33-337.4,0-455
		c97-342.6,306.4-550.8,597.3-591.4c69.1-9.4,95.9-7.3,234.2,17.7c188.8,33.3,234.2,54.1,331.1,154.1
		c78.4,79.1,143.4,190.6,174.3,296.8c26.8,93.7,26.8,94.8-48.5,94.8h-65l-50.5-106.2c-66-136.4-152.7-231.2-258.9-281.1
		c-64-31.2-80.5-34.4-164-34.4c-108.3,0-152.7,18.7-215.6,89.6c-80.5,89.5-124.8,233.2-136.2,450.9l-7.2,120.8l494.1,2.1l494.1,3.1
		l3.1,44.8c8.3,121.8-54.7,344.7-130,461.3c-64,97.9-163,191.6-256.9,241.6C11359.6,2377.2,11156.3,2412.6,11020.2,2391.7z
		 M11258.5,2237.6c98-44.8,157.8-168.7,184.6-381.1c8.3-67.7,15.5-130.2,15.5-137.4c0-10.4-57.8-13.5-278.5-13.5
		c-231.1,0-278.5,2.1-278.5,14.6c0,8.3,9.3,83.3,20.6,166.6c21.7,170.8,50.5,252,108.3,308.2
		C11092.4,2255.3,11182.1,2272,11258.5,2237.6z"/>
	<path class="st0" d="M2246.9,2377.2c-197-54.1-373.4-212.4-464.2-415.5c-54.7-122.9-67.1-192.6-67.1-391.5
		c0-203,15.5-281.1,78.4-409.2c141.3-284.3,374.5-429,658.1-409.2c188.8,13.5,311.5,69.8,439.4,198.9
		c168.1,170.8,235.2,346.7,235.2,619.6c0,218.7-38.2,361.3-136.2,510.2c-93.9,142.7-204.2,235.3-334.2,282.2
		C2571.8,2392.8,2334.6,2401.1,2246.9,2377.2z M2532.6,2243.9c71.2-37.5,134.1-174.9,156.8-345.7c29.9-214.5,23.7-531.1-14.4-714.3
		c-48.5-233.2-179.5-340.5-330.1-270.7c-116.6,54.1-171.2,197.8-192.9,511.3c-12.4,182.2-1,413.4,27.9,552.9
		c22.7,111.4,79.4,221.8,130,256.2C2377.9,2279.3,2458.3,2282.4,2532.6,2243.9z"/>
	<path class="st0" d="M6270.9,2376.1c-185.7-50-351.8-214.5-398.2-394.6c-40.2-156.2-3.1-256.2,143.4-381.1
		c55.7-47.9,121.7-86.4,279.5-164.5c229-114.5,306.4-167.6,336.3-233.2c34-77.1,26.8-117.7-35.1-198.9
		c-44.4-60.4-62.9-76-108.3-92.7c-53.6-20.8-54.7-20.8-162,1c-128.9,25-181.6,58.3-242.4,151c-40.2,60.4-83.6,178.1-98,265.5
		l-7.2,44.8l-52.6-3.1l-53.6-3.1l-3.1-274.9c-1-152,1-279.1,5.2-283.2c5.2-4.2,91.8-20.8,193.9-35.4
		c155.8-23.9,205.3-28.1,309.5-22.9c140.3,7.3,290.9,41.7,376.5,85.4c212.5,109.3,324.9,394.6,233.1,594.6
		c-24.8,53.1-106.2,133.3-205.3,202c-55.7,36.4-245.5,130.2-340.4,165.6c-164,61.4-235.2,138.5-233.1,253
		c1,68.7,16.5,114.5,53.6,153.1c40.2,43.7,88.7,57.3,182.6,50c178.5-11.5,270.3-97.9,341.4-316.5l34-107.3h54.7h54.7v255.1v255.1
		l-22.7,4.2c-57.8,12.5-433.2,47.9-503.4,46.9C6361.7,2391.7,6301.9,2384.4,6270.9,2376.1z"/>
	<path class="st0" d="M16332.6,2373c-147.5-42.7-285.7-149.9-338.3-262.4c-72.2-155.2-65-338.4,18.6-438.4
		c62.9-76,214.6-176,353.8-236.4c99-41.7,255.8-136.4,298.1-178.1c58.8-58.3,58.8-145.8,1-245.7c-29.9-52.1-43.3-65.6-95.9-90.6
		l-60.9-30.2l-98,17.7c-54.7,10.4-115.5,27.1-135.1,36.4c-100.1,51-190.8,209.3-220.8,388.4c-7.2,38.5-7.2,38.5-57.8,38.5h-51.6
		V1086c0-191.6,3.1-286.4,10.3-286.4c6.2,0,90.8-12.5,188.8-27.1c147.5-22.9,197-26,296.1-20.8c364.1,19.8,567.3,163.5,625.1,443.6
		c35.1,170.8-14.4,292.6-164,399.9c-72.2,52.1-245.5,141.6-395.1,204.1c-117.6,48.9-179.5,96.8-209.4,159.3
		c-49.5,104.1-6.2,244.7,88.7,284.3c44.4,18.7,141.3,18.7,206.3-1c110.4-33.3,216.6-146.8,245.5-264.5
		c9.3-37.5,20.6-86.4,26.8-107.3l10.3-39.6h60.9h61.9v255.1v255.1l-22.7,4.2c-57.8,12.5-433.2,47.9-503.4,46.9
		C16429.6,2391.7,16366.7,2383.4,16332.6,2373z"/>
	<path class="st0" d="M10181.5,2361.5c-119.7-29.2-276.5-154.1-347.6-277l-41.3-70.8l-3.1,163.5l-3.1,163.5h-299.1h-299.1l3.1-75
		l3.1-76l106.2-3.1l105.2-3.1V1565V946.4l-105.2-3.1l-106.2-3.1v-67.7v-67.7l446.7-3.1l445.6-2.1v72.9v72.9h-128.9h-128.9v295.7
		c0,591.4,67.1,823.7,247.6,854.9c100.1,16.7,177.4-73.9,201.2-236.4l7.2-50h50.5h50.5l-2.1,279.1l-3.1,278l-82.5,2.1
		C10252.7,2369.9,10200.1,2366.7,10181.5,2361.5z"/>
	<path class="st0" d="M3144.3,2262.6v-78.1h98h98v-474.8c0-472.7,0-474.8,26.8-590.4c33-145.8,47.5-176,112.4-242.6
		c67.1-67.7,137.2-95.8,279.5-109.3c173.3-15.6,223.8,2.1,387.9,140.6l116.6,98.9l5.2-101l5.2-101l730.3-3.1l729.3-2.1v72.9v72.9
		h-98h-98v697.7v697.7H5228h-309.5v-78.1v-78.1h98h98V1565V945.4h-242.4h-242.4v697.7v697.7h-309.5h-309.5v-78.1v-78.1h99h98
		l-3.1-501.9c-3.1-494.6-4.1-504-26.8-562.3c-29.9-76-54.7-106.2-113.5-140.6c-40.2-23.9-60.9-29.2-117.6-29.2
		c-92.8,0-118.6,19.8-154.7,120.8l-27.9,77.1v596.7l-1,595.6h-309.5h-309.5V2262.6z"/>
</g>
</svg>
