<?xml version="1.0" encoding="utf-8"?>
<!-- Generator: Adobe Illustrator 20.1.0, SVG Export Plug-In . SVG Version: 6.00 Build 0)  -->
<svg version="1.1" id="Слой_1" xmlns="http://www.w3.org/2000/svg" xmlns:xlink="http://www.w3.org/1999/xlink" x="0px" y="0px"
	 viewBox="0 0 1456 800" style="enable-background:new 0 0 1456 800;" xml:space="preserve">
<style type="text/css">
	.st0{fill:#008C9C;stroke:#E5E5E5;stroke-width:3;stroke-miterlimit:10;}
	.st1{fill:#008C9C;stroke:#E0E0E0;stroke-width:3;stroke-miterlimit:10;}
	.st2{fill:#7B7B7B;}
	.st3{fill:#00ADBD;stroke:#E0E0E0;stroke-width:3;stroke-miterlimit:10;}
</style>
<g transform="translate(0.000000,800.000000) scale(0.100000,-0.100000)">
	<path class="st0" d="M770,5088V3335l437,445c240,245,568,578,727,741c160,163,296,297,302,297c6,1,287-329,624-734s619-738,626-741
		c7-2,55,14,106,37c461,207,767,601,873,1122c14,69,30,186,36,258c32,404-95,939-303,1269c-220,351-574,608-1028,744
		c-241,73-127,67-1324,67H770V5088z"/>
	<path class="st1" d="M5897,6717c17-29,2535-3067,2541-3066c6,0,2574,2977,2631,3049l24,30h-530h-530l-798-901
		c-760-857-799-899-815-882c-10,10-362,408-783,884l-765,866l-168,6c-93,4-288,9-434,12s-291,8-323,11
		C5899,6730,5890,6729,5897,6717z"/>
	<path class="st2" d="M3530,2677l-35-12l-3-801c-2-736-1-803,14-815c24-20,244-20,267,0c16,12,17,81,17,805c0,435-4,797-8,804
		C3762,2689,3601,2701,3530,2677z"/>
	<path class="st2" d="M9510,2677l-35-12l-3-801c-2-736-1-803,14-815c24-20,244-20,267,0c16,12,17,81,17,805c0,435-4,797-8,804
		C9742,2689,9581,2701,9510,2677z"/>
	<path class="st2" d="M8940,2644c-71-26-90-60-90-156c0-112,42-148,172-148c119,0,168,44,168,153c0,117-32,149-155,154
		C8991,2648,8948,2647,8940,2644z"/>
	<path class="st2" d="M6590,2577c-21-11-25-20-23-53c1-32,348-1394,368-1445c14-36,53-44,210-44c181,0,199,6,219,74
		c7,25,62,251,121,501s111,459,115,463c4,5,62-214,130-485c67-271,129-503,136-515c22-35,84-46,229-41c131,4,166,13,184,46
		c11,21,368,1382,377,1438c9,61-14,74-132,74c-94,0-149-12-157-34c-3-7-64-273-136-592c-73-318-135-587-139-597
		c-5-12-57,184-146,545c-176,716-158,655-205,669c-23,7-83,10-151,7c-99-3-114-6-129-24c-10-13-72-254-155-605
		c-76-321-141-587-145-591c-4-5-69,263-144,594c-76,331-142,607-148,613C6853,2591,6620,2593,6590,2577z"/>
	<path class="st2" d="M793,2570c-12-5-26-18-32-29c-8-13-11-248-11-734c0-689,1-716,19-738l19-24l314,1c305,1,316,1,410,27
		c258,69,412,222,479,473c26,99,37,343,20,454c-50,321-249,515-581,565C1323,2582,831,2585,793,2570z M1361,2326
		c211-45,320-195,336-461c10-186-33-346-119-441c-90-98-196-134-400-134h-118v525v525h118C1242,2340,1325,2333,1361,2326z"/>
	<path class="st2" d="M4185,2463c-42-11-45-21-45-154v-129h-67c-38,0-75-5-83-10c-23-14-28-172-6-205c15-23,23-25,86-25h70v-309
		c0-169,4-333,10-362c22-120,96-212,193-241c23-7,89-13,147-13c117,0,191,20,212,58c18,33,16,184-3,202c-14,14-20,14-58,0
		c-91-32-158-12-185,55c-13,34-16,86-16,325v285h125c148,0,149,1,149,120s-1,120-149,120h-125v131v130l-35,15
		C4372,2469,4231,2474,4185,2463z"/>
	<path class="st2" d="M2625,2200c-265-55-415-272-415-604c0-312,111-488,355-562c92-28,329-26,450,4c115,29,168,58,176,97
		c11,48,10,122-1,150c-12,32-19,32-155-9c-172-51-333-45-426,16c-42,28-85,113-94,186l-7,52h341h340l28,24c28,24,28,25,27,138
		c-1,126-20,214-62,292c-59,108-177,192-306,215C2808,2212,2684,2212,2625,2200z M2812,1990c79-22,131-99,144-214l7-56h-227
		c-136,0-226,4-226,10c0,27,25,120,40,150C2600,1977,2703,2020,2812,1990z"/>
	<path class="st2" d="M5211,2199c-142-25-274-90-298-147c-28-67-1-182,43-182c6,0,50,18,96,40c113,54,195,73,284,68
		c126-8,171-54,181-181l6-74l-154-6c-363-13-524-124-523-362c1-161,69-260,215-317c152-58,342-24,464,84l35,30v-41
		c0-65,23-81,119-81c44,0,91,4,105,10l26,10v408c0,235-4,432-10,463c-25,132-102,220-228,260C5495,2205,5299,2215,5211,2199z
		 M5520,1436v-94l-47-41c-89-76-168-97-249-66c-58,22-84,62-84,128c0,118,78,164,283,166l97,1V1436z"/>
	<path class="st2" d="M10560,2192c-68-23-129-61-191-118l-47-45l-4,66c-2,36-10,71-16,77c-19,19-203,18-225-1c-15-12-17-63-17-561
		c0-497,2-549,17-561c11-10,49-14,133-14s122,4,133,14c15,12,17,51,17,378v364l56,59c108,113,194,129,277,52c52-49,57-90,57-484
		v-359l37-16c47-19,221-15,247,6c14,12,16,54,16,378v364l68,68c75,74,120,97,182,88c51-7,87-32,113-81c21-40,22-54,27-424
		c5-420,1-395,68-408c51-10,198,1,216,15c14,12,16,62,16,415c0,437-5,482-57,578c-33,61-80,103-153,137c-48,22-69,26-155,26
		c-96,0-104-2-176-37c-41-20-102-62-135-92l-61-55l-31,48c-57,88-144,132-272,137C10636,2209,10601,2206,10560,2192z"/>
	<path class="st2" d="M12341,2199c-142-25-274-90-298-147c-28-67-1-182,43-182c6,0,50,18,96,40c113,54,195,73,284,68
		c126-8,171-54,181-181l6-74l-154-6c-363-13-524-124-523-362c1-161,69-260,215-317c152-58,342-24,464,84l35,30v-41
		c0-65,23-81,119-81c44,0,91,4,105,10l26,10v408c0,235-4,432-10,463c-25,132-102,220-228,260C12625,2205,12429,2215,12341,2199z
		 M12650,1436v-94l-47-41c-89-76-168-97-249-66c-58,22-84,62-84,128c0,118,78,164,283,166l97,1V1436z"/>
	<path class="st2" d="M13695,2191c-51-23-98-63-145-123l-38-47l-4,69c-2,38-9,75-16,82c-19,19-203,18-225-1c-15-12-17-63-17-561
		c0-497,2-549,17-561c11-10,49-14,133-14s122,4,133,14c15,12,17,50,17,356v343l46,62c80,106,146,135,244,106c77-23,84-14,88,117
		c5,130-3,151-62,166C13802,2215,13741,2212,13695,2191z"/>
	<path class="st2" d="M8910,2178l-35-13l-3-551c-2-504-1-553,14-565c24-20,244-20,267,0c15,12,17,64,17,562v548l-22,13
		C9116,2189,8953,2193,8910,2178z"/>
</g>
<path class="st3" d="M389.7,128.3c1.7,2.9,253.5,306.7,254.1,306.6c0.6,0,257.4-297.7,263.1-304.9l2.4-3h-53h-53l-79.8,90.1
	c-76,85.7-79.9,89.9-81.5,88.2c-1-1-36.2-40.8-78.3-88.4l-76.5-86.6l-16.8-0.6c-9.3-0.4-28.8-0.9-43.4-1.2
	c-14.6-0.3-29.1-0.8-32.3-1.1C389.9,127,389,127.1,389.7,128.3z"/>
</svg>
