<?xml version="1.0" encoding="utf-8"?>
<!-- Generator: Adobe Illustrator 20.1.0, SVG Export Plug-In . SVG Version: 6.00 Build 0)  -->
<svg version="1.1" id="Слой_1" xmlns="http://www.w3.org/2000/svg" xmlns:xlink="http://www.w3.org/1999/xlink" x="0px" y="0px"
	 viewBox="0 0 520 234" style="enable-background:new 0 0 520 234;" xml:space="preserve">
<g transform="translate(0.000000,234.000000) scale(0.100000,-0.100000)">
	<path d="M2160,1623c-348-58-504-456-290-739c120-159,391-221,576-131l44,21v93v93l-62-34c-110-60-215-67-321-23
		c-166,70-206,345-70,480c52,53,97,71,186,75c91,5,148-9,213-49c24-16,47-29,49-29c3,0,5,42,5,94v94l-50,21
		C2357,1625,2248,1638,2160,1623z"/>
	<path d="M710,1585v-25h360h360v25v25h-360H710V1585z"/>
	<path d="M2870,1535v-75h105h105l2-362l3-363l88-3l87-3v366v365h105h105v75v75h-300h-300V1535z"/>
	<path d="M3910,1586v-26h139c163,0,231-11,284-46c86-57,103-204,33-283c-46-52-86-61-278-61h-178V955V740h90h90v159v158l93,5
		c105,6,172,29,225,81c58,55,76,101,76,192s-18,137-76,192c-68,66-112,77-315,81l-183,4V1586z"/>
	<path d="M710,1210v-50h360h360v50v50h-360H710V1210z"/>
	<path d="M710,815v-75h360h360v75v75h-360H710V815z"/>
</g>
</svg>
