<?xml version="1.0" encoding="utf-8"?>
<!-- Generator: Adobe Illustrator 20.1.0, SVG Export Plug-In . SVG Version: 6.00 Build 0)  -->
<svg version="1.1" id="Слой_1" xmlns="http://www.w3.org/2000/svg" xmlns:xlink="http://www.w3.org/1999/xlink" x="0px" y="0px"
	 viewBox="0 0 828 492" style="enable-background:new 0 0 828 492;" xml:space="preserve">
<style type="text/css">
	.st0{display:none;fill:#FFD800;}
	.st1{fill:#FFD800;}
	.st2{fill:#BFC63E;}
	.st3{fill:#BFC739;}
	.st4{fill:#C0C739;}
	.st5{fill:#006229;}
</style>
<path class="st0" d="M401.5,188.6c-10.9,1.7-22.7,7.1-29.4,13.5l-4.1,4V217v11h-17.5H333v55v55h-9.5H314v-30.9v-30.9l-23,15.6
	l-23,15.6v25.8V359h88.4h88.5l-2.5,4.4c-6.7,12-9,28.4-6,42.6c6.6,31,36.7,48.5,71.4,41.4c21.1-4.3,36.9-19.3,41.7-39.6
	c3.2-13.4,1.3-31.5-4.2-42.1c-1.6-2.8-2.9-5.5-3.1-6c-0.2-0.4,7.1-0.7,16.2-0.7H575l-0.2-36.7l-0.3-36.7l-17.7-6.5l-17.8-6.4v-12.4
	V248h-12h-12v14c0,9.3-0.4,14-1.1,14c-0.6,0-15.4-6.2-33-13.7L449,248.7v-21.8v-21.7l-3.9-3.5c-5.1-4.6-11.3-8.1-18.6-10.5
	C420.5,189.2,407.1,187.8,401.5,188.6z"/>
<path class="st1" d="M537.2,262.1l0.3,12.1l6,2.2c3.3,1.3,11.3,4.2,17.8,6.5l11.7,4.3v34.9V357h-16.1h-16.1l-6.4-5.9
	c-3.5-3.2-9.1-7.2-12.4-8.7l-6-2.9V317v-22.5l-28.2-10.9c-15.6-6-30.7-12-33.5-13.2l-5.3-2.3v-8.7c0-6.5,0.3-8.5,1.3-8.1
	c0.6,0.3,15.5,6.6,32.9,14.1s31.9,13.6,32.2,13.6s0.6-6.2,0.6-13.8c0-7.6,0.3-14.2,0.7-14.5c0.3-0.4,5-0.7,10.4-0.7h9.8L537.2,262.1
	z"/>
<path class="st1" d="M424.1,192.7c6.8,2.1,14.5,6.2,18.9,10.3l4,3.5v68.4v68.4h-35.5H376v-57.5v-57.5h-3h-3v-10.6v-10.6l3.3-3.1
	c7-6.6,15.7-10.8,26.5-12.7C405.8,190.2,418.1,190.9,424.1,192.7z"/>
<path class="st1" d="M374.5,287.5V345H412h37.5v-17v-17h24h24v12.5V336h-6h-6v-6v-6h-11h-11v9.5v9.4l-4.2,3c-2.4,1.6-6.1,4.8-8.3,7
	l-3.9,4.1h-88.3h-88.3v-24.3v-24.2l19.5-13.3c10.7-7.3,20.2-13.5,21-13.8c1.3-0.5,1.5,3,1.5,29V340H324h11.5v-55v-55H355h19.5V287.5
	z"/>
<path class="st2" d="M256.3,72.1c-1,2.9-2.5,17.2-2.5,23.7c0,9.4,1.5,21.6,4.2,33.3l2.1,9.6l12,8.5c14,10,32.9,27.9,42.7,40.4
	c3.9,4.8,7.5,8.8,8.3,8.8c2.1,0.1,11-5.2,11-6.5c0-0.7-1.4-4.6-3.1-8.8c-8.4-21.1-13.6-42.9-15.3-65.4l-0.7-8.6l-6.5-6
	C295,89.1,280.5,79.5,267.2,74C259.3,70.6,257,70.2,256.3,72.1z"/>
<path class="st1" d="M331.5,43.6c-11.3,27.3-13.2,64.5-5.1,100.8c3.3,14.4,12.5,40.8,14.3,40.8c0.3,0,4.2-1.5,8.7-3.4
	c15.9-6.5,28.4-10,45.2-12.4l11.3-1.7l-0.2-8.3c-0.2-10.5-6.1-34.1-12.6-50.2c-11.7-29.2-28.7-52.9-49-68.6
	C336.3,34.6,335.2,34.9,331.5,43.6z"/>
<path class="st1" d="M652.8,119.7c-35.9,5.3-65.7,20.7-95.6,49.6c-9.3,8.9-24.3,27-24.3,29.3c0,0.7,3.6,4,8.1,7.6
	c10.3,8.1,23.8,21.8,32.3,32.7c3.6,4.8,6.8,8.7,7.1,8.7c0.4,0,3.7-2.4,7.5-5.3c32.5-25,59-61.4,67.2-96.9c3.2-14,7-23,5.3-24.1
	c-0.8-0.5-4.5-2-4.8-1.9C655.5,119.3,654.2,119.5,652.8,119.7z"/>
<path class="st3" d="M174,190c5.2,0.5,13.9,2,19.3,3.2l9.9,2.2l3.2,5c10.7,16.6,31,38.7,46.4,50.6c4.5,3.5,8.2,6.5,8.2,6.8
	c0,0.3-1.2,2.5-2.6,5c-1.8,3.1-3.1,4.2-4.2,3.9c-1-0.3-5.8-2.2-10.8-4.1c-18.7-7.3-38.2-11.8-57.9-13.6l-12-1.1l-7.9-8.2
	c-11.4-12-22.1-28.6-27.5-42.7c-2.2-5.9-2.5-5.6,7.4-6.9C155.2,188.9,162.9,188.9,174,190z"/>
<path class="st1" d="M197.6,259.4c13.6,2.5,30.8,7.3,42.1,11.7l10.2,4l-4.4,10.7c-5.3,13-10,31.1-11.7,44.6l-1.3,10.1l-3.9-0.3
	c-16.5-1.3-47.8-10.4-66.6-19.5c-22.1-10.6-44.5-28.1-56.5-44.1l-4.6-6.1l6.1-2.8c8.1-3.6,21.4-7.4,32.6-9.2
	C151.5,256.6,184.9,257.1,197.6,259.4z"/>
<path class="st3" d="M157.5,330.2c15.2,8,44.3,17.2,63,19.9c12.9,1.8,12.5,1.7,12.5,5v3l-57.7-0.2l-57.6-0.3l-2.3-6
	c-1.3-3.3-2.3-6.7-2.3-7.6c-0.1-2.1,11.7-7.9,26.4-12.8c6.6-2.3,12.2-4,12.5-3.8C152.3,327.5,154.8,328.8,157.5,330.2z"/>
<path class="st1" d="M202.1,123.3c31.4,6,65,25.6,92.3,53.8c8.2,8.6,20,23,19.2,23.7c-0.2,0.2-4.9,4-10.6,8.5
	c-11.2,9-23.1,21.3-31.5,32.2l-5.5,7.3l-4-3c-30.8-22.7-57.2-58.1-68.4-92c-3.1-9.3-6.5-25.2-6.5-30.2
	C187,121.2,190.7,121.1,202.1,123.3z"/>
<path class="st3" d="M434.4,40c6.6,9.6,11,19,15.6,32.6l4,12.1l-2.4,4.4c-7.8,13.9-16.8,41.9-20.1,61.9c-0.9,5.8-1.9,11.5-2.1,12.7
	c-0.4,2.1-1,2.3-7.9,2.3c-4.2,0-7.5-0.4-7.5-1c0-0.5-0.7-6-1.6-12.2c-2.4-18-8-38.4-14.4-53.8c-7-16.5-6.7-14.6-3.6-24.4
	c4-12.3,12.4-28.9,19.5-38.3c7.9-10.8,8.7-11.2,12.9-6.5C428.5,31.8,432,36.4,434.4,40z"/>
<path class="st1" d="M518.5,54.7c4.3,15,5.8,28.9,5.2,49c-0.7,25-5.1,46.8-13.8,69.1l-4,10.2l-10.7-4.4c-13-5.3-31.1-10-44.6-11.7
	l-10.1-1.3l0.3-3.9c1.3-16.5,10.4-47.8,19.5-66.6c10.6-22.1,28.1-44.5,44.1-56.5l6.1-4.6l2.8,6.1C514.8,43.5,517.1,50,518.5,54.7z"
	/>
<path class="st4" d="M591.1,81.6c1.4,13.1,0.2,30-3.3,45.2l-2.2,9.4l-5,3.2c-16.6,10.7-38.7,31-50.6,46.3c-3.5,4.6-6.5,8.3-6.8,8.3
	s-2.5-1.2-5-2.6c-3.1-1.8-4.2-3.1-3.9-4.2c0.3-1,2.2-5.8,4.1-10.8c7.3-18.7,11.8-38.1,13.6-57.9l1.1-12l7.6-7.4
	c11.9-11.4,26.8-21.3,41.2-27.2c3.6-1.5,6.9-2.4,7.3-2C589.6,70.2,590.4,75.5,591.1,81.6z"/>
<path class="st3" d="M667.5,187.4c-4.9,0.7-12.5,2.1-16.8,3.1l-7.7,1.9l-8.7,12c-10.2,14.1-28.4,33.2-41.2,43.1
	c-4.9,3.8-9,7.6-9,8.4c-0.1,2.1,5.3,11.1,6.6,11.1c0.7,0,4.7-1.4,9-3.1c21.5-8.5,43.7-13.7,66.6-15.5l8.8-0.7l6.1-6.6
	c8.3-9,13.8-16.4,19.7-26c5.6-9.3,11.4-22.4,10.9-24.9C711.1,186.6,685.5,185,667.5,187.4z"/>
<path class="st1" d="M708.7,257.5c17.8,3.1,37.1,10,35.5,12.7c-7.2,12.2-27,30.3-45.1,41.2c-21.6,13-54.3,24.1-79.4,27.1l-5.7,0.7
	l-1.1-8.8c-1.8-13-6.5-31.4-11.2-43.4c-2.2-5.8-4.3-11.2-4.5-12c-0.4-1.1,1.9-2.5,9.2-5.3c17.4-6.8,36.8-11.4,56.9-13.7
	C673.9,254.8,698.2,255.6,708.7,257.5z"/>
<path class="st3" d="M688.7,327.3c-19.8,9.1-44,15.7-64.8,17.8c-10,1-9.8,0.9-9.8,6.9v5.2h27.8c25.8,0,28.1,0.1,31.6,1.9
	c2.2,1.1,5.1,1.9,6.7,1.9c1.5,0,4.4-0.9,6.6-1.9c3.6-1.8,5.8-1.9,36.3-1.9c28.2,0,32.4-0.2,32.4-1.5c0-2.3-18.3-15.1-29.4-20.5
	c-10.7-5.1-26.4-11-29.2-10.8C695.9,324.3,692.2,325.7,688.7,327.3z"/>
<g transform="translate(0.000000,492.000000) scale(0.100000,-0.100000)">
	<path class="st5" d="M4140,4587c-82-109-164-267-211-406l-33-99l37-83c98-224,150-409,177-624c18-150,7-136,108-133l87,3l8,55
		c34,234,94,448,185,649l55,123l-13,52c-42,163-138,357-238,481C4228,4697,4222,4696,4140,4587z M4344,4520c66-96,110-190,156-326
		l40-121l-24-44c-78-139-168-419-201-619c-9-58-19-115-21-127c-4-21-10-23-79-23c-42,0-75,4-75,10c0,5-7,60-16,122
		c-24,180-80,384-144,538c-70,165-67,146-36,244c40,123,124,289,195,383c79,108,87,112,129,65C4285,4602,4320,4556,4344,4520z"/>
	<path class="st5" d="M5025,4544c-295-230-526-648-610-1102c-28-151-30-181-12-187c6-2,59-11,116-20c147-21,288-59,419-111
		c63-25,119-43,125-41c16,6,82,178,118,307c110,399,102,802-25,1115c-23,58-37,81-51,83C5093,4589,5059,4570,5025,4544z M5185,4375
		c43-150,58-289,52-490c-7-250-51-468-138-691l-40-102l-107,44c-130,53-311,100-446,117l-101,13l3,39c13,165,104,478,195,666
		c106,221,281,445,441,565l61,46l28-61C5148,4487,5171,4422,5185,4375z"/>
	<path class="st5" d="M3311,4497c-115-277-134-654-52-1023c33-146,127-414,145-414c3,0,43,15,88,34c161,66,288,101,458,126l115,17
		l-2,84c-2,107-62,346-128,509c-119,296-291,537-497,696C3359,4588,3348,4585,3311,4497z M3440,4504c113-86,252-248,344-401
		c130-216,241-543,271-794l7-57l-88-11c-130-18-314-65-434-112c-58-22-112-43-120-45c-11-4-24,17-49,81c-158,404-191,833-91,1193
		c29,106,76,205,92,196C3379,4550,3410,4528,3440,4504z"/>
	<path class="st5" d="M5800,4212c-133-57-281-155-415-276c-75-67-75-67-75-119c-1-177-62-455-152-684c-21-57-37-106-35-110
		c3-5,30-21,61-38l56-30l17,24c46,66,170,206,259,291c95,92,283,241,330,262c19,9,27,28,44,99c34,146,43,243,37,409
		c-3,85-9,165-12,178C5905,4247,5880,4246,5800,4212z M5911,4104c14-131,2-300-33-452l-22-94l-50-32c-166-107-387-310-506-463
		c-35-46-65-83-68-83s-25,12-50,26c-31,18-42,31-39,42c3,10,22,58,41,108c73,187,118,381,136,579l11,120l76,74
		c119,114,268,213,412,272c36,15,69,24,73,20C5896,4218,5904,4165,5911,4104z"/>
	<path class="st5" d="M2555,4218c-10-30-25-175-25-241c0-96,15-220,42-339l21-98l121-87c141-102,332-284,431-412c39-49,76-90,84-90
		c21-1,111,53,111,66c0,7-14,47-31,90c-85,215-137,437-155,666l-7,88l-66,61c-135,123-281,221-416,277
		C2585,4233,2562,4237,2555,4218z M2726,4150c123-62,222-131,338-235l67-61l10-109c18-211,72-443,143-620c20-49,36-94,36-101
		s-20-24-45-37l-45-25l-67,86c-123,158-328,348-489,454l-63,42l-20,85c-33,143-44,256-38,401c7,153,12,180,37,180
		C2599,4210,2660,4183,2726,4150z"/>
	<path class="st5" d="M6550,3734c-368-53-674-209-981-502c-95-90-249-273-249-296c0-7,37-41,83-77c106-82,244-221,331-331
		c37-49,70-88,73-88c4,0,38,24,77,54c334,253,606,651,691,1010c33,142,41,216,24,227c-8,5-16,8-19,7C6577,3738,6564,3736,6550,3734z
		 M6590,3686c0-19-7-71-16-116c-59-312-254-647-533-918c-85-82-228-199-235-191c-2,2-40,49-84,105c-89,111-211,230-319,313l-72,55
		l30,40c131,179,339,373,534,499c167,107,393,201,561,231C6583,3727,6590,3726,6590,3686z"/>
	<path class="st5" d="M1859,3709c-4-34,4-110,17-174c73-359,332-757,666-1026c54-43,105-79,112-79s41,37,77,83
		c82,106,221,244,332,331c48,37,87,70,87,73c0,4-24,38-54,77c-205,271-523,514-830,636C2115,3689,1862,3738,1859,3709z M2020,3684
		c312-59,647-254,918-533c82-85,199-228,191-235c-2-2-49-40-105-84c-111-89-230-211-313-319l-55-72l-40,30c-306,225-569,576-681,911
		c-31,92-65,250-65,299C1870,3705,1907,3706,2020,3684z"/>
	<path class="st5" d="M6675,3046c-49-7-125-21-168-31l-77-19l-87-120c-102-141-284-332-412-431c-49-38-90-76-90-84
		c-1-21,53-111,66-111c7,0,47,14,90,31c215,85,437,137,666,155l88,7l61,66c83,90,138,164,197,260c56,93,114,224,109,249
		C7111,3054,6855,3070,6675,3046z M7078,3025c12-4,22-15,22-25c0-9-27-70-60-136c-62-123-131-222-235-338l-61-67l-109-10
		c-211-18-443-72-620-143c-49-20-94-36-101-36s-24,20-37,45l-25,45l86,67c158,123,348,328,454,489c41,62,42,63,111,80
		c142,34,229,43,392,39C6983,3033,7065,3028,7078,3025z"/>
	<path class="st5" d="M1440,3035c-8-2-32-7-54-10c-38-6-38-7-32-43c15-95,162-334,299-486c68-76,68-76,120-76c177-1,455-62,684-152
		c57-21,106-37,110-35c5,3,21,30,38,61l30,56l-24,17c-66,46-206,170-291,259c-92,95-241,283-262,330c-9,18-28,27-97,43
		c-136,32-216,41-366,40C1518,3038,1448,3036,1440,3035z M1740,3020c52-5,139-20,193-32l99-22l32-50c107-166,310-387,464-506
		c45-35,82-65,82-68s-12-25-26-50c-18-31-31-42-42-39c-10,3-58,22-108,41c-187,73-382,118-579,136l-120,11l-79,82
		c-114,120-221,286-275,427c-22,59-25,56,74,69C1552,3031,1629,3031,1740,3020z"/>
	<path class="st5" d="M4015,3034c-109-17-227-71-294-135l-41-40v-109v-110h-175h-175v-550v-550h-95h-95v309v309l-230-156l-230-156
		v-258v-258h884h885l-25-44c-67-120-90-284-60-426c66-310,367-485,714-414c211,43,369,193,417,396c32,134,13,315-42,421
		c-16,28-29,55-31,60c-2,4,71,7,162,7h166l-2,367l-3,367l-177,65l-178,64v124v123h-120h-120v-140c0-93-4-140-11-140
		c-6,0-154,62-330,137l-319,136v218v217l-39,35c-51,46-113,81-186,105C4205,3028,4071,3042,4015,3034z M4241,2996
		c68-21,145-62,189-103l40-35v-684v-684h-355h-355v575v575h-30h-30v106v106l33,31c70,66,157,108,265,127
		C4058,3021,4181,3014,4241,2996z M3740,2045v-575h375h375v170v170h240h240v-125v-125h-60h-60v60v60h-110h-110v-95v-94l-42-30
		c-24-16-61-48-83-70l-39-41h-883h-883v243v242l195,133c107,73,202,135,210,138c13,5,15-30,15-290v-296h115h115v550v550h195h195
		V2045z M5372,2299l3-121l60-22c33-13,113-42,178-65l117-43v-349v-349h-161h-161l-64,59c-35,32-91,72-124,87l-60,29v225v225
		l-282,109c-156,60-307,120-335,132l-53,23v87c0,65,3,85,13,81c6-3,155-66,329-141s319-136,322-136s6,62,6,138s3,142,7,145
		c3,4,50,7,104,7h98L5372,2299z M4828,2085l312-120v-218c0-203-1-218-17-213s-120,26-129,26c-2,0-4,61-4,135v135h-250h-250v191
		c0,156,2,190,14,187C4511,2206,4657,2151,4828,2085z M4830,1606v-54l-37-7c-21-4-62-15-90-25l-53-18v79v79h90h90V1606z M5077,1347
		c201-135,181-614-30-723c-43-23-137-29-194-13c-66,18-142,94-174,174c-21,53-24,76-24,200c0,109,4,151,18,191c22,63,73,136,118,170
		c33,24,34,24,37,5s10-21,83-21c78,0,79,0,79,26c0,24,3,25,28,19C5033,1372,5060,1359,5077,1347z"/>
	<path class="st5" d="M4190,2862c0-5,9-17,20-27c20-18,20-31,20-637c0-410,3-617,10-613c6,3,10,17,10,31c0,22,4,24,50,24
		c49,0,50-1,50-30c0-16,5-30,10-30c7,0,10,216,10,628c0,597-1,630-18,645c-29,27-49,21-24-6c12-13,22-33,22-45c0-20-5-22-50-22
		c-46,0-50,2-50,23c0,13-10,33-23,45C4203,2871,4190,2876,4190,2862z"/>
	<path class="st5" d="M3430,2445v-95h40h40v95v95h-40h-40V2445z"/>
	<path class="st5" d="M3580,2445v-95h40h40v95v95h-40h-40V2445z"/>
	<path class="st5" d="M3430,2055v-95h40h40v95v95h-40h-40V2055z"/>
	<path class="st5" d="M3580,2055v-95h40h40v95v95h-40h-40V2055z"/>
	<path class="st5" d="M2790,1645v-95h40h40v95v95h-40h-40V1645z"/>
	<path class="st5" d="M2940,1645v-95h45h45v95v95h-45h-45V1645z"/>
	<path class="st5" d="M3430,1645v-95h40h40v95v95h-40h-40V1645z"/>
	<path class="st5" d="M3580,1645v-95h40h40v95v95h-40h-40V1645z"/>
	<path class="st5" d="M5260,1645v-95h40h40v95v95h-40h-40V1645z"/>
	<path class="st5" d="M5410,1645v-95h45h45v95v95h-45h-45V1645z"/>
	<path class="st5" d="M5560,1645v-95h40h40v95v95h-40h-40V1645z"/>
	<path class="st5" d="M6550,2365c-112-16-225-41-330-72c-99-30-258-91-265-103c-3-5,10-46,29-92c66-161,101-288,126-458l17-115l84,2
		c61,1,126,12,239,41c302,78,555,202,762,374c119,99,248,248,248,286c0,37-197,106-390,137C6955,2383,6674,2383,6550,2365z
		 M7089,2345c178-31,371-100,355-127c-72-122-270-303-451-412c-216-130-543-241-794-271l-57-7l-11,88c-18,130-65,314-112,434
		c-22,58-43,112-45,120c-4,11,19,25,92,53c174,68,368,114,569,137C6741,2372,6984,2364,7089,2345z"/>
	<path class="st5" d="M1428,2355c-174-25-413-99-426-133c-11-29,96-163,213-264c252-220,598-377,967-439c89-15,141-20,147-14
		c5,6,16,60,25,120c22,151,59,289,112,423c25,63,43,119,41,125c-6,16-178,82-307,118C1953,2359,1639,2386,1428,2355z M1975,2326
		c136-25,308-73,421-117l102-40l-44-107c-53-130-100-311-117-446l-13-101l-39,3c-165,13-478,104-666,195c-221,106-445,281-565,441
		l-46,61l61,28c81,36,214,74,326,92C1514,2354,1848,2349,1975,2326z"/>
	<path class="st5" d="M6890,1659c-202-94-448-162-660-184c-102-10-100-9-100-71v-54h283c263,0,286-1,322-20c22-11,52-20,68-20
		c15,0,45,9,67,20c37,19,59,20,370,20c287,0,330,2,330,15c0,24-186,156-300,212c-109,53-269,114-298,112
		C6963,1689,6926,1675,6890,1659z M7068,1645c117-39,289-127,379-193c44-33,84-65,87-71c5-8-82-11-302-11h-310l14,39
		c14,42,8,84-20,126c-18,27-74,55-113,56c-28,0-28,0,7,14c19,7,60,25,90,39C6968,1676,6974,1676,7068,1645z M6696,1540
		c-31-37-42-89-27-131c6-18,11-34,11-35c0-2-119-4-265-4h-265v40c0,22,4,40,10,40c78,0,373,60,510,104c25,8,47,15,48,15
		C6720,1570,6710,1556,6696,1540z"/>
	<path class="st5" d="M1430,1640c-111-36-220-80-259-105c-47-29-61-31-61-10c0,13-55,15-435,15H240v-75v-75h45c32,0,51-6,65-20
		c19-19,20-33,20-375s-1-356-20-375c-14-14-33-20-65-20h-45v-75v-75h260h260v75v75h-43c-23,0-53,7-65,16l-22,15v370v369h90
		c107,0,190-16,190-36c0-9,11-14,31-14c38,0,84-46,125-125l28-53l50,18c93,33,88,23,60,96l-24,64h586h585l-3,47l-3,47l-130,22
		c-219,36-402,91-589,178c-54,25-108,46-120,45C1495,1659,1460,1650,1430,1640z M1575,1619c152-80,443-172,630-199
		c129-18,125-17,125-50v-30l-577,2l-576,3l-23,60c-13,33-23,67-23,76c-1,21,117,79,264,128c66,23,122,40,125,38
		C1523,1646,1548,1633,1575,1619z"/>
	<path class="st5" d="M1510,1228c-30-11-86-26-125-32l-70-12l-3-77l-3-77h56h55V652c0-281-3-381-12-390c-7-7-31-12-55-12h-43v-75
		v-75h235h235v75v75h-42c-69,0-72,6-76,124c-3,59-1,106,2,106c4,0,26-10,49-22c60-32,201-33,269-1c241,111,292,533,87,717
		c-100,90-221,99-354,27l-75-40v44v45l-37-1C1582,1249,1540,1239,1510,1228z M1869,1035c48-41,64-98,59-217c-4-117-20-156-79-196
		c-47-32-119-27-157,12c-27,26-27,27-30,201l-4,175l54,25C1781,1067,1830,1067,1869,1035z"/>
	<path class="st5" d="M2603,1240c-94-20-189-77-224-134c-46-76-7-172,76-182c57-7,96,21,129,90c29,62,63,86,120,86c22,0,45-9,62-24
		c24-20,28-33,32-88l4-64l-117-17c-183-28-286-72-336-145c-18-27-25-52-27-106c-4-67-2-74,30-121c48-72,108-100,214-100
		c78,0,87,2,172,46l89,45l42-37c50-45,119-64,201-56c91,10,90,8,90,97v78l-44-5c-35-4-48-1-65,16c-20,20-21,31-21,224
		c0,111-5,219-11,240c-26,95-135,158-284,163C2686,1248,2626,1245,2603,1240z M2800,721v-70l-54-25c-66-32-114-33-150-5
		c-19,15-26,30-26,54c0,45,43,80,117,95c32,7,63,14,68,15C2796,798,2800,791,2800,721z"/>
	<path class="st5" d="M6813,1229c-23-10-87-27-142-36l-101-18v-72v-73h55h55V821c0-232,4-221-71-221h-39v-75v-75h235h235v75v75h-39
		c-76,0-71-24-71,331v319l-37-1C6872,1249,6836,1240,6813,1229z"/>
	<path class="st5" d="M3420,1156v-73l51-5c56-6,72-20,65-58c-7-41-175-394-193-408c-9-6-38-12-63-12h-46l-43-121
		c-23-67-41-122-39-124c2-1,31-17,65-34l61-30l26,43c32,55,76,92,124,106c47,13,556,13,601,0c41-11,84-49,120-106l26-40l66,30l66,31
		l-45,123l-45,122h-53c-85,0-84-2-84,240c0,238,1,240,76,240h44v75v75h-390h-390V1156z M3840,840V620h-116c-110,0-154,9-154,31
		c0,6,37,100,83,210l82,199h53h52V840z"/>
	<path class="st5" d="M5915,1178c-196-429-242-528-255-547c-10-15-29-24-57-28l-43-6v-73v-74h205h205v75v75h-38c-21,0-46,6-56,13
		c-17,13-14,23,49,178c37,90,71,167,74,172c4,4,38-69,76-162c76-189,77-201,4-201h-39v-75v-75h235h235v75c0,68-2,75-20,75
		c-36,0-69,23-86,59c-10,20-73,155-140,301l-122,265l-102,3l-101,3L5915,1178z"/>
	<path class="st5" d="M7323,1216c-64-21-99-51-132-118c-54-106-37-215,43-285c20-18,48-36,61-39c14-3,25-10,25-14
		c0-11-83-122-103-138c-9-8-34-16-57-19l-40-6v-73v-74h118h117l95,150l95,149l73,1h72v-59c0-77-14-91-86-91h-54v-75v-75h245h245v75
		v75h-36c-76,0-74-6-74,240s-2,240,74,240h36v75v75l-337-1C7455,1229,7354,1225,7323,1216z M7690,980v-80h-105c-75,0-115,4-135,15
		c-52,27-53,102-2,129c19,11,59,15,135,16h107V980z"/>
</g>
<rect x="425" y="216" class="st1" width="10.3" height="7.2"/>
<rect x="425" y="225.2" class="st1" width="10.3" height="7.2"/>
<rect x="425" y="234.4" class="st1" width="10.3" height="7.2"/>
<rect x="425" y="244.2" class="st1" width="10.3" height="7.2"/>
<rect x="425" y="253.4" class="st1" width="10.3" height="7.2"/>
<rect x="425" y="262.6" class="st1" width="10.3" height="7.2"/>
<rect x="425" y="272.2" class="st1" width="10.3" height="7.2"/>
<rect x="425" y="281.4" class="st1" width="10.3" height="7.2"/>
<rect x="425" y="290.6" class="st1" width="10.3" height="7.2"/>
<rect x="425" y="300.4" class="st1" width="10.3" height="7.2"/>
<rect x="425" y="309.6" class="st1" width="10.3" height="7.2"/>
<rect x="425" y="318.8" class="st1" width="10.3" height="7.2"/>
</svg>
