<?xml version="1.0" encoding="utf-8"?>
<!-- Generator: Adobe Illustrator 20.1.0, SVG Export Plug-In . SVG Version: 6.00 Build 0)  -->
<svg version="1.1" id="Слой_1" xmlns="http://www.w3.org/2000/svg" xmlns:xlink="http://www.w3.org/1999/xlink" x="0px" y="0px"
	 viewBox="0 0 820 394" style="enable-background:new 0 0 820 394;" xml:space="preserve">
<style type="text/css">
	.st0{fill:#3E5271;}
	.st1{fill:#51895B;}
	.st2{fill:#50975F;}
	.st3{font-family:'Roboto-Regular';}
	.st4{font-size:62.4703px;}
</style>
<g transform="translate(0.000000,1000.000000) scale(0.100000,-0.100000)">
	<path class="st0" d="M6440.1,9996.1c-69.9-4-275.9-38.7-390.2-69.9c-222.5-76-243.4-92.2-248.7-94.9
		c-138.4-70.5-261.3-168-362.9-285.4c-28-32.4-55.7-67.4-83-105.7c-28.9-41.9-121.7-219.5-121.7-235.5c0-5.6-7.8-24.2-17.6-45.8
		c-11-24.3-20.3-49.2-27.8-74.6c-11-36.4-11.1-36.8-20.5-74.1c-14.6-57.5-35.9-170.6-54.9-365.2c-8-78.8-8-140.7,0-224.5
		c18-188.6,65.9-403.2,71.9-429.1c10.6-49,29.3-103.5,54-159.4c93-210.4,257.8-373.9,444.1-508.7c49.2-35.6,62.9-43.8,80.4-53.4
		c66.8-36.4,136.8-66.7,208.9-90.8c31.7-10.6,40.3-13,47.3-14.5c92.8-20,196.1-35.4,356.8-46.4c194.6-12,248.8-11.8,400.5,0.3
		c95.8,8,191.4,29.7,218.3,37.7c27.9,8,239.5,56.9,319.3,87.8c27.9,11,63.9,24,80.8,28.9c55.9,16,62.9,40.9,73.8,232.5
		c5,95.8,14,192.6,19,216.6c5,24,13,82.8,16,131.7c8,96.8,1,116.8-43.9,116.8c-37.9,0-66.9-24-74.8-61.9
		c-18-92.8-113.8-289.4-186.6-387.2c-77.8-102.8-169.6-171.6-301.4-223.5c-155.7-62.9-471-72.8-625.7-20
		c-24.9,8-77.3,27.2-232.8,108.9c-44.8,23.6-84.9,57.8-124.4,96.7c-67.9,65.9-139.7,154.7-162.7,202.6
		c-6.4,12.4-13.4,25.8-20.5,39.2c-30.3,57.3-57.2,116.3-79.2,177.1c-16.3,44.7-29.9,87.9-33.9,112.9c-4,21-11.7,30.7-60.9,308.4
		c-6,33.9-9.4,81.9-10.7,135.7c-4.4,172.8,14.1,345.6,52.2,514.2c4.7,20.8,9.5,41.8,14.2,62.3c24.1,105.6,56.7,209.1,98,309.1
		c4.4,10.6,8.2,19.4,11,25.4c32.9,67.9,88.8,157.7,117.8,187.6c1.8,1.9,4.2,4.6,7.3,7.8c40.7,42.9,86.7,80.3,136.8,111.8
		c1.7,1.1,3.4,2.1,5.1,3.2c160.2,100.9,345.4,146.5,534.5,156.9c342.3,18.8,545.9-111,570.8-129.9c25.9-18,65.9-59.9,90.8-92.8
		c46.9-62.9,125.7-271.4,137.7-307.4c22-63.9,24-64.9,60.9-67.9c21-2,42.9,1,47.9,6c13,13,15,587.8,3,599.8
		c-15,14-136.7,59.9-185.6,69.9c-24,5-68.9,16-98.8,24C6981,9985.2,6672.7,10010.1,6440.1,9996.1z"/>
	<path class="st0" d="M25.9,9935.3c-5-3-14-21-19-38.9c-14-49.9,0-58.9,114.8-65.9c77.8-5,111.8-12,154.7-32.9
		c94.8-45.9,87.8,43.9,88.8-1225.5c1-1067.8-1-1154.6-27.9-1209.5c-21-41.9-363.2-122.7-319.3-168.7l5.3-5.8
		c9.4-10.3,22.7-16.2,36.6-16.2l985.1,1c604.3,0,883.2,1.9,977.9,7.1c23.9,1.3,43.2,19.6,46.1,43.2c4.5,35.5,9.6,91.9,13.9,153.3
		c6,98.8,15,217.6,20,264.5c26.9,249.5,27.9,245.5-43.9,240.5c-47.9-3-127.7-319.3-175.6-384.2c-14.4-19.7-31.3-38.3-50.3-55.7
		c-77.9-71.2-181.3-108-286.9-107.5l-624.3,3.2c-35.7,0.2-71.2,7-104,21c-19.1,8.2-29,15.7-38,34.8c-42.9,86.8-42.1,151-43.1,1215.8
		c-2,1221.5-9,1151.6,126.7,1196.5c46.9,15,98.8,23,162.7,24.9c107.8,4,118.8,11,102.8,71.9l0,0c-5.3,22.3-25.1,37.9-48,38l-503,1
		C279.4,9941.2,30.9,9938.2,25.9,9935.3z"/>
	<path class="st0" d="M2220.4,9936.3c-17-4-24-14-25.9-38.9c-5-49.9,9-57.9,113.8-65.9c116.8-9,201.6-39.9,223.5-81.8
		c13-24,15-175.6,15-1185.6c0-636.7-3-1168.6-8-1182.6c-17-55.9-71.9-77.8-249.5-99.8c-73.8-9-96.8-21-96.8-53.9
		c1-53.9-42.9-50.9,775.4-50.9c387.3,0,640.3,12.7,797,25.2c119.4,9.6,237,33,350.9,70.1c11.4,3.7,13.3,4.5,30.5,12
		c232.4,100.1,438,254.3,597.7,450.6c14.2,17.5,23.6,29.6,27.1,34.9c80.8,118.3,105,205.4,113.3,233c51.4,171.1,79.4,357.5,88.1,536
		c2.1,42.6,2.7,81.7,1.2,113.2c-9,174.6-25.9,316.3-47.9,379.2c-5.4,16.8-20.2,62.3-33.7,103.9c-17.8,54.8-39.1,108.3-64.4,160.1
		c-51.8,106.4-90,166.8-212.3,294.9c-53.9,52.9-51.2,51.1-108.8,96.8c-87.4,69.5-219.8,126.1-343.3,167.7
		c-95.8,32.9-198.6,50.9-399.2,71.9C3652.4,9938.2,2266.3,9946.2,2220.4,9936.3z M3634.4,9797.5c26.6-3.1,53.8-7.6,86-14.6
		c89-19.4,175.7-48.3,259.2-84.8c33.2-14.6,36.1-16.4,44-21.4c23.7-15,48.8-30.9,74.5-47.8c158.7-103.8,280.2-255.3,348.1-432.3
		c0.5-1.3,1-2.6,1.5-3.9c56.9-148,112.8-547.9,90.8-753.4c-2.9-26.7-5.6-51.9-8.2-75.6c-31.4-289.6-149.3-562.8-338.4-784.3
		c-2.6-3.1-5.3-6.2-8-9.4c-76.6-89.4-175.6-157.7-287.6-194c-5.8-1.9-11.7-3.7-17.6-5.5c-7.6-2.3-15.2-4.5-22.8-6.9
		c-36-11.9-237.7-55.1-471.1-56c-267.4-1-269.4-1-309.4,23c-69.9,41.9-93.8,71.9-115.8,140.7c-20,63.9-20,83.8-19,1135.7
		c0,606.7,5,1079.8,10,1092.7c35.9,90.8,130.7,116.8,404.2,112.8C3448.8,9811.5,3574.6,9804.5,3634.4,9797.5z"/>
</g>
<circle class="st1" cx="795.6" cy="257.9" r="24.4"/>
<text transform="matrix(1 0 0 1 -0.75 376.3555)" class="st2 st3 st4">Luis Dreyfus Company</text>
</svg>
