<?xml version="1.0" encoding="utf-8"?>
<!-- Generator: Adobe Illustrator 20.1.0, SVG Export Plug-In . SVG Version: 6.00 Build 0)  -->
<svg version="1.1" id="Слой_1" xmlns="http://www.w3.org/2000/svg" xmlns:xlink="http://www.w3.org/1999/xlink" x="0px" y="0px"
	 viewBox="0 0 848 1200" style="enable-background:new 0 0 848 1200;" xml:space="preserve">
<style type="text/css">
	.st0{fill:#E2A31D;}
	.st1{font-family:'Roboto-Bold';}
	.st2{font-size:185.3789px;}
	.st3{fill:#E1A31F;}
</style>
<g transform="translate(0.000000,1200.000000) scale(0.100000,-0.100000)">
	<path d="M6696,11383c21-85,87-131,172-119c72,10,111,44,132,115c9,31,8,31-28,31c-30,0-40-5-54-29c-31-55-125-49-143,9
		c-5,16-15,20-46,20C6691,11410,6690,11409,6696,11383z"/>
	<path d="M3670,11295v-75h75h75v75v75h-75h-75V11295z"/>
	<path d="M2243,11179c-17-5-41-20-51-34c-26-33-32-31-32,5v30h-65h-65v-350v-350h70h70v110v109l38-25c31-22,46-25,93-22
		c73,5,114,35,147,107c23,48,26,70,27,156c0,116-13,161-62,216C2366,11183,2311,11199,2243,11179z M2289,11063c46-39,50-235,5-284
		c-22-24-65-24-95,0c-23,18-24,25-24,134c0,108,1,117,24,141C2227,11084,2259,11087,2289,11063z"/>
	<path d="M2708,11178c-50-13-111-68-138-125c-19-38-24-66-24-134c-1-76,2-92,29-144c42-82,94-118,179-123c81-5,128,10,182,60
		c57,52,79,112,79,208C3014,11110,2879,11224,2708,11178z M2827,11066c28-24,28-25,28-144c0-114-1-122-24-146c-32-34-70-34-102,0
		c-23,24-24,32-24,146c0,119,0,120,28,144C2768,11096,2792,11096,2827,11066z"/>
	<path d="M4641,11181c-213-54-247-414-48-510c30-15,63-21,107-21c110,0,185,53,215,154c13,42,13,44-8,50c-12,3-43,6-68,6
		c-42,0-47-3-60-32c-20-47-57-65-97-49c-40,17-55,57-55,145c1,76,19,128,48,140c53,20,97-3,110-56c6-24,12-28,45-28c21,0,51,3,67,6
		c29,6,30,8,23,41c-12,49-54,106-99,131C4778,11182,4691,11193,4641,11181z"/>
	<path d="M1460,10920v-260h70c65,0,70,2,70,22c0,11,36,75,80,140l80,119v-141v-140h75h75v260v260h-75h-75v-35c0-27-18-61-77-150
		l-78-116l-3,151l-3,150h-69h-70V10920z"/>
	<path d="M3110,10920v-260h75h75v110v110h75h75v-110v-110h70h70v260v260h-70h-70v-95v-95h-75h-74l-3,93l-3,92l-72,3l-73,3V10920z"/>
	<path d="M3677,11173c-4-3-7-120-7-260v-253h75h75v260v260h-68C3714,11180,3680,11177,3677,11173z"/>
	<path d="M3940,10920v-260h175c155,0,180,2,214,20c90,45,94,185,7,227c-42,20-44,26-12,41c42,19,59,56,54,113c-6,61-36,96-94,109
		c-21,5-108,10-191,10h-153V10920z M4221,11070c22-12,27-68,7-88c-7-7-40-12-80-12h-68v48c0,27,3,52,7,55
		C4097,11084,4199,11081,4221,11070z M4234,10874c9-8,16-31,16-49c0-49-31-67-107-63l-58,3l-3,63l-3,62h70
		C4199,10890,4223,10886,4234,10874z"/>
	<path d="M5007,11173c-4-3-7-120-7-260v-253h163c139,0,167,3,197,19c59,31,75,63,75,144c0,126-50,167-200,167h-85v95v95h-68
		C5044,11180,5010,11177,5007,11173z M5288,10877c20-21,18-88-4-104c-10-7-44-13-76-13h-58v63c0,35,3,67,8,71
		C5169,10907,5272,10893,5288,10877z"/>
	<path d="M5520,10920v-260h75h75v78c0,75,1,79,33,110c18,18,35,32,38,32s29-49,59-110l54-110h78h78l-85,169l-85,170l76,88l75,88
		l-57,3c-31,2-62,1-69-2c-7-2-53-49-103-105l-91-100l-3,102l-3,102l-72,3l-73,3V10920z"/>
	<path d="M6050,10920v-260h75h75v28c0,17,21,56,57,107c31,44,67,100,80,124l23,44v-152v-151h70h70v260v260h-70h-70v-31
		c0-22-23-65-80-150l-80-120v151v150h-75h-75V10920z"/>
	<path d="M6627,11173c-4-3-7-120-7-260v-253h75c74,0,75,0,75,26c0,15,23,58,55,104c30,43,66,98,80,122l25,43v-147v-148h75h75l-2,258
		l-3,257l-72,3l-73,3v-33c0-25-21-64-80-152l-80-118v151v151h-68C6664,11180,6630,11177,6627,11173z"/>
	<path d="M7610,10194c0-143-4-243-10-255c-8-15-22-19-60-19h-50v-60c0-55,2-60,25-66c14-3,61-4,106-2c76,3,83,5,109,35
		c40,44,50,108,50,304v170l113-3l112-3l3-247l2-248h85h85v315v315h-285h-285V10194z"/>
	<path d="M7780,9635v-75h85h85v75v75h-85h-85V9635z"/>
	<path d="M7780,9155v-315h85h85v315v315h-85h-85V9155z"/>
	<path d="M4366,8684c-258-305-473-554-477-554c-5,0-77,82-160,183c-84,100-155,186-159,190s-95-88-203-206l-195-214l129-129l129-129
		l-102-100c-57-55-184-180-284-278l-181-178l-669,562c-368,309-691,581-717,603l-48,40l-52-52c-45-45-50-54-37-66
		c8-7,344-278,745-601c402-324,733-593,736-598c4-5,4-46,1-92l-5-82l257-277l257-277l-60-67c-32-37-319-350-636-696l-576-629l53-54
		c50-51,54-53,68-36c58,71,503,573,506,571c1-2-17-327-41-723c-25-396-45-732-45-747v-28h915c816,0,915,2,915,15c0,9-30,356-66,773
		l-65,757l-28,34c-15,19-31,36-37,38c-5,2-8-33-6-84c2-49,16-385,31-748c16-363,26-663,24-667c-2-5-350-8-774-8h-769v103
		c0,56,7,293,15,527s17,526,21,650l7,225l286,325c156,179,316,360,354,402s67,81,65,86c-1,5-130,146-286,313l-283,303l3,41
		c3,40,16,55,273,318c266,274,270,277,310,277c41,0,44-3,323-289c263-270,282-292,282-325c0-34-20-57-291-338l-290-302l40-40l41-41
		l264,264l263,263l713-608c392-335,716-609,719-609s28,23,54,52l48,51l-528,433c-290,238-621,509-735,603l-208,170v106l-1,105
		l-137,146c-75,81-188,201-250,267l-112,120l581,659c320,362,600,677,622,701l41,42l-54,54l-55,54L4366,8684z"/>
	<path d="M2000,9045l-44-45l109-110l109-110l-53-54l-54-55l-110,105c-61,57-113,104-117,104c-3,0-29-24-57-52l-51-53l113-100
		c63-55,114-105,115-111c0-5-16-25-35-44l-34-33l-116,108l-116,109l-60-60l-60-60l121-104l120-104l-47-49l-48-49l39-34
		c22-19,44-34,51-34c6,0,29,18,50,40s42,40,46,40c7,0,292-249,297-259c1-4-16-24-38-46c-22-21-40-42-40-45s21-23,46-44l46-38l43,42
		l43,43l24-19c13-11,70-59,126-108l101-89l-37-44l-36-45l44-39l45-38l41,40l41,41l129-113c71-62,141-124,157-138l27-25l38,37l37,38
		l-50,47c-27,25-96,90-152,142l-102,96l48,48l49,48l150-136c83-75,154-136,159-136s24,16,43,35l33,34l-109,104
		c-60,56-129,122-154,145l-45,41l50,51l51,51l153-147l153-147l45,45l46,46l-151,147c-136,131-150,149-139,166c10,16,6,24-30,61
		c-39,39-42,40-59,24c-16-17-23-12-133,98s-114,116-98,134c9,10,17,21,17,25c0,3-19,24-42,46l-43,40l-22-21l-22-21l-145,139
		l-145,139l32,33l31,32l-44,45l-44,45l-33-32l-33-32l-68,65c-37,35-87,83-112,107l-46,42L2000,9045z M2419,8550l141-136l-54-53
		l-54-53l-146,138l-146,139l52,52c29,29,55,52,59,51C2274,8686,2341,8624,2419,8550z M2193,8363c72-65,139-125,150-133
		c17-14,16-17-27-59l-44-43l-146,138l-147,137l38,39c20,21,39,38,41,38S2121,8427,2193,8363z M2775,8206l116-109l-48-49
		c-26-27-53-47-59-46c-6,2-62,51-125,111l-113,107l49,50c27,28,53,49,56,48C2655,8316,2711,8266,2775,8206z M2608,7990l93-84l-44-44
		c-32-32-49-42-59-36c-9,5-64,55-123,112l-109,103l44,44l44,45l31-28C2501,8086,2557,8036,2608,7990z"/>
	<path d="M4937,8898l-106-113l-49,48l-49,48l-35-43l-35-43l43-50l44-49l-23-26c-13-14-74-80-137-148l-113-123l-44,43l-43,42l-40-39
		c-22-21-40-44-40-49c0-6,18-29,40-51l40-41l-112-122l-112-122l-41,40l-42,41l-42-47l-43-46l40-41l40-42l-51-56
		c-29-31-92-100-141-153l-90-97l37-37l37-37l148,148l147,147l44-51l44-51l-59-61c-32-34-97-101-143-148l-84-87l33-41
		c19-23,36-41,39-41s72,66,153,147l148,147l51-49l50-50l-153-147l-153-147l48-48l47-48l149,149c129,129,152,148,165,137
		c14-11,23-8,62,24c44,36,45,38,27,57c-18,20-16,23,102,134l120,113l23-21l22-22l40,39c45,44,47,51,23,77c-16,18-11,25,125,161
		l141,141l34-32l33-32l44,45l44,45l-32,33l-33,32l113,107l113,106l-47,49l-48,48l-110-110l-110-109l-55,54l-55,55l112,112l112,113
		l-54,56l-55,55l-107-113l-107-113l-37,37l-38,37l109,116l108,116l-54,55c-29,30-56,54-60,54S4995,8959,4937,8898z M4897,8548
		c18-18,33-36,33-41s-61-75-137-154l-136-144l-39,38c-21,20-38,42-38,47c0,10,270,286,279,286C4862,8580,4879,8566,4897,8548z
		 M5105,8249c-22-22-89-86-149-142l-109-102l-49,54l-50,54l144,144l143,143l55-55l54-55L5105,8249z M4532,8157l36-43l-113-120
		l-114-119l-47,47l-47,46l113,116c62,64,118,116,124,116C4491,8200,4512,8181,4532,8157z M4714,7968l46-53l-112-112
		c-62-62-117-113-123-113c-5,0-30,23-54,51l-44,51l114,114c63,63,117,114,121,114C4665,8020,4689,7996,4714,7968z"/>
	<path d="M8040,8670c-8-5-55-10-105-10c-205-1-311-60-360-200c-37-105-39-388-3-491c44-130,178-209,327-195c122,11,216,79,268,193
		c22,47,25,65,21,141c-4,101-26,157-88,221c-78,81-184,109-292,77c-43-12-65-27-101-65c-52-55-55-51-36,39c6,28,22,64,36,81
		c44,52,76,62,228,69c77,4,152,13,166,19c30,15,54,52,64,99l7,32h-59C8081,8680,8048,8675,8040,8670z M7925,8270c59-29,90-86,90-170
		c0-115-55-185-147-185c-50,0-86,20-122,69c-18,23-21,42-21,116c0,84,2,90,31,127c28,34,76,61,113,62C7877,8290,7902,8281,7925,8270
		z"/>
	<path d="M6354,8343c-120-142-271-320-335-395l-117-137l-112,135c-62,74-116,134-120,132c-8-3-253-268-264-286c-4-7,26-46,76-98
		c46-47,84-89,86-93c1-3-85-94-192-200l-195-194l-33,28c-18,15-72,61-120,102l-87,75l34,30l34,30l108-96l107-96l26,25l25,26l-105,98
		l-104,98l32,37l32,36l105-95c58-52,108-95,111-95c10,0,54,33,54,41c0,4-47,54-105,110l-106,103l36,35l35,36l105-105l105-105l32,33
		l33,32l-104,104c-65,65-101,108-96,116c4,7-4,24-21,41c-21,22-30,26-41,17s-27,2-79,53l-64,64l-32-33l-33-32l65-65l64-65l-34-35
		l-34-35l-63,62l-63,62l-35-34l-36-35l23-19c13-10,43-36,66-58l44-40l-33-34l-32-33l-65,59l-64,60l-29-23c-15-12-28-25-28-29
		c-1-3,28-33,64-66l64-59l-29-28c-29-28-29-29-12-49c9-11-17,8-58,44c-41,35-83,71-93,79c-16,13-20,12-47-14c-17-16-30-31-30-34
		s108-94,240-201l239-195v-66l1-67l146-158c81-88,162-175,180-194l33-35l-179-195l-179-195l32-25c17-14,35-25,38-25
		c11,0,400,446,397,455c-2,4-92,104-200,220c-170,182-198,217-198,244s24,56,193,224c164,164,197,192,222,192c26,0,57-28,228-204
		c142-148,197-211,197-228c0-16-59-84-206-237l-206-213l28-29l28-30l187,187l187,187l478-408c264-224,492-420,507-434l28-26l36,38
		c26,29,32,42,24,50c-7,7-240,199-519,427l-507,416v74v74l-177,189l-178,190l32,36c17,20,212,240,432,489c221,250,402,459,404,466
		c1,6-13,26-31,44l-34,33L6354,8343z"/>
	<path d="M6640,8358l-74-80l-33,35l-32,36l-26-30l-25-31l29-36l30-35l-31-36c-17-20-60-67-95-105l-65-68l-32,31l-33,32l-27-31
		c-27-33-25-52,8-80c9-7,16-16,16-20c0-5-34-45-76-90l-77-81l-29,28l-29,28l-31-34l-30-33l28-29l28-29l-25-27c-13-15-57-63-97-106
		l-72-79l21-30l22-30l106,106l107,106l33-34l34-35l-101-106l-102-106l22-29c12-17,24-30,27-30s51,48,107,108l102,107l38-37l38-38
		l-109-104l-110-104l30-31c16-17,32-30,36-29c4,2,53,46,109,98c60,56,109,94,119,92c22-3,77,53,61,63c-8,5,16,36,71,91
		c74,75,85,82,99,69c15-13,20-12,45,15c24,25,26,32,15,45c-12,14-1,29,88,118l101,101l24-22l23-22l29,30c28,29,28,30,10,50
		c-10,11-15,23-12,28c4,4,40,40,79,79l73,73l-32,31l-31,32l-78-71c-43-40-81-72-84-72s-21,16-40,35l-34,35l76,78l77,77l-33,38
		c-18,20-36,37-40,37s-41-35-81-77l-74-78l-28,27l-28,28l80,80l79,80l-39,40c-21,22-42,40-45,39C6717,8439,6681,8403,6640,8358z
		 M6550,7983c-51-54-99-99-106-101c-6-2-21,10-32,25l-20,29l95,103l96,102l30-30l30-30L6550,7983z M6750,7965l34-35l-99-100l-99-100
		l-38,37l-38,37l97,98c54,54,100,98,103,98S6731,7984,6750,7965z M6323,7743c-34-37-71-77-83-88l-22-20l-30,34l-30,34l83,83l84,84
		l29-29l29-30L6323,7743z M6438,7583l-82-83l-33,32c-18,18-33,37-33,42c0,6,35,45,77,88l77,78l38-37l38-37L6438,7583z"/>
	<path d="M7764,7633c-80-23-143-77-184-157c-33-64-35-75-35-161c1-83,4-98,33-158c38-77,84-119,162-148c70-27,176-29,247-5
		c70,23,145,92,180,164c24,49,27,69,28,148c0,85-2,96-35,160C8087,7618,7927,7682,7764,7633z M7940,7491c19-10,45-36,58-57
		c20-34,22-50,20-126c-2-69-7-92-24-114c-37-50-72-69-124-69s-87,19-124,69c-16,21-22,46-24,109c-3,71,0,88,20,126
		C7782,7504,7866,7531,7940,7491z"/>
	<path d="M3237,7383l-27-27l41-42l41-42l-27-56c-24-48-27-65-23-128c2-51,10-86,26-117l23-44l-43-44l-42-43l25-25l25-25l43,44l43,44
		l46-27c39-22,59-26,122-26c65,0,82,4,132,31l57,31l28-29c47-49,62-54,90-25l25,24l-50,44l-51,43l20,37c31,62,34,134,9,208l-21,64
		l37,38l38,39l-24,25l-24,25l-37-36l-37-36l-66,32c-61,30-72,32-140,28c-50-3-85-12-109-25l-34-21l-44,44l-44,44L3237,7383z
		 M3600,7238c52-36,73-71,77-130c13-178-231-245-313-86c-23,44-15,135,15,174C3430,7262,3535,7282,3600,7238z"/>
	<path d="M5433,7284c-3-9,5-26,21-43l26-28l-21-48c-24-54-22-111,5-166c16-32,16-33-14-64c-28-29-29-32-13-48s19-15,48,13l31,30
		l35-17c48-25,135-23,179,4l35,21l34-29c33-27,36-28,54-12c18,17,18,18-17,50s-35,33-21,67c18,43,19,111,1,151c-12,28-11,32,12,58
		c24,26,25,28,9,44s-18,15-41-6l-25-23l-44,21c-53,25-123,27-172,4c-35-17-35-16-63,10C5460,7304,5442,7307,5433,7284z M5704,7191
		c39-26,55-57,56-109c0-34-6-49-33-78c-65-71-172-50-206,40C5480,7151,5608,7254,5704,7191z"/>
	<path d="M5021,6879c-71-69-106-98-113-91s-21,2-44-16c-27-21-31-29-21-41c10-11-1-26-61-81l-73-67l35-27c19-14,38-26,43-26
		s35,27,68,60l59,60l38-37l37-36l-62-58l-62-58l32-33l33-32l60,59l60,59l32-32l32-32l-52-53l-52-53l32-32l32-32l53,51l52,52l25-29
		l25-29l33,32l32,33l-28,29l-29,30l102,107l101,107l-22,24c-12,13-25,23-28,23c-4,0-55-45-113-100l-106-100l-26,35l-27,35l70,77
		c39,43,84,91,101,107l31,30l-27,28l-27,28l-106-105l-106-105l-34,35l-34,35l103,104l104,104l-22,31c-12,17-28,31-34,31
		C5130,6979,5078,6934,5021,6879z"/>
	<path d="M2645,6805c-134-129-152-142-166-129s-21,10-60-25s-43-42-32-59c11-19,1-31-103-131c-63-61-119-111-123-111s-16,9-26,20
		c-19,21-19,20-61-21l-43-42l18-26l19-26l-145-138l-145-139l-32,31l-33,32l-47-42l-47-42l33-34l33-34l-115-109l-115-108l46-47l47-47
		l109,106c61,58,114,106,119,106s31-25,58-56l48-55l-113-109l-114-108l56-57l55-56l108,111c59,60,111,110,115,110s22-16,41-35l34-35
		l-114-115l-115-115l58-58l57-57l112,113l112,113l48-48l49-48l39,45l39,45l-46,47l-46,47l91,98c50,54,113,120,141,148l51,49l43-42
		l43-42l43,44l43,44l-42,46l-42,45l113,121c63,66,117,120,121,120c3,0,22-18,40-40l34-39l44,44l43,43l-37,45l-37,46l140,146
		c78,81,141,150,141,154s-16,22-35,41l-35,34l-148-147l-147-147l-50,50l-49,50l149,150l149,150l-34,37c-19,21-36,40-38,42
		c-1,3-69-61-150-142s-152-147-158-147c-5,0-24,15-40,33c-62,66-65,55,48,165c57,55,126,120,153,145l50,46l-45,45
		c-24,25-47,46-50,46C2797,6949,2728,6884,2645,6805z M2480,6265c-63-63-119-115-125-115c-5,0-30,23-55,52l-44,52l119,113l120,113
		l50-50l50-50L2480,6265z M2729,6236l42-43l-116-114c-64-63-120-114-124-114c-3,0-24,19-45,43l-39,43l114,115c62,63,116,114,119,114
		S2705,6260,2729,6236z M2214,6109c26-29,45-55,44-58c-2-3-66-68-144-143l-140-138l-55,56l-54,55l145,139c80,77,148,139,152,140
		C2165,6160,2189,6137,2214,6109z M2405,5910c46-47,59-27-128-203l-128-120l-40,39l-39,38l142,143c79,79,145,143,148,143
		S2383,5932,2405,5910z"/>
	<path d="M6001,6846l-24-25l107-101l106-102l-26-34c-15-19-30-34-34-34s-54,42-110,93c-56,50-106,93-110,95s-20-8-35-21l-28-23
		l112-104l111-104l-32-33c-18-18-37-33-43-33s-55,45-110,100l-99,100l-33-32l-33-32l106-107c67-67,104-111,99-119c-4-7,4-24,21-41
		c22-23,30-26,41-17c12,9,30-4,95-69c74-74,79-82,67-101s-10-24,14-46c32-29,38-31,55-14c10,10,34-9,114-89l102-102l-22-24l-22-23
		l30-29l30-29l25,24l26,24l79-79l79-79l30,35l30,34l-76,77l-77,78l34,35c19,19,37,35,41,35s41-32,84-72l76-71l37,37l37,38l-83,77
		l-83,77l29,27l28,27l35-36c18-20,56-54,82-76l49-41l40,40l40,41l-43,39c-24,22-62,56-84,75l-39,36l32,36l32,37l-30,26l-31,26
		l-34-33l-34-33l-63,55c-35,31-83,74-108,96l-45,40l30,31l29,31l-32,32l-32,32l-32-31l-33-32l-87,77l-88,76l25,26c31,33,31,40-6,69
		l-30,24l-29-28l-29-28l-106,94c-59,52-110,95-114,97C6027,6869,6013,6859,6001,6846z M6348,6467l82-83l-29-28l-30-29l-33,28
		c-54,45-138,126-138,133c0,8,52,62,60,62C6263,6550,6303,6513,6348,6467z M6220,6340l85-79l-38-38l-37-38l-81,82l-82,81l29,36
		c16,20,31,36,34,36C6133,6419,6173,6384,6220,6340z M6605,6222l98-93l-29-29l-29-29l-105,99l-105,98l25,26c13,15,29,25,36,24
		C6502,6316,6551,6273,6605,6222z M6475,6096l100-94l-34-36c-19-20-40-36-46-36s-53,43-105,95l-94,95l34,35c19,19,36,35,39,35
		C6373,6190,6420,6148,6475,6096z"/>
	<path d="M7580,6530v-320h85h85v250v250h110h110l2-247l3-248l83-3l82-3v321v320h-280h-280V6530z"/>
	<path d="M4029,6754l-34-35l153-147l154-147l-49-47l-48-47l-153,140l-153,139l-28-19c-65-47-69-39,99-201l155-148l-49-51l-50-50
		l-148,144c-81,80-152,145-156,145s-27-19-50-43l-42-43l149-148c131-131,148-151,138-167s-6-25,31-61c40-40,43-42,59-25
		c17,16,23,11,135-100l118-117l-22-23l-22-23l44-45l44-45l23,22l22,21l118-111c65-60,131-124,147-141l30-31l-32-33l-32-33l45-44
		l45-44l29,34l30,35l108-107c60-60,113-108,119-108c12,0,84,72,84,85c0,5-48,58-107,117l-107,108l54,55l54,55l81-78
		c44-42,95-91,113-107l32-29l54,53l54,54l-61,56c-34,31-87,79-117,108l-55,52l37,38l38,37l42-39c24-22,76-71,116-110l72-70l60,61
		l61,60l-122,108l-121,108l49,50l48,49l-40,34c-22,19-45,34-52,35c-6,0-29-21-51-47l-40-46l-139,123c-76,68-145,129-153,137
		c-12,11-8,19,28,56c23,23,42,45,42,49c0,3-21,22-46,43l-46,38l-44-44l-44-43l-22,20c-13,11-68,60-123,109s-102,91-105,92
		c-2,2,15,22,37,45l41,41l-46,43l-47,42l-42-40l-42-41l-117,104c-149,133-191,169-196,169C4066,6790,4048,6774,4029,6754z
		 M4630,6110c0-3-19-24-42-47l-43-41l-123,111l-122,111l46,47l47,48l118-112C4577,6166,4630,6113,4630,6110z M4334,6043
		c61-60,112-113,114-118c1-6-19-32-46-58l-48-47l-117,111c-64,61-117,116-117,122c0,14,80,97,94,97C4219,6150,4273,6102,4334,6043z
		 M4897,5859l126-121l-40-40l-39-39l-152,137l-152,138l41,42l42,43l24-19C4761,5989,4828,5926,4897,5859z M4797,5598l43-44l-55-54
		l-55-55l-142,142l-141,141l49,55l48,55l106-98C4708,5686,4774,5622,4797,5598z"/>
	<path d="M7812,6039c-29-16-56-37-59-44c-10-28-23-15-23,25v40h-75h-75v-440v-441l83,3l82,3l3,152l3,151l50-33c82-56,171-59,256-9
		c91,53,137,155,137,299c0,113-22,182-78,243c-54,60-105,82-186,82C7876,6070,7856,6065,7812,6039z M7971,5904c38-36,52-84,52-169
		c-1-111-33-166-106-186c-32-9-45-7-82,11c-62,30-90,89-89,190c0,126,56,196,152,186C7928,5934,7951,5924,7971,5904z"/>
	<path d="M6140,6040c0-14,9-230,20-480s20-481,20-512v-58h-549h-549l-40-32c-23-18-41-36-41-40c-1-5,289-8,644-8h645l-6,43
		c-3,23-25,271-49,551c-44,507-44,509-69,535l-26,26V6040z"/>
	<path d="M7736,5085c-75-31-127-81-162-159c-23-51-28-75-28-141c0-105,24-175,81-236c58-63,126-91,228-97c141-7,246,52,305,171
		c67,136,45,293-54,392C8011,5110,7864,5138,7736,5085z M7950,4948c51-35,70-80,70-168c0-123-53-190-149-190c-97,0-151,68-151,190
		c0,84,24,141,73,170C7838,4978,7908,4976,7950,4948z"/>
	<path d="M7645,4213c-13-203-39-318-86-377c-15-19-30-26-55-26h-34v-150v-150h70h70v80v80h240h240v-80v-80h70h70v150v150h-35h-35
		v250v250h-254h-254L7645,4213z M7990,3990v-180h-139h-140l25,55c28,60,53,182,54,258v47h100h100V3990z"/>
	<path d="M7540,3343c0-5,52-145,115-311c63-167,115-314,115-325c0-29-33-82-64-102c-18-12-41-16-77-13l-51,3l6-65c4-35,8-66,10-68
		c2-1,40-3,84-3c117,0,181,32,222,111c10,19,76,195,148,390s133,363,137,373c6,15-1,17-82,17h-89l-69-212c-38-117-72-217-76-221
		c-4-5-40,91-80,212l-74,221h-87C7579,3350,7540,3347,7540,3343z"/>
	<path d="M7640,1980v-320h85h85v135v135h25c31,0,57-39,116-172l43-98h88c48,0,88,3,88,6c0,4-29,62-65,130c-46,86-78,134-109,161
		l-43,38l22,17c12,9,33,43,45,75c30,76,45,92,92,99l38,7v53v54h-62c-102,0-135-30-189-174c-19-53-49-86-76-86c-10,0-13,31-13,130
		v130h-85h-85V1980z"/>
	<path d="M7582,1443l3-68l97-3l98-3l2-247l3-247l83-3l82-3v250v250l103,3l102,3l3,68l3,67h-291h-291L7582,1443z"/>
</g>
<g>
	<text transform="matrix(0.96 0 0 1 -10.249 133.9411)" class="st0 st1 st2">M</text>
</g>
<text transform="matrix(0.96 0 0 1 733 134.2744)" class="st3 st1 st2">X</text>
<path class="st0" d="M75.8,238.5L75.8,238.5c0.8,0.3,1.5,0.9,1.9,1.7h0c2.2,4.2,3.4,8.8,3.5,13.5l3.3,148.6v98.1
	c0,7.9,1.9,15.6,5.4,22.7l0,0l0,0c1.3,2.6,5,2.8,6.5,0.2l3-4.9c0.4-0.6,0.5-1.3,0.5-2V413l-3.2-123.1c-0.5-19.9,0.5-39.8,3-59.6l0,0
	c0.1-0.9,0.5-1.6,1.1-2.2l1.3-1.2c3.5-3.4,9.1-3.5,12.7-0.2l1.3,1.2c0.8,0.7,1.2,1.7,1.2,2.8V287L113,472.7c0,0.8-0.1,1.6-0.1,2.4
	l-2,24.5c-0.3,3.6-0.4,7.2-0.4,10.9v0.8c0,3.8,1,7.5,2.9,10.7h0c1.6,2.8,5.7,2.4,6.8-0.7l5.2-15c3.7-10.6,5.9-21.7,6.5-32.9
	l4.9-86.1c0.1-2.2,0.8-4.3,2-6.1l0,0c1.7-2.6,5.6-2.1,6.7,0.8l0,0c3.3,9.4,4.6,19.3,4,29.2l-5.4,77.7c-0.4,5.7-1.6,11.2-3.5,16.6
	l-5.4,14.8c-3,8.4-9.4,15.2-17.5,18.7h0c-1.8,0.8-2.7,2.8-2,4.7l3.9,11c3.1,8.8,4.8,18.1,4.9,27.4c0,4.7,0,8.9-0.4,10.3
	c-0.6,2.2-4.4,12.9-7,20.3c-1.2,3.3-5.4,4.1-7.7,1.6l-11.1-12.1c-2.5-2.7-4.4-5.9-5.5-9.3l0-0.1c-4.7-13.7-6.3-28.2-4.7-42.6
	l0.2-1.4c0.3-2.5,0.7-5.1,1.2-7.5l1.4-6.5c0.2-0.8,0.1-1.7-0.3-2.5l-9.9-19.7c-2-3.9-3.5-8-4.6-12.2l-1-4c-0.9-3.3-1.4-6.7-1.5-10.1
	L66.5,304v-57.4c0-1.7,0.5-3.3,1.3-4.8l0.5-0.9C69.9,238.4,73,237.3,75.8,238.5z"/>
<path class="st0" d="M8,315.3c0.9-2.3,4.8-3.2,6.7-3c7.9,0.7,12.3,23.5,20.7,77.7c4.8,31.1,7.2,46.7,8,55.7
	c3.5,38.1-0.1,42.2,3.7,74c3.8,32.4,5.7,48.6,14,62.3c8.4,14,22.3,28.3,36.3,52.7c1.4,2.4,5.4,9.5,7.3,19.7
	c1.3,6.6,3.2,22.8-1.3,24.7c-6.7,2.8-27.9-24.8-40.3-55c-11.3-27.4-14.4-54.3-16.7-74.7c-1.3-11.7-2.7-29.3-9-53.7
	c-2.3-9-4.3-15-5.3-18.3c-10.3-33.1-11.1-64-12-85.7c-0.9-22.2-0.8-59.5-9-69C10.3,321.9,6.9,318.1,8,315.3z"/>
<path class="st0" d="M174,400c-10.3,96.5-10.7,127.9-9,138c0.7,3.8,0.1,12.6-1,30c-0.1,1.9-0.4,5.1-2.7,7.7c-3.6,4-8.5,2.1-14.3,4
	c-11.2,3.6-16.1,17.8-17.7,22.3c-1.8,5.3-5.8,19.7-1.7,22c6.6,3.6,35-22.7,45-56.7c3.2-10.9,0.7-9.5,2.3-48.3
	c2-47.2,6.4-63.9,2.3-98C176.2,411.8,174.9,404.4,174,400z"/>
<path class="st0" d="M2.3,461.7c-3.5,1,5,41.1,8.3,56.7c2,9.1,6.6,30.2,15.3,60c7.9,26.9,13.4,45.8,15.7,45.3
	c3.2-0.6-1.8-40.5-7.3-70c-2.1-11.2-7.3-36.8-19.7-67.7C11.2,477.3,4.7,461,2.3,461.7z"/>
<path class="st0" d="M10.7,579.3c-3.9,0.6-7,14.7-4.3,27.3c2.3,11.1,6.7,9.7,14.3,29c1.7,4.3,3.6,9.8,6,9.7c1.7-0.1,3.1-3.2,3.7-5.3
	c2.6-10.2-10.1-14.4-12.3-28.7c-1.6-9.8,3.5-13.7-0.3-23.3C16.4,584.8,13.3,578.9,10.7,579.3z"/>
<path class="st0" d="M126.7,632.3c-4-1.5-9.7,3.5-12.3,7c-1.9,2.5-4.3,7-3.3,25c0.8,14.3,1.3,23.7,4.7,24.3
	c3.9,0.8,9.6-10.8,12.3-18.7C133.1,655,133.4,634.9,126.7,632.3z"/>
<path class="st0" d="M31.7,655.7c-1.9,0.4,1.4,34,13,72.7c6.3,21.1,12.4,34.5,19,46c13.8,24.1,26.2,33.5,34.3,38.3
	c4.9,2.9,19.3,11.5,25,6.7c5.8-4.9,0.2-21.8-6.3-32c-4-6.3-9.2-10.1-19.3-18c-11.4-8.9-14.1-9-20.3-15c-7.8-7.5-11.9-15.4-15-22
	C45.7,698,33.8,655.2,31.7,655.7z"/>
<path class="st0" d="M51.7,664c-4.9,2.5,7.1,33.7,17.3,54c7.8,15.5,15.6,29.3,30.3,34.7c3.9,1.4,11,5.3,15,2.3
	c5.6-4.1,1.9-19-2.7-28.7c-6.3-13.6-14-16.4-32.2-34C59.5,673,54.5,662.5,51.7,664z"/>
<path class="st0" d="M125.5,749.5c-3.2-1.3-1.9-17,4.3-30.5c6.2-13.6,12.2-13.6,18-27.5c5.6-13.5,4-23.4,7-23.8
	c3-0.3,8.3,9.1,8.8,19.3c0.3,7-1.8,13.4-20.5,40.8C128.5,749,126.6,749.9,125.5,749.5z"/>
<path class="st0" d="M133.3,806.5c-2.5-0.2-6.8-20.8-1.3-42.3c1.4-5.5,2.2-5.9,25.3-47.3c5.7-10.3,8.3-15,10.3-14.5
	c3.3,0.9,3.9,17.5-1,32.8c-6.2,19.4-16,20.7-25,42.5C134.6,794.6,135.1,806.6,133.3,806.5z"/>
<path class="st0" d="M171,756.8c-4.8-0.3-9.3,13.8-18.3,42c-6.1,19.1-9,32-5.5,41.8c0.5,1.4,4.8,12.8,4.8,12.8l0,0
	c0,0,10.1-18.4,18.3-37.8c10.5-25,10.3-33.7,9.8-38.5C179.1,769.2,175.8,757,171,756.8z"/>
<path class="st0" d="M204,755.3c-4,0-8.2,26.1-7,49.8c0.6,11.7,3,30.4,6.3,30.5c3.4,0.1,7.4-20.1,7.8-38
	C211.4,778,207.7,755.3,204,755.3z"/>
<path class="st0" d="M236.8,751.8c-3.9-0.4-10.7,21.3-11.5,41.3c-0.2,4.4-0.6,21.6,8,40.5c2,4.4,5.8,12.8,8.3,12.3
	c2.7-0.6,2.1-12.3,0.5-38.8C238.9,756.3,238.5,751.9,236.8,751.8z"/>
<path class="st0" d="M12.5,684.8c-3.4,1.5-0.6,21,8.3,36.8c3.4,6.1,5,6.7,6.8,11.8c4.3,12.3-1.9,17.8-0.8,30
	c1.2,12.3,7.7,9.1,17.5,33c3.6,8.8,7.8,17.4,11.3,26.3c1.9,4.8,3.5,9.2,5,9c2-0.2,3.2-8,3-13.8c-0.5-17.6-13.6-20.9-20.8-41
	c-2.6-7.5,0.1-4.5-4.8-36.5c-2.9-19.4-4.5-24.3-6-28.3C26.3,697.2,15.7,683.4,12.5,684.8z"/>
<path class="st0" d="M30,802.8c-4.1,1.6,3.1,35.5,18.3,63.5c12,22.1,31.8,45.7,35.3,43.5C90.4,905.5,37.6,799.8,30,802.8z"/>
<path class="st0" d="M70,807.8c-3.1,2.1,3,20.2,14.8,34c2.4,2.8,13.8,15.8,33.5,21.5c4.6,1.3,20.9,6.1,24.3,0.8
	c3.3-5.3-6.9-19.9-19.3-28.3c-11.8-8-17.3-4.7-32.8-13.8C76.9,814,72.2,806.3,70,807.8z"/>
<path class="st0" d="M190.5,819.3c-5.4-2-20.3,17.6-24,39c-1,5.5-2.5,15,1.5,26c4.7,12.7,16.3,25.9,22,23.8
	c5.7-2.1,0.9-17.3,1.8-60.3C192.2,827.3,193.5,820.3,190.5,819.3z"/>
<path class="st0" d="M210.3,842c-2.6,1,0.5,8.7-0.5,21.3c-1.2,15.6-7,17.7-4.8,27.5c1.8,7.7,7.2,14.2,13.5,17.3
	c1.8,0.9,3.9,1.8,6.5,1.5c8-1,11.7-13.1,12-14.3c2.7-9.3-0.6-17.5-3.3-24.3c-3.1-7.9-7.1-12.6-13.5-20.3
	C215.4,845,212.2,841.2,210.3,842z"/>
<path class="st0" d="M85.3,860.5c-2.1,0.8-1.9,12.6,4.5,21.5c1.9,2.6,6.6,8.3,35.3,15.8c18.4,4.8,30.1,7.8,33.3,3
	c2.7-4-2-11.6-2.3-12c-3.4-5.3-8.7-7.1-11-7.8c-8.1-2.5-10.9,1.4-21,1.5c-1.3,0-15,0-26.3-8.5C89.2,867.5,87,859.8,85.3,860.5z"/>
<path class="st0" d="M257.8,837.5c-6.6,0.2-10.4,36.9-11,58c-0.3,10-0.9,29.4,3.5,30.3c4.3,0.9,10.9-16.3,12-19
	c2.7-6.8,8.4-22.1,5.5-42.3C266.6,856.1,262.5,837.4,257.8,837.5z"/>
<path class="st0" d="M275.8,869.8c-5.6,0.5-8.3,25.7-7,44c1.2,16.1,5.5,26.4,9,34.5c3.3,7.6,4.9,11.4,6.8,11.3
	c5.3-0.4,10.4-30,4.8-58.3C286.8,889.1,280.8,869.3,275.8,869.8z"/>
<path class="st0" d="M170.8,914.3c-3.8,5.2,13.6,27.3,34.5,40.5c20,12.6,37,13.3,50.3,13.8c9,0.3,12.2-0.7,13.3-2.8
	c3.1-5.8-9.5-19.9-22.5-28.3c-8.1-5.3-12.5-5.7-35.8-12.8C178.3,915,172.6,911.7,170.8,914.3z"/>
<path class="st0" d="M111.8,912.3c2.7-3.2,8.9,0.9,22.8,2.5c10.1,1.2,14.2-0.2,17,3.3c2.5,3.1,1.9,7.4,1.5,10.3
	c-0.1,1.1-1.7,11.1-7.8,13c-2.4,0.7-4.2-0.2-12.8-5.3c-16.3-9.7-19.7-12.3-21-17C111,917.3,110.1,914.2,111.8,912.3z"/>
<path class="st0" d="M30,859.3c-2.6,1.2,4.4,22.8,12,39.5c1.5,3.4,10.7,23,29.3,42.8c9.3,9.8,11,9.3,11.5,9
	c3.3-2.1-7.1-24.4-7.8-25.8c-6-12.6-10.5-18-29-44.5C34.1,863.1,31.3,858.7,30,859.3z"/>
<path class="st0" d="M86.3,923.3c-5.2,4.9,5.5,24.9,14.5,36.5c5.7,7.4,12.2,15.6,23.8,19.3c9.8,3.1,24,3,27-3.3
	c2.2-4.5-2.3-10.6-7-17.3c-4.1-5.6-12.5-15.8-31.3-26C100.3,925.4,90,919.8,86.3,923.3z"/>
<path class="st0" d="M157,929.5c-7.7,3.4-3.4,29.7,3,45.5c2.4,5.9,6.5,14,14.8,18c2.2,1,5.6,2.7,8,1.3c2.4-1.4,3-5.3,1-22.8
	c-1.5-12.5-2.2-18.8-3.5-21.8C175.2,938.2,162.9,926.9,157,929.5z"/>
<path class="st0" d="M191,966.8c-6.3,2.2-6.4,21.4-1.8,35c0.4,1.2,5.7,15.8,20.3,25.3c4.1,2.7,7.2,4.7,9.5,3.5
	c5.7-2.8,3-22.2-3.5-36.8C209.7,980.8,197.6,964.4,191,966.8z"/>
<path class="st0" d="M54.5,953.3c-0.8,0.6,9.5,30.8,36.3,44.8c15.7,8.2,17.5,0.6,54,11.3c10,2.9,20.8,6.7,24.5,2.3
	c3-3.6-0.3-10.7-0.5-11c-4.5-9.3-17.3-11.4-24.8-12.5c-11.6-1.8-14.1,0.8-25.5,0.5c-2.7-0.1-26-0.9-45.8-15.5
	C59.9,963.5,55,952.9,54.5,953.3z"/>
<path class="st0" d="M25.8,965.8c-2.5,2,5,21,20.8,32.8c15.2,11.4,34.7,13.5,36,10.5c1-2.4-9.6-7-33-25.3
	C32.2,970.3,27.3,964.5,25.8,965.8z"/>
<path class="st0" d="M71.3,1036.3c-1.6,2.8,10.5,14.3,24.8,20.8c14.9,6.7,31.8,7.7,32.8,4.8c1-3.1-15.6-11-23-14.5
	C96.3,1042.8,73.2,1032.8,71.3,1036.3z"/>
<path class="st0" d="M103.3,1022.5c1.4-7.7,40.5-4.8,70.5-2.5c7.9,0.6,23.9,2,37.5,13c1.2,1,11.7,9.6,9.8,13.8
	c-1.6,3.4-10.3,1.8-23.5,0.8c-23.8-2-25.3,0.5-38.8-1C131.6,1043.5,102,1029.4,103.3,1022.5z"/>
<path class="st0" d="M229.5,1018.3c-2.7,1.2-3.1,10.1,1.3,15.5c3.2,3.9,7.8,4.6,13,5.5c1.9,0.3,2.9,0.5,3.3,0
	C249.4,1036.4,234.3,1016.2,229.5,1018.3z"/>
<path class="st0" d="M236.8,988c-4.8,4.6,1.7,22.2,13,32c11.6,10.1,26,9.8,37.3,9.5c5.7-0.1,11.2-0.3,12.3-3
	c1.9-4.9-12.4-14.5-20.3-19.8C265.1,997.4,242.7,982.3,236.8,988z"/>
<path class="st0" d="M247.5,982.5c-1.1-2.8,7.6-11.7,17.5-11c0.6,0,8.5,0.7,12.8,7.5c3.8,6.2,2.9,14.8,0.3,15.8
	c-2.5,0.9-4.3-5.7-12-9.5C256.7,980.7,248.5,985,247.5,982.5z"/>
<path class="st0" d="M141.8,1054.8c-1.6,4.5,19.7,20.1,44.3,24.8c5.2,1,22.6-1.6,57.3-6.8c1.4-0.2,4.2-0.7,4.5-2
	c0.7-3.1-12.5-9.5-23.8-12.8c-15.4-4.4-21.7-1.3-47.3-2C151.8,1055.3,142.7,1052,141.8,1054.8z"/>
<path class="st0" d="M237,1051c0.3-8.1,45.1-11,48.8-11.3c0,0,20.2-1.3,45.8,8.8c1.7,0.7,5.1,2.1,5.3,4.3c0.4,4.6-13.8,9.1-16.5,10
	c-13.9,4.5-28.5,4.9-45.3,2C271.7,1064.2,236.7,1058.2,237,1051z"/>
<path class="st0" d="M288.3,978c-5.2,5,10.9,28.8,13.3,32.3c10.4,15.4,28.9,35.2,35.3,31.5c5.3-3.1,1.7-22.3-6.8-36.3
	C317.7,985.2,293.2,973.2,288.3,978z"/>
<path class="st0" d="M298.8,901.3c-5.1,1.5-4.7,23.8,1,42.3c6.3,20.3,20.3,40,25.5,38c5.4-2,1.7-27.2-5-46
	C314.8,920.1,304,899.7,298.8,901.3z"/>
<path class="st0" d="M341.5,938c-6.8,3.3-4.2,28.8,7.5,47.3c7.7,12.1,21.7,24.9,27.5,21.8c6.4-3.5,2.5-25.8-6.3-42
	C362.6,950.7,347.8,935,341.5,938z"/>
<path class="st0" d="M383.3,963.8c-5.4,3.6,1.2,24.7,10.5,39.3c9.4,14.7,25.6,28.6,31,25.3c4.9-3,0.4-19.7-4.5-30.3
	C410.4,976.8,389.2,959.8,383.3,963.8z"/>
<path class="st0" d="M198.8,1084.5c15.8-4.1,39.1-7.6,65.3-1c13.5,3.4,33.8,11.1,33,16.5c-1,7.1-37,6.6-40.8,6.5
	c-35-0.7-48.3-12.3-51.3-15C202.1,1088.8,200,1086.2,198.8,1084.5z"/>
<path class="st0" d="M254.3,1115.5c1.6-8.5,41.3-5.9,62.8-4.5c3.9,0.3,28,2.1,41.3,15c1.1,1.1,2.6,2.7,2.3,4.3
	c-1.1,4.4-15.9,2.9-47.3,3c-22.7,0.1-29.2,1-39.8-3.3C267.3,1127.5,253.3,1120.7,254.3,1115.5z"/>
<path class="st0" d="M280.5,1072.3c1.5-5.1,19.5,0.6,52.3-5.3c9.9-1.8,13.6-3.3,21.8-3c15.8,0.5,33.4,7,33.3,12.8
	c-0.1,6.3-21.5,10.4-34.8,13c-18.2,3.5-33.4,6.2-50.3-0.3C291.8,1085.3,279.2,1076.7,280.5,1072.3z"/>
<path class="st0" d="M337.5,1002c-3.4,2.8,7,22.9,20.3,37.8c15.3,17.1,36.1,29.1,39,26c2.6-2.8-9-17.3-14.8-24.5
	C365.7,1020.8,341.6,998.7,337.5,1002z"/>
<path class="st0" d="M395,1025.3c-1.5,1.3-0.1,3.5,18.3,42.8c4.1,8.8,7.2,15.5,14.8,19.5c6.5,3.5,16.6,5.1,20.3,0.8
	c6.9-8.1-12.1-33.3-13-34.5C421.4,1035.6,399.7,1021.1,395,1025.3z"/>
<path class="st0" d="M427.5,990c-5.1,5.1,5.9,28.2,21.8,42.3c2.7,2.4,0.9,0.4,34.3,20.5c7.5,4.5,10.8,6.5,12.5,5.3
	c4-3-3.4-21.1-13-34.3c-1.8-2.5-7.9-10.5-18.8-18.5C454.2,997.8,432.6,984.8,427.5,990z"/>
<path class="st0" d="M447.5,1042c-5,3.2,1.6,24,10.3,39.3c7.6,13.4,21,29.9,26,27.5c4.9-2.4-0.1-22.2-3.8-32.3
	c-5.9-16.4-14.5-24.2-17.8-27C458.2,1046.1,450.8,1039.9,447.5,1042z"/>
<path class="st0" d="M489.8,1068.5c-5.5,2.8-4,23.5,5.5,38.5c5.1,8.1,12.8,13.5,28.3,24.3c10.7,7.5,12.7,7.4,13.8,6.8
	c4.6-2.9-1-21.7-9-35c-5.7-9.6-12.2-15.5-18.8-21.5C499.6,1072.4,493.3,1066.7,489.8,1068.5z"/>
<path class="st0" d="M327.8,1102.3c0.2-3.6,11.2-3.9,46.5-10c19.6-3.4,28-5.3,39.5-1.8c6.6,2.1,18.8,7.4,18.5,13
	c-0.5,9-32.5,13.3-35.8,13.8c-24.5,3.2-42.3-2.7-52-6C336,1108.3,327.5,1105.4,327.8,1102.3z"/>
<path class="st0" d="M292.8,1145.5c1.6-8.8,36.3-9.9,54-9c23.2,1.2,39.8,6.8,59,13.3c20.1,6.8,32.9,11.1,32.8,16.5
	c-0.3,7.7-27.2,13.7-47,14.8c-27,1.4-47.4-6.2-59.8-11C323.3,1166.7,291.2,1154.3,292.8,1145.5z"/>
<path class="st0" d="M392,1129.5c0.5-8.8,33.2-13.9,46.5-15.3c8.4-0.8,21.1-2,37,1.5c21.2,4.7,49,17.8,47.5,26.8
	c-1.7,10.2-41.4,13.4-72,9.5C424.8,1148.7,391.5,1138.5,392,1129.5z"/>
</svg>
