<?xml version="1.0" encoding="utf-8"?>
<!-- Generator: Adobe Illustrator 20.1.0, SVG Export Plug-In . SVG Version: 6.00 Build 0)  -->
<svg version="1.1" id="Слой_1" xmlns="http://www.w3.org/2000/svg" xmlns:xlink="http://www.w3.org/1999/xlink" x="0px" y="0px"
	 viewBox="0 0 1390 275" style="enable-background:new 0 0 1390 275;" xml:space="preserve">
<style type="text/css">
	.st0{fill:#181E20;}
	.st1{font-family:'Roboto-Bold';}
	.st2{font-size:147.8289px;}
	.st3{fill:#50AAB1;}
	.st4{font-size:148.4207px;}
	.st5{fill:#191E21;}
</style>
<g id="Слой_2">
	<text transform="matrix(1 0 0 1 2.0001 199.4904)" class="st0 st1 st2">MIMIER</text>
	<text transform="matrix(1.1461 0 0 1 855.6704 199.4904)" class="st3 st1 st4">TRADE</text>
	<polygon class="st3" points="628,143.3 696.7,2.3 759,117.3 743,127.6 816.4,128.6 715,153.3 707.4,132.9 701.4,113.5 	"/>
	<path class="st5" d="M788.3,176.2c6.2-1.5-0.9,31.8-7.6,46.2c-8.2,17.9-19.3,28.8-24,32.7c-21.5,17.7-45.2,18.9-51.7,19
		c-7.6,0.1-24.2,0.2-41-10c-6.6-4-16.7-14-40.4-58.6c-0.9-1.8,21.8-11,18.1-11.4c-3.2-0.3-65,14.9-66.6,11
		c-0.5-1.1,77.8-34.9,104-43.6c0.4-0.1,0.8,29.7,23.6,33.7C717.8,197.9,754,184.2,788.3,176.2z"/>
</g>
</svg>
