<svg id="Слой_1" data-name="Слой 1" xmlns="http://www.w3.org/2000/svg" viewBox="0 0 145.41 51.04"><defs><style>.cls-1{fill:#003a5d;}</style></defs><title>лого  мхп</title><path class="cls-1" d="M298.5,725.87V700.69h-27v25.18h8V707.34H290.6v18.53Z" transform="translate(-153.09 -693.41)"/><path class="cls-1" d="M268.43,700.69h-9l-5.06,6.54-5.06-6.54h-9l9.61,12.39-9.95,12.79h9l5.4-7,5.4,7h9l-9.89-12.79Z" transform="translate(-153.09 -693.41)"/><path class="cls-1" d="M237.17,725.87V700.69h-7.73l-7,9.89-7-9.89h-7.73v25.18h7.62V712l6.76,9.55h.74l6.76-9.55v13.87Z" transform="translate(-153.09 -693.41)"/><path class="cls-1" d="M201.33,733.63l-12-12V713.4l12-12-8-8-11.54,11.53-4.59-4.58-4.59,4.58-11.5-11.53-6.74,6.73-1.27,1.27,12,12v8.25l-12,12,8,8,4-4v6h24.24v-6l4,4Zm-41-3.84,2.15-2.19,4.66,4.65-2.19,2.19Zm3,6.31-2.19,2.19-4.66-4.69,2.19-2.19Zm6.14-24.68,2.89,2.89-3.18,3.21,3.21,3.21-2.89,2.89-2-2v-8.18Zm7.76,1.37,1.52,1.52-1.52,1.52-1.52-1.52Zm9.78.63v8.18l-2,2-2.89-2.89,3.21-3.21-3.21-3.21,2.89-2.89Zm-3.49,15,4.66-4.65,2.19,2.19-4.66,4.65Zm-1.55-10.93L180.41,719l-1.52-1.52,1.52-1.52Zm-4.73,4.72-1.52-1.52,1.52-1.52,1.52,1.52Zm-1.66-4.72L174,719l-1.52-1.52L174,716ZM171,728.45l-2.19,2.19-4.66-4.69,2.19-2.19Zm3.35,0-3.18-3.17,2.89-2.89,3.18,3.17,3.21-3.17,2.89,2.89-3.18,3.17,6.56,6.56h-19Zm13,3.84L192,727.6l2.19,2.19-4.66,4.65Zm6.81-27-2.19,2.19-4.66-4.65,2.19-2.19Zm-3-6.35,2.19-2.19,4.66,4.65-2.19,2.19Zm-5.51,5.5,4.69,4.69-2.19,2.19-4.66-4.69Zm-2.33,5.36-2.89,2.89-3.21-3.21L174,712.66l-2.89-2.89,6.11-6.1Zm-17,1.48-2.19-2.19,4.69-4.65,2.19,2.19ZM165,700.56l2.19,2.19-4.69,4.65-2.19-2.19Zm-6.35,3-2.15-2.15,4.66-4.65,2.19,2.19Zm8.86,37.72v-3.91H187v3.91Zm25.87-3-2.19-2.19,4.66-4.65,2.19,2.19Z" transform="translate(-153.09 -693.41)"/><path class="cls-1" d="M210.87,735.34l-.23-.69h-1.91l-.23.69h-1.44l1.85-4.85h1.56l1.85,4.85Zm-1.21-3.64-.64,1.85h1.21Z" transform="translate(-153.09 -693.41)"/><path class="cls-1" d="M213,735.34v-4.85h3.58v1.1h-2.31v3.75Z" transform="translate(-153.09 -693.41)"/><path class="cls-1" d="M217.63,735.34v-4.85h2.43a1.62,1.62,0,1,1,0,3.23H218.9v1.62Zm2.83-3.23c0-.35-.23-.52-.58-.52h-1v1h1A.53.53,0,0,0,220.45,732.11Z" transform="translate(-153.09 -693.41)"/><path class="cls-1" d="M222.42,732.91a2.6,2.6,0,1,1,2.6,2.54A2.54,2.54,0,0,1,222.42,732.91Zm3.93,0a1.29,1.29,0,0,0-1.33-1.39,1.32,1.32,0,0,0-1.33,1.39,1.33,1.33,0,1,0,2.66,0Z" transform="translate(-153.09 -693.41)"/><path class="cls-1" d="M228.65,735.34v-4.85h1.27v4.85Z" transform="translate(-153.09 -693.41)"/><path class="cls-1" d="M234.43,735.34v-2h-2v2h-1.27v-4.85h1.27v1.79h2v-1.79h1.27v4.85Z" transform="translate(-153.09 -693.41)"/><path class="cls-1" d="M236.62,734.3c.46-.06.75-.29.87-1.39l.29-2.48h3.64v3.75h.46v2h-1.27v-.92h-2.71v.92h-1.27Zm1.62-.06h2v-2.66H239l-.17,1.44A2.38,2.38,0,0,1,238.24,734.24Z" transform="translate(-153.09 -693.41)"/><path class="cls-1" d="M242.28,735.05l.52-1a1.21,1.21,0,0,0,.64.23A.58.58,0,0,0,244,734l-1.73-3.46h1.44l1,2.25,1-2.25h1.44l-2,3.93a1.77,1.77,0,0,1-1.67,1A2.58,2.58,0,0,1,242.28,735.05Z" transform="translate(-153.09 -693.41)"/><path class="cls-1" d="M247.54,732.91a2.52,2.52,0,0,1,2.66-2.54,2.25,2.25,0,0,1,2.14,1.33l-1.1.52a1.14,1.14,0,0,0-1-.69,1.39,1.39,0,0,0,0,2.77,1.24,1.24,0,0,0,1-.69l1.1.52a2.22,2.22,0,0,1-2.14,1.33A2.52,2.52,0,0,1,247.54,732.91Z" transform="translate(-153.09 -693.41)"/><path class="cls-1" d="M254.29,735.34v-3.75h-1.39v-1.1h4v1.1H255.5v3.75Z" transform="translate(-153.09 -693.41)"/><path class="cls-1" d="M257.87,735.34v-4.85h2.43a1.62,1.62,0,1,1,0,3.23h-1.15v1.62Zm2.83-3.23c0-.35-.23-.52-.58-.52h-1v1h1A.53.53,0,0,0,260.7,732.11Z" transform="translate(-153.09 -693.41)"/><path class="cls-1" d="M262.9,735.34v-4.85h1.27v4.85Z" transform="translate(-153.09 -693.41)"/><path class="cls-1" d="M268.73,735.34l-.23-.69h-1.91l-.23.69h-1.44l1.85-4.85h1.56l1.85,4.85Zm-1.21-3.64-.64,1.85h1.21Z" transform="translate(-153.09 -693.41)"/><path class="cls-1" d="M270.57,734.3c.46,0,.75-.29.87-1.39l.29-2.48h3.64v4.85H274.1v-3.75h-1.21l-.17,1.44c-.23,2-1,2.37-2.14,2.37Z" transform="translate(-153.09 -693.41)"/><path class="cls-1" d="M277.85,730.49v1.62H279a1.62,1.62,0,1,1,0,3.23h-2.43v-4.85Zm0,2.71v1h1c.35,0,.58-.17.58-.52s-.23-.52-.58-.52Z" transform="translate(-153.09 -693.41)"/><path class="cls-1" d="M285,735.34v-2h-2v2h-1.27v-4.85h1.27v1.79h2v-1.79h1.27v4.85Z" transform="translate(-153.09 -693.41)"/><path class="cls-1" d="M287.44,735.34v-4.85h1.27v2.89l2-2.89h1.27v4.85h-1.21v-3l-2.08,3Z" transform="translate(-153.09 -693.41)"/><path class="cls-1" d="M293.21,735.34v-4.85h1.27v2.89l2-2.89h1.27v4.85h-1.27v-3l-2.08,3Zm2.25-5.08a1.53,1.53,0,0,1-1.27-.64l.46-.4a1,1,0,0,0,1.62,0l.46.4A1.53,1.53,0,0,1,295.46,730.26Z" transform="translate(-153.09 -693.41)"/><path class="cls-1" d="M210.77,743.65l-1-1.61-1,1.61h-1.49l1.67-2.47-1.61-2.36h1.49l1,1.49.92-1.49h1.49l-1.55,2.36,1.67,2.47Z" transform="translate(-153.09 -693.41)"/><path class="cls-1" d="M212.5,741.23a2.59,2.59,0,1,1,2.59,2.53A2.46,2.46,0,0,1,212.5,741.23Zm3.91,0a1.28,1.28,0,0,0-1.32-1.38,1.31,1.31,0,0,0-1.32,1.38,1.32,1.32,0,1,0,2.64,0Z" transform="translate(-153.09 -693.41)"/><path class="cls-1" d="M218.13,742.61c.46,0,.75-.29.86-1.38l.29-2.47h3.62v4.83h-1.26v-3.74h-1.21l-.17,1.44c-.23,2-1,2.36-2.13,2.36Z" transform="translate(-153.09 -693.41)"/><path class="cls-1" d="M223.88,742.61c.46-.06.75-.29.86-1.38l.29-2.47h3.62v3.74h.46v2h-1.26v-.92h-2.7v.92h-1.26Zm1.61-.06h2v-2.64h-1.21l-.17,1.44A2.16,2.16,0,0,1,225.49,742.55Z" transform="translate(-153.09 -693.41)"/><path class="cls-1" d="M230,743.65v-4.83h1.26v2.87l2-2.87h1.26v4.83h-1.26v-3l-2.07,3Z" transform="translate(-153.09 -693.41)"/><path class="cls-1" d="M239,743.65v-2h-2v2h-1.26v-4.83H237v1.78h2v-1.78h1.26v4.83Z" transform="translate(-153.09 -693.41)"/><path class="cls-1" d="M241.52,743.65v-4.83h3.56v1.09h-2.3v3.74Z" transform="translate(-153.09 -693.41)"/></svg>