<svg xmlns:xlink="http://www.w3.org/1999/xlink" xmlns="http://www.w3.org/2000/svg" xml:space="preserve"  viewBox="580.7999267578125 381.29998779296875 453.10009765625 97.39999389648438" y="0px" x="0px" preserveAspectRatio="xMidYMid meet" fill="#ffffff" fill-opacity="1">
<style type="text/css">
	.st0{fill:#164d7f;}
</style>
<g>
	<path d="M580.8,381.3l20.8,0l45.8,73.9l0-73.9l16.7,0l0,97.3l-21.7,0.1l-44.9-74.1l0,74l-16.7,0L580.8,381.3z" class="st0"></path>
	<path d="M694.7,397c0-5.5,1.3-9.4,4-11.9c2.6-2.5,6.9-3.7,12.7-3.7l43.1,0c5.8,0,10.1,1.3,12.7,3.8   c2.6,2.5,4,6.5,4,11.9l0,65.9c0,5.5-1.3,9.4-4,11.9c-2.6,2.5-6.9,3.8-12.7,3.7l-43.1,0c-5.8,0-10.1-1.3-12.7-3.8   c-2.6-2.5-4-6.5-4-11.9L694.7,397z M751.8,462.8c1.8,0,2.6-0.9,2.6-2.6l0-60.6c0-1.8-0.9-2.6-2.6-2.6l-37.8,0   c-1.8,0-2.6,0.9-2.6,2.6l0,60.6c0,1.8,0.9,2.6,2.6,2.6L751.8,462.8z" class="st0"></path>
	<path d="M796.1,381.3l16.9,0l15.1,81.6l18.2,0l15.2-81.5l16.8,0l-18.2,97.2l-45.8,0L796.1,381.3z" class="st0"></path>
	<path d="M906.2,381.3l16.7,0l0,97.3l-16.7,0L906.2,381.3z" class="st0"></path>
	<path d="M954.8,381.3l16.7,0l0,45.7l39.7-45.7l20.1,0l-26.7,30.6l29.3,66.7l-18.2,0l-23.3-52.5l-21,24.2l0,28.3   l-16.7,0L954.8,381.3z" class="st0"></path>
</g>
</svg>