<?xml version="1.0" encoding="utf-8"?>
<!-- Generator: Adobe Illustrator 20.1.0, SVG Export Plug-In . SVG Version: 6.00 Build 0)  -->
<svg version="1.1" id="Слой_1" xmlns="http://www.w3.org/2000/svg" xmlns:xlink="http://www.w3.org/1999/xlink" x="0px" y="0px"
	 viewBox="0 0 780 600" style="enable-background:new 0 0 780 600;" xml:space="preserve">
<style type="text/css">
	.st0{fill:#508459;}
	.st1{fill:#171819;}
	.st2{fill:#E1C05E;}
	.st3{fill:#FFFFFF;}
	.st4{enable-background:new    ;}
</style>
<g transform="translate(0.000000,400.000000) scale(0.100000,-0.100000)">
	<path class="st0" d="M3641.9,3927.9c-73.9-28.6-73.9-28.6,10.3-97.9c67.7-55,67.7-55,75.9-61.1c19.9-14.7,73.9-48.8,151.9-89.7
		c182.7-95.8,324.1-106,476.1-30.7c55.4,26.5,104.7,52.9,108.8,55c24.6,16.4-139.6,152.8-238,199.8c-96.4,45-137.9,61.5-322.5,59.5
		C3789.3,3960.9,3672.7,3940.2,3641.9,3927.9z"/>
	<path class="st0" d="M3418.4,3825.9c-112.9-83.5-190.9-154.8-235.9-214.1c-51.4-63.1-51.4-69.2-18.4-106
		c98.5-108,478.1-215.3,556.1-165c55.8,34.3,216,126.2,250.9,128.3c5.2,7.2-15,22.7-74.5,49c-121.1,55-289.2,173.2-383.7,269.1
		C3461.5,3838.3,3445,3844.4,3418.4,3825.9z"/>
	<path class="st0" d="M4446.2,3548.8c-38.4-13.1-67.7-27.1-112.9-49.4c-69.8-32.7-84.2-56.4-98.5-136.1
		c-30.8-161,16.5-546.3,69.8-601.5c16.5-14.3,164.2,148.8,196.9,216.1c78,163,104.7,316,80.1,466.8
		c-16.5,103.9-26.7,122.4-61.6,120.3C4495.5,3564.9,4462.7,3557,4446.2,3548.8z"/>
	<path class="st0" d="M2915.7,3289.7c-92.4-128.5-94.4-138.7-59.5-163c22.6-16.4,96.3-38.2,123.2-48.8
		c45.6-17.2,211.8-25.9,302.2,27.1c64.2,33.3,95.9,50.9,124.6,68.7c49.5,24.1,34.9,50.9-28.7,69.2
		c-82.2,22.5-235.9,99.9-281.1,140.7c-24.6,22.5-51.4,40.9-63.6,40.9C3022.4,3424.4,2969,3363.2,2915.7,3289.7z"/>
	<path class="st0" d="M3882,3283.6c-100.6-52.9-102.6-57-135.5-197.8c-37-156.8-18.4-338.3,49.3-501.6
		c24.6-59.1,47.2-61.1,188.9-12.3c162.1,55,223.5,93.8,196.9,126.5c-53.4,63.1-86.3,263-80.1,470.9c4.1,161,0,214.1-18.4,214.1
		C4068.7,3383.5,3939.3,3314.3,3882,3283.6z"/>
	<path class="st0" d="M3527.2,3092c-61.2-34.7-110.6-61.3-195.1-116.2c-53.4-34.7-98.5-279.2-51.4-430.3l22.6-79.5l186.8,14.3
		c102.6,6.1,190.9,14.3,195.1,20.4c6.2,4.1-7.2,14.9-14.4,30.7c-10.9,23.7-75.9,230.4-75.9,373
		C3594.7,3116.4,3600.1,3137.3,3527.2,3092z"/>
	<path class="st0" d="M2688,2945.3c-26.7-38.8-272.9-470.9-272.9-491.3c0-10.3,125.3,124.4,201,185.5
		c196.9,165,198.9,167.1,295.4,226.3l86.3,55c0,0-170.6,74.8-184.8,81.5C2759.3,3026.2,2731.1,3012.5,2688,2945.3z"/>
	<path class="st0" d="M2925.8,2714.8c-86.3-63.1-196.9-150.8-246.1-193.6l-90.3-79.5l131.3,12.3c71.9,6.1,196.9,12.3,277,12.3h145.8
		l-6.2,183.5c-4.1,124.4-14.4,183.5-30.8,183.5C3092.2,2833.1,3012.1,2780.2,2925.8,2714.8z"/>
	<path class="st1" d="M2722.9,2213.5c-252.5-71.5-430.9-257-484.3-505.6c-84.2-409.8,266.6-856.2,750.9-952
		c180.7-36.8,387.8-65.2,574.6-79.5c227.7-18.3,1046.3-8.2,1046.3,12.3c0,10.3-37,36.8-82.2,63.1c-154,85.6-248.2,205.9-467.8,593.3
		c-123.2,218.2-332.3,489.3-494.5,638C3342.4,2191,2989.5,2286.8,2722.9,2213.5z"/>
</g>
<path class="st2" d="M435.7,288c18,19,42.9,26.1,67.6,19.2c40.4-11.6,64-63.1,50.1-110.3c-5.2-17.6-12.1-37.2-19.5-54.1
	c-9-20.8-47.8-92.5-49.7-91.5c-0.8,0.4-1.7,4.9-1.8,10.3c-0.4,17.6-6.8,31.5-31.2,68.7c-13.8,21-28.1,51.9-33.9,73.2
	C408.8,232.3,416.8,267.8,435.7,288z"/>
<path class="st3" d="M522.4,271.3c1.8,5.3,16.6-13.1,17-43.1c0.6-17.6-25.7-99.4-25.7-99.4s5.2,26.5,9.9,50.9s5.8,49.2,2.5,73.8
	C525,260.2,523.8,266.3,522.4,271.3z"/>
<g class="st4">
	<path d="M189.3,430.4h-8v-39.7h-20.3v39.7h-8v-46.2h36.3V430.4z"/>
	<path d="M235.9,408.5c0,4.5-0.8,8.5-2.3,11.9c-1.6,3.4-3.8,6-6.7,7.9c-2.9,1.8-6.3,2.7-10,2.7c-3.7,0-7.1-0.9-10-2.7
		c-2.9-1.8-5.2-4.4-6.8-7.8c-1.6-3.4-2.4-7.3-2.4-11.7v-2.6c0-4.5,0.8-8.5,2.4-11.9c1.6-3.4,3.9-6.1,6.8-7.9c2.9-1.8,6.2-2.7,10-2.7
		c3.8,0,7.1,0.9,10,2.7c2.9,1.8,5.2,4.4,6.7,7.8c1.6,3.4,2.4,7.3,2.4,11.9V408.5z M227.8,406.1c0-5.1-1-9-2.9-11.8
		c-1.9-2.7-4.7-4.1-8.2-4.1c-3.5,0-6.2,1.4-8.1,4.1c-2,2.7-3,6.6-3,11.5v2.7c0,5.1,1,9,3,11.8c2,2.8,4.7,4.2,8.2,4.2
		c3.6,0,6.3-1.4,8.2-4.1c1.9-2.7,2.9-6.7,2.9-11.9V406.1z"/>
	<path d="M279.2,384.2v46.2h-8v-39.7h-14.2l-0.8,17.9c-0.3,5.6-1,9.9-2,13c-1,3.1-2.6,5.3-4.6,6.7s-4.7,2.1-8,2.1h-2v-6.5l1.3-0.1
		c1.8-0.2,3.3-0.8,4.3-1.9c1-1.1,1.8-2.8,2.3-5.1c0.5-2.3,0.9-5.6,1.1-10l0.9-22.6H279.2z"/>
	<path d="M325.8,408.5c0,4.5-0.8,8.5-2.3,11.9c-1.6,3.4-3.8,6-6.7,7.9c-2.9,1.8-6.3,2.7-10,2.7c-3.7,0-7.1-0.9-10-2.7
		c-2.9-1.8-5.2-4.4-6.8-7.8c-1.6-3.4-2.4-7.3-2.4-11.7v-2.6c0-4.5,0.8-8.5,2.4-11.9c1.6-3.4,3.9-6.1,6.8-7.9c2.9-1.8,6.2-2.7,10-2.7
		c3.8,0,7.1,0.9,10,2.7c2.9,1.8,5.2,4.4,6.7,7.8c1.6,3.4,2.4,7.3,2.4,11.9V408.5z M317.7,406.1c0-5.1-1-9-2.9-11.8
		c-1.9-2.7-4.7-4.1-8.2-4.1c-3.5,0-6.2,1.4-8.1,4.1c-2,2.7-3,6.6-3,11.5v2.7c0,5.1,1,9,3,11.8c2,2.8,4.7,4.2,8.2,4.2
		c3.6,0,6.3-1.4,8.2-4.1c1.9-2.7,2.9-6.7,2.9-11.9V406.1z"/>
	<path d="M363.3,390.7H342v39.7h-8v-46.2h29.3V390.7z"/>
	<path d="M378.5,430.4h-8v-46.2h8V430.4z"/>
	<path d="M388.3,430.4v-46.2h15.8c5.2,0,9.2,1,11.9,3.1c2.7,2.1,4.1,5.2,4.1,9.4c0,2.1-0.6,4-1.7,5.7s-2.8,3-5,3.9
		c2.5,0.7,4.4,2,5.8,3.8c1.4,1.9,2,4.1,2,6.7c0,4.3-1.4,7.7-4.2,10c-2.8,2.3-6.8,3.5-12,3.5H388.3z M396.4,403.6h7.9
		c2.5,0,4.4-0.6,5.9-1.7c1.4-1.1,2.1-2.7,2.1-4.8c0-2.3-0.7-3.9-2-5c-1.3-1-3.3-1.5-6.1-1.5h-7.8V403.6z M396.4,409.5v14.4h8.9
		c2.5,0,4.5-0.6,5.9-1.9s2.1-3,2.1-5.2c0-4.8-2.5-7.2-7.4-7.3H396.4z"/>
	<path d="M464.6,415.4c-0.5,4.9-2.3,8.8-5.5,11.5c-3.2,2.8-7.4,4.1-12.7,4.1c-3.7,0-6.9-0.9-9.7-2.6c-2.8-1.7-5-4.2-6.5-7.4
		c-1.5-3.2-2.3-7-2.4-11.2v-4.3c0-4.4,0.8-8.2,2.3-11.5c1.5-3.3,3.8-5.9,6.7-7.7s6.2-2.7,10-2.7c5.1,0,9.2,1.4,12.3,4.1
		s4.9,6.7,5.4,11.7h-8c-0.4-3.3-1.3-5.7-2.9-7.2c-1.6-1.5-3.8-2.2-6.8-2.2c-3.5,0-6.2,1.3-8,3.8c-1.9,2.6-2.8,6.3-2.9,11.2v4.1
		c0,5,0.9,8.8,2.7,11.4c1.8,2.6,4.4,3.9,7.9,3.9c3.2,0,5.5-0.7,7.1-2.1c1.6-1.4,2.6-3.8,3-7.1H464.6z"/>
	<path d="M479.7,401.9h9.5c3.4,0,6.3,0.6,8.9,1.7s4.4,2.8,5.7,5c1.3,2.1,2,4.6,2,7.4c0,4.3-1.5,7.8-4.4,10.4c-2.9,2.6-6.9,4-12,4
		h-17.7v-46.2h8V401.9z M479.7,408.3v15.6h9.4c2.7,0,4.8-0.7,6.3-2.2c1.5-1.5,2.3-3.4,2.3-5.8c0-2.3-0.7-4.1-2.2-5.5
		c-1.5-1.3-3.5-2-6.2-2.1H479.7z"/>
	<path d="M526.3,410.6h-5.5v19.8h-8v-46.2h8v19.4h4.4l13.6-19.4h9.8l-15.9,22.1l17.3,24.1h-9.7L526.3,410.6z"/>
	<path d="M582.9,384.2h8v46.2h-8v-32.9l-20.3,32.9h-8v-46.2h8v33L582.9,384.2z"/>
	<path d="M628.8,384.2h8v46.2h-8v-32.9l-20.3,32.9h-8v-46.2h8v33L628.8,384.2z M629.1,372.4c0,2.7-0.9,4.8-2.8,6.5s-4.3,2.5-7.5,2.5
		c-3.1,0-5.6-0.8-7.5-2.5s-2.8-3.8-2.8-6.5h5.8c0,1.4,0.4,2.4,1.2,3.2s1.9,1.1,3.3,1.1c1.4,0,2.5-0.4,3.3-1.1
		c0.8-0.8,1.2-1.8,1.2-3.2H629.1z"/>
</g>
<g class="st4">
	<path d="M44.7,486.5c0,4.5-0.8,8.5-2.3,11.9c-1.6,3.4-3.8,6-6.7,7.9c-2.9,1.8-6.3,2.7-10,2.7c-3.7,0-7.1-0.9-10-2.7
		c-2.9-1.8-5.2-4.4-6.8-7.8c-1.6-3.4-2.4-7.3-2.4-11.7v-2.6c0-4.5,0.8-8.5,2.4-11.9c1.6-3.4,3.9-6.1,6.8-7.9c2.9-1.8,6.2-2.7,10-2.7
		c3.8,0,7.1,0.9,10,2.7c2.9,1.8,5.2,4.4,6.7,7.8c1.6,3.4,2.4,7.3,2.4,11.9V486.5z M36.7,484.1c0-5.1-1-9-2.9-11.8
		c-1.9-2.7-4.7-4.1-8.2-4.1c-3.5,0-6.2,1.4-8.1,4.1c-2,2.7-3,6.6-3,11.5v2.7c0,5.1,1,9,3,11.8c2,2.8,4.7,4.2,8.2,4.2
		c3.6,0,6.3-1.4,8.2-4.1c1.9-2.7,2.9-6.7,2.9-11.9V484.1z"/>
	<path d="M88.1,462.2v46.2h-8v-39.7H65.9l-0.8,17.9c-0.3,5.6-1,9.9-2,13c-1,3.1-2.6,5.3-4.6,6.7s-4.7,2.1-8,2.1h-2v-6.5l1.3-0.1
		c1.8-0.2,3.3-0.8,4.3-1.9c1-1.1,1.8-2.8,2.3-5.1c0.5-2.3,0.9-5.6,1.1-10l0.9-22.6H88.1z"/>
	<path d="M106.2,508.4h-8v-46.2h8V508.4z"/>
	<path d="M144.4,462.2h8v46.2h-8v-32.9l-20.3,32.9h-8v-46.2h8v33L144.4,462.2z M144.6,450.4c0,2.7-0.9,4.8-2.8,6.5
		c-1.9,1.7-4.3,2.5-7.5,2.5c-3.1,0-5.6-0.8-7.5-2.5c-1.9-1.7-2.8-3.8-2.8-6.5h5.8c0,1.4,0.4,2.4,1.2,3.2c0.8,0.8,1.9,1.1,3.3,1.1
		c1.4,0,2.5-0.4,3.3-1.1c0.8-0.8,1.2-1.8,1.2-3.2H144.6z"/>
	<path d="M198.7,508.4h-8v-20.5h-20.7v20.5h-8v-46.2h8v19.2h20.7v-19.2h8V508.4z"/>
	<path d="M245.1,486.5c0,4.5-0.8,8.5-2.3,11.9c-1.6,3.4-3.8,6-6.7,7.9c-2.9,1.8-6.3,2.7-10,2.7c-3.7,0-7.1-0.9-10-2.7
		c-2.9-1.8-5.2-4.4-6.8-7.8c-1.6-3.4-2.4-7.3-2.4-11.7v-2.6c0-4.5,0.8-8.5,2.4-11.9c1.6-3.4,3.9-6.1,6.8-7.9c2.9-1.8,6.2-2.7,10-2.7
		c3.8,0,7.1,0.9,10,2.7c2.9,1.8,5.2,4.4,6.7,7.8c1.6,3.4,2.4,7.3,2.4,11.9V486.5z M237.1,484.1c0-5.1-1-9-2.9-11.8
		c-1.9-2.7-4.7-4.1-8.2-4.1c-3.5,0-6.2,1.4-8.1,4.1c-2,2.7-3,6.6-3,11.5v2.7c0,5.1,1,9,3,11.8c2,2.8,4.7,4.2,8.2,4.2
		c3.6,0,6.3-1.4,8.2-4.1c1.9-2.7,2.9-6.7,2.9-11.9V484.1z"/>
	<path d="M280.1,487.8h-19v14.2h22.2v6.5h-30.2v-46.2h30v6.5h-22v12.8h19V487.8z"/>
	<path d="M303.6,488.6h-5.5v19.8h-8v-46.2h8v19.4h4.4l13.6-19.4h9.8l-15.9,22.1l17.3,24.1h-9.7L303.6,488.6z"/>
	<path d="M366.1,493.4c-0.5,4.9-2.3,8.8-5.5,11.5s-7.4,4.1-12.7,4.1c-3.7,0-6.9-0.9-9.7-2.6c-2.8-1.7-5-4.2-6.5-7.4
		c-1.5-3.2-2.3-7-2.4-11.2v-4.3c0-4.4,0.8-8.2,2.3-11.5c1.5-3.3,3.8-5.9,6.7-7.7s6.2-2.7,10-2.7c5.1,0,9.2,1.4,12.3,4.1
		c3.1,2.8,4.9,6.7,5.4,11.7h-8c-0.4-3.3-1.3-5.7-2.9-7.2c-1.6-1.5-3.8-2.2-6.8-2.2c-3.5,0-6.2,1.3-8,3.8c-1.9,2.6-2.8,6.3-2.9,11.2
		v4.1c0,5,0.9,8.8,2.7,11.4s4.4,3.9,7.9,3.9c3.2,0,5.5-0.7,7.1-2.1c1.6-1.4,2.6-3.8,3-7.1H366.1z"/>
	<path d="M405.7,468.7h-14.4v39.7h-8v-39.7H369v-6.5h36.7V468.7z"/>
	<path d="M419.8,491.3v17.1h-8v-46.2h17.7c5.2,0,9.3,1.3,12.3,4c3,2.7,4.6,6.3,4.6,10.7c0,4.5-1.5,8.1-4.5,10.6s-7.1,3.8-12.5,3.8
		H419.8z M419.8,484.8h9.7c2.9,0,5-0.7,6.5-2c1.5-1.3,2.3-3.3,2.3-5.8c0-2.5-0.8-4.5-2.3-6c-1.5-1.5-3.6-2.3-6.3-2.3h-9.9V484.8z"/>
	<path d="M473.5,497.6h-17.9l-3.7,10.8h-8.3l17.5-46.2h7.2l17.5,46.2h-8.4L473.5,497.6z M457.9,491.2h13.4l-6.7-19.2L457.9,491.2z"
		/>
	<path d="M504.6,488.6h-5.5v19.8h-8v-46.2h8v19.4h4.4l13.6-19.4h9.8l-15.9,22.1l17.3,24.1h-9.7L504.6,488.6z"/>
	<path d="M532.8,462.2h8v39.7h20.3v-39.7h8v39.7h5.6l-0.6,17.7h-7.4v-11.1h-34V462.2z"/>
	<path d="M589.9,508.4h-8v-46.2h8V508.4z"/>
	<path d="M628,462.2h8v46.2h-8v-32.9l-20.3,32.9h-8v-46.2h8v33L628,462.2z M628.3,450.4c0,2.7-0.9,4.8-2.8,6.5s-4.3,2.5-7.5,2.5
		c-3.1,0-5.6-0.8-7.5-2.5s-2.8-3.8-2.8-6.5h5.8c0,1.4,0.4,2.4,1.2,3.2s1.9,1.1,3.3,1.1c1.4,0,2.5-0.4,3.3-1.1
		c0.8-0.8,1.2-1.8,1.2-3.2H628.3z"/>
	<path d="M682.4,508.4h-8v-20.5h-20.7v20.5h-8v-46.2h8v19.2h20.7v-19.2h8V508.4z"/>
	<path d="M720.2,462.2h8v46.2h-8v-32.9l-20.3,32.9h-8v-46.2h8v33L720.2,462.2z"/>
	<path d="M766.2,462.2h8v46.2h-8v-32.9l-20.3,32.9h-8v-46.2h8v33L766.2,462.2z M766.4,450.4c0,2.7-0.9,4.8-2.8,6.5s-4.3,2.5-7.5,2.5
		c-3.1,0-5.6-0.8-7.5-2.5s-2.8-3.8-2.8-6.5h5.8c0,1.4,0.4,2.4,1.2,3.2s1.9,1.1,3.3,1.1c1.4,0,2.5-0.4,3.3-1.1
		c0.8-0.8,1.2-1.8,1.2-3.2H766.4z"/>
</g>
<g class="st4">
	<path d="M301.5,552.8c0-2.1-0.8-3.7-2.3-4.9c-1.6-1.2-3.7-1.8-6.4-1.8c-2.3,0-4.2,0.6-5.8,1.8s-2.3,2.8-2.3,4.7h-8
		c0-2.5,0.7-4.8,2.1-6.7c1.4-2,3.3-3.5,5.8-4.6c2.5-1.1,5.2-1.6,8.2-1.6c5.3,0,9.4,1.2,12.3,3.5c2.9,2.3,4.4,5.5,4.4,9.7
		c0,2.1-0.6,4-1.9,5.8c-1.3,1.8-3,3.1-5.3,4.2c2.6,0.9,4.6,2.2,5.9,4c1.4,1.8,2,4.1,2,6.7c0,4.1-1.6,7.4-4.8,9.9
		c-3.2,2.4-7.4,3.7-12.7,3.7c-3.3,0-6.2-0.6-8.8-1.7c-2.6-1.2-4.6-2.8-5.9-4.8c-1.3-2-2-4.3-2-6.9h8c0,2,0.8,3.7,2.5,5
		c1.7,1.4,3.7,2,6.3,2c2.8,0,5.1-0.7,6.8-2c1.7-1.3,2.6-3.1,2.6-5.2c0-2.6-0.8-4.5-2.3-5.7c-1.5-1.2-3.7-1.8-6.7-1.8h-5.4v-6.3h5.1
		C298.7,559.7,301.5,557.4,301.5,552.8z"/>
	<path d="M343.6,575.6h-17.9l-3.7,10.8h-8.3l17.5-46.2h7.2l17.5,46.2h-8.4L343.6,575.6z M327.9,569.2h13.4l-6.7-19.2L327.9,569.2z"
		/>
	<path d="M361,586.4v-46.2h15.8c5.2,0,9.2,1,11.9,3.1c2.7,2.1,4.1,5.2,4.1,9.4c0,2.1-0.6,4-1.7,5.7c-1.1,1.7-2.8,3-5,3.9
		c2.5,0.7,4.4,2,5.8,3.8s2,4.1,2,6.7c0,4.3-1.4,7.7-4.2,10c-2.8,2.3-6.8,3.5-12,3.5H361z M369,559.6h7.9c2.5,0,4.4-0.6,5.9-1.7
		c1.4-1.1,2.1-2.7,2.1-4.8c0-2.3-0.7-3.9-2-5c-1.3-1-3.3-1.5-6.1-1.5H369V559.6z M369,565.5v14.4h8.9c2.5,0,4.5-0.6,5.9-1.9
		s2.1-3,2.1-5.2c0-4.8-2.5-7.2-7.4-7.3H369z"/>
	<path d="M438.9,564.5c0,4.5-0.8,8.5-2.3,11.9s-3.8,6-6.7,7.9c-2.9,1.8-6.3,2.7-10,2.7c-3.7,0-7.1-0.9-10-2.7
		c-2.9-1.8-5.2-4.4-6.8-7.8c-1.6-3.4-2.4-7.3-2.4-11.7v-2.6c0-4.5,0.8-8.5,2.4-11.9c1.6-3.4,3.9-6.1,6.8-7.9c2.9-1.8,6.2-2.7,10-2.7
		c3.8,0,7.1,0.9,10,2.7c2.9,1.8,5.2,4.4,6.7,7.8c1.6,3.4,2.4,7.3,2.4,11.9V564.5z M430.9,562.1c0-5.1-1-9-2.9-11.8
		c-1.9-2.7-4.7-4.1-8.2-4.1c-3.5,0-6.2,1.4-8.1,4.1c-2,2.7-3,6.6-3,11.5v2.7c0,5.1,1,9,3,11.8c2,2.8,4.7,4.2,8.2,4.2
		c3.6,0,6.3-1.4,8.2-4.1c1.9-2.7,2.9-6.7,2.9-11.9V562.1z"/>
	<path d="M488.3,597.8h-7.6v-11.4h-30.4v11.4h-7.7l-0.3-17.8h3.7c1.8-1.8,3.3-4.4,4.4-7.8c1.1-3.4,1.8-7.2,2.1-11.5l1.2-20.5h29.1
		v39.7h5.9L488.3,597.8z M455.1,579.9h19.8v-33.3h-13.5l-0.8,13C460.1,568.3,458.2,575.1,455.1,579.9z"/>
</g>
</svg>
