<?xml version="1.0" encoding="utf-8"?>
<!-- Generator: Adobe Illustrator 21.1.0, SVG Export Plug-In . SVG Version: 6.00 Build 0)  -->
<svg version="1.1" id="Слой_1" xmlns="http://www.w3.org/2000/svg" xmlns:xlink="http://www.w3.org/1999/xlink" x="0px" y="0px"
	 viewBox="0 0 531 442" style="enable-background:new 0 0 531 442;" xml:space="preserve">
<style type="text/css">
	.st0{fill:#76707D;}
	.st1{fill:#302D37;}
</style>
<g>
	<g>
		<path class="st0" d="M110.4,127.2v-19.8h25.9v-33h24V64.2h-34.4v32.6H100v32.9l26.2,34.3c0,0,60,0,66,0
			c8,30.8,35.9,53.5,69.1,53.7h0.9c36.8-0.2,67-28.1,70.9-63.8H132.5C132.7,155.7,110.4,127.2,110.4,127.2z M320.9,164
			c0,0-11.6,41.8-59.3,44.1c-16.3,0-47.6-9.5-59-44.1H320.9z M370.2,85.2L360.6,97l-44.8-0.1l-54-88.7l-58.6,96.3
			c-0.6,0.9-1.2,1.7-1.8,2.6h166c1.7-2.5,7.1-10.2,7.1-10.2h42.1l-33.4,42.7h13.4l40-54.5L370.2,85.2L370.2,85.2z M219.5,97.2
			l42.3-70l42.7,70H219.5z"/>
	</g>
</g>
<g>
	<g>
		<path class="st0" d="M299.5,323.1h-74.9l-19,31.9h12.6l13.3-22.3h62l12.8,22.6H319L299.5,323.1z M262.9,262.2l-28.3,45.6h55.9
			L262.9,262.2z M262.7,280.8l10.9,18.1h-21.2L262.7,280.8z"/>
	</g>
</g>
<g>
	<g>
		<path class="st1" d="M47.3,304c-10.2-4.1-18.1-8.1-18.1-16.3c0-8.2,6.9-12.7,17.9-12.7c9.1,0,17.5,6.4,19.3,15.5h5.2v-19.3
			c-5.8-3-15.1-4.2-24.7-4.2c-14.7,0-28.6,9.5-28.6,24.6c0,14.3,11.6,20.3,22.6,24.6c11.1,4.3,21.6,7.6,21.6,17.1
			c0,10.8-7.5,15.5-17.5,15.5c-13.2,0-21.1-6.5-22.6-18.1H16l-1,20.5c7.9,3.4,17.8,5.3,26.4,5.3c16.2,0,33.1-7.1,33.1-24.8
			C74.5,314.9,60.1,309.1,47.3,304z M108.9,288.5c1.6,0.5,4.3,0.6,5.7,0.4c1.4-7.1,4.2-12.3,10.2-12.3h16.8v45l-0.4,16.7
			c-0.1,3.3-2.2,7.7-5,8.5l-9.1,2.3c-0.1,1.6,0.1,4.2,0.5,6h39.6c0.4-1.4,0.5-4.9,0.5-6l-11.7-2.2c-2.3-0.5-2.6-1.6-2.6-4.4
			l-0.6-20.9v-45h15.7c6.8,0,10.1,4.7,11.6,12.3c2.1,0.1,3.9,0.1,5.5-0.4v-20.3h-76.7C108.9,268.2,108.9,288.5,108.9,288.5z
			 M386.3,315.3c10.4-3.2,16-13.2,16-23.1c0-17.8-12.4-24-29.7-24h-37.1c-0.6,1.6-0.7,3.8-0.6,4.8l9.2,3.2c1.6,0.6,2.8,2.1,2.8,3.6
			v41.8l-0.4,18.2c-0.1,4.1-1.4,6.4-4.9,7.7l-5.9,2.2c-0.1,1.6,0.1,3.6,0.4,5.4H370c0.5-1.4,0.5-5.3,0.5-6.4l-10-2.3
			c-1.5-0.2-2.1-1.2-2.1-3.3l-0.5-24.8h9.2c1.6,0,5.2-0.1,6.4-0.4c3.1,5.5,11.3,21.1,18.8,29c8.9,9.5,22.7,10.9,28.8,11.3l1.4-6.6
			c-6.9-2-11.4-4.7-19.5-12.8C397,332.7,389.3,320.1,386.3,315.3z M369.4,310.1H358v-33.9l11.6,0.2c11.9,0,20.2,4.5,20.2,16.3
			C389.7,304.2,382.9,310.1,369.4,310.1z M465.3,341.8l-0.2-21.3V284c0-4.7,1.4-7.5,4.4-8.7l6.1-2.3c0.1-1.6-0.1-2.9-0.5-4.8H443
			c-0.4,1.4-0.4,3.9-0.1,5l7.4,2.6c2.6,1,3.7,4.7,3.7,7.6v38.1l-0.2,17.1c-0.1,3.7-1.5,7.1-4.7,8.2l-8.1,2.8
			c-0.1,1.6,0.1,3.6,0.5,5.4h33.9c0.5-1.4,0.6-5.2,0.6-6.3l-8-2.6C466.2,345.8,465.3,344.9,465.3,341.8z M509.2,338.5l-29.9-31.1
			l40.2-33.8v-5.4h-28.8c-0.5,1.4-0.5,4.3-0.5,5.4l5.9,1.8c1.2,0.4,2.1,1.5,2.1,3c0,1.2-0.6,2.8-2.5,4.4l-27.5,25.1v5.3l34.5,36.6
			c4.7,5,12.9,7.6,21.6,8l1.4-7C520.8,349.1,514.1,343.7,509.2,338.5z"/>
	</g>
</g>
<g>
	<path class="st1" d="M80.1,412.4h-5.3l-0.9-4.9c-0.6-0.4-1.5-0.7-2.7-1c-1.2-0.3-2.4-0.4-3.8-0.4c-2,0-3.5,0.4-4.5,1.2
		c-1.1,0.8-1.6,1.9-1.6,3.2c0,1.2,0.6,2.2,1.7,3c1.1,0.8,3,1.6,5.8,2.5c3.9,1.1,6.9,2.5,8.9,4.3c2,1.8,3,4.1,3,7.1
		c0,3-1.2,5.4-3.6,7.2c-2.4,1.8-5.6,2.6-9.5,2.6c-2.8,0-5.4-0.4-7.6-1.3s-4.2-2.1-5.7-3.7v-7.4h5.5l0.8,5.1c0.7,0.6,1.7,1.1,2.9,1.5
		c1.2,0.4,2.6,0.6,4.1,0.6c2,0,3.4-0.4,4.5-1.2c1-0.8,1.5-1.9,1.5-3.2c0-1.4-0.5-2.5-1.5-3.3c-1-0.8-2.7-1.6-5.1-2.3
		c-4.2-1.2-7.4-2.7-9.6-4.3c-2.2-1.7-3.2-4-3.2-6.9c0-2.9,1.2-5.2,3.7-7.1c2.4-1.8,5.5-2.8,9.2-2.8c2.7,0,5.2,0.4,7.5,1.2
		s4.1,1.9,5.7,3.3V412.4z"/>
	<path class="st1" d="M109.4,405.3v-4.3h14.7v4.3l-3.8,0.7v10.3h14.5v-10.3l-3.8-0.7v-4.3h3.8h7.1h3.8v4.3l-3.8,0.7v25.5l3.8,0.7
		v4.3H131v-4.3l3.8-0.7v-9.8h-14.5v9.8l3.8,0.7v4.3h-14.7v-4.3l3.8-0.7v-25.5L109.4,405.3z"/>
	<path class="st1" d="M174.5,405.3v-4.3h14.7v4.3l-3.8,0.7v25.5l3.8,0.7v4.3h-14.7v-4.3l3.8-0.7v-25.5L174.5,405.3z"/>
	<path class="st1" d="M234.8,401.1c4.1,0,7.3,1,9.6,3.1c2.4,2.1,3.5,4.8,3.5,8.2c0,3.4-1.2,6.1-3.5,8.2c-2.4,2.1-5.6,3.1-9.6,3.1h-6
		v7.9l3.8,0.7v4.3h-14.7v-4.3l3.8-0.7v-25.5l-3.8-0.7v-4.3h3.8H234.8z M228.8,418.2h6c2,0,3.5-0.5,4.5-1.6c1-1.1,1.5-2.5,1.5-4.1
		c0-1.7-0.5-3.1-1.5-4.2c-1-1.1-2.5-1.7-4.5-1.7h-6V418.2z"/>
	<path class="st1" d="M293.2,401.1c4.1,0,7.3,1,9.6,3.1c2.4,2.1,3.5,4.8,3.5,8.2c0,3.4-1.2,6.1-3.5,8.2c-2.4,2.1-5.6,3.1-9.6,3.1h-6
		v7.9l3.8,0.7v4.3h-14.7v-4.3l3.8-0.7v-25.5l-3.8-0.7v-4.3h3.8H293.2z M287.2,418.2h6c2,0,3.5-0.5,4.5-1.6c1-1.1,1.5-2.5,1.5-4.1
		c0-1.7-0.5-3.1-1.5-4.2c-1-1.1-2.5-1.7-4.5-1.7h-6V418.2z"/>
	<path class="st1" d="M334.6,405.3v-4.3h14.7v4.3l-3.8,0.7v25.5l3.8,0.7v4.3h-14.7v-4.3l3.8-0.7v-25.5L334.6,405.3z"/>
	<path class="st1" d="M414.3,401.1v4.3l-3.8,0.7v30.5h-7.1l-14.4-23.9l-0.1,0v18.9l3.8,0.7v4.3H378v-4.3l3.8-0.7v-25.5l-3.8-0.7
		v-4.3h3.8h7.1l14.4,23.9l0.1,0v-18.9l-3.8-0.7v-4.3h10.9H414.3z"/>
	<path class="st1" d="M472.1,432.6c-1.2,1.1-2.8,2.2-5.1,3.1c-2.2,0.9-5,1.4-8.4,1.4c-4.8,0-8.7-1.6-11.7-4.8
		c-3-3.2-4.5-7.4-4.5-12.5v-1.2c0-5.3,1.5-9.7,4.5-13c3-3.3,6.8-5,11.6-5c2.8,0,5.3,0.4,7.6,1.3c2.3,0.9,4.2,2.1,5.7,3.6v7.2h-5.3
		l-1-4.8c-0.7-0.6-1.5-1-2.6-1.3c-1.1-0.3-2.3-0.5-3.7-0.5c-3.1,0-5.5,1.1-7.3,3.4s-2.6,5.3-2.6,9v1.3c0,3.6,0.8,6.5,2.5,8.7
		c1.7,2.2,4.1,3.2,7.3,3.2c1.4,0,2.6-0.1,3.5-0.4c0.9-0.2,1.6-0.5,2.1-0.9v-6l-5.1-0.4v-5h12.2V432.6z"/>
</g>
</svg>
