<?xml version="1.0" encoding="utf-8"?>
<!-- Generator: Adobe Illustrator 20.1.0, SVG Export Plug-In . SVG Version: 6.00 Build 0)  -->
<svg version="1.1" id="Слой_1" xmlns="http://www.w3.org/2000/svg" xmlns:xlink="http://www.w3.org/1999/xlink" x="0px" y="0px"
	 viewBox="0 0 164 64" style="enable-background:new 0 0 164 64;" xml:space="preserve">
<style type="text/css">
	.st0{fill:#426850;}
	.st1{font-family:'Roboto-Light';}
	.st2{font-size:16.7393px;}
</style>
<g transform="translate(0.000000,154.000000) scale(0.100000,-0.100000)">
	<path class="st0" d="M824,1293.6c-71-32-124-114-124-191c1-74,70-160,149-184c47-14,183-14,231-1c78,22,149,112,150,190
		c0,57-42,135-91,167c-40,26-50,28-163,31C890,1306.6,846,1303.6,824,1293.6z M1019,1212.6c58-87,76-138,67-189c-10-54-46-76-121-76
		c-48,0-68,5-88,20c-32,26-44,79-28,131c10,33,106,189,116,189C967,1287.6,991,1253.6,1019,1212.6z"/>
	<path class="st0" d="M0,1293.6c0-4,49-112,110-241c23-49,46-100,51-112c8-21,15-23,82-23h74l21,48c11,26,49,111,85,190l66,142h-75
		h-75l-18-42c-11-24-32-72-48-108l-29-64l-45,107l-44,107H78C35,1297.6,0,1295.6,0,1293.6z"/>
	<path class="st0" d="M1500,1107.6v-190h70h70v190v190h-70h-70V1107.6z"/>
	<path class="st0" d="M510,1052.6v-135h70h70v135v135h-70h-70V1052.6z"/>
	<path class="st0" d="M1290,1052.6v-135h70h70v135v135h-70h-70V1052.6z"/>
</g>
<text transform="matrix(1.1237 0 0 1 -3.051758e-05 13.9558)" class="st0 st1 st2">The industrial group</text>
<path class="st0" d="M92.2,37.8c-0.2-0.2-2.2,2.2-2.5,3c-0.2,0.5-0.3,1-0.1,1.6c0.2,0.7,1,1,1.5,0.7c0.6-0.3,0.7-1.1,0.8-1.5
	C92.1,39.9,92.3,38,92.2,37.8z"/>
<rect x="51" y="24.5" class="st0" width="14" height="6.6"/>
<rect x="129" y="23.4" class="st0" width="14" height="6.6"/>
</svg>
