<svg xmlns="http://www.w3.org/2000/svg" width="50" height="82" viewBox="0 0 50 82"><defs><clipPath id="a"><path fill="#fff" d="M1316.26 1461.82c5 13.8-1.15 28.89-13.73 33.7-12.59 4.8-26.84-2.48-31.85-16.29-5-13.79 2.66-64.23 2.66-64.23s37.91 33.02 42.92 46.82z"/></clipPath></defs><path fill="#ef7b22" d="M38.03 51.57c2.66 7.26-.6 15.19-7.28 17.71-6.67 2.53-14.23-1.3-16.88-8.55-2.65-7.26 1.41-33.77 1.41-33.77s20.1 17.36 22.75 24.61z"/><path fill="none" stroke="#ccc" stroke-miterlimit="50" stroke-width="2" d="M1316.26 1461.82c5 13.8-1.15 28.89-13.73 33.7-12.59 4.8-26.84-2.48-31.85-16.29-5-13.79 2.66-64.23 2.66-64.23s37.91 33.02 42.92 46.82z" clip-path="url(&quot;#a&quot;)" transform="translate(-1268 -1415)"/></svg>