<svg xmlns="http://www.w3.org/2000/svg" width="18.41" height="10.82" viewBox="0 0 18.41 10.82">
  <metadata><?xpacket begin="﻿" id="W5M0MpCehiHzreSzNTczkc9d"?>
<x:xmpmeta xmlns:x="adobe:ns:meta/" x:xmptk="Adobe XMP Core 5.6-c138 79.159824, 2016/09/14-01:09:01        ">
   <rdf:RDF xmlns:rdf="http://www.w3.org/1999/02/22-rdf-syntax-ns#">
      <rdf:Description rdf:about=""/>
   </rdf:RDF>
</x:xmpmeta>
                                                                                                    
                                                                                                    
                                                                                                    
                                                                                                    
                                                                                                    
                                                                                                    
                                                                                                    
                                                                                                    
                                                                                                    
                                                                                                    
                                                                                                    
                                                                                                    
                                                                                                    
                                                                                                    
                                                                                                    
                                                                                                    
                                                                                                    
                                                                                                    
                                                                                                    
                                                                                                    
                           
<?xpacket end="w"?></metadata>
<defs>
    <style>
      .cls-1 {
        fill: #fff;
        fill-rule: evenodd;
      }
    </style>
  </defs>
  <path id="mail" class="cls-1" d="M3141.19,3687.38a0.277,0.277,0,0,0-.01-0.09v-0.07c-0.01-.02-0.02-0.05-0.03-0.07a0.261,0.261,0,0,0-.03-0.08,0.169,0.169,0,0,0-.03-0.06,0.251,0.251,0,0,0-.04-0.07,0.031,0.031,0,0,1-.01-0.02l-0.04-.04a0.265,0.265,0,0,1-.05-0.06c-0.03-.02-0.05-0.04-0.07-0.05s-0.04-.03-0.06-0.05a0.574,0.574,0,0,1-.07-0.04,0.488,0.488,0,0,0-.07-0.03c-0.02-.01-0.05-0.01-0.07-0.02a0.637,0.637,0,0,1-.07-0.02c-0.03,0-.06-0.01-0.09-0.01h-16.9c-0.04,0-.06.01-0.09,0.01s-0.05.01-.08,0.02-0.05.01-.07,0.02a0.488,0.488,0,0,0-.07.03,0.251,0.251,0,0,1-.07.04c-0.02.02-.04,0.03-0.06,0.05a0.265,0.265,0,0,0-.06.05l-0.06.06-0.04.04a0.031,0.031,0,0,1-.01.02c-0.01.02-.03,0.05-0.04,0.07a0.169,0.169,0,0,0-.03.06c-0.01.03-.02,0.05-0.03,0.08a0.185,0.185,0,0,0-.02.07,0.17,0.17,0,0,0-.01.07,0.277,0.277,0,0,0-.01.09v9.22a0.8,0.8,0,0,0,.8.8h16.8a0.8,0.8,0,0,0,.8-0.8v-9.2C3141.2,3687.39,3141.19,3687.39,3141.19,3687.38Zm-3.21.82-5.98,4.44-5.99-4.44h11.97Zm-13.58,7.6v-6.81l7.12,5.29a0.827,0.827,0,0,0,.95,0l7.13-5.29v6.81h-15.2Z" transform="translate(-3122.78 -3686.59)"/>
</svg>
