<svg xmlns="http://www.w3.org/2000/svg" width="20" height="12" viewBox="0 0 20 12"><path fill="#ef7b22" d="M19.2 1.38l-.01-.09-.01-.07-.03-.07-.02-.08-.04-.06-.04-.07-.01-.02L19 .88l-.05-.06-.06-.05-.07-.05-.07-.04-.06-.03-.08-.02-.07-.02-.09-.01H1.55l-.09.01-.07.02-.08.02-.07.03-.07.04-.06.05a.27.27 0 0 0-.06.05L.99.88.96.92.95.94l-.05.07-.03.06-.03.08a.19.19 0 0 0-.02.07l-.01.07-.01.09V10.6c0 .44.36.8.8.8h16.8a.8.8 0 0 0 .8-.8V1.4v-.02zm-3.22.82L10 6.64 4.02 2.2zM2.4 9.8V2.99l7.12 5.29a.83.83 0 0 0 .95 0l7.13-5.29V9.8z"/></svg>