<?xml version="1.0" encoding="utf-8"?>
<!-- Generator: Adobe Illustrator 20.1.0, SVG Export Plug-In . SVG Version: 6.00 Build 0)  -->
<svg version="1.1" id="Layer_1" xmlns="http://www.w3.org/2000/svg" xmlns:xlink="http://www.w3.org/1999/xlink" x="0px" y="0px"
	 viewBox="0 0 512 512" style="enable-background:new 0 0 512 512;" xml:space="preserve">
<g>
	<g>
		<g>
			<path fill="#1c95c0" d="M417.7,463.5h-72.8v-196c0-4.5-3.6-8.1-8.1-8.1s-8.1,3.6-8.1,8.1v196H175.2c-0.1,0-0.1,0-0.2,0H18.9
				c-1.5,0-2.7-1.2-2.7-2.7V202.1c0-1.5,1.2-2.7,2.7-2.7H62c4.5,0,8.1-3.6,8.1-8.1s-3.6-8.1-8.1-8.1H18.9C8.5,183.2,0,191.7,0,202.1
				v258.7c0,10.4,8.5,18.9,18.9,18.9h148.2v2.7c0,16.3,13.3,29.6,29.6,29.6h118.6c16.3,0,29.6-13.3,29.6-29.6v-2.7h72.8
				c4.5,0,8.1-3.6,8.1-8.1C425.8,467.1,422.1,463.5,417.7,463.5z M328.8,482.4c0,7.4-6,13.5-13.5,13.5H196.7
				c-7.4,0-13.5-6-13.5-13.5v-2.7h145.5L328.8,482.4L328.8,482.4z"/>
			<path fill="#1c95c0" d="M256,134.7c16.3,0,29.6-13.3,29.6-29.6S272.3,75.5,256,75.5s-29.6,13.3-29.6,29.6S239.7,134.7,256,134.7z M256,91.6
				c7.4,0,13.5,6,13.5,13.5s-6,13.5-13.5,13.5s-13.5-6-13.5-13.5S248.6,91.6,256,91.6z"/>
			<path fill="#1c95c0" d="M493.1,183.2H344.9v-8.3c0-5.8-2.6-11.1-7.1-14.7l-28.8-23c5.7-9.4,9-20.3,9-32.1c0-31.4-23.5-57.5-53.9-61.5V8.1
				c0-4.5-3.6-8.1-8.1-8.1s-8.1,3.6-8.1,8.1v35.6c-30.4,4-53.9,30-53.9,61.5c0,11.7,3.3,22.7,9,32.1l-28.8,23.1
				c-4.5,3.6-7.1,9-7.1,14.7v8.3H94.3c-4.5,0-8.1,3.6-8.1,8.1s3.6,8.1,8.1,8.1h234.4v36.5c0,4.5,3.6,8.1,8.1,8.1s8.1-3.6,8.1-8.1
				v-36.5h148.2c1.5,0,2.7,1.2,2.7,2.7V461c0,1.5-1.2,2.7-2.7,2.7H450c-4.5,0-8.1,3.6-8.1,8.1s3.6,8.1,8.1,8.1h43.1
				c10.4,0,18.9-8.5,18.9-18.9V202.1C512,191.7,503.5,183.2,493.1,183.2z M256,59.3c25.3,0,45.8,20.5,45.8,45.8
				s-20.5,45.8-45.8,45.8s-45.8-20.6-45.8-45.8C210.2,79.8,230.7,59.3,256,59.3z M328.8,183.2H183.2v-8.3c0-0.8,0.4-1.6,1-2.1
				l28.8-23.1c11.1,10.7,26.3,17.3,42.9,17.3s31.8-6.6,42.9-17.3l28.8,23.1c0.6,0.5,1,1.3,1,2.1L328.8,183.2L328.8,183.2z"/>
		</g>
	</g>
</g>
<path fill="#1c95c0" d="M435.5,307.5c-57.2-37.7-127.1-37.7-182.6,0c-57.1,38.8-112.7,38.8-170,0c-2.6-1.8-6.1-1.1-7.9,1.6c-1.8,2.6-1.1,6.2,1.5,8
	c30.8,20.9,61.1,31.3,91.4,31.3s60.6-10.4,91.3-31.3c51.6-35.1,116.8-35.1,170,0c2.6,1.7,6.2,1,7.9-1.7
	C438.8,312.8,438.1,309.2,435.5,307.5z"/>
<path fill="#1c95c0" d="M435.5,386.7c-57.2-37.7-127.1-37.7-182.6,0c-57.1,38.8-112.7,38.9-170,0c-2.6-1.8-6.1-1.1-7.9,1.6c-1.8,2.6-1.1,6.2,1.5,8
	c30.8,20.9,61.1,31.3,91.4,31.3s60.6-10.4,91.3-31.3c51.6-35.1,116.8-35.1,170,0c2.6,1.7,6.2,1,7.9-1.7
	C438.8,392,438.1,388.4,435.5,386.7z"/>
</svg>
