<?xml version="1.0" encoding="utf-8"?>
<!-- Generator: Adobe Illustrator 20.1.0, SVG Export Plug-In . SVG Version: 6.00 Build 0)  -->
<svg version="1.1" id="Layer_1" xmlns="http://www.w3.org/2000/svg" xmlns:xlink="http://www.w3.org/1999/xlink" x="0px" y="0px"
	 viewBox="0 0 501.4 501.4" style="enable-background:new 0 0 501.4 501.4;" xml:space="preserve">
<g>
	<g>
		<g>
			<path fill="#1c95c0" d="M121,256h248.9c54.9,0,99.5-43.1,99.5-96s-44.7-96-99.5-96H127.1C121,28.2,86.2,4.4,50.4,12.2
				C18.3,19.1-3.5,49.8,0.5,82.3c4.5,36.5,38.4,61.4,74.2,55.5c26.9-4.6,47.9-25.6,52.5-52.5H370c43.1,0,78.2,33.5,78.2,74.7
				c0,41.2-35.1,74.7-78.2,74.7H121c-54.9,0-99.6,43.1-99.6,96s44.7,96,99.5,96h173.3l-45.7,45.8c-4.3,4.1-4.4,10.9-0.2,15
				s10.9,4.4,15,0.2c0.1-0.1,0.2-0.2,0.2-0.2l63.9-63.9c4.2-4.2,4.2-10.9,0-15l-63.9-64c-4.3-4.1-11-3.9-15,0.2
				c-3.9,4.2-3.9,10.7,0,14.8l45.8,45.8H121c-43.2,0-78.3-33.5-78.3-74.7S77.8,256,121,256z M64,117.2c-23.6,0-42.7-19.1-42.7-42.7
				C21.4,51,40.5,31.9,64,31.9c23.6,0,42.7,19.1,42.7,42.7C106.7,98.1,87.6,117.2,64,117.2z"/>
			<path fill="#1c95c0" d="M437.4,351.9c-35.3,0-64,28.7-64,64s28.7,64,64,64s64-28.7,64-64S472.8,352,437.4,351.9z M437.4,458.6
				c-23.6,0-42.7-19.1-42.7-42.7s19.1-42.7,42.7-42.7s42.7,19.1,42.7,42.7S460.9,458.6,437.4,458.6z"/>
		</g>
	</g>
</g>
</svg>
