<?xml version="1.0" encoding="utf-8"?>
<!-- Generator: Adobe Illustrator 21.0.0, SVG Export Plug-In . SVG Version: 6.00 Build 0)  -->
<svg version="1.1" id="Layer_1" xmlns="http://www.w3.org/2000/svg" xmlns:xlink="http://www.w3.org/1999/xlink" x="0px" y="0px"
	 viewBox="0 0 364.4 484.2" style="enable-background:new 0 0 364.4 484.2;" xml:space="preserve">
<g>
	<g>
		<g>
			<path fill="#1c95c0" d="M346.9,44.9c9.6,0,17.5-7.8,17.5-17.5v-10c0-9.6-7.8-17.5-17.5-17.5H17.5C7.9-0.1,0,7.7,0,17.4v10
				C0,37,7.8,44.9,17.5,44.9H30v174.7H17.5c-9.6,0-17.5,7.8-17.5,17.5v10c0,9.6,7.8,17.5,17.5,17.5H30v174.7H17.5
				c-9.6,0-17.5,7.8-17.5,17.5v10c0,9.6,7.8,17.5,17.5,17.5h329.4c9.6,0,17.5-7.8,17.5-17.5v-10c0-9.6-7.8-17.5-17.5-17.5h-12.5
				V264.6h12.5c9.6,0,17.5-7.8,17.5-17.5v-10c0-9.6-7.8-17.5-17.5-17.5h-12.5V44.9H346.9z M17.5,249.6c-1.3,0-2.5-1.1-2.5-2.5v-10
				c0-1.3,1.1-2.5,2.5-2.5h67.6c-0.2,2.5-0.3,5-0.3,7.5s0.1,5,0.3,7.5H17.5L17.5,249.6z M319.4,219.6h-42.5
				c-4.7-20-15.7-38.1-31.4-51.5c-17.6-15.1-40.1-23.4-63.3-23.4c-23.2,0-45.7,8.3-63.3,23.4c-15.7,13.4-26.7,31.6-31.4,51.5H45
				V104.8h232.1v-15H44.9V44.9h274.5V219.6z M319.4,439.2H44.9v-54.9H277v-15H44.9V264.6h42.5c4.7,20,15.7,38.1,31.4,51.5
				c17.6,15.1,40.1,23.4,63.3,23.4s45.7-8.3,63.3-23.4c15.7-13.4,26.7-31.6,31.4-51.5h42.5L319.4,439.2L319.4,439.2z M264.5,242.1
				c0,4.6-0.4,9.2-1.1,13.5c-6.6,39.9-40.8,68.8-81.2,68.8s-74.6-28.9-81.2-68.8c-0.7-4.4-1.1-8.9-1.1-13.5s0.4-9.2,1.1-13.5
				c6.6-39.9,40.8-68.8,81.2-68.8s74.6,28.9,81.2,68.8l0,0C264.1,232.9,264.5,237.5,264.5,242.1z M346.9,454.2
				c1.3,0,2.5,1.1,2.5,2.5v10c0,1.3-1.1,2.5-2.5,2.5H17.5c-1.3,0-2.5-1.1-2.5-2.5v-10c0-1.3,1.1-2.5,2.5-2.5H346.9z M346.9,234.6
				c1.3,0,2.5,1.1,2.5,2.5v10c0,1.3-1.1,2.5-2.5,2.5h-67.7c0.2-2.5,0.3-5,0.3-7.5s-0.1-5-0.3-7.5H346.9L346.9,234.6z M17.5,29.9
				c-1.3,0-2.5-1.1-2.5-2.5v-10c0-1.3,1.1-2.5,2.5-2.5h329.4c1.3,0,2.5,1.1,2.5,2.5v10c0,1.3-1.1,2.5-2.5,2.5H17.5z"/>
			<path fill="#1c95c0" d="M188.3,182.9l-6.1-8.8l-6.1,8.8c-0.4,0.6-11,15.8-20,34.6c-12.8,26.7-15.7,47-8.7,60.4c5.8,11.1,17.5,16.7,34.9,16.7
				s29.1-5.6,34.9-16.7c6.9-13.3,4-33.7-8.7-60.4C199.3,198.7,188.8,183.5,188.3,182.9z M203.7,270.9c-3,5.7-10.2,8.6-21.6,8.6
				c-11.4,0-18.6-2.9-21.6-8.6c-7.5-14.5,7.5-47.3,21.6-70.1C196.3,223.5,211.3,256.4,203.7,270.9z"/>
		</g>
	</g>
</g>
</svg>
