<svg id="fles" xmlns="http://www.w3.org/2000/svg" xmlns:xlink="http://www.w3.org/1999/xlink" x="0px" y="0px" viewBox="0 0 942 780" enable-background="new 0 0 942 780" xml:space="preserve">
	<g>
		<polygon fill="#CECECD" points="152.7,546.2 432,364.8 305,293.5 26.8,478.9 	"/>
		<polygon fill="#608089" points="306,135.5 306,297.4 431.9,364.7 431.9,202.9 	"/>
		<polygon fill="#53737B" points="26.8,316.9 26.8,478.8 306.1,297.4 306.1,135.5 	"/>
		<polygon fill="#A6C0C5" points="152.6,378.7 152.7,384.4 431.9,202.9 418.6,206.1 	"/>
		<polygon fill="#8FABB1" points="37,318.2 26.8,316.9 152.7,384.4 152.6,378.7 	"/>
		<polygon fill="#EAF6FB" points="152.7,384.4 152.7,546.3 432,364.9 432,203 	"/>
		<polygon fill="#B0C6D1" points="26.8,317 26.8,478.9 152.7,546.2 152.7,384.4 	"/>
		<polygon fill="#5C6B6E" points="34.8,333.7 34.8,472 142.4,529.6 142.4,391.3 	"/>
		<polygon fill="#B0C6D1" points="37.9,339.5 37.9,469.6 139.2,523.8 139.2,393.6 	"/>
		<g>
			<polygon fill="#BED4DD" points="177.9,380.7 168.5,387.3 168.3,524.1 177.9,520.4 		"/>
			<path fill="#B0C6D1" d="M168.8,526.1l9-5.7c0,0-5.7-1.1-8.2,0.8C167.2,523,168.8,526.1,168.8,526.1z"/>
		</g>
		<g>
			<polygon fill="#BED4DD" points="196.7,367.8 187.4,374.4 187.2,511.2 196.7,507.5 		"/>
			<path fill="#B0C6D1" d="M187.7,513.2l9-5.7c0,0-5.7-1.1-8.2,0.8C186.1,510.1,187.7,513.2,187.7,513.2z"/>
		</g>
		<g>
			<polygon fill="#BED4DD" points="215.6,355.4 206.3,362 206.1,498.9 215.6,495.1 		"/>
			<path fill="#B0C6D1" d="M206.6,500.8l9-5.7c0,0-5.7-1.1-8.2,0.8C205,497.8,206.6,500.8,206.6,500.8z"/>
		</g>
		<g>
			<polygon fill="#BED4DD" points="234.5,343.4 225.2,350 225,486.8 234.5,483.1 		"/>
			<path fill="#B0C6D1" d="M225.5,488.8l9-5.7c0,0-5.7-1.1-8.2,0.8C223.9,485.7,225.5,488.8,225.5,488.8z"/>
		</g>
		<g>
			<polygon fill="#BED4DD" points="253.4,330.3 244.1,336.9 243.9,473.7 253.4,470 		"/>
			<path fill="#B0C6D1" d="M244.4,475.7l9-5.7c0,0-5.7-1.1-8.2,0.8C242.8,472.6,244.4,475.7,244.4,475.7z"/>
		</g>
		<g>
			<polygon fill="#BED4DD" points="272.3,317.9 263,324.5 262.8,461.4 272.3,457.6 		"/>
			<path fill="#B0C6D1" d="M263.3,463.3l9-5.7c0,0-5.7-1.1-8.2,0.8C261.7,460.3,263.3,463.3,263.3,463.3z"/>
		</g>
		<g>
			<polygon fill="#BED4DD" points="291.2,303.2 281.9,309.7 281.7,446.6 291.2,442.9 		"/>
			<path fill="#B0C6D1" d="M282.2,448.6l9-5.7c0,0-5.7-1.1-8.2,0.8C280.6,445.5,282.2,448.6,282.2,448.6z"/>
		</g>
		<g>
			<polygon fill="#BED4DD" points="310.1,292.1 300.8,298.6 300.6,435.5 310.1,431.8 		"/>
			<path fill="#B0C6D1" d="M301.1,437.5l9-5.7c0,0-5.7-1.1-8.2,0.8C299.5,434.4,301.1,437.5,301.1,437.5z"/>
		</g>
		<g>
			<polygon fill="#BED4DD" points="329,280.7 319.7,287.3 319.5,424.1 329,420.4 		"/>
			<path fill="#B0C6D1" d="M320,426.1l9-5.7c0,0-5.7-1.1-8.2,0.8S320,426.1,320,426.1z"/>
		</g>
		<g>
			<polygon fill="#BED4DD" points="347.9,267.3 338.6,273.9 338.4,410.8 347.9,407 		"/>
			<path fill="#B0C6D1" d="M338.9,412.8l9-5.7c0,0-5.7-1.1-8.2,0.8C337.2,409.7,338.9,412.8,338.9,412.8z"/>
		</g>
		<g>
			<polygon fill="#BED4DD" points="366.8,254.6 357.5,261.2 357.3,398.1 366.8,394.3 		"/>
			<path fill="#B0C6D1" d="M357.8,400l9-5.7c0,0-5.7-1.1-8.2,0.8C356.1,396.9,357.8,400,357.8,400z"/>
		</g>
		<g>
			<polygon fill="#BED4DD" points="385.7,243.5 376.4,250.1 376.1,387 385.7,383.2 		"/>
			<path fill="#B0C6D1" d="M376.7,388.9l9-5.7c0,0-5.7-1.1-8.2,0.8S376.7,388.9,376.7,388.9z"/>
		</g>
		<g>
			<polygon fill="#BED4DD" points="404.6,232.1 395.3,238.7 395,375.6 404.6,371.8 		"/>
			<path fill="#B0C6D1" d="M395.6,377.6l9-5.7c0,0-5.7-1.1-8.2,0.8C393.9,374.5,395.6,377.6,395.6,377.6z"/>
		</g>
		<polygon opacity="0.1" enable-background="new    " points="63.7,404.3 61,403 61,395.9 63.7,397.2 	"/>
		<polygon opacity="0.1" enable-background="new    " points="63.7,442.6 61,441.4 61,434.3 63.7,435.6 	"/>
		<polygon opacity="0.1" enable-background="new    " points="63.7,474.3 61,473 61,465.9 63.7,467.2 	"/>
		<g>
			<polygon fill="#BED4DD" points="423.5,219.3 414.2,225.9 413.9,362.8 423.5,359 		"/>
			<path fill="#B0C6D1" d="M414.5,364.8l9-5.7c0,0-5.7-1.1-8.2,0.8C412.8,361.7,414.5,364.8,414.5,364.8z"/>
		</g>
		<rect x="83.6" y="363.9" fill="#5C6B6E" width="4.9" height="132.8"/>
		<g>
			<polygon fill="#8EAFBB" points="43.6,368.8 43.6,375.7 78.3,394.2 78.4,387.5 		"/>
			<polygon fill="#688D98" points="43.6,368.8 43.6,369.8 78.3,388.4 78.4,387.5 		"/>
			<polygon fill="#688D98" points="43.6,374.6 43.6,375.7 78.3,394.2 78.3,393.2 		"/>
			<path fill="#688D98" d="M43.6,368.8c0,0,2.5,2.2,2.5,4.2s-2.5,2.6-2.5,2.6V368.8z"/>
		</g>
		<g>
			<polygon fill="#8EAFBB" points="43.6,408.5 43.6,415.4 78.3,433.9 78.4,427.2 		"/>
			<polygon fill="#688D98" points="43.6,408.5 43.6,409.6 78.3,428.1 78.4,427.2 		"/>
			<polygon fill="#688D98" points="43.6,414.4 43.6,415.4 78.3,433.9 78.3,433 		"/>
			<path fill="#688D98" d="M43.6,408.5c0,0,2.5,2.2,2.5,4.2s-2.5,2.6-2.5,2.6V408.5z"/>
		</g>
		<g>
			<polygon fill="#8EAFBB" points="43.6,444.6 43.6,451.4 78.3,469.9 78.4,463.2 		"/>
			<polygon fill="#688D98" points="43.6,444.6 43.6,445.6 78.3,464.1 78.4,463.2 		"/>
			<polygon fill="#688D98" points="43.6,450.4 43.6,451.4 78.3,469.9 78.3,469 		"/>
			<path fill="#688D98" d="M43.6,444.6c0,0,2.5,2.2,2.5,4.2s-2.5,2.6-2.5,2.6V444.6z"/>
		</g>
		<g>
			<polygon fill="#8EAFBB" points="94.9,395.6 94.9,402.5 129.6,421 129.7,414.3 		"/>
			<polygon fill="#688D98" points="94.9,395.6 94.9,396.7 129.7,415.2 129.7,414.3 		"/>
			<polygon fill="#688D98" points="94.9,401.5 94.9,402.5 129.6,421 129.6,420.1 		"/>
			<path fill="#688D98" d="M94.9,395.6c0,0,2.5,2.2,2.5,4.2s-2.5,2.6-2.5,2.6V395.6z"/>
		</g>
		<g>
			<polygon fill="#8EAFBB" points="94.9,435.4 94.9,442.2 129.6,460.7 129.7,454 		"/>
			<polygon fill="#688D98" points="94.9,435.4 94.9,436.4 129.7,454.9 129.7,454 		"/>
			<polygon fill="#688D98" points="94.9,441.2 94.9,442.2 129.6,460.7 129.6,459.8 		"/>
			<path fill="#688D98" d="M94.9,435.4c0,0,2.5,2.2,2.5,4.2s-2.5,2.6-2.5,2.6V435.4z"/>
		</g>
		<g>
			<polygon fill="#8EAFBB" points="94.9,471.4 94.9,478.2 129.6,496.8 129.7,490.1 		"/>
			<polygon fill="#688D98" points="94.9,471.4 94.9,472.4 129.7,491 129.7,490.1 		"/>
			<polygon fill="#688D98" points="94.9,477.2 94.9,478.2 129.6,496.8 129.6,495.8 		"/>
			<path fill="#688D98" d="M94.9,471.4c0,0,2.5,2.2,2.5,4.2s-2.5,2.6-2.5,2.6V471.4z"/>
		</g>
		<polygon opacity="0.1" enable-background="new    " points="62.5,492.6 60.1,490.2 60.1,341 62.5,343.4 	"/>
		<polygon opacity="0.1" enable-background="new    " points="110.7,427.9 108,426.6 108,419.5 110.7,420.8 	"/>
		<polygon opacity="0.1" enable-background="new    " points="110.8,466 108.1,464.8 108.1,457.7 110.8,458.9 	"/>
		<polygon opacity="0.1" enable-background="new    " points="110.8,497.8 108.1,496.5 108.1,489.4 110.8,490.7 	"/>
		<polygon opacity="0.1" enable-background="new    " points="109.6,516 107.2,513.6 107.2,364.4 109.6,366.8 	"/>
		<g>
			<path fill="#D4D9DA" d="M59.5,491.1c-0.5-0.1-0.8-0.5-0.9-1V341.2l2.5,0.9L59.5,491.1z"/>
			<path fill="#E8EBEC" d="M61,490.6c-0.1,0.3-0.3,0.5-0.6,0.6v-150l0.6,0.9V490.6z"/>
			<path fill="#CFD1D1" d="M60.4,491.2c-0.3,0.1-0.6,0-0.9-0.1l0.1-149.5l0.9,0.9L60.4,491.2z"/>
			<path fill="#99999A" d="M60.7,466.9c-0.6,0-1.2-0.2-1.8-0.4c-0.9-0.2-1.6-1.2-1.6-1.2h-0.2v6.4c0.3,0.6,0.9,1.1,1.8,1.5
				c0.5,0.2,1.1,0.4,1.8,0.5c0.8-0.1,1.5-0.2,1.7-0.6l0.1-6.5h-0.2C62.3,466.5,61.6,467,60.7,466.9z"/>
			
				<ellipse transform="matrix(0.3482 -0.9374 0.9374 0.3482 -281.2996 278.7273)" fill="#F4F4F4" cx="59.8" cy="341.6" rx="0.8" ry="1.3"/>
			<path fill="#C0C0C0" d="M60.7,473.9c0.8-0.1,1.5-0.2,1.7-0.6l0.1-6.9c-0.2,0.7-0.8,0.9-1.8,0.8V473.9z"/>
			<path fill="#ADADAD" d="M58.9,473.4c0.5,0.2,1.1,0.4,1.8,0.5v-6.7c-0.6,0-1.2-0.2-1.8-0.4V473.4z"/>
			<path fill="#D3D3D3" d="M57.1,472c0.3,0.6,0.9,1.1,1.8,1.5v-6.6c-0.9-0.2-1.4-0.8-1.8-1.6V472z"/>
			<path fill="#99999A" d="M60.7,435.3c-0.6,0-1.2-0.2-1.8-0.4c-0.9-0.2-1.6-1.2-1.6-1.2h-0.2v6.4c0.3,0.6,0.9,1.1,1.8,1.5
				c0.5,0.2,1.1,0.4,1.8,0.5c0.8-0.1,1.5-0.2,1.7-0.6l0.1-6.5h-0.2C62.3,434.8,61.6,435.4,60.7,435.3z"/>
			<path fill="#C0C0C0" d="M60.7,442.3c0.8-0.1,1.5-0.2,1.7-0.6l0.1-6.9c-0.2,0.7-0.8,0.9-1.8,0.8V442.3z"/>
			<path fill="#ADADAD" d="M58.9,441.8c0.5,0.2,1.1,0.4,1.8,0.5v-6.7c-0.6,0-1.2-0.2-1.8-0.4V441.8z"/>
			<path fill="#D3D3D3" d="M57.1,440.3c0.3,0.6,0.9,1.1,1.8,1.5v-6.6c-0.9-0.2-1.4-0.8-1.8-1.6V440.3z"/>
			<path fill="#99999A" d="M60.7,397.2c-0.6,0-1.2-0.2-1.8-0.4c-0.9-0.2-1.6-1.2-1.6-1.2h-0.2v6.4c0.3,0.6,0.9,1.1,1.8,1.5
				c0.5,0.2,1.1,0.4,1.8,0.5c0.8-0.1,1.5-0.2,1.7-0.6l0.1-6.5h-0.2C62.3,396.7,61.6,397.3,60.7,397.2z"/>
			<path fill="#C0C0C0" d="M60.7,404.2c0.8-0.1,1.5-0.2,1.7-0.6l0.1-6.9c-0.2,0.7-0.8,0.9-1.8,0.8V404.2z"/>
			<path fill="#ADADAD" d="M58.9,403.7c0.5,0.2,1.1,0.4,1.8,0.5v-6.7c-0.6,0-1.2-0.2-1.8-0.4V403.7z"/>
			<path fill="#D3D3D3" d="M57.1,402.2c0.3,0.6,0.9,1.1,1.8,1.5v-6.6c-0.9-0.2-1.4-0.8-1.8-1.6V402.2z"/>
		</g>
		<g>
			<path fill="#D4D9DA" d="M106.6,514.7c-0.5-0.1-0.8-0.5-0.9-1V364.8l2.5,0.9L106.6,514.7z"/>
			<path fill="#E8EBEC" d="M108.2,514.2c-0.1,0.3-0.3,0.5-0.6,0.6v-150l0.6,0.9V514.2z"/>
			<path fill="#CFD1D1" d="M107.6,514.8c-0.3,0.1-0.6,0-0.9-0.1l0.1-149.5l0.9,0.9L107.6,514.8z"/>
			<path fill="#99999A" d="M107.9,490.5c-0.6,0-1.2-0.2-1.8-0.4c-0.9-0.2-1.6-1.2-1.6-1.2h-0.2v6.4c0.3,0.6,0.9,1.1,1.8,1.5
				c0.5,0.2,1.1,0.4,1.8,0.5c0.8-0.1,1.5-0.2,1.7-0.6l0.1-6.5h-0.2C109.4,490.1,108.8,490.6,107.9,490.5z"/>
			
				<ellipse transform="matrix(0.3482 -0.9374 0.9374 0.3482 -272.6248 338.3239)" fill="#F4F4F4" cx="107" cy="365.2" rx="0.8" ry="1.3"/>
			<path fill="#C0C0C0" d="M107.9,497.5c0.8-0.1,1.5-0.2,1.7-0.6l0.1-6.9c-0.2,0.7-0.8,0.9-1.8,0.8L107.9,497.5z"/>
			<path fill="#ADADAD" d="M106.1,497c0.5,0.2,1.1,0.4,1.8,0.5v-6.7c-0.6,0-1.2-0.2-1.8-0.4V497z"/>
			<path fill="#D3D3D3" d="M104.3,495.5c0.3,0.6,0.9,1.1,1.8,1.5v-6.6c-0.9-0.2-1.4-0.8-1.8-1.6V495.5z"/>
			<path fill="#99999A" d="M107.9,458.8c-0.6,0-1.2-0.2-1.8-0.4c-0.9-0.2-1.6-1.2-1.6-1.2h-0.2v6.4c0.3,0.6,0.9,1.1,1.8,1.5
				c0.5,0.2,1.1,0.4,1.8,0.5c0.8-0.1,1.5-0.2,1.7-0.6l0.1-6.5h-0.2C109.4,458.4,108.8,459,107.9,458.8z"/>
			<path fill="#C0C0C0" d="M107.9,465.9c0.8-0.1,1.5-0.2,1.7-0.6l0.1-6.9c-0.2,0.7-0.8,0.9-1.8,0.8L107.9,465.9z"/>
			<path fill="#ADADAD" d="M106.1,465.4c0.5,0.2,1.1,0.4,1.8,0.5v-6.7c-0.6,0-1.2-0.2-1.8-0.4V465.4z"/>
			<path fill="#D3D3D3" d="M104.3,463.9c0.3,0.6,0.9,1.1,1.8,1.5v-6.6c-0.9-0.2-1.4-0.8-1.8-1.6V463.9z"/>
			<path fill="#99999A" d="M107.9,420.7c-0.6,0-1.2-0.2-1.8-0.4c-0.9-0.2-1.6-1.2-1.6-1.2h-0.2v6.4c0.3,0.6,0.9,1.1,1.8,1.5
				c0.5,0.2,1.1,0.4,1.8,0.5c0.8-0.1,1.5-0.2,1.7-0.6l0.1-6.5h-0.2C109.4,420.3,108.8,420.8,107.9,420.7z"/>
			<path fill="#C0C0C0" d="M107.9,427.8c0.8-0.1,1.5-0.2,1.7-0.6l0.1-6.9c-0.2,0.7-0.8,0.9-1.8,0.8L107.9,427.8z"/>
			<path fill="#ADADAD" d="M106.1,427.3c0.5,0.2,1.1,0.4,1.8,0.5v-6.7c-0.6,0-1.2-0.2-1.8-0.4V427.3z"/>
			<path fill="#D3D3D3" d="M104.3,425.8c0.3,0.6,0.9,1.1,1.8,1.5v-6.6c-0.9-0.2-1.4-0.8-1.8-1.6V425.8z"/>
		</g>
		<g>
			<polygon fill="#CDE1E8" points="143.2,439.5 143.2,442.2 148.9,445.3 149.2,442.7 		"/>
			<polygon fill="#84A0A8" points="143.2,439.9 143.2,442.6 148.9,445.7 148.9,443 		"/>
			<polygon fill="#9FB9C0" points="149.2,445.5 148.9,445.7 148.9,443 149.2,442.7 		"/>
			<polygon fill="#CDE1E8" points="131,425.1 131,432.4 146.2,440.5 147.1,433.7 		"/>
			<polygon fill="#96ADB6" points="131,426.1 131,433.4 146.2,441.6 146.2,434.3 		"/>
			<polygon fill="#9FB9C0" points="147,441 146.2,441.6 146.2,434.3 147.1,433.7 		"/>
			<polygon fill="#CDE1E8" points="143.2,429.1 143.2,431.8 148.9,434.8 149.2,432.3 		"/>
			<polygon fill="#96ADB6" points="143.2,429.5 143.2,432.2 148.9,435.2 148.9,432.5 		"/>
			<polygon fill="#9FB9C0" points="149.2,435 148.9,435.2 148.9,432.5 149.2,432.3 		"/>
		</g>
		<g>
			<polygon fill="#CDE1E8" points="143.2,492 143.2,494.7 148.9,497.8 149.2,495.2 		"/>
			<polygon fill="#84A0A8" points="143.2,492.4 143.2,495.1 148.9,498.2 148.9,495.5 		"/>
			<polygon fill="#9FB9C0" points="149.2,498 148.9,498.2 148.9,495.5 149.2,495.2 		"/>
			<polygon fill="#CDE1E8" points="131,477.6 131,484.9 146.2,493 147.1,486.1 		"/>
			<polygon fill="#96ADB6" points="131,478.6 131,485.9 146.2,494.1 146.2,486.8 		"/>
			<polygon fill="#9FB9C0" points="147,493.5 146.2,494.1 146.2,486.8 147.1,486.1 		"/>
			<polygon fill="#CDE1E8" points="143.2,481.6 143.2,484.3 148.9,487.3 149.2,484.8 		"/>
			<polygon fill="#96ADB6" points="143.2,482 143.2,484.7 148.9,487.7 148.9,485 		"/>
			<polygon fill="#9FB9C0" points="149.2,487.5 148.9,487.7 148.9,485 149.2,484.8 		"/>
		</g>
		<g>
			<polygon fill="#CDE1E8" points="33.3,435.9 33,438.5 27.4,432.9 27.6,432.6 		"/>
			<polygon fill="#8CA1A8" points="33,436.1 33,438.8 27.4,435.6 27.4,432.9 		"/>
			<polygon fill="#9FB9C0" points="33,438.8 33.3,438.5 33.3,435.9 33,436.1 		"/>
			<polygon fill="#CDE1E8" points="46.1,435.7 45.3,442.4 30,427.3 30.9,426.6 		"/>
			<polygon fill="#96ADB6" points="45.3,436.1 45.3,443.4 30,434.6 30,427.3 		"/>
			<polygon fill="#9FB9C0" points="45.3,443.4 46.1,442.5 46.1,435.7 45.3,436.1 		"/>
			<polygon fill="#CDE1E8" points="33.3,425.6 33,428.1 27.4,422.5 27.6,422.3 		"/>
			<polygon fill="#96ADB6" points="33,425.8 33,428.5 27.4,425.2 27.4,422.5 		"/>
			<polygon fill="#9FB9C0" points="33,428.5 33.3,428.2 33.3,425.6 33,425.8 		"/>
		</g>
		<g>
			<polygon fill="#CDE1E8" points="33.3,379.9 33,382.4 27.4,376.8 27.6,376.5 		"/>
			<polygon fill="#8CA1A8" points="33,380.1 33,382.8 27.4,379.5 27.4,376.8 		"/>
			<polygon fill="#9FB9C0" points="33,382.8 33.3,382.4 33.3,379.9 33,380.1 		"/>
			<polygon fill="#CDE1E8" points="46.1,379.7 45.3,386.3 30,371.2 30.9,370.5 		"/>
			<polygon fill="#96ADB6" points="45.3,380.1 45.3,387.3 30,378.5 30,371.2 		"/>
			<polygon fill="#9FB9C0" points="45.3,387.3 46.1,386.5 46.1,379.7 45.3,380.1 		"/>
			<polygon fill="#CDE1E8" points="33.3,369.6 33,372.1 27.4,366.5 27.6,366.2 		"/>
			<polygon fill="#96ADB6" points="33,369.7 33,372.4 27.4,369.2 27.4,366.5 		"/>
			<polygon fill="#9FB9C0" points="33,372.4 33.3,372.1 33.3,369.6 33,369.7 		"/>
		</g>
		<polygon fill="#85A4AC" points="26.8,317 37,318.2 306,145.8 306.1,135.5 	"/>
		<polygon fill="#8FABB1" points="418.6,206.1 306,145.8 306,135.5 432,203 	"/>
		<g opacity="0.1">
			<path d="M237.2,419.6c-6.4,4.4-11.5,13.8-11.5,21s5.2,9.5,11.5,5.1c3.2-2.2,6.1-5.7,8.2-9.5l0,0l15.4-28.2L240,418
				C239.1,418.4,238.2,418.9,237.2,419.6z"/>
			<path d="M267.8,376.7L267.8,376.7l-15.4-6.9l-3.7,26.1c-0.2,1.2-0.4,2.4-0.4,3.5c0,7.2,5.1,9.5,11.5,5.1
				c6.3-4.4,11.5-13.8,11.5-21C271.2,380,269.9,377.6,267.8,376.7z"/>
			<path d="M237.3,394.6c6.4-4.4,11.5-13.8,11.5-21s-5.1-9.5-11.5-5.1c-3.2,2.2-6.1,5.7-8.2,9.6l0,0l-15.4,28.2l20.8-10.1
				C235.4,395.8,236.3,395.3,237.3,394.6z"/>
			<path d="M226.3,414.7c0-7.2-5.1-9.5-11.5-5.1s-11.5,13.8-11.5,21c0,3.6,1.3,6,3.4,6.9l0,0l15.4,6.9l3.7-26.2
				C226.2,417,226.3,415.8,226.3,414.7z"/>
			<path d="M299.9,344.4c-9.3,6.4-16.3,19.2-16.3,29c0,9.9,6.9,13.1,16.2,6.6s16.3-19.2,16.3-29C316.1,341.1,309.2,338,299.9,344.4z
				 M299.9,371.4c-4.6,3.1-7.7,1-7.7-3.9c0-5,3.1-11.3,7.6-14.5c4.6-3.2,7.8-1,7.8,3.9C307.5,362,304.5,368.3,299.9,371.4z"/>
			<polygon points="328.8,325.2 320.4,330.9 320.4,365.2 343.4,349.4 343.4,341 328.8,351.1 		"/>
			<polygon points="347.1,346.8 355.5,341 355.5,306.8 347.1,312.5 		"/>
			<path d="M381.6,311.1c3.8-4.4,6.2-9.6,6.2-14.8c0-3.5-0.9-5.5-2.7-6.3c-2-0.9-5.2-0.1-9.8,3.1L361,303v34.2l8.4-5.8V321l3.7-2.5
				l6.1,6.2l9.6-6.6L381.6,311.1z M374.9,309.8l-5.5,3.8v-8.2l5.5-3.8c2.8-1.9,4.5-1.7,4.5,0.9C379.4,305.2,377.8,307.9,374.9,309.8z
				"/>
			<path d="M293.6,396.9c0-1.7-1.1-2.1-3-0.8l-3.5,2.4v9l1.4-1v-3.1l1.7-1.2l2,1.8l1.6-1.1l-2.1-1.9
				C292.8,399.8,293.6,398.3,293.6,396.9z M290.5,400.6l-2,1.4v-3l2-1.4c1-0.7,1.6-0.6,1.6,0.4C292.2,398.8,291.5,399.9,290.5,400.6z
				"/>
			<polygon points="300.3,394.5 304.3,391.8 304.3,390.4 300.3,393.1 300.3,390.8 304.8,387.7 304.8,386.3 298.9,390.3 298.9,399.3 
				304.9,395.2 304.9,393.8 300.3,397 		"/>
			<path d="M313.2,384.3c-1.5,0.6-1.9,0.6-1.9-0.1c0-0.6,0.5-1.4,1.3-2c0.7-0.5,1.4-0.7,2.2-0.6l0.7-1.7c-0.8-0.2-1.7,0.1-2.9,0.9
				c-1.6,1.1-2.7,2.9-2.7,4.5c0,1.7,1,1.6,2.6,0.9c1.5-0.6,1.8-0.5,1.8,0.2s-0.5,1.5-1.4,2.1c-1,0.7-1.7,0.8-2.5,0.6l-0.8,1.7
				c1,0.3,2.1,0,3.3-0.8c1.7-1.1,2.8-3,2.8-4.6C315.8,383.7,314.9,383.6,313.2,384.3z"/>
			<path d="M324.9,372.3c-2.4,1.7-4.2,5-4.2,7.5c0,2.6,1.7,3.5,4.1,1.8s4.2-5,4.2-7.5C329,371.6,327.3,370.6,324.9,372.3z
				 M324.9,380.2c-1.6,1.1-2.7,0.4-2.7-1.3c0-1.8,1.1-4,2.7-5c1.6-1.1,2.7-0.4,2.7,1.3C327.5,376.9,326.4,379.1,324.9,380.2z"/>
			<path d="M339.6,367.5c0,1.7-0.8,3-2,3.9s-2,0.5-2-1.2v-5.1l-1.4,1v5.2c0,2.6,1.3,3.1,3.4,1.6c2.1-1.4,3.4-3.7,3.4-6.4v-5.1l-1.4,1
				V367.5z"/>
			<path d="M353,356c0-1.7-1.1-2.1-3-0.8l-3.5,2.4v9l1.4-1v-3.1l1.7-1.2l2,1.8l1.6-1.1l-2.1-1.9C352.2,358.9,353,357.4,353,356z
				 M350,359.7l-2,1.4v-3l2-1.4c1-0.7,1.6-0.6,1.6,0.4C351.6,357.9,351,359,350,359.7z"/>
			<path d="M362.1,354.6c-1.5,1-2.6,0.4-2.6-1.4s1.1-4,2.6-5c0.9-0.6,1.6-0.6,2.2-0.4l0.9-1.8c-0.8-0.3-1.6-0.3-3.1,0.7
				c-2.4,1.7-4.1,4.9-4.1,7.5s1.7,3.5,4,1.9c1.5-1,2.4-2.3,3.2-3.8l-0.9-0.4C363.7,353,363.1,353.9,362.1,354.6z"/>
			<polygon points="371.8,345.4 375.7,342.6 375.7,341.2 371.8,343.9 371.8,341.6 376.3,338.5 376.3,337.1 370.4,341.1 370.4,350.2 
				376.3,346.1 376.3,344.6 371.8,347.8 		"/>
			<path d="M384.7,335.1c-1.5,0.6-1.9,0.6-1.9-0.1c0-0.6,0.5-1.4,1.3-2c0.7-0.5,1.4-0.7,2.2-0.6l0.7-1.7c-0.8-0.2-1.7,0.1-2.9,0.9
				c-1.6,1.1-2.7,2.9-2.7,4.5c0,1.7,1,1.6,2.6,0.9c1.5-0.6,1.8-0.5,1.8,0.2s-0.5,1.5-1.4,2.1c-1,0.7-1.7,0.8-2.5,0.6l-0.8,1.7
				c1,0.3,2.1,0,3.3-0.8c1.7-1.1,2.8-3,2.8-4.6C387.2,334.5,386.3,334.4,384.7,335.1z"/>
		</g>
		<g>
			<path fill="#F16322" d="M263.1,408.3l-20.8,10.1c-0.9,0.4-1.9,0.9-2.9,1.5c-6.4,4.4-11.5,13.8-11.5,21s5.2,9.5,11.5,5.1
				c3.2-2.2,6.1-5.7,8.2-9.5l0,0L263.1,408.3z"/>
			<path fill="#F48120" d="M270.1,377L270.1,377l-15.4-6.9l-3.7,26.1c-0.2,1.2-0.4,2.4-0.4,3.5c0,7.2,5.1,9.5,11.5,5.1
				c6.4-4.4,11.5-13.8,11.5-21C273.5,380.3,272.2,377.9,270.1,377"/>
			<path fill="#0099D9" d="M239.6,368.8c-3.2,2.2-6.1,5.7-8.2,9.6l0,0L216,406.5l20.8-10.1c0.9-0.4,1.9-0.9,2.9-1.5
				c6.4-4.4,11.5-13.8,11.5-21C251.1,366.7,246,364.4,239.6,368.8"/>
			<path fill="#005CAA" d="M228.6,415.1c0-7.2-5.1-9.5-11.5-5.1s-11.5,13.8-11.5,21c0,3.6,1.3,6,3.4,6.9l0,0l15.4,6.9l3.7-26.2
				C228.5,417.3,228.6,416.2,228.6,415.1"/>
			<path fill="#005CAA" d="M285.9,373.7c0-9.8,7-22.6,16.3-29s16.2-3.3,16.2,6.6c0,9.8-7,22.6-16.3,29
				C292.8,386.8,285.9,383.7,285.9,373.7 M309.8,357.2c0-4.9-3.1-7.1-7.8-3.9c-4.6,3.1-7.6,9.5-7.6,14.5c0,4.9,3.1,7.1,7.7,3.9
				C306.8,368.6,309.8,362.3,309.8,357.2"/>
			<polygon fill="#005CAA" points="322.7,331.3 331.1,325.5 331.1,351.4 345.7,341.4 345.7,349.7 322.7,365.5 		"/>
			<polygon fill="#005CAA" points="349.4,312.9 357.8,307.1 357.8,341.3 349.4,347.1 		"/>
			<path fill="#005CAA" d="M363.3,303.3l14.3-9.8c4.6-3.2,7.8-4,9.8-3.1c1.8,0.8,2.7,2.8,2.7,6.3c0,5.2-2.5,10.4-6.2,14.8l7.2,7
				l-9.6,6.6l-6.1-6.2l-3.7,2.5v10.4l-8.4,5.8L363.3,303.3L363.3,303.3z M377.2,310.2c2.8-2,4.5-4.6,4.5-7.2c0-2.7-1.7-2.9-4.5-0.9
				l-5.5,3.8v8.2L377.2,310.2z"/>
			<path fill="#005CAA" d="M289.4,398.8l3.5-2.4c1.9-1.3,3-0.9,3,0.8c0,1.5-0.8,2.9-1.9,4l2.1,1.9l-1.6,1.1l-2-1.8l-1.7,1.2v3.1
				l-1.4,1V398.8z M292.8,400.9c1-0.7,1.6-1.7,1.6-2.7s-0.6-1.1-1.6-0.4l-2,1.4v3L292.8,400.9z"/>
			<polygon fill="#005CAA" points="301.2,390.6 307.1,386.6 307.1,388 302.6,391.1 302.6,393.4 306.6,390.7 306.6,392.1 302.6,394.9 
				302.6,397.3 307.2,394.1 307.2,395.6 301.2,399.7 		"/>
			<path fill="#005CAA" d="M311.9,391l0.8-1.7c0.8,0.2,1.5,0.1,2.5-0.6c0.9-0.6,1.4-1.4,1.4-2.1c0-0.6-0.3-0.8-1.8-0.2
				c-1.7,0.7-2.6,0.8-2.6-0.9c0-1.5,1.1-3.4,2.7-4.5c1.2-0.8,2.1-1,2.9-0.9l-0.7,1.7c-0.7-0.1-1.4,0.1-2.2,0.6
				c-0.8,0.6-1.3,1.4-1.3,2c0,0.7,0.4,0.8,1.9,0.1c1.7-0.7,2.6-0.6,2.6,0.9c0,1.7-1.2,3.5-2.8,4.6C314,391,312.9,391.3,311.9,391"/>
			<path fill="#005CAA" d="M323,380.2c0-2.5,1.7-5.8,4.2-7.5c2.4-1.7,4.1-0.8,4.1,1.8c0,2.5-1.7,5.8-4.2,7.5
				C324.7,383.7,323,382.7,323,380.2 M329.8,375.5c0-1.8-1.1-2.4-2.7-1.3s-2.7,3.3-2.7,5s1.1,2.4,2.7,1.3
				C328.7,379.4,329.8,377.2,329.8,375.5"/>
			<path fill="#005CAA" d="M336.5,371.6v-5.2l1.4-1v5.1c0,1.7,0.8,2.1,2,1.2s2-2.2,2-3.9v-5.2l1.4-1v5.1c0,2.7-1.3,5-3.4,6.4
				C337.8,374.6,336.5,374.2,336.5,371.6"/>
			<path fill="#005CAA" d="M348.8,357.9l3.5-2.4c1.9-1.3,3-0.9,3,0.8c0,1.5-0.8,2.9-1.9,4l2.1,1.9l-1.6,1.1l-2-1.8l-1.7,1.2v3.1
				l-1.4,1V357.9z M352.3,360c1-0.7,1.6-1.7,1.6-2.7s-0.6-1.1-1.6-0.4l-2,1.4v3L352.3,360z"/>
			<path fill="#005CAA" d="M360.3,354.5c0-2.6,1.7-5.8,4.1-7.5c1.5-1,2.3-1,3.1-0.7l-0.9,1.8c-0.6-0.2-1.3-0.2-2.2,0.4
				c-1.5,1-2.6,3.2-2.6,5s1.1,2.4,2.6,1.4c1-0.7,1.6-1.6,2.3-2.7l0.9,0.4c-0.8,1.6-1.7,2.8-3.2,3.8C362,358,360.3,357.1,360.3,354.5"
				/>
			<polygon fill="#005CAA" points="372.7,341.5 378.6,337.4 378.6,338.8 374.1,341.9 374.1,344.3 378,341.5 378,342.9 374.1,345.7 
				374.1,348.1 378.6,345 378.6,346.4 372.7,350.5 		"/>
			<path fill="#005CAA" d="M383.4,341.8l0.8-1.7c0.8,0.2,1.5,0.1,2.5-0.6c0.9-0.6,1.4-1.4,1.4-2.1c0-0.6-0.3-0.8-1.8-0.2
				c-1.7,0.7-2.6,0.8-2.6-0.9c0-1.5,1.1-3.4,2.7-4.5c1.2-0.8,2.1-1,2.9-0.9l-0.7,1.7c-0.7-0.1-1.4,0.1-2.2,0.6
				c-0.8,0.6-1.3,1.4-1.3,2c0,0.7,0.4,0.8,1.9,0.1c1.7-0.7,2.6-0.6,2.6,0.9c0,1.7-1.2,3.5-2.8,4.6
				C385.5,341.8,384.3,342.1,383.4,341.8"/>
		</g>
		<polygon fill="#F3F8F9" points="152.7,384.4 432,203 306.1,135.5 26.8,317.1 	"/>
		<g>
			<polygon fill="#E5ECED" points="160.1,359.3 192.3,338.4 105.1,291.6 74.5,311.5 		"/>
			<polygon fill="#B0C6D1" points="192.3,338.4 194.6,336.8 105.1,288.6 105.1,291.6 		"/>
			<polygon fill="#A7BCC5" points="74.5,311.5 105.1,291.6 105.1,288.6 71.7,310.1 		"/>
		</g>
		<g>
			<polygon fill="#E5ECED" points="232.6,315.7 264.7,294.8 177.5,248 146.9,267.9 		"/>
			<polygon fill="#B0C6D1" points="264.7,294.8 267.1,293.2 177.5,245 177.5,248 		"/>
			<polygon fill="#A7BCC5" points="146.9,267.9 177.5,248 177.5,245 144.1,266.5 		"/>
		</g>
		<g>
			<polygon fill="#E5ECED" points="298.2,271.5 330.3,250.7 243.1,203.9 212.6,223.8 		"/>
			<polygon fill="#B0C6D1" points="330.3,250.7 332.7,249.1 243.1,200.8 243.1,203.9 		"/>
			<polygon fill="#A7BCC5" points="212.6,223.8 243.1,203.9 243.1,200.8 209.7,222.4 		"/>
		</g>
		<g>
			<polygon fill="#E5ECED" points="363.5,229.7 395.6,208.8 308.4,162.1 277.8,181.9 		"/>
			<polygon fill="#B0C6D1" points="395.6,208.8 397.9,207.2 308.4,159 308.4,162.1 		"/>
			<polygon fill="#A7BCC5" points="277.8,181.9 308.4,162.1 308.4,159 275,180.6 		"/>
		</g>
	</g>
	<g>
		<g>
			<path fill="#DDA62A" d="M218.8,26.8l30.4,16.3c2.2,1.2,3.4,3.7,3,6.1l-9.7,57.4c-0.6,3.7-7.4,6.6-7.4,6.6l-12.6-7
				c-2-0.8-3.3-2.6-3.6-4.7L208,30.4C208.1,30.4,214.6,24.6,218.8,26.8z"/>
			<path fill="#FBC234" d="M215.4,28.9l30.4,16.3c2.2,1.2,3.4,3.7,3,6.1l-9.7,57.4c-0.6,3.7-4.5,5.9-8,4.5l-12-4.9
				c-2-0.8-3.3-2.6-3.6-4.7l-8.7-68.8C206.2,30,211.2,26.6,215.4,28.9z"/>
			<polygon points="235.3,39.2 247.5,60 250.5,59.5 249.7,64 246.5,64.9 229.9,36.6 233.4,34.6 237.8,36.9 		"/>
			<polygon points="248.2,72.7 247.5,77.1 244.4,77.1 218.9,30.7 222,28.5 227.1,31.2 224.1,33.4 245.2,72.7 		"/>
			<path d="M215.7,29l1.8-2.6c-1.9-0.2-3.5,0.2-4.9,1l-1.4,1L242.7,88l2.9,0.1l0.7-3.8l-3.1-0.1L215.7,29z"/>
			<path d="M208.8,29.6l33.1,62.7h3.1l-0.8,5h-3.1L206.9,34C206.9,32.1,207.5,30.6,208.8,29.6z"/>
			<polygon points="208.1,43.9 240.1,102.7 243.2,102.7 242.5,106.6 239.5,106.9 209.2,53.6 		"/>
			<path d="M210.6,64.3L239,111c0,0-2.1,1.4-3,1.8l-24.4-39.9L210.6,64.3z"/>
			<path d="M234.2,113.6c-1.1-0.1-2.2-0.2-3.1-0.5l-17.8-27.2l-0.7-5.7L234.2,113.6z"/>
			<polygon points="214.3,93.4 225.9,111 221.8,109.4 214.9,98.6 		"/>
		</g>
		<path fill="#242522" d="M215.4,28.9l30.4,16.3c2.2,1.2,3.4,3.7,3,6.1l-9.7,57.4c-0.6,3.7-4.5,5.9-8,4.5l-12-4.9
			c-2-0.8-3.3-2.6-3.6-4.7l-8.7-68.8C206.2,30,211.2,26.6,215.4,28.9z"/>
		<path fill="#1D1C1A" d="M214.2,105.9l-3.5,1.2c0,0,7.8,10-9.9,26.8c0.1,15.9,10.2,24.9,20.9,26.7s22.6-6.4,18.9-17.6
			c-1-3.7-5.1,0.1-5.1,0.1s-0.4,8.7-8.2,8.8c-7.8,0.2-14.4-7.4-15-15.2s1.9-10.9,6.6-10.6s7.2-1.9,7.2-1.9l-0.6-13.9L214.2,105.9z"/>
		<path fill="#4B4C4C" d="M210.7,107.1v8.8c0,0-14.4,3.3-14.3,19.2s10.8,24.9,22.2,26.7s24-6.4,20.1-17.6c-1.1-3.7-4.2-1-4.4,1
			c-0.2,2.1-1.5,7.7-9.7,7.9s-15.3-7.4-15.9-15.2s2.1-10.9,7-10.6c5,0.3,7.7-1.9,7.7-1.9l-0.7-13.9L210.7,107.1z"/>
		<g>
			<path fill="#DDA62A" d="M209.3,30l30.4,16.3c2.2,1.2,3.4,3.7,3,6.1l-9.7,57.4c-0.6,3.7-7.4,6.6-7.4,6.6l-12.6-7
				c-2-0.8-3.3-2.6-3.6-4.7l-10.9-71.1C198.5,33.5,205.1,27.7,209.3,30z"/>
			<path fill="#FBC234" d="M205.9,32l30.4,16.3c2.2,1.2,3.4,3.7,3,6.1l-9.7,57.4c-0.6,3.7-4.5,5.9-8,4.5l-12-4.9
				c-2-0.8-3.3-2.6-3.6-4.7l-8.7-68.8C196.7,33.2,201.7,29.8,205.9,32z"/>
			<polygon points="225.8,42.4 238,63.2 241,62.7 240.2,67.2 237,68.1 220.4,39.8 223.9,37.8 228.3,40.1 		"/>
			<polygon points="239,74.3 238,80.3 234.9,80.3 209.4,33.9 212.5,31.7 217.6,34.4 214.6,36.6 236,74.1 		"/>
			<path d="M206.2,32.2l1.8-2.6c-1.9-0.2-3.5,0.2-4.9,1l-1.4,1l31.5,59.6l2.9,0.1l1-5.6l-3-0.3L206.2,32.2z"/>
			<path d="M199.3,32.8l33.1,62.7h3.1l-0.8,5h-3.1l-34.2-63.3C197.4,35.3,198,33.8,199.3,32.8z"/>
			<polygon points="198.5,47.1 230.6,105.8 233.7,105.8 233,109.8 230,110 199.7,56.8 		"/>
			<path d="M201.1,67.5l28.5,46.7c0,0-2.1,1.4-3,1.8l-24.4-39.9L201.1,67.5z"/>
			<path d="M224.7,116.8c-1.1-0.1-2.2-0.2-3.1-0.5l-17.8-27.2l-0.7-5.7L224.7,116.8z"/>
			<polygon points="204.8,96.6 216.4,114.1 212.3,112.5 205.4,101.8 		"/>
		</g>
	</g>
	<path fill="none" stroke="#4D4C4C" stroke-miterlimit="10" d="M154.4,374.7c0,0,48.2-213.2,62.7-223.6s85.7-15.3,85.7-15.3"/>
	<path fill="none" stroke="#4D4C4C" stroke-miterlimit="10" d="M425.4,199.8c0,0-191.1-54.5-206.6-50.8S34.5,307.4,34.5,307.4"/>
	<path fill="#262626" d="M150.6,390.1v-1.9c0,0-2.5-0.6-2.8-2.8c-0.2-2.2,4.2-4.5,4.2-4.5l-1.5-1.3h-0.8c0,0-3.6,3.4-3.7,5.8
		c0,3.5,3.4,3.5,3.4,3.5l0.3,1.1l-0.3,1.2L150.6,390.1z"/>
	<path fill="none" stroke="#4D4C4C" stroke-miterlimit="10" d="M154.4,374.7c0,0-0.4,9.4-4.7,7C145.4,379.2,151.2,376.2,154.4,374.7z
		"/>
	<path fill="#4D4C4C" d="M149.9,390.1v-1.9c0,0-2.5-0.6-2.8-2.8c-0.2-2.2,4.2-4.5,4.2-4.5l-1.5-1.3c0,0-4.4,2.4-4.4,5.8
		c0,3.5,3.4,3.5,3.4,3.5l0.8,2.3L149.9,390.1z"/>
	<path fill="#262626" d="M30.8,322.8v-1.9c0,0-2.5-0.6-2.8-2.8c-0.2-2.2,4.2-4.5,4.2-4.5l-1.5-1.3H30c0,0-3.6,3.4-3.7,5.8
		c0,3.5,3.4,3.5,3.4,3.5l0.3,1.1l-0.3,1.2L30.8,322.8z"/>
	<path fill="none" stroke="#4D4C4C" stroke-miterlimit="10" d="M34.6,307.4c0,0-0.4,9.4-4.7,7C25.6,311.9,31.3,308.9,34.6,307.4z"/>
	<path fill="#4D4C4C" d="M30,322.8v-1.9c0,0-2.5-0.6-2.8-2.8c-0.2-2.2,4.2-4.5,4.2-4.5l-1.5-1.3c0,0-4.4,2.4-4.4,5.8
		c0,3.5,3.4,3.5,3.4,3.5l0.8,2.3L30,322.8z"/>
	<path fill="#30302F" d="M432,206.8c0,0,6.1-2.9,3.7-5.7s-6.7,0.2-6.7,0.2s2.1,0.1,3.5-0.1c1.3-0.3,3,1,2.3,2.3s-2.7,2.6-2.7,2.6
		L432,206.8L432,206.8z"/>
	<path fill="#4D4C4C" d="M432,208.8c0,0,6.8-5.2,4.3-8s-7.3,0.5-7.3,0.5l1.2,0.7c0,0,3.5-2.1,4.9,0.1c1.4,2.2-3.1,4.7-3.1,4.7V208.8z
		"/>
	<path fill="none" stroke="#4D4C4C" stroke-miterlimit="10" d="M425.4,199.8c0,0,8.6-3.7,8.3,1.2S428.2,202,425.4,199.8z"/>
	<path fill="#30302F" d="M312.6,139c0,0,2.8-5.9-0.8-6.5c-3.6-0.6-4.6,3.6-4.6,3.6s1.2-0.5,2.1-1.6c0.9-1,2.9-1.1,3.2,0.4
		c0.3,1.5-0.5,3.8-0.5,3.8L312.6,139z"/>
	<path fill="#4D4C4C" d="M314.2,139.9c0,0,1.5-7.4-2.1-8S307,136,307,136l1.1,0.6c0,0,1.4-3.8,3.9-3s0.7,5.4,0.7,5.4L314.2,139.9z"/>
	<path fill="none" stroke="#4D4C4C" stroke-miterlimit="10" d="M302.8,135.8c0,0,6.4-6.8,8.1-2.2
		C312.6,138.3,306.3,136.8,302.8,135.8z"/>
	<g>
		<g>
			<polygon fill="#CECECD" points="292.3,619.8 571.6,438.4 444.7,367.1 166.4,552.5 		"/>
			<polygon fill="#608089" points="445.7,209.1 445.7,371 571.6,438.3 571.6,276.5 		"/>
			<polygon fill="#53737B" points="166.4,390.5 166.4,552.4 445.7,371 445.7,209.1 		"/>
			<polygon fill="#A6C0C5" points="292.3,452.3 292.3,458 571.6,276.5 558.3,279.7 		"/>
			<polygon fill="#8FABB1" points="176.7,391.8 166.4,390.5 292.3,458 292.3,452.3 		"/>
			<polygon fill="#EAF6FB" points="292.3,458 292.3,619.9 571.6,438.5 571.6,276.6 		"/>
			<polygon fill="#B0C6D1" points="166.4,390.7 166.4,552.5 292.3,619.8 292.3,458 		"/>
			<polygon fill="#5C6B6E" points="174.4,407.3 174.4,545.6 282,603.2 282,464.9 		"/>
			<polygon fill="#B0C6D1" points="177.6,413.1 177.6,543.2 278.8,597.4 278.8,467.2 		"/>
			<g>
				<polygon fill="#BED4DD" points="317.5,454.3 308.2,460.9 307.9,597.7 317.5,594 			"/>
				<path fill="#B0C6D1" d="M308.5,599.7l9-5.7c0,0-5.7-1.1-8.2,0.8C306.8,596.6,308.5,599.7,308.5,599.7z"/>
			</g>
			<g>
				<polygon fill="#BED4DD" points="336.4,441.4 327.1,448 326.8,584.8 336.4,581.1 			"/>
				<path fill="#B0C6D1" d="M327.4,586.8l9-5.7c0,0-5.7-1.1-8.2,0.8C325.7,583.7,327.4,586.8,327.4,586.8z"/>
			</g>
			<g>
				<polygon fill="#BED4DD" points="355.3,429 346,435.6 345.7,572.5 355.3,568.7 			"/>
				<path fill="#B0C6D1" d="M346.3,574.4l9-5.7c0,0-5.7-1.1-8.2,0.8C344.6,571.4,346.3,574.4,346.3,574.4z"/>
			</g>
			<g>
				<polygon fill="#BED4DD" points="374.2,417 364.9,423.6 364.6,560.5 374.2,556.7 			"/>
				<path fill="#B0C6D1" d="M365.2,562.4l9-5.7c0,0-5.7-1.1-8.2,0.8C363.5,559.3,365.2,562.4,365.2,562.4z"/>
			</g>
			<g>
				<polygon fill="#BED4DD" points="393.1,403.9 383.8,410.5 383.5,547.3 393.1,543.6 			"/>
				<path fill="#B0C6D1" d="M384,549.3l9-5.7c0,0-5.7-1.1-8.2,0.8S384,549.3,384,549.3z"/>
			</g>
			<g>
				<polygon fill="#BED4DD" points="412,391.5 402.7,398.1 402.4,535 412,531.2 			"/>
				<path fill="#B0C6D1" d="M402.9,536.9l9-5.7c0,0-5.7-1.1-8.2,0.8C401.3,533.9,402.9,536.9,402.9,536.9z"/>
			</g>
			<g>
				<polygon fill="#BED4DD" points="430.9,376.8 421.6,383.4 421.3,520.2 430.9,516.5 			"/>
				<path fill="#B0C6D1" d="M421.8,522.2l9-5.7c0,0-5.7-1.1-8.2,0.8S421.8,522.2,421.8,522.2z"/>
			</g>
			<g>
				<polygon fill="#BED4DD" points="449.8,365.7 440.5,372.2 440.2,509.1 449.8,505.4 			"/>
				<path fill="#B0C6D1" d="M440.7,511.1l9-5.7c0,0-5.7-1.1-8.2,0.8C439.1,508,440.7,511.1,440.7,511.1z"/>
			</g>
			<g>
				<polygon fill="#BED4DD" points="468.7,354.3 459.4,360.9 459.1,497.8 468.7,494 			"/>
				<path fill="#B0C6D1" d="M459.6,499.7l9-5.7c0,0-5.7-1.1-8.2,0.8C458,496.6,459.6,499.7,459.6,499.7z"/>
			</g>
			<g>
				<polygon fill="#BED4DD" points="487.6,340.9 478.2,347.5 478,484.4 487.6,480.6 			"/>
				<path fill="#B0C6D1" d="M478.5,486.4l9-5.7c0,0-5.7-1.1-8.2,0.8S478.5,486.4,478.5,486.4z"/>
			</g>
			<g>
				<polygon fill="#BED4DD" points="506.5,328.2 497.1,334.8 496.9,471.7 506.5,467.9 			"/>
				<path fill="#B0C6D1" d="M497.4,473.6l9-5.7c0,0-5.7-1.1-8.2,0.8C495.8,470.5,497.4,473.6,497.4,473.6z"/>
			</g>
			<g>
				<polygon fill="#BED4DD" points="525.4,317.1 516,323.7 515.8,460.6 525.4,456.8 			"/>
				<path fill="#B0C6D1" d="M516.3,462.5l9-5.7c0,0-5.7-1.1-8.2,0.8S516.3,462.5,516.3,462.5z"/>
			</g>
			<g>
				<polygon fill="#BED4DD" points="544.3,305.7 534.9,312.3 534.7,449.2 544.3,445.4 			"/>
				<path fill="#B0C6D1" d="M535.2,451.2l9-5.7c0,0-5.7-1.1-8.2,0.8C533.6,448.1,535.2,451.2,535.2,451.2z"/>
			</g>
			<polygon opacity="0.1" enable-background="new    " points="203.4,477.9 200.7,476.6 200.7,469.6 203.4,470.8 		"/>
			<polygon opacity="0.1" enable-background="new    " points="203.4,516.2 200.7,515 200.7,507.9 203.4,509.2 		"/>
			<polygon opacity="0.1" enable-background="new    " points="203.4,547.9 200.7,546.6 200.7,539.5 203.4,540.8 		"/>
			<g>
				<polygon fill="#BED4DD" points="563.1,292.9 553.8,299.5 553.6,436.4 563.1,432.6 			"/>
				<path fill="#B0C6D1" d="M554.1,438.4l9-5.7c0,0-5.7-1.1-8.2,0.8S554.1,438.4,554.1,438.4z"/>
			</g>
			<rect x="223.3" y="437.5" fill="#5C6B6E" width="4.9" height="132.8"/>
			<g>
				<polygon fill="#8EAFBB" points="183.2,442.4 183.2,449.3 217.9,467.8 218,461.1 			"/>
				<polygon fill="#688D98" points="183.2,442.4 183.2,443.4 218,462 218,461.1 			"/>
				<polygon fill="#688D98" points="183.2,448.2 183.2,449.3 217.9,467.8 217.9,466.8 			"/>
				<path fill="#688D98" d="M183.2,442.4c0,0,2.5,2.2,2.5,4.2s-2.5,2.6-2.5,2.6V442.4z"/>
			</g>
			<g>
				<polygon fill="#8EAFBB" points="183.2,482.1 183.2,489 217.9,507.5 218,500.8 			"/>
				<polygon fill="#688D98" points="183.2,482.1 183.2,483.2 218,501.7 218,500.8 			"/>
				<polygon fill="#688D98" points="183.2,488 183.2,489 217.9,507.5 217.9,506.6 			"/>
				<path fill="#688D98" d="M183.2,482.1c0,0,2.5,2.2,2.5,4.2s-2.5,2.6-2.5,2.6V482.1z"/>
			</g>
			<g>
				<polygon fill="#8EAFBB" points="183.2,518.2 183.2,525 217.9,543.5 218,536.8 			"/>
				<polygon fill="#688D98" points="183.2,518.2 183.2,519.2 218,537.7 218,536.8 			"/>
				<polygon fill="#688D98" points="183.2,524 183.2,525 217.9,543.5 217.9,542.6 			"/>
				<path fill="#688D98" d="M183.2,518.2c0,0,2.5,2.2,2.5,4.2s-2.5,2.6-2.5,2.6V518.2z"/>
			</g>
			<g>
				<polygon fill="#8EAFBB" points="234.6,469.2 234.6,476.1 269.2,494.6 269.3,487.9 			"/>
				<polygon fill="#688D98" points="234.6,469.2 234.6,470.3 269.3,488.8 269.3,487.9 			"/>
				<polygon fill="#688D98" points="234.6,475.1 234.6,476.1 269.2,494.6 269.3,493.7 			"/>
				<path fill="#688D98" d="M234.6,469.2c0,0,2.5,2.2,2.5,4.2s-2.5,2.6-2.5,2.6V469.2z"/>
			</g>
			<g>
				<polygon fill="#8EAFBB" points="234.6,509 234.6,515.8 269.2,534.4 269.3,527.6 			"/>
				<polygon fill="#688D98" points="234.6,509 234.6,510 269.3,528.5 269.3,527.6 			"/>
				<polygon fill="#688D98" points="234.6,514.8 234.6,515.8 269.2,534.4 269.3,533.4 			"/>
				<path fill="#688D98" d="M234.6,509c0,0,2.5,2.2,2.5,4.2s-2.5,2.6-2.5,2.6V509z"/>
			</g>
			<g>
				<polygon fill="#8EAFBB" points="234.6,545 234.6,551.9 269.2,570.4 269.3,563.7 			"/>
				<polygon fill="#688D98" points="234.6,545 234.6,546 269.3,564.6 269.3,563.7 			"/>
				<polygon fill="#688D98" points="234.6,550.8 234.6,551.9 269.2,570.4 269.3,569.4 			"/>
				<path fill="#688D98" d="M234.6,545c0,0,2.5,2.2,2.5,4.2s-2.5,2.6-2.5,2.6V545z"/>
			</g>
			<polygon opacity="0.1" enable-background="new    " points="202.1,566.2 199.8,563.8 199.8,414.6 202.1,417 		"/>
			<polygon opacity="0.1" enable-background="new    " points="250.3,501.5 247.6,500.2 247.6,493.1 250.3,494.4 		"/>
			<polygon opacity="0.1" enable-background="new    " points="250.5,539.6 247.8,538.4 247.8,531.3 250.5,532.5 		"/>
			<polygon opacity="0.1" enable-background="new    " points="250.5,571.4 247.8,570.1 247.8,563 250.5,564.3 		"/>
			<polygon opacity="0.1" enable-background="new    " points="249.2,589.6 246.9,587.2 246.9,438 249.2,440.4 		"/>
			<g>
				<path fill="#D4D9DA" d="M199.1,564.7c-0.5-0.1-0.8-0.5-0.9-1V414.8l2.5,0.9L199.1,564.7z"/>
				<path fill="#E8EBEC" d="M200.7,564.2c-0.1,0.3-0.3,0.5-0.6,0.6v-150l0.6,0.9V564.2z"/>
				<path fill="#CFD1D1" d="M200.1,564.8c-0.3,0.1-0.6,0-0.9-0.1l0.1-149.5l0.9,0.9L200.1,564.8z"/>
				<path fill="#99999A" d="M200.4,540.5c-0.6,0-1.2-0.2-1.8-0.4c-0.9-0.2-1.6-1.2-1.6-1.2h-0.2v6.4c0.3,0.6,0.9,1.1,1.8,1.5
					c0.5,0.2,1.1,0.4,1.8,0.5c0.8-0.1,1.5-0.2,1.7-0.6l0.1-6.5H202C201.9,540.1,201.3,540.6,200.4,540.5z"/>
				
					<ellipse transform="matrix(0.3482 -0.9374 0.9374 0.3482 -259.225 457.6055)" fill="#F4F4F4" cx="199.5" cy="415.2" rx="0.8" ry="1.3"/>
				<path fill="#C0C0C0" d="M200.4,547.5c0.8-0.1,1.5-0.2,1.7-0.6l0.1-6.9c-0.2,0.7-0.8,0.9-1.8,0.8V547.5z"/>
				<path fill="#ADADAD" d="M198.6,547c0.5,0.2,1.1,0.4,1.8,0.5v-6.7c-0.6,0-1.2-0.2-1.8-0.4V547z"/>
				<path fill="#D3D3D3" d="M196.8,545.6c0.3,0.6,0.9,1.1,1.8,1.5v-6.6c-0.9-0.2-1.4-0.8-1.8-1.6V545.6z"/>
				<path fill="#99999A" d="M200.4,508.9c-0.6,0-1.2-0.2-1.8-0.4c-0.9-0.2-1.6-1.2-1.6-1.2h-0.2v6.4c0.3,0.6,0.9,1.1,1.8,1.5
					c0.5,0.2,1.1,0.4,1.8,0.5c0.8-0.1,1.5-0.2,1.7-0.6l0.1-6.5H202C201.9,508.4,201.3,509,200.4,508.9z"/>
				<path fill="#C0C0C0" d="M200.4,515.9c0.8-0.1,1.5-0.2,1.7-0.6l0.1-6.9c-0.2,0.7-0.8,0.9-1.8,0.8V515.9z"/>
				<path fill="#ADADAD" d="M198.6,515.4c0.5,0.2,1.1,0.4,1.8,0.5v-6.7c-0.6,0-1.2-0.2-1.8-0.4V515.4z"/>
				<path fill="#D3D3D3" d="M196.8,513.9c0.3,0.6,0.9,1.1,1.8,1.5v-6.6c-0.9-0.2-1.4-0.8-1.8-1.6V513.9z"/>
				<path fill="#99999A" d="M200.4,470.8c-0.6,0-1.2-0.2-1.8-0.4c-0.9-0.2-1.6-1.2-1.6-1.2h-0.2v6.4c0.3,0.6,0.9,1.1,1.8,1.5
					c0.5,0.2,1.1,0.4,1.8,0.5c0.8-0.1,1.5-0.2,1.7-0.6l0.1-6.5H202C201.9,470.3,201.3,470.9,200.4,470.8z"/>
				<path fill="#C0C0C0" d="M200.4,477.8c0.8-0.1,1.5-0.2,1.7-0.6l0.1-6.9c-0.2,0.7-0.8,0.9-1.8,0.8V477.8z"/>
				<path fill="#ADADAD" d="M198.6,477.3c0.5,0.2,1.1,0.4,1.8,0.5v-6.7c-0.6,0-1.2-0.2-1.8-0.4V477.3z"/>
				<path fill="#D3D3D3" d="M196.8,475.8c0.3,0.6,0.9,1.1,1.8,1.5v-6.6c-0.9-0.2-1.4-0.8-1.8-1.6V475.8z"/>
			</g>
			<g>
				<path fill="#D4D9DA" d="M246.3,588.3c-0.5-0.1-0.8-0.5-0.9-1V438.4l2.5,0.9L246.3,588.3z"/>
				<path fill="#E8EBEC" d="M247.9,587.8c-0.1,0.3-0.3,0.5-0.6,0.6v-150l0.6,0.9V587.8z"/>
				<path fill="#CFD1D1" d="M247.2,588.4c-0.3,0.1-0.6,0-0.9-0.1l0.1-149.5l0.9,0.9L247.2,588.4z"/>
				<path fill="#99999A" d="M247.5,564.1c-0.6,0-1.2-0.2-1.8-0.4c-0.9-0.2-1.6-1.2-1.6-1.2h-0.2v6.4c0.3,0.6,0.9,1.1,1.8,1.5
					c0.5,0.2,1.1,0.4,1.8,0.5c0.8-0.1,1.5-0.2,1.7-0.6l0.1-6.5h-0.2C249.1,563.7,248.4,564.2,247.5,564.1z"/>
				
					<ellipse transform="matrix(0.3482 -0.9374 0.9374 0.3482 -250.6609 517.2304)" fill="#F4F4F4" cx="246.6" cy="438.9" rx="0.8" ry="1.3"/>
				<path fill="#C0C0C0" d="M247.5,571.1c0.8-0.1,1.5-0.2,1.7-0.6l0.1-6.9c-0.2,0.7-0.8,0.9-1.8,0.8V571.1z"/>
				<path fill="#ADADAD" d="M245.7,570.6c0.5,0.2,1.1,0.4,1.8,0.5v-6.7c-0.6,0-1.2-0.2-1.8-0.4V570.6z"/>
				<path fill="#D3D3D3" d="M243.9,569.1c0.3,0.6,0.9,1.1,1.8,1.5V564c-0.9-0.2-1.4-0.8-1.8-1.6V569.1z"/>
				<path fill="#99999A" d="M247.5,532.4c-0.6,0-1.2-0.2-1.8-0.4c-0.9-0.2-1.6-1.2-1.6-1.2h-0.2v6.4c0.3,0.6,0.9,1.1,1.8,1.5
					c0.5,0.2,1.1,0.4,1.8,0.5c0.8-0.1,1.5-0.2,1.7-0.6l0.1-6.5h-0.2C249.1,532,248.4,532.6,247.5,532.4z"/>
				<path fill="#C0C0C0" d="M247.5,539.5c0.8-0.1,1.5-0.2,1.7-0.6l0.1-6.9c-0.2,0.7-0.8,0.9-1.8,0.8V539.5z"/>
				<path fill="#ADADAD" d="M245.7,539c0.5,0.2,1.1,0.4,1.8,0.5v-6.7c-0.6,0-1.2-0.2-1.8-0.4V539z"/>
				<path fill="#D3D3D3" d="M243.9,537.5c0.3,0.6,0.9,1.1,1.8,1.5v-6.6c-0.9-0.2-1.4-0.8-1.8-1.6V537.5z"/>
				<path fill="#99999A" d="M247.5,494.3c-0.6,0-1.2-0.2-1.8-0.4c-0.9-0.2-1.6-1.2-1.6-1.2h-0.2v6.4c0.3,0.6,0.9,1.1,1.8,1.5
					c0.5,0.2,1.1,0.4,1.8,0.5c0.8-0.1,1.5-0.2,1.7-0.6l0.1-6.5h-0.2C249.1,493.9,248.4,494.4,247.5,494.3z"/>
				<path fill="#C0C0C0" d="M247.5,501.4c0.8-0.1,1.5-0.2,1.7-0.6l0.1-6.9c-0.2,0.7-0.8,0.9-1.8,0.8V501.4z"/>
				<path fill="#ADADAD" d="M245.7,500.9c0.5,0.2,1.1,0.4,1.8,0.5v-6.7c-0.6,0-1.2-0.2-1.8-0.4V500.9z"/>
				<path fill="#D3D3D3" d="M243.9,499.4c0.3,0.6,0.9,1.1,1.8,1.5v-6.6c-0.9-0.2-1.4-0.8-1.8-1.6V499.4z"/>
			</g>
			<g>
				<polygon fill="#CDE1E8" points="282.9,513.1 282.9,515.9 288.6,518.9 288.9,516.3 			"/>
				<polygon fill="#84A0A8" points="282.9,513.5 282.9,516.2 288.6,519.3 288.6,516.6 			"/>
				<polygon fill="#9FB9C0" points="288.9,519.1 288.6,519.3 288.6,516.6 288.9,516.3 			"/>
				<polygon fill="#CDE1E8" points="270.6,498.7 270.6,506 285.9,514.1 286.7,507.3 			"/>
				<polygon fill="#96ADB6" points="270.6,499.7 270.6,507 285.9,515.2 285.9,507.9 			"/>
				<polygon fill="#9FB9C0" points="286.7,514.6 285.9,515.2 285.9,507.9 286.7,507.3 			"/>
				<polygon fill="#CDE1E8" points="282.9,502.7 282.9,505.4 288.6,508.4 288.9,505.9 			"/>
				<polygon fill="#96ADB6" points="282.9,503.1 282.9,505.8 288.6,508.8 288.6,506.1 			"/>
				<polygon fill="#9FB9C0" points="288.9,508.6 288.6,508.8 288.6,506.1 288.9,505.9 			"/>
			</g>
			<g>
				<polygon fill="#CDE1E8" points="282.9,565.6 282.9,568.3 288.6,571.4 288.9,568.8 			"/>
				<polygon fill="#84A0A8" points="282.9,566 282.9,568.7 288.6,571.8 288.6,569.1 			"/>
				<polygon fill="#9FB9C0" points="288.9,571.6 288.6,571.8 288.6,569.1 288.9,568.8 			"/>
				<polygon fill="#CDE1E8" points="270.6,551.2 270.6,558.5 285.9,566.6 286.7,559.7 			"/>
				<polygon fill="#96ADB6" points="270.6,552.2 270.6,559.5 285.9,567.7 285.9,560.4 			"/>
				<polygon fill="#9FB9C0" points="286.7,567.1 285.9,567.7 285.9,560.4 286.7,559.7 			"/>
				<polygon fill="#CDE1E8" points="282.9,555.2 282.9,557.9 288.6,560.9 288.9,558.4 			"/>
				<polygon fill="#96ADB6" points="282.9,555.6 282.9,558.3 288.6,561.3 288.6,558.6 			"/>
				<polygon fill="#9FB9C0" points="288.9,561.1 288.6,561.3 288.6,558.6 288.9,558.4 			"/>
			</g>
			<g>
				<polygon fill="#CDE1E8" points="173,509.6 172.7,512.1 167,506.5 167.3,506.2 			"/>
				<polygon fill="#8CA1A8" points="172.7,509.7 172.7,512.4 167,509.2 167,506.5 			"/>
				<polygon fill="#9FB9C0" points="172.7,512.4 173,512.1 173,509.6 172.7,509.7 			"/>
				<polygon fill="#CDE1E8" points="185.8,509.3 184.9,516 169.7,500.9 170.6,500.2 			"/>
				<polygon fill="#96ADB6" points="184.9,509.7 184.9,517 169.7,508.2 169.7,500.9 			"/>
				<polygon fill="#9FB9C0" points="184.9,517 185.8,516.1 185.8,509.3 184.9,509.7 			"/>
				<polygon fill="#CDE1E8" points="173,499.2 172.7,501.7 167,496.1 167.3,495.9 			"/>
				<polygon fill="#96ADB6" points="172.7,499.4 172.7,502.1 167,498.8 167,496.1 			"/>
				<polygon fill="#9FB9C0" points="172.7,502.1 173,501.8 173,499.2 172.7,499.4 			"/>
			</g>
			<g>
				<polygon fill="#CDE1E8" points="173,453.5 172.7,456 167,450.4 167.3,450.2 			"/>
				<polygon fill="#8CA1A8" points="172.7,453.7 172.7,456.4 167,453.1 167,450.4 			"/>
				<polygon fill="#9FB9C0" points="172.7,456.4 173,456 173,453.5 172.7,453.7 			"/>
				<polygon fill="#CDE1E8" points="185.8,453.3 184.9,459.9 169.7,444.8 170.6,444.1 			"/>
				<polygon fill="#96ADB6" points="184.9,453.7 184.9,460.9 169.7,452.1 169.7,444.8 			"/>
				<polygon fill="#9FB9C0" points="184.9,460.9 185.8,460.1 185.8,453.3 184.9,453.7 			"/>
				<polygon fill="#CDE1E8" points="173,443.2 172.7,445.7 167,440.1 167.3,439.8 			"/>
				<polygon fill="#96ADB6" points="172.7,443.3 172.7,446.1 167,442.8 167,440.1 			"/>
				<polygon fill="#9FB9C0" points="172.7,446.1 173,445.7 173,443.2 172.7,443.3 			"/>
			</g>
			<polygon fill="#85A4AC" points="166.4,390.7 176.7,391.8 445.6,219.4 445.7,209.1 		"/>
			<polygon fill="#8FABB1" points="558.3,279.7 445.6,219.4 445.7,209.1 571.6,276.6 		"/>
			<g opacity="0.1">
				<path d="M376.8,493.2c-6.4,4.4-11.5,13.8-11.5,21s5.2,9.5,11.5,5.1c3.2-2.2,6.1-5.7,8.2-9.5l0,0l15.4-28.2l-20.8,10.1
					C378.8,492,377.8,492.5,376.8,493.2z"/>
				<path d="M407.4,450.3L407.4,450.3l-15.4-6.9l-3.7,26.1c-0.2,1.2-0.4,2.4-0.4,3.5c0,7.2,5.1,9.5,11.5,5.1
					c6.3-4.4,11.5-13.8,11.5-21C410.9,453.6,409.5,451.2,407.4,450.3z"/>
				<path d="M377,468.2c6.4-4.4,11.5-13.8,11.5-21s-5.1-9.5-11.5-5.1c-3.2,2.2-6.1,5.7-8.2,9.6l0,0l-15.4,28.2l20.8-10.1
					C375,469.4,376,468.9,377,468.2z"/>
				<path d="M365.9,488.3c0-7.2-5.1-9.5-11.5-5.1s-11.5,13.8-11.5,21c0,3.6,1.3,6,3.4,6.9l0,0l15.4,6.9l3.7-26.2
					C365.8,490.6,365.9,489.5,365.9,488.3z"/>
				<path d="M439.5,418c-9.3,6.4-16.3,19.2-16.3,29c0,9.9,6.9,13.1,16.2,6.6s16.3-19.2,16.3-29C455.7,414.7,448.8,411.6,439.5,418z
					 M439.5,445c-4.6,3.1-7.7,1-7.7-3.9c0-5,3.1-11.3,7.6-14.5c4.6-3.2,7.8-1,7.8,3.9C447.2,435.6,444.1,441.9,439.5,445z"/>
				<polygon points="468.4,398.8 460.1,404.5 460.1,438.8 483,423 483,414.6 468.4,424.7 			"/>
				<polygon points="486.8,420.4 495.2,414.6 495.2,380.4 486.8,386.2 			"/>
				<path d="M521.3,384.7c3.8-4.4,6.2-9.6,6.2-14.8c0-3.5-0.9-5.5-2.7-6.3c-2-0.9-5.2-0.1-9.8,3.1l-14.3,9.8v34.2l8.4-5.8v-10.4
					l3.7-2.5l6.1,6.2l9.6-6.6L521.3,384.7z M514.6,383.4l-5.5,3.8V379l5.5-3.8c2.8-1.9,4.5-1.7,4.5,0.9
					C519.1,378.8,517.4,381.5,514.6,383.4z"/>
				<path d="M433.2,470.5c0-1.7-1.1-2.1-3-0.8l-3.5,2.4v9l1.4-1V477l1.7-1.2l2,1.8l1.6-1.1l-2.1-1.9
					C432.5,473.4,433.2,471.9,433.2,470.5z M430.2,474.2l-2,1.4v-3l2-1.4c1-0.7,1.6-0.6,1.6,0.4C431.8,472.4,431.2,473.5,430.2,474.2
					z"/>
				<polygon points="440,468.1 444,465.4 444,464 440,466.7 440,464.4 444.5,461.3 444.5,459.9 438.6,463.9 438.6,472.9 444.5,468.8 
					444.5,467.4 440,470.6 			"/>
				<path d="M452.9,457.9c-1.5,0.6-1.9,0.6-1.9-0.1c0-0.6,0.5-1.4,1.3-2c0.7-0.5,1.4-0.7,2.2-0.6l0.7-1.7c-0.8-0.2-1.7,0.1-2.9,0.9
					c-1.6,1.1-2.7,2.9-2.7,4.5c0,1.7,1,1.6,2.6,0.9c1.5-0.6,1.8-0.5,1.8,0.2s-0.5,1.5-1.4,2.1c-1,0.7-1.7,0.8-2.5,0.6l-0.8,1.7
					c1,0.3,2.1,0,3.3-0.8c1.7-1.1,2.8-3,2.8-4.6C455.4,457.3,454.5,457.2,452.9,457.9z"/>
				<path d="M464.5,445.9c-2.4,1.7-4.2,5-4.2,7.5c0,2.6,1.7,3.5,4.1,1.8s4.2-5,4.2-7.5C468.6,445.2,466.9,444.2,464.5,445.9z
					 M464.5,453.8c-1.6,1.1-2.7,0.4-2.7-1.3c0-1.8,1.1-4,2.7-5c1.6-1.1,2.7-0.4,2.7,1.3C467.2,450.5,466.1,452.7,464.5,453.8z"/>
				<path d="M479.2,441.1c0,1.7-0.8,3-2,3.9s-2,0.5-2-1.2v-5.1l-1.4,1v5.2c0,2.6,1.3,3.1,3.4,1.6c2.1-1.4,3.4-3.7,3.4-6.4V435l-1.4,1
					V441.1z"/>
				<path d="M492.7,429.6c0-1.7-1.1-2.1-3-0.8l-3.5,2.4v9l1.4-1v-3.1l1.7-1.2l2,1.8l1.6-1.1l-2.1-1.9
					C491.9,432.5,492.7,431,492.7,429.6z M489.6,433.3l-2,1.4v-3l2-1.4c1-0.7,1.6-0.6,1.6,0.4C491.3,431.5,490.6,432.6,489.6,433.3z"
					/>
				<path d="M501.7,428.2c-1.5,1-2.6,0.4-2.6-1.4s1.1-4,2.6-5c0.9-0.6,1.6-0.6,2.2-0.4l0.9-1.8c-0.8-0.3-1.6-0.3-3.1,0.7
					c-2.4,1.7-4.1,4.9-4.1,7.5s1.7,3.5,4,1.9c1.5-1,2.4-2.3,3.2-3.8l-0.9-0.4C503.3,426.6,502.7,427.5,501.7,428.2z"/>
				<polygon points="511.4,419 515.4,416.2 515.4,414.8 511.4,417.5 511.4,415.2 515.9,412.1 515.9,410.7 510,414.8 510,423.8 
					516,419.7 516,418.3 511.4,421.4 			"/>
				<path d="M524.3,408.7c-1.5,0.6-1.9,0.6-1.9-0.1c0-0.6,0.5-1.4,1.3-2c0.7-0.5,1.4-0.7,2.2-0.6l0.7-1.7c-0.8-0.2-1.7,0.1-2.9,0.9
					c-1.6,1.1-2.7,2.9-2.7,4.5c0,1.7,1,1.6,2.6,0.9c1.5-0.6,1.8-0.5,1.8,0.2s-0.5,1.5-1.4,2.1c-1,0.7-1.7,0.8-2.5,0.6l-0.8,1.7
					c1,0.3,2.1,0,3.3-0.8c1.7-1.1,2.8-3,2.8-4.6C526.9,408.1,526,408,524.3,408.7z"/>
			</g>
			<g>
				<path fill="#F16322" d="M402.8,481.9L382,492c-0.9,0.4-1.9,0.9-2.9,1.5c-6.4,4.4-11.5,13.8-11.5,21s5.2,9.5,11.5,5.1
					c3.2-2.2,6.1-5.7,8.2-9.5l0,0L402.8,481.9z"/>
				<path fill="#F48120" d="M409.7,450.6L409.7,450.6l-15.4-6.9l-3.7,26.1c-0.2,1.2-0.4,2.4-0.4,3.5c0,7.2,5.1,9.5,11.5,5.1
					c6.3-4.4,11.5-13.8,11.5-21C413.2,453.9,411.8,451.5,409.7,450.6"/>
				<path fill="#0099D9" d="M379.3,442.4c-3.2,2.2-6.1,5.7-8.2,9.6l0,0l-15.4,28.2l20.8-10.1c0.9-0.4,1.9-0.9,2.9-1.5
					c6.4-4.4,11.5-13.8,11.5-21C390.8,440.3,385.6,438,379.3,442.4"/>
				<path fill="#005CAA" d="M368.2,488.7c0-7.2-5.1-9.5-11.5-5.1s-11.5,13.8-11.5,21c0,3.6,1.3,6,3.4,6.9l0,0l15.4,6.9l3.7-26.2
					C368.1,490.9,368.2,489.8,368.2,488.7"/>
				<path fill="#005CAA" d="M425.5,447.3c0-9.8,7-22.6,16.3-29s16.2-3.3,16.2,6.6c0,9.8-7,22.6-16.3,29
					C432.4,460.4,425.5,457.3,425.5,447.3 M449.5,430.8c0-4.9-3.1-7.1-7.8-3.9c-4.6,3.1-7.6,9.5-7.6,14.5c0,4.9,3.1,7.1,7.7,3.9
					C446.4,442.2,449.5,435.9,449.5,430.8"/>
				<polygon fill="#005CAA" points="462.4,404.9 470.7,399.1 470.7,425 485.3,415 485.3,423.3 462.4,439.1 			"/>
				<polygon fill="#005CAA" points="489.1,386.5 497.5,380.7 497.5,414.9 489.1,420.7 			"/>
				<path fill="#005CAA" d="M503,376.9l14.3-9.8c4.6-3.2,7.8-4,9.8-3.1c1.8,0.8,2.7,2.8,2.7,6.3c0,5.2-2.5,10.4-6.2,14.8l7.2,7
					l-9.6,6.6l-6.1-6.2l-3.7,2.5v10.4l-8.4,5.8L503,376.9L503,376.9z M516.9,383.8c2.8-2,4.5-4.6,4.5-7.2c0-2.7-1.7-2.9-4.5-0.9
					l-5.5,3.8v8.2L516.9,383.8z"/>
				<path fill="#005CAA" d="M429.1,472.4l3.5-2.4c1.9-1.3,3-0.9,3,0.8c0,1.5-0.8,2.9-1.9,4l2.1,1.9l-1.6,1.1l-2-1.8l-1.7,1.2v3.1
					l-1.4,1V472.4z M432.5,474.5c1-0.7,1.6-1.7,1.6-2.7s-0.6-1.1-1.6-0.4l-2,1.4v3L432.5,474.5z"/>
				<polygon fill="#005CAA" points="440.9,464.2 446.8,460.2 446.8,461.6 442.3,464.7 442.3,467 446.3,464.3 446.3,465.7 
					442.3,468.5 442.3,470.9 446.8,467.7 446.8,469.2 440.9,473.3 			"/>
				<path fill="#005CAA" d="M451.6,464.6l0.8-1.7c0.8,0.2,1.5,0.1,2.5-0.6c0.9-0.6,1.4-1.4,1.4-2.1c0-0.6-0.3-0.8-1.8-0.2
					c-1.7,0.7-2.6,0.8-2.6-0.9c0-1.5,1.1-3.4,2.7-4.5c1.2-0.8,2.1-1,2.9-0.9l-0.7,1.7c-0.7-0.1-1.4,0.1-2.2,0.6
					c-0.8,0.6-1.3,1.4-1.3,2c0,0.7,0.4,0.8,1.9,0.1c1.7-0.7,2.6-0.6,2.6,0.9c0,1.7-1.2,3.5-2.8,4.6
					C453.7,464.6,452.5,464.9,451.6,464.6"/>
				<path fill="#005CAA" d="M462.7,453.8c0-2.5,1.7-5.9,4.2-7.5c2.4-1.7,4.1-0.8,4.1,1.8c0,2.5-1.7,5.8-4.2,7.5
					C464.3,457.3,462.7,456.3,462.7,453.8 M469.5,449.1c0-1.8-1.1-2.4-2.7-1.3s-2.7,3.3-2.7,5s1.1,2.4,2.7,1.3
					S469.5,450.8,469.5,449.1"/>
				<path fill="#005CAA" d="M476.1,445.2V440l1.4-1v5.1c0,1.7,0.8,2.1,2,1.2s2-2.2,2-3.9v-5.2l1.4-1v5.1c0,2.7-1.3,5-3.4,6.4
					C477.5,448.2,476.1,447.8,476.1,445.2"/>
				<path fill="#005CAA" d="M488.5,431.5l3.5-2.4c1.9-1.3,3-0.9,3,0.8c0,1.5-0.8,2.9-1.9,4l2.1,1.9l-1.6,1.1l-2-1.8l-1.7,1.2v3.1
					l-1.4,1V431.5z M491.9,433.6c1-0.7,1.6-1.7,1.6-2.7s-0.6-1.1-1.6-0.4l-2,1.4v3L491.9,433.6z"/>
				<path fill="#005CAA" d="M500,428.1c0-2.6,1.7-5.8,4.1-7.5c1.5-1,2.3-1,3.1-0.7l-0.9,1.8c-0.6-0.2-1.3-0.2-2.2,0.4
					c-1.5,1-2.6,3.2-2.6,5s1.1,2.4,2.6,1.4c1-0.7,1.6-1.6,2.3-2.7l0.9,0.4c-0.8,1.6-1.7,2.8-3.2,3.8C501.7,431.6,500,430.7,500,428.1
					"/>
				<polygon fill="#005CAA" points="512.3,415.1 518.2,411 518.2,412.4 513.7,415.5 513.7,417.9 517.7,415.1 517.7,416.5 
					513.7,419.3 513.7,421.7 518.3,418.6 518.3,420 512.3,424.1 			"/>
				<path fill="#005CAA" d="M523,415.4l0.8-1.7c0.8,0.2,1.5,0.1,2.5-0.6c0.9-0.6,1.4-1.4,1.4-2.1c0-0.6-0.3-0.8-1.8-0.2
					c-1.7,0.7-2.6,0.8-2.6-0.9c0-1.5,1.1-3.4,2.7-4.5c1.2-0.8,2.1-1,2.9-0.9l-0.7,1.7c-0.7-0.1-1.4,0.1-2.2,0.6
					c-0.8,0.6-1.3,1.4-1.3,2c0,0.7,0.4,0.8,1.9,0.1c1.7-0.7,2.6-0.6,2.6,0.9c0,1.7-1.2,3.5-2.8,4.6C525.1,415.4,524,415.7,523,415.4"
					/>
			</g>
			<polygon fill="#F3F8F9" points="292.3,458 571.6,276.6 445.7,209.1 166.4,390.7 		"/>
			<g>
				<polygon fill="#E5ECED" points="299.8,432.9 331.9,412 244.7,365.2 214.2,385.1 			"/>
				<polygon fill="#B0C6D1" points="331.9,412 334.3,410.4 244.7,362.2 244.7,365.2 			"/>
				<polygon fill="#A7BCC5" points="214.2,385.1 244.7,365.2 244.7,362.2 211.4,383.7 			"/>
			</g>
			<g>
				<polygon fill="#E5ECED" points="372.2,389.3 404.4,368.4 317.2,321.6 286.6,341.5 			"/>
				<polygon fill="#B0C6D1" points="404.4,368.4 406.7,366.8 317.2,318.6 317.2,321.6 			"/>
				<polygon fill="#A7BCC5" points="286.6,341.5 317.2,321.6 317.2,318.6 283.8,340.1 			"/>
			</g>
			<g>
				<polygon fill="#E5ECED" points="437.8,345.1 470,324.3 382.8,277.5 352.2,297.4 			"/>
				<polygon fill="#B0C6D1" points="470,324.3 472.3,322.7 382.8,274.5 382.8,277.5 			"/>
				<polygon fill="#A7BCC5" points="352.2,297.4 382.8,277.5 382.8,274.5 349.4,296 			"/>
			</g>
			<g>
				<polygon fill="#E5ECED" points="503.1,303.3 535.3,282.4 448.1,235.7 417.5,255.5 			"/>
				<polygon fill="#B0C6D1" points="535.3,282.4 537.6,280.8 448.1,232.6 448.1,235.7 			"/>
				<polygon fill="#A7BCC5" points="417.5,255.5 448.1,235.7 448.1,232.6 414.7,254.2 			"/>
			</g>
		</g>
		<polygon opacity="0.1" enable-background="new    " points="292.3,620.2 486.2,628.2 690.5,499.8 571.7,438.8 	"/>
	</g>
	<g>
		<g>
			<polygon fill="#526F75" points="523.5,735.3 802.8,553.9 675.8,482.6 397.6,668 		"/>
			<polygon fill="#608089" points="676.8,332.5 676.8,494.3 802.7,561.7 802.7,399.8 		"/>
			<polygon fill="#608089" points="671.2,336.1 671.2,498 797.4,565.3 797.1,403.4 		"/>
			<polygon fill="#526F75" points="523.5,735.2 802.8,553.8 675.8,482.5 397.6,667.9 		"/>
			<path opacity="0.1" enable-background="new    " d="M495.2,690.9c0,0,36.1,21.7,90.6-6.3s154-90,181.5-115.2s30.2-43.7,20.2-58.9
				c-10.1-15.3-11.3-31.5-35.9-21.9C727,498.2,513.6,615.2,495.2,690.9z"/>
			<polygon fill="#53737B" points="397.6,513.9 397.6,675.8 676.9,494.3 676.9,332.5 		"/>
			<g>
				<g>
					<path fill="#DDDDDC" d="M768.7,495.1c0,0-60.1-52.7-145.7-44.4c-72.4,7-157.7,62.5-209,128.7c-7.5,11,27,60.7,50.9,76.4
						c25.6,16.8,48.7,35,108.4,17.6C641.6,653.7,768.7,495.1,768.7,495.1z"/>
					<path fill="#BBB7B8" d="M781.6,526.3c0.3-12.2-9-34.1-19-33.5c-9.8,0.6-216.4,87.3-221.6,146.1c-5.2,59.4,42.2,32.8,92.6,9.8
						C689.4,623.2,780.7,559.4,781.6,526.3z"/>
					
						<path fill="none" stroke="#C8C8C8" stroke-width="1.7432" stroke-linecap="round" stroke-linejoin="round" stroke-miterlimit="10" d="
						M430.2,618.4c-8.9-13.4-5.9-31.1-5.9-31.1"/>
					
						<path opacity="0.1" fill="none" stroke="#000000" stroke-width="1.8139" stroke-linecap="round" stroke-linejoin="round" stroke-miterlimit="10" enable-background="new    " d="
						M469.8,523.2c0,0-28.2,25.3-43.2,57.8"/>
					
						<path opacity="0.1" fill="none" stroke="#000000" stroke-width="1.8193" stroke-linecap="round" stroke-linejoin="round" stroke-miterlimit="10" enable-background="new    " d="
						M525.8,485.1c0,0-58.2,45.1-83.9,101"/>
					
						<path opacity="0.1" fill="none" stroke="#000000" stroke-width="1.8209" stroke-linecap="round" stroke-linejoin="round" stroke-miterlimit="10" enable-background="new    " d="
						M565.6,466.4c0,0-73.8,39.2-109,126.2"/>
					
						<path opacity="0.1" fill="none" stroke="#000000" stroke-width="1.8229" stroke-linecap="round" stroke-linejoin="round" stroke-miterlimit="10" enable-background="new    " d="
						M613.2,453.3c0,0-99.4,35.7-141.1,145.6"/>
					
						<path opacity="0.1" fill="none" stroke="#000000" stroke-width="1.8262" stroke-linecap="round" stroke-linejoin="round" stroke-miterlimit="10" enable-background="new    " d="
						M651.8,450.9c0,0-115.1,24.3-168.5,152"/>
					
						<path opacity="0.1" fill="none" stroke="#000000" stroke-width="1.8235" stroke-linecap="round" stroke-linejoin="round" stroke-miterlimit="10" enable-background="new    " d="
						M684,456c0,0-111.4,2.6-186.4,152.3"/>
					
						<path opacity="0.1" fill="none" stroke="#000000" stroke-width="1.8239" stroke-linecap="round" stroke-linejoin="round" stroke-miterlimit="10" enable-background="new    " d="
						M709.5,463.6c0,0-120.7,4.4-196.6,150.6"/>
					
						<path opacity="0.1" fill="none" stroke="#000000" stroke-width="1.8237" stroke-linecap="round" stroke-linejoin="round" stroke-miterlimit="10" enable-background="new    " d="
						M732.3,473.9c0,0-134.4,9.9-205.4,145.6"/>
					
						<path opacity="0.1" fill="none" stroke="#000000" stroke-width="1.8239" stroke-linecap="round" stroke-linejoin="round" stroke-miterlimit="10" enable-background="new    " d="
						M752.2,486c0,0-112.7-3.4-213.3,138.2"/>
					<polygon fill="#BBBBBC" points="413.2,581.1 542.7,630.6 544.4,626.3 415.9,577 				"/>
					<polygon fill="#A4A4A4" points="413.2,581.1 412.9,582.9 542,632.9 542.7,630.6 				"/>
					
						<path fill="none" stroke="#C8C8C8" stroke-width="1.7459" stroke-linecap="round" stroke-linejoin="round" stroke-miterlimit="10" d="
						M439.1,593.1c0,0-3.3,21.2,1.3,38.4"/>
					
						<path fill="none" stroke="#C8C8C8" stroke-width="1.7537" stroke-linecap="round" stroke-linejoin="round" stroke-miterlimit="10" d="
						M454.6,597c0,0-5.8,30,0.6,50.2"/>
					
						<path fill="none" stroke="#C8C8C8" stroke-width="1.7569" stroke-linecap="round" stroke-linejoin="round" stroke-miterlimit="10" d="
						M470.6,605.3c0,0-10.2,28.3,0.8,54"/>
					
						<path fill="none" stroke="#C8C8C8" stroke-width="1.7436" stroke-linecap="round" stroke-linejoin="round" stroke-miterlimit="10" d="
						M481.5,607.2c0,0-9.4,34.2,2.1,58.6"/>
					
						<path fill="none" stroke="#C8C8C8" stroke-width="1.7573" stroke-linecap="round" stroke-linejoin="round" stroke-miterlimit="10" d="
						M494.7,614.6c0,0-7.3,25,3.6,59.3"/>
					
						<path fill="none" stroke="#C8C8C8" stroke-width="1.7493" stroke-linecap="round" stroke-linejoin="round" stroke-miterlimit="10" d="
						M510,620.5c0,0-7.9,26.2,5.1,57.5"/>
					
						<path fill="none" stroke="#C8C8C8" stroke-width="1.7544" stroke-linecap="round" stroke-linejoin="round" stroke-miterlimit="10" d="
						M523.7,626.7c0,0-7,32.1,10.7,52.8"/>
					
						<path fill="none" stroke="#C8C8C8" stroke-width="1.7399" stroke-linecap="round" stroke-linejoin="round" stroke-miterlimit="10" d="
						M536.4,631.7c0,0-8.2,28.3,12.1,45.9"/>
					<path fill="#F16322" d="M512.3,586l-11.2-9.4c-0.5-0.5-1-0.9-1.6-1.2c-4.1-2-10.4,0.3-14,5.1c-3.7,4.8-3.3,10.3,0.8,12.3
						c2.1,1,4.7,0.9,7.3,0l0,0L512.3,586z"/>
					<path fill="#F48120" d="M530.2,570.5L530.2,570.5l-1.1-16.6l-14.4,14.5c-0.7,0.6-1.3,1.3-1.9,2.1c-3.7,4.8-3.3,10.3,0.8,12.3
						s10.4-0.3,14-5.1C529.5,575.3,530.4,572.7,530.2,570.5"/>
					<path fill="#0099D9" d="M525.4,541.4c-2.1-1-4.7-0.9-7.3,0l0,0l-18.8,6.8l11.2,9.4c0.5,0.5,1,0.9,1.6,1.2c4.1,2,10.4-0.3,14-5.1
						C529.8,548.9,529.5,543.4,525.4,541.4"/>
					<path fill="#005CAA" d="M498.7,563.7c3.7-4.8,3.3-10.3-0.8-12.4c-4.1-2-10.4,0.3-14,5.1c-1.8,2.4-2.7,5-2.5,7.3l0,0l1.1,16.6
						l14.4-14.6C497.5,565.1,498.1,564.4,498.7,563.7"/>
					
						<path opacity="0.1" fill="none" stroke="#000000" stroke-width="1.8239" stroke-linecap="round" stroke-linejoin="round" stroke-miterlimit="10" enable-background="new    " d="
						M774.2,505.8c0,0-225.9,102.8-218.3,132.8c7.8,30.8,223.2-106.1,223.2-106.1"/>
					
						<path opacity="0.1" fill="none" stroke="#000000" stroke-width="1.8239" stroke-linecap="round" stroke-linejoin="round" stroke-miterlimit="10" enable-background="new    " d="
						M555.9,638.6c-20.8-43.9,212-140.1,212-140.1"/>
					
						<path opacity="0.1" fill="none" stroke="#000000" stroke-width="1.8239" stroke-linecap="round" stroke-linejoin="round" stroke-miterlimit="10" enable-background="new    " d="
						M780.7,518.3c-98.7,56.9-179.2,102-223.6,115.4"/>
					
						<path opacity="0.1" fill="none" stroke="#000000" stroke-width="1.8239" stroke-linecap="round" stroke-linejoin="round" stroke-miterlimit="10" enable-background="new    " d="
						M542.7,630.6c2,95.6,219-71.5,219-71.5"/>
				</g>
				<g>
					<path fill="#959595" d="M506.2,672.4c-0.1,3.5-5.4,7-5.4,7l-7.4-9.8c0,0,3.3-3.5,6.8-3.6S506.4,668.9,506.2,672.4z"/>
					<path fill="#B2B2B2" d="M504.1,673.9c-0.1,3.5-3,6.4-6.5,6.4s-6.2-2.8-6-6.3c0.1-3.5,3-6.4,6.5-6.4
						C501.5,667.6,504.2,670.4,504.1,673.9z"/>
					<path fill="#676767" d="M502.5,674.1c-0.1,2.7-2.4,4.9-5,5s-4.8-2.2-4.7-4.9c0.1-2.7,2.4-4.9,5-5S502.6,671.4,502.5,674.1z"/>
					<path fill="#A0A09F" d="M503,675.1c-0.1,3.5-12.8,12.2-12.8,12.2l-7.4-9.8c0,0,10.7-8.7,14.2-8.8
						C500.5,668.7,503.2,671.6,503,675.1z"/>
					<path fill="#959595" d="M495.6,680.3c-0.1,3.5-5.4,7-5.4,7l-7.4-9.8c0,0,3.3-3.5,6.8-3.6C493,674,495.7,676.8,495.6,680.3z"/>
					<path fill="#B2B2B2" d="M493.5,681.8c-0.1,3.5-3,6.4-6.5,6.4s-6.2-2.8-6-6.3c0.1-3.5,3-6.4,6.5-6.4
						C490.9,675.5,493.6,678.3,493.5,681.8z"/>
					<path fill="#676767" d="M491.9,682c-0.1,2.7-2.4,4.9-5,5s-4.8-2.2-4.7-4.9c0.1-2.7,2.4-4.9,5-5C489.9,677.1,492,679.2,491.9,682
						z"/>
					<path fill="#7D7D7D" d="M495.9,671.6c0,0.4-1,0.7-2.2,0.7s-2.1-0.3-2.1-0.6c0-0.2,0.1-3.3,0.1-3.3h4.3
						C496.1,668.3,496,671.2,495.9,671.6z"/>
					<path fill="#686969" d="M496.1,668.3c0,0.4-1,0.7-2.2,0.7s-2.1-0.3-2.1-0.6c0-0.4,1-0.7,2.2-0.7
						C495.1,667.6,496.1,667.9,496.1,668.3z"/>
					<path fill="#9B2D2C" d="M496.3,667.9c0,0.7-0.6,1.2-1.3,1.3l-7.8,0.1c-0.7,0-1.2-0.5-1.2-1.2l0,0c0-0.7,0.6-1.2,1.3-1.3l7.8-0.1
						C495.8,666.6,496.3,667.2,496.3,667.9L496.3,667.9z"/>
					<path fill="#C33737" d="M496.3,667.4c0,0.7-0.6,1.2-1.3,1.3l-7.8,0.1c-0.7,0-1.2-0.5-1.2-1.2l0,0c0-0.7,0.6-1.2,1.3-1.3l7.8-0.1
						C495.8,666.1,496.3,666.7,496.3,667.4L496.3,667.4z"/>
				</g>
			</g>
			<polygon fill="#A6C0C5" points="523.4,575.6 523.5,581.4 802.7,399.8 789.4,403 		"/>
			<polygon fill="#96A9B1" points="523.5,581.4 523.5,743.2 528.2,740.1 528,578.4 		"/>
			<polygon fill="#B5C5CC" points="519,590.6 519,739.7 523.5,743.2 523.5,593 		"/>
			<polygon fill="#69878B" points="523.5,735.3 397.6,668 397.6,675.8 523.5,743.2 		"/>
			<polygon fill="#435B5C" points="525,734.3 397.6,665.5 397.6,668 523.5,735.3 		"/>
			<polygon fill="#435B5C" points="523.5,733.5 801,552.9 802.8,553.9 525,734.3 		"/>
			<polygon fill="#DBE3E4" points="523.5,593 397.6,527.2 397.6,513.9 523.5,581.4 		"/>
			<polygon fill="#8FABB1" points="407.8,515.2 397.6,513.9 523.5,581.4 523.4,575.6 		"/>
			<polygon fill="#B0C6D1" points="397.6,514 397.6,675.9 466.8,712.9 466.4,551 		"/>
			<polygon fill="#9AB6C1" points="466.4,551 466.7,712.9 469.1,714.1 468.7,552.1 		"/>
			<polygon fill="#5C6B6E" points="405.6,530.7 405.6,669 458.6,697.3 459.5,559.5 		"/>
			<polygon fill="#B0C6D1" points="408.7,536.4 408.7,666.6 459.4,693.7 459.4,563.5 		"/>
			<polygon opacity="0.1" enable-background="new    " points="434.5,601.3 431.8,600 431.8,592.9 434.5,594.2 		"/>
			<polygon opacity="0.1" enable-background="new    " points="434.5,639.6 431.8,638.3 431.8,631.2 434.5,632.5 		"/>
			<polygon opacity="0.1" enable-background="new    " points="434.5,671.2 431.8,669.9 431.8,662.8 434.5,664.1 		"/>
			<polygon fill="#5C6B6E" points="458.6,697.3 454.4,693.7 454.4,560.9 459.5,559.5 		"/>
			<g>
				<polygon fill="#8EAFBB" points="414.4,565.8 414.4,572.6 449.1,591.1 449.2,584.4 			"/>
				<polygon fill="#688D98" points="414.4,565.8 414.4,566.8 449.1,585.3 449.2,584.4 			"/>
				<polygon fill="#688D98" points="414.4,571.6 414.4,572.6 449.1,591.1 449.1,590.2 			"/>
				<path fill="#688D98" d="M414.4,565.8c0,0,2.5,2.2,2.5,4.2s-2.5,2.6-2.5,2.6V565.8z"/>
			</g>
			<g>
				<polygon fill="#8EAFBB" points="414.4,605.5 414.4,612.4 449.1,630.9 449.2,624.2 			"/>
				<polygon fill="#688D98" points="414.4,605.5 414.4,606.5 449.1,625.1 449.2,624.2 			"/>
				<polygon fill="#688D98" points="414.4,611.3 414.4,612.4 449.1,630.9 449.1,629.9 			"/>
				<path fill="#688D98" d="M414.4,605.5c0,0,2.5,2.2,2.5,4.2s-2.5,2.6-2.5,2.6V605.5z"/>
			</g>
			<g>
				<polygon fill="#8EAFBB" points="414.4,641.5 414.4,648.4 449.1,666.9 449.2,660.2 			"/>
				<polygon fill="#688D98" points="414.4,641.5 414.4,642.5 449.1,661.1 449.2,660.2 			"/>
				<polygon fill="#688D98" points="414.4,647.4 414.4,648.4 449.1,666.9 449.1,666 			"/>
				<path fill="#688D98" d="M414.4,641.5c0,0,2.5,2.2,2.5,4.2s-2.5,2.6-2.5,2.6V641.5z"/>
			</g>
			<polygon fill="#69878B" points="523.5,735.3 802.8,553.9 802.8,561.8 523.5,743.2 		"/>
			<polygon opacity="0.1" enable-background="new    " points="433.3,689.6 430.9,687.2 430.9,538 433.3,540.4 		"/>
			<g>
				<path fill="#D4D9DA" d="M430.3,688.1c-0.5-0.1-0.8-0.5-0.9-1V538.2l2.5,0.9L430.3,688.1z"/>
				<path fill="#E8EBEC" d="M431.9,687.6c-0.1,0.3-0.3,0.5-0.6,0.6v-150l0.6,0.9V687.6z"/>
				<path fill="#CFD1D1" d="M431.2,688.2c-0.3,0.1-0.6,0-0.9-0.1l0.1-149.5l0.9,0.9L431.2,688.2z"/>
				<path fill="#99999A" d="M431.5,663.9c-0.6,0-1.2-0.2-1.8-0.4c-0.9-0.2-1.6-1.2-1.6-1.2h-0.2v6.4c0.3,0.6,0.9,1.1,1.8,1.5
					c0.5,0.2,1.1,0.4,1.8,0.5c0.8-0.1,1.5-0.2,1.7-0.6l0.1-6.5h-0.2C433.1,663.4,432.4,664,431.5,663.9z"/>
				
					<ellipse transform="matrix(0.3482 -0.9374 0.9374 0.3482 -224.2635 754.7687)" fill="#F4F4F4" cx="430.6" cy="538.7" rx="0.8" ry="1.3"/>
				<path fill="#C0C0C0" d="M431.5,670.9c0.8-0.1,1.5-0.2,1.7-0.6l0.1-6.9c-0.2,0.7-0.8,0.9-1.8,0.8L431.5,670.9z"/>
				<path fill="#ADADAD" d="M429.7,670.4c0.5,0.2,1.1,0.4,1.8,0.5v-6.7c-0.6,0-1.2-0.2-1.8-0.4V670.4z"/>
				<path fill="#D3D3D3" d="M427.9,668.9c0.3,0.6,0.9,1.1,1.8,1.5v-6.6c-0.9-0.2-1.4-0.8-1.8-1.6V668.9z"/>
				<path fill="#99999A" d="M431.5,632.2c-0.6,0-1.2-0.2-1.8-0.4c-0.9-0.2-1.6-1.2-1.6-1.2h-0.2v6.4c0.3,0.6,0.9,1.1,1.8,1.5
					c0.5,0.2,1.1,0.4,1.8,0.5c0.8-0.1,1.5-0.2,1.7-0.6l0.1-6.5h-0.2C433.1,631.8,432.4,632.3,431.5,632.2z"/>
				<path fill="#C0C0C0" d="M431.5,639.3c0.8-0.1,1.5-0.2,1.7-0.6l0.1-6.9c-0.2,0.7-0.8,0.9-1.8,0.8L431.5,639.3z"/>
				<path fill="#ADADAD" d="M429.7,638.8c0.5,0.2,1.1,0.4,1.8,0.5v-6.7c-0.6,0-1.2-0.2-1.8-0.4V638.8z"/>
				<path fill="#D3D3D3" d="M427.9,637.3c0.3,0.6,0.9,1.1,1.8,1.5v-6.6c-0.9-0.2-1.4-0.8-1.8-1.6V637.3z"/>
				<path fill="#99999A" d="M431.5,594.1c-0.6,0-1.2-0.2-1.8-0.4c-0.9-0.2-1.6-1.2-1.6-1.2h-0.2v6.4c0.3,0.6,0.9,1.1,1.8,1.5
					c0.5,0.2,1.1,0.4,1.8,0.5c0.8-0.1,1.5-0.2,1.7-0.6l0.1-6.5h-0.2C433.1,593.7,432.4,594.2,431.5,594.1z"/>
				<path fill="#C0C0C0" d="M431.5,601.2c0.8-0.1,1.5-0.2,1.7-0.6l0.1-6.9c-0.2,0.7-0.8,0.9-1.8,0.8L431.5,601.2z"/>
				<path fill="#ADADAD" d="M429.7,600.7c0.5,0.2,1.1,0.4,1.8,0.5v-6.7c-0.6,0-1.2-0.2-1.8-0.4V600.7z"/>
				<path fill="#D3D3D3" d="M427.9,599.2c0.3,0.6,0.9,1.1,1.8,1.5v-6.6c-0.9-0.2-1.4-0.8-1.8-1.6V599.2z"/>
			</g>
			<g>
				<polygon fill="#CDE1E8" points="404.1,632.9 403.8,635.4 398.2,629.8 398.4,629.6 			"/>
				<polygon fill="#8CA1A8" points="403.8,633.1 403.8,635.8 398.2,632.5 398.2,629.8 			"/>
				<polygon fill="#9FB9C0" points="403.8,635.8 404.2,635.5 404.1,632.9 403.8,633.1 			"/>
				<polygon fill="#CDE1E8" points="416.9,632.7 416.1,639.3 400.9,624.3 401.7,623.6 			"/>
				<polygon fill="#96ADB6" points="416.1,633.1 416.1,640.4 400.9,631.5 400.9,624.3 			"/>
				<polygon fill="#9FB9C0" points="416.1,640.4 416.9,639.5 416.9,632.7 416.1,633.1 			"/>
				<polygon fill="#CDE1E8" points="404.1,622.6 403.8,625.1 398.2,619.5 398.4,619.2 			"/>
				<polygon fill="#96ADB6" points="403.8,622.8 403.8,625.5 398.2,622.2 398.2,619.5 			"/>
				<polygon fill="#9FB9C0" points="403.8,625.5 404.2,625.1 404.1,622.6 403.8,622.8 			"/>
			</g>
			<g>
				<polygon fill="#CDE1E8" points="404.1,576.9 403.8,579.4 398.2,573.8 398.4,573.5 			"/>
				<polygon fill="#8CA1A8" points="403.8,577 403.8,579.8 398.2,576.5 398.2,573.8 			"/>
				<polygon fill="#9FB9C0" points="403.8,579.8 404.2,579.4 404.1,576.9 403.8,577 			"/>
				<polygon fill="#CDE1E8" points="416.9,576.7 416.1,583.3 400.9,568.2 401.7,567.5 			"/>
				<polygon fill="#96ADB6" points="416.1,577 416.1,584.3 400.9,575.5 400.9,568.2 			"/>
				<polygon fill="#9FB9C0" points="416.1,584.3 416.9,583.4 416.9,576.7 416.1,577 			"/>
				<polygon fill="#CDE1E8" points="404.1,566.5 403.8,569 398.2,563.4 398.4,563.2 			"/>
				<polygon fill="#96ADB6" points="403.8,566.7 403.8,569.4 398.2,566.1 398.2,563.4 			"/>
				<polygon fill="#9FB9C0" points="403.8,569.4 404.2,569.1 404.1,566.5 403.8,566.7 			"/>
			</g>
			<polygon fill="#85A4AC" points="397.6,514 407.8,515.2 676.8,342.7 676.9,332.5 		"/>
			<polygon fill="#8FABB1" points="789.4,403 676.8,342.7 676.8,332.5 802.8,399.9 		"/>
			<polygon fill="#F3F8F9" points="523.5,581.4 802.8,400 676.9,332.5 397.6,514.1 		"/>
			<g>
				<polygon fill="#E5ECED" points="531,556.3 563.1,535.4 475.9,488.6 445.3,508.5 			"/>
				<polygon fill="#B0C6D1" points="563.1,535.4 565.4,533.8 475.9,485.6 475.9,488.6 			"/>
				<polygon fill="#A7BCC5" points="445.3,508.5 475.9,488.6 475.9,485.6 442.5,507.1 			"/>
			</g>
			<g>
				<polygon fill="#E5ECED" points="603.4,512.7 635.5,491.8 548.3,445 517.7,464.9 			"/>
				<polygon fill="#B0C6D1" points="635.5,491.8 637.9,490.2 548.3,442 548.3,445 			"/>
				<polygon fill="#A7BCC5" points="517.7,464.9 548.3,445 548.3,442 514.9,463.5 			"/>
			</g>
			<g>
				<polygon fill="#E5ECED" points="669,468.5 701.1,447.6 613.9,400.8 583.4,420.7 			"/>
				<polygon fill="#B0C6D1" points="701.1,447.6 703.5,446 613.9,397.8 613.9,400.8 			"/>
				<polygon fill="#A7BCC5" points="583.4,420.7 613.9,400.8 613.9,397.8 580.6,419.3 			"/>
			</g>
			<g>
				<polygon fill="#E5ECED" points="734.3,426.7 766.4,405.8 679.2,359 648.6,378.9 			"/>
				<polygon fill="#B0C6D1" points="766.4,405.8 768.8,404.2 679.2,356 679.2,359 			"/>
				<polygon fill="#A7BCC5" points="648.6,378.9 679.2,359 679.2,356 645.8,377.5 			"/>
			</g>
			<polygon fill="#527077" points="802.8,399.9 802.8,561.8 797.4,565.3 797.1,403.7 		"/>
			<polygon fill="#4D6767" points="797.1,415.2 797.4,557.4 795.4,556.5 794.3,416.6 		"/>
			<polygon fill="#DBE3E4" points="523.5,593 802.8,411.5 802.7,399.8 523.5,581.4 		"/>
		</g>
		<polygon opacity="0.1" enable-background="new    " points="524.9,743.8 718.8,751.8 923.1,623.4 804.3,562.4 	"/>
	</g>
</svg>