<svg id="h_and_s" xmlns="http://www.w3.org/2000/svg" xmlns:xlink="http://www.w3.org/1999/xlink" x="0px" y="0px" viewBox="0 0 2784 1851" enable-background="new 0 0 2784 1851" xml:space="preserve">
	<path fill="#D1D6E2" d="M1833.9,1508.1L501.4,794v-19.9l1193.7-448.2l1058.5,519.3l0,0c13.5,17.3,9.4,42.4-8.8,54.6L1833.9,1508.1z"
		/>
	<path fill="#00929F" d="M1347.1,1809.9c-6.6,4.4-15.2,4.8-22.2,1L31.5,1087.2l0,0c-13.4,19.1-7.1,45.7,13.5,56.8l1280,687.4
		c7,3.8,15.6,3.4,22.2-1l484.3-321.4v-20.4L1347.1,1809.9z"/>
	<path fill="#00A2B4" d="M1325,1811L38.1,1119.8c-14.4-7.7-15.4-28-1.7-37.1l465.1-308.6l1330.1,714.4L1347.1,1810
		C1340.5,1814.4,1332,1814.8,1325,1811z"/>
	<path fill="#E6E8ED" d="M1831.5,1488.5L501.4,774.2l946.9-632.8l1298.2,697.8c14.4,7.7,15.3,28,1.8,37.1L1831.5,1488.5z"/>
	<polygon opacity="0.1" enable-background="new    " points="1660.5,1106.3 2086.8,1318.1 2341.5,1147.9 1927,933 "/>
	<polygon opacity="0.1" enable-background="new    " points="1989.9,886.1 2416.3,1097.9 2671,927.8 2256.5,712.9 "/>
	<path opacity="0.1" enable-background="new    " d="M989.1,734.3l426.3,211.8c118.8-41.3,200.4-99.5,254.7-170.2L1255.6,561
		L989.1,734.3z"/>
	<path opacity="0.1" enable-background="new    " d="M1312.2,510.9l426.3,211.8c109-40.1,194.7-96.3,254.7-170.2l-414.5-214.9
		L1312.2,510.9z"/>
	<g>
		<ellipse fill="#818086" cx="2143.7" cy="821.8" rx="253.2" ry="141.6"/>
		<ellipse fill="#5B596B" cx="2143.7" cy="817.4" rx="186.8" ry="100.1"/>
		<polygon opacity="0.1" enable-background="new    " points="2024.7,885.2 1793.8,750.9 1988.6,620.7 2294.4,763.3 	"/>
		<path opacity="0.1" enable-background="new    " d="M2238.4,690.5c78.5,24,131.8,70.7,131.8,124.3c0,78.2-113.3,141.6-253.2,141.6
			c-33.5,0-65.4-3.7-94.7-10.3c36,11,77.4,17.3,121.3,17.3c139.8,0,253.2-63.4,253.2-141.6C2396.8,762.3,2331.2,711.5,2238.4,690.5z"
			/>
		<path fill="#A8C7D2" d="M2012.5,879.1c-16.1-6.2-55.8-44-55.8-74.5V504.5l55.8,60.8V879.1z"/>
		<path fill="#BFD7E1" d="M2163.4,909.2c-56,2-106.9-6.8-150.9-30.1V545h150.9V909.2z"/>
		<path fill="#D2EBF4" d="M2163.4,909.2V565.4h116.1v311.1C2246.5,895.9,2206.8,905.4,2163.4,909.2z"/>
		<path fill="#E5F4F7" d="M2279.5,876.5V565.4l51.1-60.8v301.6C2330.6,834.3,2306.3,861,2279.5,876.5z"/>
		<ellipse fill="#DBE1EC" cx="2143.7" cy="498.6" rx="186.9" ry="104.6"/>
		
		<linearGradient id="SVGID_1_" gradientUnits="userSpaceOnUse" x1="1988.7" y1="1358.5" x2="2298.7" y2="1358.5" gradientTransform="matrix(1 0 0 -1 0 1852)">
			<stop  offset="0" style="stop-color:#B6CBD3"/>
			<stop  offset="1" style="stop-color:#C9DCE5"/>
		</linearGradient>
		<ellipse fill="url(#SVGID_1_)" cx="2143.7" cy="493.5" rx="155" ry="91.8"/>
		<ellipse fill="#F0F2F9" cx="2143.7" cy="488.4" rx="155" ry="86.7"/>
		<ellipse fill="#EBEEF7" cx="2143.7" cy="488" rx="143.5" ry="80.2"/>
		<ellipse fill="#F5F8FC" cx="2224.3" cy="453.9" rx="16.7" ry="7.4"/>
		<ellipse fill="#F5F8FC" cx="2145.1" cy="481.1" rx="16.7" ry="6.8"/>
		<path fill="#A8C7D2" d="M2214.9,456.5c-1.1-0.4-3.9-3.1-3.9-5.3V430l3.9,4.3V456.5z"/>
		<path fill="#BFD7E1" d="M2225.6,458.6c-4,0.1-7.5-0.5-10.6-2.1v-23.6h10.6V458.6z"/>
		
			<ellipse transform="matrix(0.565 -0.8251 0.8251 0.565 262.935 2220.9917)" fill="#C8E2E9" cx="2237.8" cy="861.1" rx="18.6" ry="11.3"/>
		<path fill="#D2EBF4" d="M2225.6,458.6v-24.3h8.2v22C2231.5,457.7,2228.7,458.4,2225.6,458.6z"/>
		<path fill="#E5F4F7" d="M2233.8,456.3v-22l3.6-4.3v21.3C2237.4,453.3,2235.7,455.2,2233.8,456.3z"/>
		
		<linearGradient id="SVGID_2_" gradientUnits="userSpaceOnUse" x1="2131.9001" y1="1372.2" x2="2158.386" y2="1372.2" gradientTransform="matrix(1 0 0 -1 0 1852)">
			<stop  offset="0" style="stop-color:#B6CBD3"/>
			<stop  offset="1" style="stop-color:#C9DCE5"/>
		</linearGradient>
		<ellipse fill="url(#SVGID_2_)" cx="2145.1" cy="479.8" rx="13.2" ry="5.7"/>
		<ellipse fill="#DBE1EC" cx="2145.1" cy="478.8" rx="13.2" ry="4.9"/>
		
			<linearGradient id="SVGID_3_" gradientUnits="userSpaceOnUse" x1="2211.0706" y1="1421.5" x2="2237.5564" y2="1421.5" gradientTransform="matrix(1 0 0 -1 0 1852)">
			<stop  offset="0" style="stop-color:#B6CBD3"/>
			<stop  offset="1" style="stop-color:#C9DCE5"/>
		</linearGradient>
		<ellipse fill="url(#SVGID_3_)" cx="2224.3" cy="430.5" rx="13.2" ry="5.7"/>
		<path fill="#FAAC2E" d="M2374.1,917.6l-15,27.9l-129.5-69.9c-8.7-4.7,6.3-32.6,15-27.9L2374.1,917.6z"/>
		<path fill="#DE9326" d="M2367.9,950.2"/>
		<path fill="#FAAC2E" d="M2379.7,924.6c8,5,12.6,10.5,12.9,16.8c0.2,3.1-4.4,8.3-10.8,12.5l-318.5,207.3
			c-22.1,14.4-38.7-11.1-16.6-25.5l317.1-206.4C2370.3,925,2377.1,922.9,2379.7,924.6z"/>
		<path fill="#DE9326" d="M2404.9,941.4"/>
		<path fill="#FAB151" d="M2392.8,948.2c7.7-5,7.3-16.5-0.8-20.8l-146.5-79.1c-3.7-2-8,0.5-11.6,4.7l150.3,81.5
			c2.6,1.4,2.8,5.2,0.3,6.8l-262.9,170.6l7.7,6.7L2392.8,948.2z"/>
		<path fill="#DE9326" d="M2392.8,948.2c8.7-5.4,4.5-15,4.5-15s-10.3,6.5-12.8,8.1L2037,1166.1l5.2,8.9L2392.8,948.2z"/>
		<path fill="#DE9326" d="M2130.8,1091.8L2358,944.9l9.9-6.4l-10.2-5.4l0,0l-129.6-69.4c-1.7,5.3-1.6,10.2,1.9,12.1l118,63.7
			l-233.9,152.3l-1,0.8L2130.8,1091.8z"/>
		<polygon fill="#FAB151" points="2037.9,1152.1 2358,944.9 2367.9,938.5 2357.7,933.2 2357.7,933.2 2348,939.5 2028.5,1147 	"/>
		<g>
			<path fill="#A4BDC7" d="M2089.2,715.9c-1-0.4-2-0.8-3.1-1c-6.8-1.3-12.4,3.4-12.4,10.4s5.5,13.8,12.4,15c3.5,0.6,6.6-0.2,8.8-2.2
				l0,0l16.6-14L2089.2,715.9z"/>
			<path fill="#A4BDC7" d="M2098,704.9c0,7,5.5,13.8,12.4,15c6.8,1.3,12.4-3.4,12.4-10.4c0-3.6-1.4-7-3.7-9.8l0,0l-16.6-20.2l-4,22.2
				C2098.2,702.8,2098,703.8,2098,704.9z"/>
			<path fill="#A4BDC7" d="M2086.3,690.7c6.8,1.3,12.4-3.4,12.4-10.4s-5.5-13.8-12.4-15c-3.5-0.6-6.6,0.2-8.8,2.2l0,0l-16.6,14
				l22.4,8.3C2084.2,690.2,2085.2,690.5,2086.3,690.7z"/>
			<path fill="#A4BDC7" d="M2053.4,705.9l16.6,20.2l4-22.3c0.3-1,0.4-2,0.4-3.1c0-7-5.5-13.8-12.4-15.1c-6.8-1.3-12.4,3.4-12.4,10.4
				C2049.7,699.6,2051.1,703.1,2053.4,705.9L2053.4,705.9z"/>
			<path fill="#A4BDC7" d="M2045.8,746.3c-10-1.9-17.5,4.5-17.5,14.1c0,9.7,7.4,18.8,17.4,20.6c10,1.9,17.5-4.5,17.5-14.1
				C2063.3,757.2,2055.9,748.2,2045.8,746.3z M2045.8,772.7c-4.9-0.9-8.3-5.8-8.3-10.6c0-4.9,3.3-8.4,8.2-7.5c5,0.9,8.4,5.8,8.4,10.6
				C2054.1,770.1,2050.8,773.6,2045.8,772.7z"/>
			<polygon fill="#A4BDC7" points="2077,752.8 2068,751.1 2068,784.5 2092.7,789.1 2092.7,781 2077,778.1 		"/>
			<polygon fill="#A4BDC7" points="2096.7,789.9 2105.8,791.6 2105.8,758.2 2096.7,756.5 		"/>
			<path fill="#A4BDC7" d="M2133.8,785.2c4-1,6.7-3.9,6.7-9c0-3.4-1-6.2-2.9-8.5c-2.2-2.7-5.6-4.6-10.6-5.6l-15.4-2.9v33.4l9,1.7
				v-10.1l3.9,0.7l6.5,11.3l10.4,1.9L2133.8,785.2z M2126.7,778.1l-5.9-1.1v-8l5.9,1.1c3,0.6,4.9,2.2,4.9,4.9
				C2131.5,777.5,2129.7,778.7,2126.7,778.1z"/>
			<path fill="#A4BDC7" d="M2039.1,792c0-1.7-1.2-3-3.2-3.4l-3.8-0.7v8.8l1.5,0.3v-3.1l1.9,0.3l2.1,3.5l1.8,0.3l-2.3-3.8
				C2038.2,794.2,2039.1,793.5,2039.1,792z M2033.6,792.6v-2.9l2.2,0.4c1.1,0.2,1.8,0.8,1.8,1.8c0,0.9-0.7,1.4-1.8,1.2L2033.6,792.6z
				"/>
			<polygon fill="#A4BDC7" points="2046.3,795.6 2050.6,796.4 2050.6,795.1 2046.3,794.2 2046.3,792 2051.2,792.9 2051.2,791.5 
				2044.8,790.3 2044.8,799.1 2051.2,800.3 2051.2,798.9 2046.3,798 		"/>
			<path fill="#A4BDC7" d="M2060.2,796.9c-1.6-0.7-2-1.1-2-1.8c0-0.6,0.5-1,1.4-0.8c0.8,0.1,1.6,0.6,2.3,1.3l0.8-1
				c-0.9-0.9-1.9-1.5-3.1-1.7c-1.7-0.3-2.9,0.5-2.9,2c0,1.6,1,2.4,2.8,3.2c1.6,0.7,1.9,1.1,1.9,1.7c0,0.7-0.6,1-1.5,0.8
				c-1.1-0.2-1.9-0.8-2.7-1.6l-0.9,0.9c1,1.1,2.3,1.8,3.6,2.1c1.8,0.3,3.1-0.4,3.1-2.1C2063,798.5,2062,797.7,2060.2,796.9z"/>
			<path fill="#A4BDC7" d="M2072.8,795.4c-2.6-0.5-4.5,1.2-4.5,3.7s1.8,4.9,4.5,5.4c2.6,0.5,4.5-1.2,4.5-3.7
				C2077.2,798.3,2075.4,795.9,2072.8,795.4z M2072.8,803c-1.7-0.3-2.9-2-2.9-3.7s1.2-2.9,2.9-2.6c1.7,0.3,2.9,2,2.9,3.7
				C2075.6,802.2,2074.4,803.4,2072.8,803z"/>
			<path fill="#A4BDC7" d="M2088.6,803.6c0,1.6-0.8,2.3-2.1,2s-2.2-1.3-2.2-2.9v-5l-1.5-0.3v5.1c0,2.5,1.4,4.1,3.6,4.5
				c2.2,0.4,3.7-0.6,3.7-3.3v-5l-1.5-0.3V803.6z"/>
			<path fill="#A4BDC7" d="M2103.1,804c0-1.7-1.2-3-3.2-3.4l-3.8-0.7v8.8l1.5,0.3v-3.1l1.9,0.3l2.1,3.5l1.8,0.3l-2.3-3.8
				C2102.2,806.1,2103.1,805.4,2103.1,804z M2097.6,804.5v-2.9l2.2,0.4c1.1,0.2,1.8,0.8,1.8,1.8c0,0.9-0.7,1.4-1.8,1.2L2097.6,804.5z
				"/>
			<path fill="#A4BDC7" d="M2112.8,810.5c-1.6-0.3-2.8-1.9-2.8-3.7c0-1.7,1.2-2.9,2.8-2.6c1,0.2,1.7,0.8,2.4,1.5l1-1
				c-0.8-1-1.8-1.7-3.3-2c-2.6-0.5-4.4,1.2-4.4,3.7s1.9,4.9,4.4,5.4c1.6,0.3,2.6-0.1,3.5-0.9l-1-1.2
				C2114.6,810.4,2113.9,810.7,2112.8,810.5z"/>
			<polygon fill="#A4BDC7" points="2123.3,810 2127.5,810.8 2127.5,809.4 2123.3,808.6 2123.3,806.3 2128.1,807.3 2128.1,805.9 
				2121.8,804.7 2121.8,813.5 2128.2,814.7 2128.2,813.3 2123.3,812.4 		"/>
			<path fill="#A4BDC7" d="M2137.1,811.3c-1.6-0.7-2-1.1-2-1.8c0-0.6,0.5-1,1.4-0.8c0.8,0.1,1.6,0.6,2.3,1.3l0.8-1
				c-0.9-0.9-1.9-1.5-3.1-1.7c-1.7-0.3-2.9,0.5-2.9,2c0,1.6,1,2.4,2.8,3.2c1.6,0.7,1.9,1.1,1.9,1.7c0,0.7-0.6,1-1.5,0.8
				c-1.1-0.2-1.9-0.8-2.7-1.6l-0.9,0.9c1,1.1,2.3,1.8,3.6,2.1c1.8,0.3,3.1-0.4,3.1-2.1C2139.9,812.9,2138.9,812,2137.1,811.3z"/>
		</g>
		<g>
			<path fill="#F16A3F" d="M2110.3,724.5l-22-8.2c-1-0.4-2-0.8-3-1c-6.7-1.3-12.2,3.3-12.2,10.3c0,6.9,5.5,13.6,12.2,14.8
				c3.4,0.6,6.5-0.2,8.7-2.1l0,0L2110.3,724.5z"/>
			<path fill="#F37E3E" d="M2117.7,700.4L2117.7,700.4l-16.4-19.9l-4,21.9c-0.3,1-0.4,2-0.4,3.1c0,6.9,5.5,13.6,12.2,14.8
				c6.7,1.3,12.2-3.3,12.2-10.3C2121.3,706.5,2119.9,703.1,2117.7,700.4"/>
			<path fill="#079BD7" d="M2085.4,666.4c-3.4-0.6-6.5,0.2-8.7,2.1l0,0l-16.4,13.8l22,8.2c1,0.4,2,0.8,3,1
				c6.7,1.3,12.2-3.3,12.2-10.2C2097.6,674.3,2092.2,667.7,2085.4,666.4"/>
			<path fill="#426CB1" d="M2073.7,701.3c0-6.9-5.5-13.6-12.2-14.8c-6.7-1.3-12.2,3.3-12.2,10.3c0,3.5,1.4,6.9,3.6,9.6l0,0l16.4,19.9
				l4-21.9C2073.6,703.4,2073.7,702.4,2073.7,701.3"/>
			<path fill="#426CB1" d="M2028.3,760.1c0-9.4,7.4-15.7,17.3-13.9c9.9,1.8,17.2,10.8,17.2,20.3c0,9.4-7.4,15.7-17.3,13.9
				C2035.6,778.5,2028.3,769.6,2028.3,760.1 M2053.7,764.8c0-4.7-3.3-9.5-8.2-10.4c-4.8-0.9-8.1,2.5-8.1,7.4c0,4.7,3.3,9.5,8.2,10.4
				C2050.5,773.1,2053.7,769.7,2053.7,764.8"/>
			<polygon fill="#426CB1" points="2067.4,750.9 2076.2,752.6 2076.2,777.5 2091.7,780.4 2091.7,788.4 2067.4,783.8 		"/>
			<polygon fill="#426CB1" points="2095.7,756.2 2104.6,757.9 2104.6,790.8 2095.7,789.1 		"/>
			<path fill="#426CB1" d="M2110.4,759l15.1,2.8c4.9,0.9,8.3,2.9,10.4,5.5c1.9,2.3,2.8,5,2.8,8.3c0,5-2.6,7.9-6.6,8.9l7.6,12.9
				l-10.2-1.9l-6.4-11.2l-3.9-0.7v10l-8.9-1.7L2110.4,759L2110.4,759z M2125.1,777.5c3,0.6,4.7-0.6,4.7-3.1c0-2.6-1.8-4.2-4.8-4.8
				l-5.8-1.1v7.9L2125.1,777.5z"/>
			<path fill="#426CB1" d="M2032.1,787.2l3.7,0.7c2,0.4,3.1,1.7,3.1,3.3c0,1.4-0.8,2.1-2,2.2l2.3,3.7l-1.7-0.3l-2.1-3.4l-1.8-0.3v3
				l-1.5-0.3V787.2z M2035.7,792.1c1.1,0.2,1.7-0.2,1.7-1.1c0-0.9-0.7-1.6-1.7-1.8l-2.2-0.4v2.9L2035.7,792.1z"/>
			<polygon fill="#426CB1" points="2044.6,789.5 2050.8,790.7 2050.8,792 2046.1,791.1 2046.1,793.4 2050.3,794.2 2050.3,795.5 
				2046.1,794.8 2046.1,797.1 2050.9,798 2050.9,799.3 2044.6,798.2 		"/>
			<path fill="#426CB1" d="M2055.9,799l0.9-0.9c0.8,0.9,1.6,1.4,2.7,1.6c0.9,0.2,1.5-0.2,1.5-0.8s-0.3-1-1.9-1.7
				c-1.8-0.8-2.8-1.5-2.8-3.1c0-1.5,1.2-2.3,2.9-2c1.2,0.2,2.2,0.8,3.1,1.7l-0.8,1c-0.8-0.7-1.5-1.2-2.3-1.3
				c-0.9-0.2-1.4,0.2-1.4,0.8c0,0.7,0.4,1,2,1.7c1.8,0.8,2.7,1.6,2.7,3.1c0,1.6-1.2,2.4-3,2C2058.2,800.8,2056.9,800.1,2055.9,799"/>
			<path fill="#426CB1" d="M2067.7,798.1c0-2.4,1.8-4.1,4.4-3.7c2.6,0.5,4.4,2.8,4.4,5.3c0,2.4-1.8,4.1-4.4,3.6
				C2069.5,803,2067.7,800.6,2067.7,798.1 M2074.9,799.5c0-1.7-1.2-3.3-2.9-3.6s-2.8,0.8-2.8,2.5s1.2,3.3,2.9,3.6
				C2073.8,802.4,2074.9,801.2,2074.9,799.5"/>
			<path fill="#426CB1" d="M2082,801.5v-5l1.5,0.3v4.9c0,1.6,0.8,2.6,2.1,2.9c1.3,0.2,2.1-0.4,2.1-2v-5l1.5,0.3v4.9
				c0,2.6-1.4,3.6-3.6,3.2C2083.4,805.5,2082,804,2082,801.5"/>
			<path fill="#426CB1" d="M2095.1,798.9l3.8,0.7c2,0.4,3.1,1.7,3.1,3.3c0,1.4-0.8,2.1-2,2.2l2.3,3.7l-1.7-0.3l-2.1-3.4l-1.8-0.3v3
				l-1.5-0.3v-8.6H2095.1z M2098.7,803.9c1.1,0.2,1.7-0.2,1.7-1.1c0-0.9-0.7-1.6-1.7-1.8l-2.2-0.4v2.9L2098.7,803.9z"/>
			<path fill="#426CB1" d="M2107.2,805.5c0-2.5,1.8-4.1,4.3-3.7c1.6,0.3,2.5,1,3.3,2l-0.9,1c-0.7-0.8-1.4-1.3-2.4-1.5
				c-1.6-0.3-2.8,0.8-2.8,2.6c0,1.7,1.2,3.3,2.8,3.6c1,0.2,1.7-0.1,2.4-0.7l1,1.2c-0.9,0.8-1.8,1.2-3.4,0.9
				C2109,810.4,2107.2,808.1,2107.2,805.5"/>
			<polygon fill="#426CB1" points="2120.3,803.7 2126.5,804.8 2126.5,806.2 2121.8,805.3 2121.8,807.5 2126,808.3 2126,809.7 
				2121.8,808.9 2121.8,811.2 2126.6,812.1 2126.6,813.5 2120.3,812.3 		"/>
			<path fill="#426CB1" d="M2131.6,813.2l0.9-0.9c0.8,0.9,1.6,1.4,2.7,1.6c0.9,0.2,1.5-0.2,1.5-0.8s-0.3-1-1.9-1.7
				c-1.8-0.8-2.8-1.5-2.8-3.1c0-1.5,1.2-2.3,2.9-2c1.2,0.2,2.2,0.8,3.1,1.7l-0.8,1c-0.8-0.7-1.5-1.2-2.3-1.3
				c-0.9-0.2-1.4,0.2-1.4,0.8c0,0.7,0.4,1,2,1.7c1.8,0.8,2.7,1.6,2.7,3.1c0,1.6-1.2,2.4-3,2C2133.9,815,2132.7,814.3,2131.6,813.2"/>
		</g>
		<g>
			<polygon fill="#E4E4EA" points="1996.4,888.7 1986.6,880.7 1986.6,565.2 1996.4,573.2 		"/>
			<polygon fill="#D7D7DB" points="1996.4,888.7 2005.7,880.7 2005.7,565.2 1996.4,573.2 		"/>
			<polygon fill="#C5C5C9" points="1996.1,558.2 1986.6,565.2 1996.4,573.4 2005.7,565.2 		"/>
			<polygon fill="#E4E4EA" points="1950.4,844.2 1940.6,836.2 1940.6,520.7 1950.4,528.7 		"/>
			<polygon fill="#D7D7DB" points="1950.4,844.2 1959.7,836.2 1959.7,520.7 1950.4,528.7 		"/>
			<polygon fill="#C5C5C9" points="1950.1,513.7 1940.6,520.7 1950.4,528.9 1959.7,520.7 		"/>
			<polygon fill="#B4B4B8" points="1986.6,603.6 1953.6,575.8 1953.6,563.3 1986.6,591.1 		"/>
			<polygon fill="#C5C5C9" points="1986.6,591.1 1953.6,563.3 1955.9,561.3 1986.6,587.2 		"/>
			<polygon fill="#B4B4B8" points="1986.6,670.3 1953.6,642.5 1953.6,630 1986.6,657.8 		"/>
			<polygon fill="#C5C5C9" points="1986.6,657.8 1953.6,630 1955.9,628 1986.6,653.9 		"/>
			<polygon fill="#B4B4B8" points="1986.6,733.7 1953.6,706 1953.6,693.5 1986.6,721.2 		"/>
			<polygon fill="#C5C5C9" points="1986.6,721.2 1953.6,693.5 1955.9,691.5 1986.6,717.3 		"/>
			<polygon fill="#B4B4B8" points="1986.6,789.5 1953.6,761.7 1953.6,749.2 1986.6,777 		"/>
			<polygon fill="#C5C5C9" points="1986.6,777 1953.6,749.2 1955.9,747.3 1986.6,773.1 		"/>
			<polygon fill="#B4B4B8" points="1986.6,845.9 1953.6,818.1 1953.6,805.6 1986.6,833.4 		"/>
			<polygon fill="#C5C5C9" points="1986.6,833.4 1953.6,805.6 1955.9,803.6 1986.6,829.5 		"/>
		</g>
		<g>
			<polygon fill="#AAAAA9" points="2066.8,520.4 2032.4,495.1 2032.4,489 2066.8,514.3 		"/>
			<polygon fill="#B4B4B8" points="2107.2,499.1 2066.8,520.4 2066.8,514.3 2107.2,493.1 		"/>
			<polygon fill="#E1E1E1" points="2066.8,514.3 2032.4,489 2073.2,468.3 2107.2,493.1 		"/>
			<polygon fill="#B4B4B8" points="2071.7,480.8 2048.7,492.5 2044.4,489 2071.7,474.6 		"/>
			<polygon fill="#999999" points="2068.1,506.7 2048.7,492.5 2071.7,480.8 2090.9,494.8 		"/>
			<polygon fill="#A4A3A3" points="2090.9,494.8 2071.7,480.8 2071.7,474.6 2095.7,492.1 		"/>
		</g>
	</g>
	<g>
		<ellipse fill="#818086" cx="1466.1" cy="441.7" rx="253.2" ry="141.6"/>
		<ellipse fill="#5B596B" cx="1466.1" cy="437.3" rx="186.8" ry="100.1"/>
		<polygon opacity="0.1" enable-background="new    " points="1347.2,505.1 1116.3,370.9 1311.1,240.7 1616.9,383.2 	"/>
		<path opacity="0.1" enable-background="new    " d="M1560.9,310.5c78.5,24,131.8,70.7,131.8,124.3c0,78.2-113.3,141.6-253.2,141.6
			c-33.5,0-65.4-3.7-94.7-10.3c36,11,77.4,17.3,121.3,17.3c139.8,0,253.2-63.4,253.2-141.6C1719.3,382.3,1653.7,331.5,1560.9,310.5z"
			/>
		<path fill="#A8C7D2" d="M1335,499.1c-16.1-6.2-55.8-44-55.8-74.5V124.5l55.8,60.8V499.1z"/>
		<path fill="#BFD7E1" d="M1485.8,529.2c-56,2-106.9-6.8-150.9-30.1V165h150.9V529.2z"/>
		<path fill="#D2EBF4" d="M1485.8,529.2V185.4h116.1v311.1C1569,515.9,1529.3,525.3,1485.8,529.2z"/>
		<path fill="#E5F4F7" d="M1601.9,496.5V185.4l51.1-60.8v301.6C1653.1,454.3,1628.8,481,1601.9,496.5z"/>
		<ellipse fill="#DBE1EC" cx="1466.1" cy="118.6" rx="186.9" ry="104.6"/>
		
			<linearGradient id="SVGID_4_" gradientUnits="userSpaceOnUse" x1="1311.1" y1="1738.6" x2="1621.1" y2="1738.6" gradientTransform="matrix(1 0 0 -1 0 1852)">
			<stop  offset="0" style="stop-color:#B6CBD3"/>
			<stop  offset="1" style="stop-color:#C9DCE5"/>
		</linearGradient>
		<ellipse fill="url(#SVGID_4_)" cx="1466.1" cy="113.4" rx="155" ry="91.8"/>
		<ellipse fill="#F0F2F9" cx="1466.1" cy="108.3" rx="155" ry="86.7"/>
		<ellipse fill="#EBEEF7" cx="1466.1" cy="107.9" rx="143.5" ry="80.2"/>
		<ellipse fill="#F5F8FC" cx="1546.8" cy="73.8" rx="16.7" ry="7.4"/>
		<ellipse fill="#F5F8FC" cx="1467.6" cy="101.1" rx="16.7" ry="6.8"/>
		<path fill="#A8C7D2" d="M1537.4,76.5c-1.1-0.4-3.9-3.1-3.9-5.3V50l3.9,4.3V76.5z"/>
		<path fill="#BFD7E1" d="M1548,78.6c-4,0.1-7.5-0.5-10.6-2.1V52.9h10.6V78.6z"/>
		
			<ellipse transform="matrix(0.565 -0.8251 0.8251 0.565 281.7988 1496.6138)" fill="#C8E2E9" cx="1560.2" cy="481.1" rx="18.6" ry="11.3"/>
		<path fill="#D2EBF4" d="M1548,78.6V54.3h8.2v22C1553.9,77.6,1551.1,78.3,1548,78.6z"/>
		<path fill="#E5F4F7" d="M1556.2,76.3v-22l3.6-4.3v21.3C1559.9,73.3,1558.1,75.2,1556.2,76.3z"/>
		
			<linearGradient id="SVGID_5_" gradientUnits="userSpaceOnUse" x1="1454.3381" y1="1752.2" x2="1480.824" y2="1752.2" gradientTransform="matrix(1 0 0 -1 0 1852)">
			<stop  offset="0" style="stop-color:#B6CBD3"/>
			<stop  offset="1" style="stop-color:#C9DCE5"/>
		</linearGradient>
		<ellipse fill="url(#SVGID_5_)" cx="1467.6" cy="99.8" rx="13.2" ry="5.7"/>
		<ellipse fill="#DBE1EC" cx="1467.6" cy="98.7" rx="13.2" ry="4.9"/>
		
			<linearGradient id="SVGID_6_" gradientUnits="userSpaceOnUse" x1="1533.5333" y1="1801.6" x2="1560.019" y2="1801.6" gradientTransform="matrix(1 0 0 -1 0 1852)">
			<stop  offset="0" style="stop-color:#B6CBD3"/>
			<stop  offset="1" style="stop-color:#C9DCE5"/>
		</linearGradient>
		<ellipse fill="url(#SVGID_6_)" cx="1546.8" cy="50.4" rx="13.2" ry="5.7"/>
		<path fill="#FAAC2E" d="M1696.5,537.6l-15,27.9L1552,495.6c-8.7-4.7,6.3-32.6,15-27.9L1696.5,537.6z"/>
		<path fill="#DE9326" d="M1690.4,570.2"/>
		<path fill="#FAAC2E" d="M1702.1,544.5c8,5,12.6,10.5,12.9,16.8c0.2,3.1-4.4,8.3-10.8,12.5L1385.8,781
			c-22.1,14.4-38.7-11.1-16.6-25.5l317.1-206.4C1692.8,544.9,1699.6,542.9,1702.1,544.5z"/>
		<path fill="#DE9326" d="M1727.3,561.4"/>
		<path fill="#FAB151" d="M1715.3,568.2c7.7-5,7.3-16.5-0.8-20.8L1568,468.3c-3.7-2-8,0.5-11.6,4.7l150.3,81.5
			c2.6,1.4,2.8,5.2,0.3,6.8l-262.9,170.6l7.7,6.7L1715.3,568.2z"/>
		<path fill="#DE9326" d="M1715.3,568.2c8.7-5.4,4.5-15,4.5-15s-10.3,6.5-12.8,8.1L1359.5,786l5.2,8.9L1715.3,568.2z"/>
		<path fill="#DE9326" d="M1453.3,711.8l227.2-146.9l9.9-6.4l-10.2-5.4l0,0l-129.6-69.4c-1.7,5.3-1.6,10.2,1.9,12.1l118,63.7
			l-233.9,152.3l-1,0.8L1453.3,711.8z"/>
		<polygon fill="#FAB151" points="1360.4,772 1680.5,564.9 1690.4,558.5 1680.2,553.1 1680.2,553.1 1670.4,559.5 1350.9,766.9 	"/>
		<g>
			<path fill="#A4BDC7" d="M1411.7,335.9c-1-0.4-2-0.8-3.1-1c-6.8-1.3-12.4,3.4-12.4,10.4s5.5,13.8,12.4,15c3.5,0.6,6.6-0.2,8.8-2.2
				l0,0l16.6-14L1411.7,335.9z"/>
			<path fill="#A4BDC7" d="M1420.5,324.9c0,7,5.5,13.8,12.4,15c6.8,1.3,12.4-3.4,12.4-10.4c0-3.6-1.4-7-3.7-9.8l0,0l-16.6-20.2
				l-4,22.2C1420.6,322.8,1420.5,323.8,1420.5,324.9z"/>
			<path fill="#A4BDC7" d="M1408.8,310.7c6.8,1.3,12.4-3.4,12.4-10.4s-5.5-13.8-12.4-15c-3.5-0.6-6.6,0.2-8.8,2.2l0,0l-16.6,14
				l22.4,8.3C1406.7,310.1,1407.7,310.5,1408.8,310.7z"/>
			<path fill="#A4BDC7" d="M1375.8,325.8l16.6,20.2l4-22.3c0.3-1,0.4-2,0.4-3.1c0-7-5.5-13.8-12.4-15.1c-6.8-1.3-12.4,3.4-12.4,10.4
				C1372.1,319.6,1373.5,323.1,1375.8,325.8L1375.8,325.8z"/>
			<path fill="#A4BDC7" d="M1368.3,366.3c-10-1.9-17.5,4.5-17.5,14.1c0,9.7,7.4,18.8,17.4,20.6c10,1.9,17.5-4.5,17.5-14.1
				C1385.7,377.2,1378.3,368.1,1368.3,366.3z M1368.3,392.6c-4.9-0.9-8.3-5.8-8.3-10.6c0-4.9,3.3-8.4,8.2-7.5c5,0.9,8.4,5.8,8.4,10.6
				C1376.6,390.1,1373.3,393.6,1368.3,392.6z"/>
			<polygon fill="#A4BDC7" points="1399.4,372.7 1390.4,371.1 1390.4,404.5 1415.2,409.1 1415.2,401 1399.4,398 		"/>
			<polygon fill="#A4BDC7" points="1419.2,409.8 1428.2,411.5 1428.2,378.1 1419.2,376.4 		"/>
			<path fill="#A4BDC7" d="M1456.3,405.1c4-1,6.7-3.9,6.7-9c0-3.4-1-6.2-2.9-8.5c-2.2-2.7-5.6-4.6-10.6-5.6l-15.4-2.9v33.4l9,1.7
				v-10.1l3.9,0.7l6.5,11.3l10.4,1.9L1456.3,405.1z M1449.1,398.1l-5.9-1.1v-8l5.9,1.1c3,0.6,4.9,2.2,4.9,4.9
				C1453.9,397.4,1452.2,398.6,1449.1,398.1z"/>
			<path fill="#A4BDC7" d="M1361.5,412c0-1.7-1.2-3-3.2-3.4l-3.8-0.7v8.8l1.5,0.3v-3.1l1.9,0.3l2.1,3.5l1.8,0.3l-2.3-3.8
				C1360.7,414.1,1361.5,413.4,1361.5,412z M1356.1,412.5v-2.9l2.2,0.4c1.1,0.2,1.8,0.8,1.8,1.8c0,0.9-0.7,1.4-1.8,1.2L1356.1,412.5z
				"/>
			<polygon fill="#A4BDC7" points="1368.8,415.6 1373.1,416.4 1373.1,415 1368.8,414.2 1368.8,411.9 1373.6,412.8 1373.6,411.4 
				1367.3,410.3 1367.3,419 1373.7,420.2 1373.7,418.9 1368.8,417.9 		"/>
			<path fill="#A4BDC7" d="M1382.7,416.8c-1.6-0.7-2-1.1-2-1.8c0-0.6,0.5-1,1.4-0.8c0.8,0.1,1.6,0.6,2.3,1.3l0.8-1
				c-0.9-0.9-1.9-1.5-3.1-1.7c-1.7-0.3-2.9,0.5-2.9,2c0,1.6,1,2.4,2.8,3.2c1.6,0.7,1.9,1.1,1.9,1.7c0,0.7-0.6,1-1.5,0.8
				c-1.1-0.2-1.9-0.8-2.7-1.6l-0.9,0.9c1,1.1,2.3,1.8,3.6,2.1c1.8,0.3,3.1-0.4,3.1-2.1C1385.4,418.5,1384.5,417.6,1382.7,416.8z"/>
			<path fill="#A4BDC7" d="M1395.2,415.3c-2.6-0.5-4.5,1.2-4.5,3.7s1.8,4.9,4.5,5.4c2.6,0.5,4.5-1.2,4.5-3.7
				C1399.7,418.2,1397.8,415.8,1395.2,415.3z M1395.2,423c-1.7-0.3-2.9-2-2.9-3.7s1.2-2.9,2.9-2.6c1.7,0.3,2.9,2,2.9,3.7
				S1396.9,423.3,1395.2,423z"/>
			<path fill="#A4BDC7" d="M1411.1,423.5c0,1.6-0.8,2.3-2.1,2c-1.3-0.3-2.2-1.3-2.2-2.9v-5l-1.5-0.3v5.1c0,2.5,1.4,4.1,3.6,4.5
				s3.7-0.6,3.7-3.3v-5l-1.5-0.3V423.5z"/>
			<path fill="#A4BDC7" d="M1425.5,423.9c0-1.7-1.2-3-3.2-3.4l-3.8-0.7v8.8l1.5,0.3v-3.1l1.9,0.3l2.1,3.5l1.8,0.3l-2.3-3.8
				C1424.7,426.1,1425.5,425.4,1425.5,423.9z M1420.1,424.5v-2.9l2.2,0.4c1.1,0.2,1.8,0.8,1.8,1.8c0,0.9-0.7,1.4-1.8,1.2
				L1420.1,424.5z"/>
			<path fill="#A4BDC7" d="M1435.3,430.5c-1.6-0.3-2.8-1.9-2.8-3.7c0-1.7,1.2-2.9,2.8-2.6c1,0.2,1.7,0.8,2.4,1.5l1-1
				c-0.8-1-1.8-1.7-3.3-2c-2.6-0.5-4.4,1.2-4.4,3.7s1.9,4.9,4.4,5.4c1.6,0.3,2.6-0.1,3.5-0.9l-1-1.2
				C1437,430.4,1436.4,430.7,1435.3,430.5z"/>
			<polygon fill="#A4BDC7" points="1445.7,430 1450,430.8 1450,429.4 1445.7,428.6 1445.7,426.3 1450.6,427.2 1450.6,425.8 
				1444.2,424.6 1444.2,433.4 1450.6,434.6 1450.6,433.2 1445.7,432.3 		"/>
			<path fill="#A4BDC7" d="M1459.6,431.2c-1.6-0.7-2-1.1-2-1.8c0-0.6,0.5-1,1.4-0.8c0.8,0.1,1.6,0.6,2.3,1.3l0.8-1
				c-0.9-0.9-1.9-1.5-3.1-1.7c-1.7-0.3-2.9,0.5-2.9,2c0,1.6,1,2.4,2.8,3.2c1.6,0.7,1.9,1.1,1.9,1.7c0,0.7-0.6,1-1.5,0.8
				c-1.1-0.2-1.9-0.8-2.7-1.6l-0.9,0.9c1,1.1,2.3,1.8,3.6,2.1c1.8,0.3,3.1-0.4,3.1-2.1C1462.4,432.8,1461.4,432,1459.6,431.2z"/>
		</g>
		<g>
			<path fill="#F16A3F" d="M1432.8,344.5l-22-8.2c-1-0.4-2-0.8-3-1c-6.7-1.3-12.2,3.3-12.2,10.3c0,6.9,5.5,13.6,12.2,14.8
				c3.4,0.6,6.5-0.2,8.7-2.1l0,0L1432.8,344.5z"/>
			<path fill="#F37E3E" d="M1440.1,320.4L1440.1,320.4l-16.4-19.9l-4,21.9c-0.3,1-0.4,2-0.4,3.1c0,6.9,5.5,13.6,12.2,14.8
				c6.7,1.3,12.2-3.3,12.2-10.3C1443.8,326.5,1442.4,323.1,1440.1,320.4"/>
			<path fill="#079BD7" d="M1407.9,286.4c-3.4-0.6-6.5,0.2-8.7,2.1l0,0l-16.4,13.8l22,8.2c1,0.4,2,0.8,3,1
				c6.7,1.3,12.2-3.3,12.2-10.2C1420.1,294.3,1414.6,287.6,1407.9,286.4"/>
			<path fill="#426CB1" d="M1396.2,321.3c0-6.9-5.5-13.6-12.2-14.8c-6.7-1.3-12.2,3.3-12.2,10.3c0,3.5,1.4,6.9,3.6,9.6l0,0l16.4,19.9
				l4-21.9C1396,323.4,1396.2,322.4,1396.2,321.3"/>
			<path fill="#426CB1" d="M1350.8,380c0-9.4,7.4-15.7,17.3-13.9c9.9,1.8,17.2,10.8,17.2,20.3c0,9.4-7.4,15.7-17.3,13.9
				S1350.8,389.6,1350.8,380 M1376.2,384.8c0-4.7-3.3-9.5-8.2-10.4c-4.8-0.9-8.1,2.5-8.1,7.4c0,4.7,3.3,9.5,8.2,10.4
				C1372.9,393,1376.2,389.6,1376.2,384.8"/>
			<polygon fill="#426CB1" points="1389.8,370.9 1398.7,372.5 1398.7,397.4 1414.2,400.3 1414.2,408.3 1389.8,403.8 		"/>
			<polygon fill="#426CB1" points="1418.1,376.2 1427,377.8 1427,410.7 1418.1,409.1 		"/>
			<path fill="#426CB1" d="M1432.9,378.9l15.1,2.8c4.9,0.9,8.3,2.9,10.4,5.5c1.9,2.3,2.8,5,2.8,8.3c0,5-2.6,7.9-6.6,8.9l7.6,12.9
				l-10.2-1.9l-6.4-11.2l-3.9-0.7v10l-8.9-1.7L1432.9,378.9L1432.9,378.9z M1447.6,397.5c3,0.6,4.7-0.6,4.7-3.1
				c0-2.6-1.8-4.2-4.8-4.8l-5.8-1.1v7.9L1447.6,397.5z"/>
			<path fill="#426CB1" d="M1354.5,407.1l3.7,0.7c2,0.4,3.1,1.7,3.1,3.3c0,1.4-0.8,2.1-2,2.2l2.3,3.7l-1.7-0.3l-2.1-3.4l-1.8-0.3v3
				l-1.5-0.3V407.1z M1358.2,412.1c1.1,0.2,1.7-0.2,1.7-1.1s-0.7-1.6-1.7-1.8l-2.2-0.4v2.9L1358.2,412.1z"/>
			<polygon fill="#426CB1" points="1367.1,409.5 1373.3,410.6 1373.3,412 1368.5,411.1 1368.5,413.3 1372.8,414.1 1372.8,415.5 
				1368.5,414.7 1368.5,417 1373.4,417.9 1373.4,419.3 1367.1,418.1 		"/>
			<path fill="#426CB1" d="M1378.4,419l0.9-0.9c0.8,0.9,1.6,1.4,2.7,1.6c0.9,0.2,1.5-0.2,1.5-0.8c0-0.6-0.3-1-1.9-1.7
				c-1.8-0.8-2.8-1.5-2.8-3.1c0-1.5,1.2-2.3,2.9-2c1.2,0.2,2.2,0.8,3.1,1.7l-0.8,1c-0.8-0.7-1.5-1.2-2.3-1.3
				c-0.9-0.2-1.4,0.2-1.4,0.8c0,0.7,0.4,1,2,1.7c1.8,0.8,2.7,1.6,2.7,3.1c0,1.6-1.2,2.4-3,2C1380.6,420.8,1379.4,420.1,1378.4,419"/>
			<path fill="#426CB1" d="M1390.1,418.1c0-2.4,1.8-4.1,4.4-3.7c2.6,0.5,4.4,2.8,4.4,5.3c0,2.4-1.8,4.1-4.4,3.6
				C1391.9,422.9,1390.1,420.6,1390.1,418.1 M1397.4,419.5c0-1.7-1.2-3.3-2.9-3.6s-2.8,0.8-2.8,2.5s1.2,3.3,2.9,3.6
				C1396.2,422.3,1397.4,421.2,1397.4,419.5"/>
			<path fill="#426CB1" d="M1404.4,421.4v-5l1.5,0.3v4.9c0,1.6,0.8,2.6,2.1,2.9c1.3,0.2,2.1-0.4,2.1-2v-5l1.5,0.3v4.9
				c0,2.6-1.4,3.6-3.6,3.2C1405.8,425.5,1404.4,423.9,1404.4,421.4"/>
			<path fill="#426CB1" d="M1417.5,418.9l3.8,0.7c2,0.4,3.1,1.7,3.1,3.3c0,1.4-0.8,2.1-2,2.2l2.3,3.7l-1.7-0.3l-2.1-3.4l-1.8-0.3v3
				l-1.5-0.3v-8.6H1417.5z M1421.2,423.9c1.1,0.2,1.7-0.2,1.7-1.1s-0.7-1.6-1.7-1.8l-2.2-0.4v2.9L1421.2,423.9z"/>
			<path fill="#426CB1" d="M1429.7,425.5c0-2.5,1.8-4.1,4.3-3.7c1.6,0.3,2.5,1,3.3,2l-0.9,1c-0.7-0.8-1.4-1.3-2.4-1.5
				c-1.6-0.3-2.8,0.8-2.8,2.6c0,1.7,1.2,3.3,2.8,3.6c1,0.2,1.7-0.1,2.4-0.7l1,1.2c-0.9,0.8-1.8,1.2-3.4,0.9
				C1431.5,430.3,1429.7,428,1429.7,425.5"/>
			<polygon fill="#426CB1" points="1442.8,423.6 1449,424.8 1449,426.1 1444.3,425.2 1444.3,427.5 1448.5,428.3 1448.5,429.6 
				1444.3,428.9 1444.3,431.2 1449.1,432.1 1449.1,433.4 1442.8,432.3 		"/>
			<path fill="#426CB1" d="M1454.1,433.1l0.9-0.9c0.8,0.9,1.6,1.4,2.7,1.6c0.9,0.2,1.5-0.2,1.5-0.8c0-0.6-0.3-1-1.9-1.7
				c-1.8-0.8-2.8-1.5-2.8-3.1c0-1.5,1.2-2.3,2.9-2c1.2,0.2,2.2,0.8,3.1,1.7l-0.8,1c-0.8-0.7-1.5-1.2-2.3-1.3
				c-0.9-0.2-1.4,0.2-1.4,0.8c0,0.7,0.4,1,2,1.7c1.8,0.8,2.7,1.6,2.7,3.1c0,1.6-1.2,2.4-3,2C1456.3,434.9,1455.1,434.2,1454.1,433.1"
				/>
		</g>
		<g>
			<polygon fill="#E4E4EA" points="1318.8,508.7 1309,500.7 1309,185.1 1318.8,193.1 		"/>
			<polygon fill="#D7D7DB" points="1318.8,508.7 1328.2,500.7 1328.2,185.1 1318.8,193.1 		"/>
			<polygon fill="#C5C5C9" points="1318.6,178.1 1309,185.1 1318.8,193.3 1328.2,185.1 		"/>
			<polygon fill="#E4E4EA" points="1272.9,464.2 1263,456.2 1263,140.6 1272.9,148.6 		"/>
			<polygon fill="#D7D7DB" points="1272.9,464.2 1282.2,456.2 1282.2,140.6 1272.9,148.6 		"/>
			<polygon fill="#C5C5C9" points="1272.6,133.6 1263,140.6 1272.9,148.8 1282.2,140.6 		"/>
			<polygon fill="#B4B4B8" points="1309,223.5 1276,195.7 1276,183.3 1309,211 		"/>
			<polygon fill="#C5C5C9" points="1309,211 1276,183.3 1278.4,181.3 1309,207.1 		"/>
			<polygon fill="#B4B4B8" points="1309,290.2 1276,262.4 1276,250 1309,277.7 		"/>
			<polygon fill="#C5C5C9" points="1309,277.7 1276,250 1278.4,248 1309,273.8 		"/>
			<polygon fill="#B4B4B8" points="1309,353.7 1276,325.9 1276,313.4 1309,341.2 		"/>
			<polygon fill="#C5C5C9" points="1309,341.2 1276,313.4 1278.4,311.4 1309,337.3 		"/>
			<polygon fill="#B4B4B8" points="1309,409.5 1276,381.7 1276,369.2 1309,397 		"/>
			<polygon fill="#C5C5C9" points="1309,397 1276,369.2 1278.4,367.2 1309,393 		"/>
			<polygon fill="#B4B4B8" points="1309,465.8 1276,438.1 1276,425.6 1309,453.3 		"/>
			<polygon fill="#C5C5C9" points="1309,453.3 1276,425.6 1278.4,423.6 1309,449.4 		"/>
		</g>
		<g>
			<polygon fill="#AAAAA9" points="1389.3,140.3 1354.9,115.1 1354.9,109 1389.3,134.2 		"/>
			<polygon fill="#B4B4B8" points="1429.7,119.1 1389.3,140.3 1389.3,134.2 1429.7,113.1 		"/>
			<polygon fill="#E1E1E1" points="1389.3,134.2 1354.9,109 1395.6,88.3 1429.7,113.1 		"/>
			<polygon fill="#B4B4B8" points="1394.2,100.8 1371.2,112.4 1366.9,109 1394.2,94.6 		"/>
			<polygon fill="#999999" points="1390.6,126.7 1371.2,112.4 1394.2,100.8 1413.4,114.7 		"/>
			<polygon fill="#A4A3A3" points="1413.4,114.7 1394.2,100.8 1394.2,94.6 1418.2,112.1 		"/>
		</g>
	</g>
	<g>
		<ellipse fill="#818086" cx="1118.6" cy="666.5" rx="253.2" ry="141.6"/>
		<ellipse fill="#5B596B" cx="1118.6" cy="662.1" rx="186.8" ry="100.1"/>
		<path opacity="0.1" enable-background="new    " d="M1213.4,535.2c78.5,24,131.8,70.7,131.8,124.3c0,78.2-113.3,141.6-253.2,141.6
			c-33.5,0-65.4-3.7-94.7-10.3c36,11,77.4,17.3,121.3,17.3c139.8,0,253.2-63.4,253.2-141.6C1371.8,607,1306.2,556.2,1213.4,535.2z"/>
		<path fill="#A8C7D2" d="M987.5,723.9c-16.1-6.2-55.8-44-55.8-74.5V349.3l55.8,60.8V723.9z"/>
		<path fill="#BFD7E1" d="M1138.3,753.9c-56,2-106.9-6.8-150.9-30.1V389.7h150.9V753.9z"/>
		<path fill="#D2EBF4" d="M1138.3,753.9V410.1h116.1v311.1C1221.5,740.7,1181.8,750.1,1138.3,753.9z"/>
		<path fill="#E5F4F7" d="M1254.5,721.2V410.1l51.1-60.8v301.6C1305.6,679,1281.3,705.8,1254.5,721.2z"/>
		<ellipse fill="#DBE1EC" cx="1118.6" cy="343.3" rx="186.9" ry="104.6"/>
		
			<linearGradient id="SVGID_7_" gradientUnits="userSpaceOnUse" x1="963.6" y1="1513.8" x2="1273.6" y2="1513.8" gradientTransform="matrix(1 0 0 -1 0 1852)">
			<stop  offset="0" style="stop-color:#B6CBD3"/>
			<stop  offset="1" style="stop-color:#C9DCE5"/>
		</linearGradient>
		<ellipse fill="url(#SVGID_7_)" cx="1118.6" cy="338.2" rx="155" ry="91.8"/>
		<ellipse fill="#F0F2F9" cx="1118.6" cy="333.1" rx="155" ry="86.7"/>
		<ellipse fill="#EBEEF7" cx="1118.6" cy="332.7" rx="143.5" ry="80.2"/>
		<ellipse fill="#F5F8FC" cx="1199.3" cy="298.6" rx="16.7" ry="7.4"/>
		<ellipse fill="#F5F8FC" cx="1120.1" cy="325.9" rx="16.7" ry="6.8"/>
		<path fill="#A8C7D2" d="M1189.9,301.2c-1.1-0.4-3.9-3.1-3.9-5.3v-21.2l3.9,4.3V301.2z"/>
		<path fill="#BFD7E1" d="M1200.6,303.4c-4,0.1-7.5-0.5-10.6-2.1v-23.6h10.6V303.4z"/>
		
			<ellipse transform="matrix(0.565 -0.8251 0.8251 0.565 -54.8276 1307.7178)" fill="#C8E2E9" cx="1212.8" cy="705.9" rx="18.6" ry="11.3"/>
		<path fill="#D2EBF4" d="M1200.6,303.4v-24.3h8.2v22C1206.4,302.4,1203.6,303.1,1200.6,303.4z"/>
		<path fill="#E5F4F7" d="M1208.8,301v-22l3.6-4.3V296C1212.4,298.1,1210.6,300,1208.8,301z"/>
		
			<linearGradient id="SVGID_8_" gradientUnits="userSpaceOnUse" x1="1106.848" y1="1527.4" x2="1133.3339" y2="1527.4" gradientTransform="matrix(1 0 0 -1 0 1852)">
			<stop  offset="0" style="stop-color:#B6CBD3"/>
			<stop  offset="1" style="stop-color:#C9DCE5"/>
		</linearGradient>
		<ellipse fill="url(#SVGID_8_)" cx="1120.1" cy="324.6" rx="13.2" ry="5.7"/>
		<ellipse fill="#DBE1EC" cx="1120.1" cy="323.5" rx="13.2" ry="4.9"/>
		
			<linearGradient id="SVGID_9_" gradientUnits="userSpaceOnUse" x1="1186.0431" y1="1576.8" x2="1212.5289" y2="1576.8" gradientTransform="matrix(1 0 0 -1 0 1852)">
			<stop  offset="0" style="stop-color:#B6CBD3"/>
			<stop  offset="1" style="stop-color:#C9DCE5"/>
		</linearGradient>
		<ellipse fill="url(#SVGID_9_)" cx="1199.3" cy="275.2" rx="13.2" ry="5.7"/>
		<path fill="#FAAC2E" d="M1349,762.3l-15,27.9l-129.5-69.9c-8.7-4.7,6.3-32.6,15-27.9L1349,762.3z"/>
		<path fill="#DE9326" d="M1342.9,794.9"/>
		<path fill="#FAAC2E" d="M1355.4,769c7.5,5.7,12.1,11.6,13.1,17.7c0.5,3-2.9,7.5-8,10.8L1107.7,962c-17.6,11.4-34.8-15.1-17.3-26.6
			l251.7-163.8C1347.3,768.4,1353,767.2,1355.4,769z"/>
		<path fill="#DE9326" d="M1379.9,786.2"/>
		<path fill="#FAB151" d="M1367.8,792.9c7.7-5,7.3-16.5-0.8-20.8L1220.4,693c-3.7-2-8,0.5-11.6,4.7l150.3,81.5
			c2.6,1.4,2.8,5.2,0.3,6.8l-249.6,161.9l9.9,6.3L1367.8,792.9z"/>
		<path fill="#DE9326" d="M1367.8,792.9c8.7-5.4,4.5-15,4.5-15s-10.3,6.5-12.8,8.1l-241.6,156.8l10.7,5.7L1367.8,792.9z"/>
		<path fill="#FAAC2E" d="M1362.5,1082.8l-0.3-11.5l0,0l-256.4-134.8L1333,789.7l9.9-6.4l-10.2-5.4l0,0l-129.6-69.4
			c-1.7,5.3-1.6,10.2,1.9,12.1l118,63.7l-233.9,152.3l-1,0.8l264,139.9L1362.5,1082.8z"/>
		<polygon fill="#FAB151" points="1097.4,942.4 1333,789.7 1342.9,783.3 1332.7,777.9 1332.7,777.9 1322.9,784.2 1088,937.4 	"/>
		<g>
			<path fill="#A4BDC7" d="M1064.2,560.7c-1-0.4-2-0.8-3.1-1c-6.8-1.3-12.4,3.4-12.4,10.4s5.5,13.8,12.4,15c3.5,0.6,6.6-0.2,8.8-2.2
				l0,0l16.6-14L1064.2,560.7z"/>
			<path fill="#A4BDC7" d="M1073,549.7c0,7,5.5,13.8,12.4,15c6.8,1.3,12.4-3.4,12.4-10.4c0-3.6-1.4-7-3.7-9.8l0,0l-16.6-20.2l-4,22.2
				C1073.1,547.5,1073,548.6,1073,549.7z"/>
			<path fill="#A4BDC7" d="M1061.3,535.4c6.8,1.3,12.4-3.4,12.4-10.4s-5.5-13.8-12.4-15c-3.5-0.6-6.6,0.2-8.8,2.2l0,0l-16.6,14
				l22.4,8.3C1059.2,534.9,1060.2,535.2,1061.3,535.4z"/>
			<path fill="#A4BDC7" d="M1028.3,550.6l16.6,20.2l4-22.3c0.3-1,0.4-2,0.4-3.1c0-7-5.5-13.8-12.4-15.1c-6.8-1.3-12.4,3.4-12.4,10.4
				C1024.6,544.4,1026,547.8,1028.3,550.6L1028.3,550.6z"/>
			<path fill="#A4BDC7" d="M1020.8,591c-10-1.9-17.5,4.5-17.5,14.1c0,9.7,7.4,18.8,17.4,20.6c10,1.9,17.5-4.5,17.5-14.1
				S1030.8,592.9,1020.8,591z M1020.8,617.4c-4.9-0.9-8.3-5.8-8.3-10.6c0-4.9,3.3-8.4,8.2-7.5c5,0.9,8.4,5.8,8.4,10.6
				C1029.1,614.9,1025.8,618.3,1020.8,617.4z"/>
			<polygon fill="#A4BDC7" points="1051.9,597.5 1042.9,595.8 1042.9,629.2 1067.7,633.9 1067.7,625.7 1051.9,622.8 		"/>
			<polygon fill="#A4BDC7" points="1071.7,634.6 1080.7,636.3 1080.7,602.9 1071.7,601.2 		"/>
			<path fill="#A4BDC7" d="M1108.8,629.9c4-1,6.7-3.9,6.7-9c0-3.4-1-6.2-2.9-8.5c-2.2-2.7-5.6-4.6-10.6-5.6l-15.4-2.9v33.4l9,1.7v-10
				l3.9,0.7l6.5,11.3l10.4,1.9L1108.8,629.9z M1101.6,622.8l-5.9-1.1v-8l5.9,1.1c3,0.6,4.9,2.2,4.9,4.9
				C1106.5,622.2,1104.7,623.4,1101.6,622.8z"/>
			<path fill="#A4BDC7" d="M1014.1,636.8c0-1.7-1.2-3-3.2-3.4l-3.8-0.7v8.8l1.5,0.3v-3.1l1.9,0.3l2.1,3.5l1.8,0.3l-2.3-3.8
				C1013.2,638.9,1014.1,638.2,1014.1,636.8z M1008.6,637.3v-2.9l2.2,0.4c1.1,0.2,1.8,0.8,1.8,1.8c0,0.9-0.7,1.4-1.8,1.2
				L1008.6,637.3z"/>
			<polygon fill="#A4BDC7" points="1021.3,640.4 1025.6,641.2 1025.6,639.8 1021.3,639 1021.3,636.7 1026.1,637.6 1026.1,636.2 
				1019.8,635 1019.8,643.8 1026.2,645 1026.2,643.6 1021.3,642.7 		"/>
			<path fill="#A4BDC7" d="M1035.2,641.6c-1.6-0.7-2-1.1-2-1.8c0-0.6,0.5-1,1.4-0.8c0.8,0.1,1.6,0.6,2.3,1.3l0.8-1
				c-0.9-0.9-1.9-1.5-3.1-1.7c-1.7-0.3-2.9,0.5-2.9,2c0,1.6,1,2.4,2.8,3.2c1.6,0.7,1.9,1.1,1.9,1.7c0,0.7-0.6,1-1.5,0.8
				c-1.1-0.2-1.9-0.8-2.7-1.6l-0.9,0.9c1,1.1,2.3,1.8,3.6,2.1c1.8,0.3,3.1-0.4,3.1-2.1C1037.9,643.2,1037,642.4,1035.2,641.6z"/>
			<path fill="#A4BDC7" d="M1047.7,640.1c-2.6-0.5-4.5,1.2-4.5,3.7s1.8,4.9,4.5,5.4c2.6,0.5,4.5-1.2,4.5-3.7
				S1050.4,640.6,1047.7,640.1z M1047.7,647.8c-1.7-0.3-2.9-2-2.9-3.7s1.2-2.9,2.9-2.6c1.7,0.3,2.9,2,2.9,3.7
				S1049.4,648.1,1047.7,647.8z"/>
			<path fill="#A4BDC7" d="M1063.6,648.3c0,1.6-0.8,2.3-2.1,2c-1.3-0.3-2.2-1.3-2.2-2.9v-5l-1.5-0.3v5.1c0,2.5,1.4,4.1,3.6,4.5
				s3.7-0.6,3.7-3.3v-5l-1.5-0.3V648.3z"/>
			<path fill="#A4BDC7" d="M1078.1,648.7c0-1.7-1.2-3-3.2-3.4l-3.8-0.7v8.8l1.5,0.3v-3.1l1.9,0.3l2.1,3.5l1.8,0.3l-2.3-3.8
				C1077.2,650.9,1078.1,650.2,1078.1,648.7z M1072.6,649.2v-2.9l2.2,0.4c1.1,0.2,1.8,0.8,1.8,1.8c0,0.9-0.7,1.4-1.8,1.2
				L1072.6,649.2z"/>
			<path fill="#A4BDC7" d="M1087.8,655.3c-1.6-0.3-2.8-1.9-2.8-3.7c0-1.7,1.2-2.9,2.8-2.6c1,0.2,1.7,0.8,2.4,1.5l1-1
				c-0.8-1-1.8-1.7-3.3-2c-2.6-0.5-4.4,1.2-4.4,3.7s1.9,4.9,4.4,5.4c1.6,0.3,2.6-0.1,3.5-0.9l-1-1.2
				C1089.5,655.1,1088.9,655.5,1087.8,655.3z"/>
			<polygon fill="#A4BDC7" points="1098.2,654.7 1102.5,655.5 1102.5,654.2 1098.2,653.4 1098.2,651.1 1103.1,652 1103.1,650.6 
				1096.7,649.4 1096.7,658.2 1103.1,659.4 1103.1,658 1098.2,657.1 		"/>
			<path fill="#A4BDC7" d="M1112.1,656c-1.6-0.7-2-1.1-2-1.8c0-0.6,0.5-1,1.4-0.8c0.8,0.1,1.6,0.6,2.3,1.3l0.8-1
				c-0.9-0.9-1.9-1.5-3.1-1.7c-1.7-0.3-2.9,0.5-2.9,2c0,1.6,1,2.4,2.8,3.2c1.6,0.7,1.9,1.1,1.9,1.7c0,0.7-0.6,1-1.5,0.8
				c-1.1-0.2-1.9-0.8-2.7-1.6l-0.9,0.9c1,1.1,2.3,1.8,3.6,2.1c1.8,0.3,3.1-0.4,3.1-2.1C1114.9,657.6,1113.9,656.8,1112.1,656z"/>
		</g>
		<g>
			<path fill="#F16A3F" d="M1085.3,569.2l-22-8.2c-1-0.4-2-0.8-3-1c-6.7-1.3-12.2,3.3-12.2,10.3c0,6.9,5.5,13.6,12.2,14.8
				c3.4,0.6,6.5-0.2,8.7-2.1l0,0L1085.3,569.2z"/>
			<path fill="#F37E3E" d="M1092.6,545.2L1092.6,545.2l-16.4-19.9l-4,21.9c-0.3,1-0.4,2-0.4,3.1c0,6.9,5.5,13.6,12.2,14.8
				c6.7,1.3,12.2-3.3,12.2-10.3C1096.3,551.3,1094.9,547.8,1092.6,545.2"/>
			<path fill="#079BD7" d="M1060.4,511.1c-3.4-0.6-6.5,0.2-8.7,2.1l0,0l-16.4,13.8l22,8.2c1,0.4,2,0.8,3,1
				c6.7,1.3,12.2-3.3,12.2-10.2C1072.6,519,1067.1,512.4,1060.4,511.1"/>
			<path fill="#426CB1" d="M1048.7,546.1c0-6.9-5.5-13.6-12.2-14.8c-6.7-1.3-12.2,3.3-12.2,10.3c0,3.5,1.4,6.9,3.6,9.6l0,0l16.4,19.9
				l4-21.9C1048.5,548.1,1048.7,547.1,1048.7,546.1"/>
			<path fill="#426CB1" d="M1003.3,604.8c0-9.4,7.4-15.7,17.3-13.9c9.9,1.8,17.2,10.8,17.2,20.3c0,9.4-7.4,15.7-17.3,13.9
				S1003.3,614.3,1003.3,604.8 M1028.7,609.5c0-4.7-3.3-9.5-8.2-10.4c-4.8-0.9-8.1,2.5-8.1,7.4c0,4.7,3.3,9.5,8.2,10.4
				C1025.4,617.8,1028.7,614.4,1028.7,609.5"/>
			<polygon fill="#426CB1" points="1042.3,595.7 1051.2,597.3 1051.2,622.2 1066.7,625.1 1066.7,633.1 1042.3,628.5 		"/>
			<polygon fill="#426CB1" points="1070.7,601 1079.6,602.6 1079.6,635.5 1070.7,633.8 		"/>
			<path fill="#426CB1" d="M1085.4,603.7l15.1,2.8c4.9,0.9,8.3,2.9,10.4,5.5c1.9,2.3,2.8,5,2.8,8.3c0,5-2.6,7.9-6.6,8.9l7.6,12.9
				l-10.2-1.9l-6.4-11.2l-3.9-0.7v10l-8.9-1.7L1085.4,603.7L1085.4,603.7z M1100.1,622.2c3,0.6,4.7-0.6,4.7-3.1
				c0-2.6-1.8-4.2-4.8-4.8l-5.8-1.1v7.9L1100.1,622.2z"/>
			<path fill="#426CB1" d="M1007,631.9l3.7,0.7c2,0.4,3.1,1.7,3.1,3.3c0,1.4-0.8,2.1-2,2.2l2.3,3.7l-1.7-0.3l-2.1-3.4l-1.8-0.3v3
				l-1.5-0.3V631.9z M1010.7,636.9c1.1,0.2,1.7-0.2,1.7-1.1c0-0.9-0.7-1.6-1.7-1.8l-2.2-0.4v2.9L1010.7,636.9z"/>
			<polygon fill="#426CB1" points="1019.6,634.2 1025.8,635.4 1025.8,636.8 1021.1,635.9 1021.1,638.1 1025.3,638.9 1025.3,640.3 
				1021.1,639.5 1021.1,641.8 1025.9,642.7 1025.9,644.1 1019.6,642.9 		"/>
			<path fill="#426CB1" d="M1030.9,643.7l0.9-0.9c0.8,0.9,1.6,1.4,2.7,1.6c0.9,0.2,1.5-0.2,1.5-0.8s-0.3-1-1.9-1.7
				c-1.8-0.8-2.8-1.5-2.8-3.1c0-1.5,1.2-2.3,2.9-2c1.2,0.2,2.2,0.8,3.1,1.7l-0.8,1c-0.8-0.7-1.5-1.2-2.3-1.3
				c-0.9-0.2-1.4,0.2-1.4,0.8c0,0.7,0.4,1,2,1.7c1.8,0.8,2.7,1.6,2.7,3.1c0,1.6-1.2,2.4-3,2C1033.1,645.5,1031.9,644.9,1030.9,643.7"
				/>
			<path fill="#426CB1" d="M1042.6,642.9c0-2.4,1.8-4.1,4.4-3.7c2.6,0.5,4.4,2.8,4.4,5.3c0,2.4-1.8,4.1-4.4,3.6
				C1044.4,647.7,1042.6,645.3,1042.6,642.9 M1049.9,644.2c0-1.7-1.2-3.3-2.9-3.6c-1.7-0.3-2.8,0.8-2.8,2.5s1.2,3.3,2.9,3.6
				C1048.7,647.1,1049.9,645.9,1049.9,644.2"/>
			<path fill="#426CB1" d="M1056.9,646.2v-5l1.5,0.3v4.9c0,1.6,0.8,2.6,2.1,2.9c1.3,0.2,2.1-0.4,2.1-2v-5l1.5,0.3v4.9
				c0,2.6-1.4,3.6-3.6,3.2C1058.3,650.3,1056.9,648.7,1056.9,646.2"/>
			<path fill="#426CB1" d="M1070,643.7l3.8,0.7c2,0.4,3.1,1.7,3.1,3.3c0,1.4-0.8,2.1-2,2.2l2.3,3.7l-1.7-0.3l-2.1-3.4l-1.8-0.3v3
				l-1.5-0.3v-8.6H1070z M1073.7,648.6c1.1,0.2,1.7-0.2,1.7-1.1c0-0.9-0.7-1.6-1.7-1.8l-2.2-0.4v2.9L1073.7,648.6z"/>
			<path fill="#426CB1" d="M1082.2,650.3c0-2.5,1.8-4.1,4.3-3.7c1.6,0.3,2.5,1,3.3,2l-0.9,1c-0.7-0.8-1.4-1.3-2.4-1.5
				c-1.6-0.3-2.8,0.8-2.8,2.6c0,1.7,1.2,3.3,2.8,3.6c1,0.2,1.7-0.1,2.4-0.7l1,1.2c-0.9,0.8-1.8,1.2-3.4,0.9
				C1084,655.1,1082.2,652.8,1082.2,650.3"/>
			<polygon fill="#426CB1" points="1095.3,648.4 1101.5,649.6 1101.5,650.9 1096.8,650 1096.8,652.3 1101,653.1 1101,654.4 
				1096.8,653.6 1096.8,656 1101.6,656.9 1101.6,658.2 1095.3,657 		"/>
			<path fill="#426CB1" d="M1106.6,657.9l0.9-0.9c0.8,0.9,1.6,1.4,2.7,1.6c0.9,0.2,1.5-0.2,1.5-0.8s-0.3-1-1.9-1.7
				c-1.8-0.8-2.8-1.5-2.8-3.1c0-1.5,1.2-2.3,2.9-2c1.2,0.2,2.2,0.8,3.1,1.7l-0.8,1c-0.8-0.7-1.5-1.2-2.3-1.3
				c-0.9-0.2-1.4,0.2-1.4,0.8c0,0.7,0.4,1,2,1.7c1.8,0.8,2.7,1.6,2.7,3.1c0,1.6-1.2,2.4-3,2C1108.8,659.7,1107.6,659,1106.6,657.9"/>
		</g>
		<g>
			<polygon fill="#E4E4EA" points="971.4,733.4 961.5,725.5 961.5,409.9 971.4,417.9 		"/>
			<polygon fill="#D7D7DB" points="971.4,733.4 980.7,725.5 980.7,409.9 971.4,417.9 		"/>
			<polygon fill="#C5C5C9" points="971.1,402.9 961.5,409.9 971.4,418.1 980.7,409.9 		"/>
			<polygon fill="#E4E4EA" points="925.4,688.9 915.5,680.9 915.5,365.4 925.4,373.4 		"/>
			<polygon fill="#D7D7DB" points="925.4,688.9 934.7,680.9 934.7,365.4 925.4,373.4 		"/>
			<polygon fill="#C5C5C9" points="925.1,358.4 915.5,365.4 925.4,373.6 934.7,365.4 		"/>
			<polygon fill="#B4B4B8" points="961.5,448.3 928.5,420.5 928.5,408 961.5,435.8 		"/>
			<polygon fill="#C5C5C9" points="961.5,435.8 928.5,408 930.9,406.1 961.5,431.9 		"/>
			<polygon fill="#B4B4B8" points="961.5,515 928.5,487.2 928.5,474.7 961.5,502.5 		"/>
			<polygon fill="#C5C5C9" points="961.5,502.5 928.5,474.7 930.9,472.7 961.5,498.6 		"/>
			<polygon fill="#B4B4B8" points="961.5,578.5 928.5,550.7 928.5,538.2 961.5,566 		"/>
			<polygon fill="#C5C5C9" points="961.5,566 928.5,538.2 930.9,536.2 961.5,562 		"/>
			<polygon fill="#B4B4B8" points="961.5,634.2 928.5,606.5 928.5,594 961.5,621.7 		"/>
			<polygon fill="#C5C5C9" points="961.5,621.7 928.5,594 930.9,592 961.5,617.8 		"/>
			<polygon fill="#B4B4B8" points="961.5,690.6 928.5,662.8 928.5,650.3 961.5,678.1 		"/>
			<polygon fill="#C5C5C9" points="961.5,678.1 928.5,650.3 930.9,648.4 961.5,674.2 		"/>
		</g>
		<g>
			<polygon fill="#AAAAA9" points="1041.8,365.1 1007.4,339.8 1007.4,333.8 1041.8,359 		"/>
			<polygon fill="#B4B4B8" points="1082.2,343.9 1041.8,365.1 1041.8,359 1082.2,337.8 		"/>
			<polygon fill="#E1E1E1" points="1041.8,359 1007.4,333.8 1048.1,313.1 1082.2,337.8 		"/>
			<polygon fill="#B4B4B8" points="1046.7,325.5 1023.7,337.2 1019.4,333.8 1046.7,319.3 		"/>
			<polygon fill="#999999" points="1043.1,351.5 1023.7,337.2 1046.7,325.5 1065.9,339.5 		"/>
			<polygon fill="#A4A3A3" points="1065.9,339.5 1046.7,325.5 1046.7,319.3 1070.7,336.9 		"/>
		</g>
	</g>
	<g>
		<polygon fill="#FAAC2E" points="1363.5,1081.7 1363.2,1070.2 1363.2,1070.2 1106.8,935.4 1098.4,941.2 1353.1,1076.2 	"/>
		<ellipse fill="#818086" cx="1805.7" cy="1040.2" rx="253.2" ry="141.6"/>
		<path fill="#49686E" d="M1825.4,936.2c-56.1-3.2-106.5,6.2-150.9,29V763.4h150.9V936.2z"/>
		<ellipse fill="#5B596B" cx="1805.7" cy="1035.8" rx="186.8" ry="100.1"/>
		<path opacity="0.1" enable-background="new    " d="M1900.4,908.9c78.5,24,131.8,70.7,131.8,124.3c0,78.2-113.3,141.6-253.2,141.6
			c-33.5,0-65.4-3.7-94.7-10.3c36,11,77.4,17.3,121.3,17.3c139.8,0,253.2-63.4,253.2-141.6C2058.9,980.7,1993.3,929.9,1900.4,908.9z"
			/>
		<path fill="#49686E" d="M1825.4,936.2V783.7h116.1V967C1905.2,947.8,1866.3,938.2,1825.4,936.2z"/>
		<ellipse fill="#FAB151" cx="1805.7" cy="902.2" rx="186.9" ry="104.6"/>
		<ellipse fill="#71859A" cx="1805.7" cy="721.1" rx="186.9" ry="104.6"/>
		<path fill="#A8C7D2" d="M1674.5,1097.5c-16.1-6.2-55.8-44-55.8-74.5V722.9l55.8,60.8V1097.5z"/>
		<path fill="#E5F4F7" d="M1941.5,1094.9V783.8l51.1-60.8v301.6C1992.6,1052.7,1968.3,1079.4,1941.5,1094.9z"/>
		<ellipse fill="#DBE1EC" cx="1805.7" cy="717" rx="186.9" ry="104.6"/>
		
			<linearGradient id="SVGID_10_" gradientUnits="userSpaceOnUse" x1="1650.7" y1="1140.1" x2="1960.7" y2="1140.1" gradientTransform="matrix(1 0 0 -1 0 1852)">
			<stop  offset="0" style="stop-color:#B6CBD3"/>
			<stop  offset="1" style="stop-color:#C9DCE5"/>
		</linearGradient>
		<ellipse fill="url(#SVGID_10_)" cx="1805.7" cy="711.9" rx="155" ry="91.8"/>
		<ellipse fill="#F0F2F9" cx="1805.7" cy="706.8" rx="155" ry="86.7"/>
		<ellipse fill="#F5F8FC" cx="1886.4" cy="672.2" rx="16.7" ry="7.4"/>
		<ellipse fill="#F5F8FC" cx="1807.2" cy="699.5" rx="16.7" ry="6.8"/>
		<path fill="#A8C7D2" d="M1877,674.9c-1.1-0.4-3.9-3.1-3.9-5.3v-21.2l3.9,4.3V674.9z"/>
		<path fill="#BFD7E1" d="M1887.6,677c-4,0.1-7.5-0.5-10.6-2.1v-23.6h10.6V677z"/>
		<path fill="#D2EBF4" d="M1887.6,677v-24.3h8.2v22C1893.5,676.1,1890.7,676.8,1887.6,677z"/>
		<path fill="#E5F4F7" d="M1895.8,674.7v-22l3.6-4.3v21.3C1899.4,671.7,1897.7,673.6,1895.8,674.7z"/>
		
			<linearGradient id="SVGID_11_" gradientUnits="userSpaceOnUse" x1="1793.9163" y1="1153.8" x2="1820.402" y2="1153.8" gradientTransform="matrix(1 0 0 -1 0 1852)">
			<stop  offset="0" style="stop-color:#B6CBD3"/>
			<stop  offset="1" style="stop-color:#C9DCE5"/>
		</linearGradient>
		<ellipse fill="url(#SVGID_11_)" cx="1807.2" cy="698.2" rx="13.2" ry="5.7"/>
		<ellipse fill="#DBE1EC" cx="1807.2" cy="697.2" rx="13.2" ry="4.9"/>
		<path fill="#E69532" d="M1888.8,995.7c-2.9,0.9-5.9,1.6-8.8,2.4c-0.8,0.2-1.5,0.4-2.3,0.6c-16.9,4.1-34.3,6.7-52.2,7.5
			c-0.1,0-0.1,0-0.2,0c-6.4,0.4-12.9,0.6-19.5,0.6c-50.3,0-95.9-11.2-129.5-29.3c-0.5-0.3-1.1-0.5-1.6-0.8v120.9
			c44,23.3,94.9,32.1,150.9,30.1l0,0c43.5-3.8,83.2-13.3,116.1-32.7V974c-0.4,0.2-0.9,0.4-1.3,0.7
			C1925.5,983.2,1908.1,990.3,1888.8,995.7z"/>
		
			<linearGradient id="SVGID_12_" gradientUnits="userSpaceOnUse" x1="1873.1113" y1="1203.1" x2="1899.5972" y2="1203.1" gradientTransform="matrix(1 0 0 -1 0 1852)">
			<stop  offset="0" style="stop-color:#B6CBD3"/>
			<stop  offset="1" style="stop-color:#C9DCE5"/>
		</linearGradient>
		<ellipse fill="url(#SVGID_12_)" cx="1886.4" cy="648.9" rx="13.2" ry="5.7"/>
		<polygon fill="#71859A" points="1936.2,1100.4 1941.5,1097.6 1941.5,792.1 1936.2,795 	"/>
		
			<ellipse transform="matrix(0.565 -0.8251 0.8251 0.565 -65.4788 2036.6925)" opacity="0.65" fill="#C8E2E9" enable-background="new    " cx="1898.8" cy="1080.4" rx="18.6" ry="11.3"/>
		<path fill="#FAAC2E" d="M2036.1,1136l-15,27.9l-129.5-69.9c-8.7-4.7,6.3-32.6,15-27.9L2036.1,1136z"/>
		<path fill="#FAB151" d="M2042.5,1142.7c7.4,5.8,12,11.7,13.1,17.7c0.5,3-2.7,7.4-7.6,10.6l-243.2,157.3l-30.7-16.7l255.6-166.4
			C2034.6,1141.9,2040.1,1140.8,2042.5,1142.7z"/>
		<path fill="#FAB151" d="M2054.9,1166.6c7.7-5,7.3-16.5-0.8-20.8l-146.5-79.1c-3.7-2-8,0.5-11.6,4.7l150.3,81.5
			c2.6,1.4,2.8,5.2,0.3,6.8l-260.2,168.8l16,1.3L2054.9,1166.6z"/>
		<path fill="#FAAC2E" d="M1789.2,1330l-446.3-234.8l14.8-28l447.5,235.4l-12.3,7.6C1792.9,1310.2,1795.8,1333.5,1789.2,1330z"/>
		<path fill="#DE9326" d="M2054.9,1166.6c8.7-5.4,4.5-15,4.5-15s-10.3,6.5-12.8,8.1l-260.2,168.8c5.1,3.4,10.3,4.4,16,1.3
			L2054.9,1166.6z"/>
		<path fill="#DE9326" d="M1792.9,1310.2l227.2-146.9l9.9-6.4l-10.2-5.4l0,0l-129.6-69.4c-1.7,5.3-1.6,10.2,1.9,12.1l118,63.7
			l-233.9,152.3l-1,0.8L1792.9,1310.2z"/>
		<polygon fill="#FAAC2E" points="1784.3,1316.1 2019.9,1163.4 2040.7,1150.2 2030.6,1144.5 2019.6,1151.6 2009.9,1157.9 
			1774,1311.6 	"/>
		<polygon fill="#FAB151" points="1794.9,1323.2 1324.2,1073.9 1329.5,1063.9 1805.8,1316.1 	"/>
		<polygon fill="#71859A" points="1680,1100.4 1674.5,1097.6 1674.5,792.1 1680,795 	"/>
		<g>
			<polygon fill="#E4E4EA" points="1656.8,1108.7 1647,1100.7 1647,785.1 1656.8,793.1 		"/>
			<polygon fill="#D7D7DB" points="1656.8,1108.7 1666.2,1100.7 1666.2,785.1 1656.8,793.1 		"/>
			<polygon fill="#C5C5C9" points="1656.6,778.2 1647,785.1 1656.8,793.3 1666.2,785.1 		"/>
			<polygon fill="#E4E4EA" points="1610.9,1064.2 1601,1056.2 1601,740.6 1610.9,748.6 		"/>
			<polygon fill="#D7D7DB" points="1610.9,1064.2 1620.2,1056.2 1620.2,740.6 1610.9,748.6 		"/>
			<polygon fill="#C5C5C9" points="1610.6,733.7 1601,740.6 1610.9,748.8 1620.2,740.6 		"/>
			<polygon fill="#B4B4B8" points="1647,823.5 1614,795.8 1614,783.3 1647,811 		"/>
			<polygon fill="#C5C5C9" points="1647,811 1614,783.3 1616.4,781.3 1647,807.1 		"/>
			<polygon fill="#B4B4B8" points="1647,890.2 1614,862.5 1614,850 1647,877.7 		"/>
			<polygon fill="#C5C5C9" points="1647,877.7 1614,850 1616.4,848 1647,873.8 		"/>
			<polygon fill="#B4B4B8" points="1647,953.7 1614,925.9 1614,913.4 1647,941.2 		"/>
			<polygon fill="#C5C5C9" points="1647,941.2 1614,913.4 1616.4,911.4 1647,937.3 		"/>
			<polygon fill="#B4B4B8" points="1647,1009.5 1614,981.7 1614,969.2 1647,997 		"/>
			<polygon fill="#C5C5C9" points="1647,997 1614,969.2 1616.4,967.2 1647,993 		"/>
			<polygon fill="#B4B4B8" points="1647,1065.8 1614,1038.1 1614,1025.6 1647,1053.3 		"/>
			<polygon fill="#C5C5C9" points="1647,1053.3 1614,1025.6 1616.4,1023.6 1647,1049.4 		"/>
		</g>
		<g>
			<polygon fill="#AAAAA9" points="1729.5,743 1695.1,717.8 1695.1,711.7 1729.5,737 		"/>
			<polygon fill="#B4B4B8" points="1769.9,721.8 1729.5,743 1729.5,737 1769.9,715.8 		"/>
			<polygon fill="#E1E1E1" points="1729.5,737 1695.1,711.7 1735.8,691 1769.9,715.8 		"/>
			<polygon fill="#B4B4B8" points="1734.4,703.5 1711.4,715.1 1707.1,711.7 1734.4,697.3 		"/>
			<polygon fill="#999999" points="1730.8,729.4 1711.4,715.1 1734.4,703.5 1753.6,717.5 		"/>
			<polygon fill="#A4A3A3" points="1753.6,717.4 1734.4,703.5 1734.4,697.3 1758.4,714.8 		"/>
		</g>
		<path fill="#FAB151" d="M1380.2,1093.9c-0.1,6.9-1.9,11.9-5.9,14.2c-2,1.1-7.4-0.1-12.7-3L1093.4,964c-20.2-10.6-4.3-27.8-4.3-27.8
			l281.6,148.7C1376.1,1087.8,1380.3,1091.7,1380.2,1093.9z"/>
		<path fill="#DE9326" d="M1789,1329.9l8.3-5.5l-713.9-377.6c-0.3,1.3-0.4,2.7-0.2,4.4c0.3,4.1,2.4,7.6,6.2,10.6L1789,1329.9z"/>
		<polygon fill="#FAB151" points="1415.4,1122.2 1309.9,1191 1303.5,1181.7 1403.9,1116.2 	"/>
		<polygon fill="#FAAC2E" points="1403.8,1116.2 1303.5,1181.7 1286.3,1179.4 1392.4,1110.2 	"/>
		<polygon fill="#DE9326" points="1426.4,1128.5 1306.3,1206.9 1309.9,1191 1414.9,1122.4 	"/>
		
			<ellipse transform="matrix(0.6883 -0.7254 0.7254 0.6883 -461.8554 1312.1707)" fill="#F19B1F" cx="1296" cy="1193.5" rx="14" ry="17.2"/>
		
			<ellipse transform="matrix(0.6883 -0.7254 0.7254 0.6883 -461.7297 1311.8213)" fill="#BF7B2A" cx="1295.7" cy="1193.2" rx="10.2" ry="12.5"/>
	</g>
	<g>
		<path opacity="0.1" enable-background="new    " d="M553.6,952.4c-8.4,5.3-76.6,48.5-81.8,53.2s-7.3,22.6-5.2,32.8
			c2.1,9.9,6.4,25.1,21,52.2c14.2,26.3,100.9,71.4,108.9,76.1c8.1,4.6,685.3,393.8,709,405.2c23.8,11.4,83.8,22.7,103.7,26.8
			c19.9,4.1,134,28.9,150.6,25.5c16.4-3.4,33.9-10.2,29.6-35c-11-21.6-80.3-101.7-80.3-101.7l-63.6-58l-709.9-409.6l-72.8-46.4
			c0,0-9-4.3-39.3-12.7C593.2,952.4,562,947.1,553.6,952.4z"/>
		<path fill="#D6DBE2" d="M442.7,883l0.9,70.6l41.3,62l-6.6-66.3C467.8,930.8,455.7,908,442.7,883z"/>
		<path fill="#EFF1F6" d="M478.2,949.3c6.6,8.4,10.9,15.9,19.3,21.7l793.3,453.3c35.5,13.2,76.2,21.4,119.4,27.7l-72.3,48.2
			l-853-484.7L478.2,949.3z"/>
		<path fill="#E2E7EE" d="M1410.2,1452.1c51.5,10.1,174.5,28.4,174.5,28.4c-17.4,11.3-47.3,26.5-55.2,26.5s-191.7-6.6-191.7-6.6
			L1410.2,1452.1z"/>
		<path fill="#CDD2D8" d="M443.4,935.2c-1,24.3,7.6,77.4,7.6,77.4l39.1,51.8l-6.3-59.8L443.4,935.2z"/>
		<path fill="#E5E7EE" d="M483.8,1004.6c0,0,6.3,9.1,14.4,14.7l761,434.9c34,12.7,73.1,20.6,114.5,26.6l-69.4,46.3l-814.2-462.6
			L483.8,1004.6z"/>
		<path fill="#DCE0E8" d="M1370.9,1478.1c49.4,9.7,166.3,27,166.3,27s-44.3,25.6-51.8,25.6s-183.9-6.4-183.9-6.4L1370.9,1478.1z"/>
		<polygon fill="#007F8D" points="447.6,989.5 456.8,1051.8 493.7,1103.6 488.9,1054.2 	"/>
		<path fill="#008CA0" d="M488.9,1054.2c0,0,10.7,9.9,18.4,15.2l720,411.4c32.2,12,69.1,19.5,108.3,25.2l-65.7,43.8l-776.3-446.1
			L488.9,1054.2z"/>
		<path fill="#0098A9" d="M1330.1,1505.2l161.3,24c0,0-43,24-50.1,24s-171.4-3.5-171.4-3.5L1330.1,1505.2z"/>
		<path fill="#C8CED4" d="M513.2,799.8c-15.8,8.6-45.2,24.1-59.1,35S442.6,883,442.6,883s31.6,60.5,35.6,66.3s10.3,16.5,19.3,21.7
			s766.8,440.6,793.3,453.3c26.6,12.8,93.7,25.4,116,30c22.2,4.6,149.9,32.4,168.6,28.5c18.3-3.8,38-11.5,33.2-39.2
			s-56.1-104.5-74.8-123.6c-18.7-19.1-51.3-54.4-77.2-69.3c-25.9-15-780.1-450.3-794-457.6c-13.9-7.2-35.1-7-35.1-7l-66.8,2.7
			C560.8,789,529,791.2,513.2,799.8z"/>
		<path fill="#71859A" d="M540.6,808.4c-4,2-63.5,31-68.7,35.7s-7.3,22.6-5.2,32.8c2.1,9.9,6.4,25.1,21,52.2
			c14.2,26.3,100.9,71.4,108.9,76.1c8.1,4.6,685.3,393.8,709,405.2c23.8,11.4,83.8,22.7,103.7,26.8c19.9,4.1,134,28.9,150.6,25.5
			c16.4-3.4,33.9-10.2,29.6-35c-11-21.6-80.3-101.7-80.3-101.7l-63.8-57.9L735.7,858.3L662.9,812l-38-6.6
			C595.2,802.1,567,803,540.6,808.4z"/>
		<path fill="#607788" d="M1584.8,1450.8c0,0,9.6-11.7,4.8-23.2s-33.3-63.6-43.7-77.6s-52.9-59-77.4-75.3s-690.7-405-690.7-405
			S654.7,802.5,639,798.9s-72.5-1.3-90.9,3.4s-73.2,39.1-73.2,39.1c-9.6,8.3-11.9,18.3-9,29.7c0,0,48.6-31.3,70.9-41.2
			c22.3-9.9,70.4-15.7,98.4-10.7s140.4,71.8,170.3,89.3c29.8,17.5,639.4,369.8,656.8,383s64.9,62.2,77.5,78.2
			C1552.5,1385.7,1584.8,1450.8,1584.8,1450.8z"/>
		<polygon fill="#CDD2D8" points="603.4,911.3 566.3,911.3 544,702.1 581,702.1 	"/>
		<polygon fill="#C1C7CE" points="633.2,911.3 603.4,911.3 581,702.1 608.2,685.5 	"/>
		<polygon fill="#D8DDE2" points="566.6,909.8 551.3,909.8 529.5,683.6 544.3,700.6 	"/>
		<polygon fill="#D0D5DC" points="632.3,911.6 646.4,908.4 616.7,685 605,698.4 	"/>
		<ellipse fill="#C8CED4" cx="573.1" cy="683.6" rx="43.6" ry="24.6"/>
		<ellipse fill="#374A56" cx="573.1" cy="683.6" rx="35.4" ry="17.6"/>
		<polygon opacity="0.2" enable-background="new    " points="1341.7,1388.2 1402.3,1353.9 1497,1385.2 1438.5,1416.6 	"/>
		<polygon fill="#DE6F36" points="1470.4,1426.2 1373.6,1397.7 1373.6,1366.1 1470.4,1394.5 	"/>
		<polygon fill="#F58957" points="1528.9,1394.7 1470.4,1426.1 1470.4,1394.4 1528.9,1363 	"/>
		<polygon fill="#F37E3E" points="1373.6,1366.1 1434.2,1331.7 1528.9,1363 1470.4,1394.4 	"/>
		<g>
			<polygon opacity="0.2" enable-background="new    " points="1387.5,1280.7 1409.9,1267.1 1421.3,1272.8 1398.5,1285.9 		"/>
			<polygon fill="#DE6F36" points="1409,1290.8 1397.9,1285.6 1397.9,1267.5 1409,1272.7 		"/>
			<polygon fill="#F58957" points="1431.7,1277.8 1409,1290.8 1409,1272.7 1431.7,1259.7 		"/>
			<polygon fill="#F37E3E" points="1397.9,1267.5 1420.4,1253.9 1431.7,1259.7 1409,1272.7 		"/>
		</g>
		<g>
			<polygon opacity="0.2" enable-background="new    " points="1349.8,1258.6 1372.3,1245 1383.6,1250.7 1360.9,1263.8 		"/>
			<polygon fill="#DE6F36" points="1371.3,1268.7 1360.2,1263.5 1360.2,1245.4 1371.3,1250.6 		"/>
			<polygon fill="#F58957" points="1394.1,1255.6 1371.3,1268.7 1371.3,1250.6 1394.1,1237.6 		"/>
			<polygon fill="#F37E3E" points="1360.2,1245.4 1382.7,1231.8 1394.1,1237.6 1371.3,1250.6 		"/>
		</g>
		<g>
			<polygon opacity="0.2" enable-background="new    " points="1312.1,1236.5 1334.6,1222.9 1346,1228.6 1323.2,1241.7 		"/>
			<polygon fill="#DE6F36" points="1333.6,1246.6 1322.5,1241.4 1322.5,1223.3 1333.6,1228.5 		"/>
			<polygon fill="#F58957" points="1356.4,1233.5 1333.6,1246.6 1333.6,1228.5 1356.4,1215.5 		"/>
			<polygon fill="#F37E3E" points="1322.5,1223.3 1345,1209.7 1356.4,1215.5 1333.6,1228.5 		"/>
		</g>
		<g>
			<polygon opacity="0.2" enable-background="new    " points="1274.4,1214.4 1296.9,1200.8 1308.3,1206.5 1285.5,1219.6 		"/>
			<polygon fill="#DE6F36" points="1295.9,1224.5 1284.9,1219.3 1284.9,1201.2 1295.9,1206.4 		"/>
			<polygon fill="#F58957" points="1318.7,1211.4 1295.9,1224.5 1295.9,1206.4 1318.7,1193.3 		"/>
			<polygon fill="#F37E3E" points="1284.9,1201.2 1307.3,1187.6 1318.7,1193.3 1295.9,1206.4 		"/>
		</g>
		<g>
			<polygon opacity="0.2" enable-background="new    " points="1236.8,1192.2 1259.2,1178.7 1270.6,1184.4 1247.9,1197.4 		"/>
			<polygon fill="#DE6F36" points="1258.3,1202.4 1247.2,1197.2 1247.2,1179.1 1258.3,1184.3 		"/>
			<polygon fill="#F58957" points="1281.1,1189.3 1258.3,1202.4 1258.3,1184.3 1281.1,1171.2 		"/>
			<polygon fill="#F37E3E" points="1247.2,1179.1 1269.7,1165.5 1281.1,1171.2 1258.3,1184.3 		"/>
		</g>
		<g>
			<polygon opacity="0.2" enable-background="new    " points="1349.5,1303.1 1372,1289.6 1383.4,1295.3 1360.6,1308.3 		"/>
			<polygon fill="#DE6F36" points="1371,1313.3 1360,1308 1360,1290 1371,1295.2 		"/>
			<polygon fill="#F58957" points="1393.8,1300.2 1371,1313.2 1371,1295.2 1393.8,1282.1 		"/>
			<polygon fill="#F37E3E" points="1360,1290 1382.4,1276.4 1393.8,1282.1 1371,1295.2 		"/>
		</g>
		<g>
			<polygon opacity="0.2" enable-background="new    " points="1311.9,1281 1334.3,1267.4 1345.7,1273.2 1322.9,1286.2 		"/>
			<polygon fill="#DE6F36" points="1333.4,1291.1 1322.3,1285.9 1322.3,1267.8 1333.4,1273.1 		"/>
			<polygon fill="#F58957" points="1356.1,1278.1 1333.4,1291.1 1333.4,1273 1356.1,1260 		"/>
			<polygon fill="#F37E3E" points="1322.3,1267.8 1344.7,1254.3 1356.1,1260 1333.4,1273 		"/>
		</g>
		<g>
			<polygon opacity="0.2" enable-background="new    " points="1274.2,1258.9 1296.6,1245.3 1308,1251.1 1285.3,1264.1 		"/>
			<polygon fill="#DE6F36" points="1295.7,1269 1284.6,1263.8 1284.6,1245.7 1295.7,1251 		"/>
			<polygon fill="#F58957" points="1318.5,1256 1295.7,1269 1295.7,1250.9 1318.5,1237.9 		"/>
			<polygon fill="#F37E3E" points="1284.6,1245.7 1307.1,1232.2 1318.5,1237.9 1295.7,1250.9 		"/>
		</g>
		<g>
			<polygon opacity="0.2" enable-background="new    " points="1236.5,1236.8 1259,1223.2 1270.4,1229 1247.6,1242 		"/>
			<polygon fill="#DE6F36" points="1258,1246.9 1246.9,1241.7 1246.9,1223.6 1258,1228.8 		"/>
			<polygon fill="#F58957" points="1280.8,1233.9 1258,1246.9 1258,1228.8 1280.8,1215.8 		"/>
			<polygon fill="#F37E3E" points="1246.9,1223.6 1269.4,1210.1 1280.8,1215.8 1258,1228.8 		"/>
		</g>
		<g>
			<polygon opacity="0.2" enable-background="new    " points="1198.8,1214.7 1221.3,1201.1 1232.7,1206.8 1209.9,1219.9 		"/>
			<polygon fill="#DE6F36" points="1220.3,1224.8 1209.3,1219.6 1209.3,1201.5 1220.3,1206.7 		"/>
			<polygon fill="#F58957" points="1243.1,1211.8 1220.3,1224.8 1220.3,1206.7 1243.1,1193.7 		"/>
			<polygon fill="#F37E3E" points="1209.3,1201.5 1231.7,1188 1243.1,1193.7 1220.3,1206.7 		"/>
		</g>
		<g>
			<polygon opacity="0.2" enable-background="new    " points="1281.4,1343.2 1303.9,1329.7 1315.3,1335.4 1292.5,1348.4 		"/>
			<polygon fill="#DE6F36" points="1302.9,1353.4 1291.9,1348.2 1291.9,1330.1 1302.9,1335.3 		"/>
			<polygon fill="#F58957" points="1325.7,1340.3 1302.9,1353.4 1302.9,1335.3 1325.7,1322.2 		"/>
			<polygon fill="#F37E3E" points="1291.9,1330.1 1314.3,1316.5 1325.7,1322.2 1302.9,1335.3 		"/>
		</g>
		<g>
			<polygon opacity="0.2" enable-background="new    " points="1243.8,1321.1 1266.2,1307.6 1277.6,1313.3 1254.8,1326.3 		"/>
			<polygon fill="#DE6F36" points="1265.3,1331.3 1254.2,1326.1 1254.2,1308 1265.3,1313.2 		"/>
			<polygon fill="#F58957" points="1288,1318.2 1265.3,1331.3 1265.3,1313.2 1288,1300.1 		"/>
			<polygon fill="#F37E3E" points="1254.2,1308 1276.7,1294.4 1288,1300.1 1265.3,1313.2 		"/>
		</g>
		<g>
			<polygon opacity="0.2" enable-background="new    " points="1206.1,1299 1228.6,1285.5 1239.9,1291.2 1217.2,1304.2 		"/>
			<polygon fill="#DE6F36" points="1227.6,1309.2 1216.5,1303.9 1216.5,1285.9 1227.6,1291.1 		"/>
			<polygon fill="#F58957" points="1250.4,1296.1 1227.6,1309.1 1227.6,1291.1 1250.4,1278 		"/>
			<polygon fill="#F37E3E" points="1216.5,1285.9 1239,1272.3 1250.4,1278 1227.6,1291.1 		"/>
		</g>
		<g>
			<polygon opacity="0.2" enable-background="new    " points="1168.4,1276.9 1190.9,1263.4 1202.3,1269.1 1179.5,1282.1 		"/>
			<polygon fill="#DE6F36" points="1189.9,1287 1178.8,1281.8 1178.8,1263.7 1189.9,1269 		"/>
			<polygon fill="#F58957" points="1212.7,1274 1189.9,1287 1189.9,1268.9 1212.7,1255.9 		"/>
			<polygon fill="#F37E3E" points="1178.8,1263.7 1201.3,1250.2 1212.7,1255.9 1189.9,1268.9 		"/>
		</g>
		<g>
			<polygon opacity="0.2" enable-background="new    " points="1130.7,1254.8 1153.2,1241.2 1164.6,1247 1141.8,1260 		"/>
			<polygon fill="#DE6F36" points="1152.2,1264.9 1141.2,1259.7 1141.2,1241.6 1152.2,1246.9 		"/>
			<polygon fill="#F58957" points="1175,1251.9 1152.2,1264.9 1152.2,1246.8 1175,1233.8 		"/>
			<polygon fill="#F37E3E" points="1141.2,1241.6 1163.6,1228.1 1175,1233.8 1152.2,1246.8 		"/>
		</g>
		<g>
			<polygon opacity="0.2" enable-background="new    " points="1243.5,1365.7 1266,1352.1 1277.4,1357.8 1254.6,1370.9 		"/>
			<polygon fill="#DE6F36" points="1265,1375.8 1253.9,1370.6 1253.9,1352.5 1265,1357.7 		"/>
			<polygon fill="#F58957" points="1287.8,1362.8 1265,1375.8 1265,1357.7 1287.8,1344.7 		"/>
			<polygon fill="#F37E3E" points="1253.9,1352.5 1276.4,1338.9 1287.8,1344.7 1265,1357.7 		"/>
		</g>
		<g>
			<polygon opacity="0.2" enable-background="new    " points="1205.8,1343.6 1228.3,1330 1239.7,1335.7 1216.9,1348.8 		"/>
			<polygon fill="#DE6F36" points="1227.3,1353.7 1216.3,1348.5 1216.3,1330.4 1227.3,1335.6 		"/>
			<polygon fill="#F58957" points="1250.1,1340.6 1227.3,1353.7 1227.3,1335.6 1250.1,1322.6 		"/>
			<polygon fill="#F37E3E" points="1216.3,1330.4 1238.7,1316.8 1250.1,1322.6 1227.3,1335.6 		"/>
		</g>
		<g>
			<polygon opacity="0.2" enable-background="new    " points="1168.2,1321.5 1190.6,1307.9 1202,1313.6 1179.2,1326.7 		"/>
			<polygon fill="#DE6F36" points="1189.7,1331.6 1178.6,1326.4 1178.6,1308.3 1189.7,1313.5 		"/>
			<polygon fill="#F58957" points="1212.4,1318.5 1189.7,1331.6 1189.7,1313.5 1212.4,1300.5 		"/>
			<polygon fill="#F37E3E" points="1178.6,1308.3 1201,1294.7 1212.4,1300.5 1189.7,1313.5 		"/>
		</g>
		<g>
			<polygon opacity="0.2" enable-background="new    " points="1130.5,1299.4 1153,1285.8 1164.3,1291.5 1141.6,1304.6 		"/>
			<polygon fill="#DE6F36" points="1152,1309.5 1140.9,1304.3 1140.9,1286.2 1152,1291.4 		"/>
			<polygon fill="#F58957" points="1174.8,1296.4 1152,1309.5 1152,1291.4 1174.8,1278.3 		"/>
			<polygon fill="#F37E3E" points="1140.9,1286.2 1163.4,1272.6 1174.8,1278.3 1152,1291.4 		"/>
		</g>
		<g>
			<polygon opacity="0.2" enable-background="new    " points="1092.8,1277.2 1115.3,1263.7 1126.7,1269.4 1103.9,1282.4 		"/>
			<polygon fill="#DE6F36" points="1114.3,1287.4 1103.2,1282.2 1103.2,1264.1 1114.3,1269.3 		"/>
			<polygon fill="#F58957" points="1137.1,1274.3 1114.3,1287.4 1114.3,1269.3 1137.1,1256.2 		"/>
			<polygon fill="#F37E3E" points="1103.2,1264.1 1125.7,1250.5 1137.1,1256.2 1114.3,1269.3 		"/>
		</g>
		<polygon fill="#D6DBE2" points="635.2,1003.8 549.7,953 549.7,882.1 635.2,933 	"/>
		<polygon fill="#EFF1F6" points="788.5,914.7 635.2,1004.6 635.2,933.8 788.5,843.9 	"/>
		<polygon fill="#C8CED4" points="549.7,882.1 699.8,801 788.5,843.9 635.2,933.8 	"/>
		<polygon fill="#CDD2D8" points="646.4,920 575.9,878.1 575.9,819.7 646.4,861.6 	"/>
		<polygon fill="#E5E7EE" points="772.7,846.6 646.4,920.6 646.4,862.3 772.7,788.2 	"/>
		<polygon fill="#2B363D" points="575.9,819.7 699.6,752.8 772.7,788.2 646.4,862.3 	"/>
		<polygon fill="#C1C7CE" points="640.8,833.2 556.9,782.7 564.1,771.6 640.8,817.9 	"/>
		<polygon fill="#E5E7EE" points="776.8,753.1 640.8,833.2 640.8,817.9 778.3,737.4 	"/>
		<polygon fill="#DCE0E8" points="778.3,737.4 640.8,817.9 640.8,802.6 769.9,727 	"/>
		<polygon fill="#C8CED4" points="640.8,817.9 564.1,771.7 577,764.2 640.8,802.6 	"/>
		<polygon fill="#E2E7EE" points="577,764.2 703,694.5 769.9,726.9 640.8,802.6 	"/>
		<polygon fill="#C8CED4" points="577.8,820.8 575.9,819.7 556.9,782.7 559.2,784 	"/>
		<polygon fill="#C8CED4" points="646.4,862.3 645,861.5 639,832.1 640.8,833.2 	"/>
		<polygon fill="#E5E7EE" points="646.4,862.3 647.7,861.5 642.2,832.4 640.8,833.2 	"/>
		<polygon fill="#C8CED4" points="771.1,789.2 772.7,788.2 776.8,753.2 775.2,754.2 	"/>
		<g>
			<ellipse opacity="0.1" enable-background="new    " cx="1304.5" cy="1295.9" rx="12.2" ry="6.4"/>
			<path fill="#4D6777" d="M1317.1,1295.9c0,3.5-4.8,6.4-10.7,6.4c-5.9,0-10.7-2.8-10.7-6.4c0-0.9,0-3.7,0-3.7s6.4-2.7,10.7-2.7
				c4.8,0,10.7,3,10.7,3S1317.1,1295.2,1317.1,1295.9z"/>
			<ellipse fill="#597385" cx="1306.4" cy="1292.6" rx="10.7" ry="6.4"/>
		</g>
		<g>
			<ellipse opacity="0.1" enable-background="new    " cx="1434.2" cy="1314.8" rx="12.2" ry="6.4"/>
			<path fill="#4D6777" d="M1446.8,1314.8c0,3.5-4.8,6.4-10.7,6.4s-10.7-2.8-10.7-6.4c0-0.9,0-3.7,0-3.7s6.4-2.7,10.7-2.7
				c4.8,0,10.7,3,10.7,3S1446.8,1314.2,1446.8,1314.8z"/>
			<ellipse fill="#597385" cx="1436.1" cy="1311.5" rx="10.7" ry="6.4"/>
		</g>
		<g>
			<ellipse opacity="0.1" enable-background="new    " cx="1322.3" cy="1380.6" rx="12.2" ry="6.4"/>
			<path fill="#4D6777" d="M1334.9,1380.6c0,3.5-4.8,6.4-10.7,6.4s-10.7-2.8-10.7-6.4c0-0.9,0-3.7,0-3.7s6.4-2.7,10.7-2.7
				c4.8,0,10.7,3,10.7,3S1334.9,1379.9,1334.9,1380.6z"/>
			<ellipse fill="#597385" cx="1324.2" cy="1377.2" rx="10.7" ry="6.4"/>
		</g>
		<g>
			<ellipse opacity="0.1" enable-background="new    " cx="1230.5" cy="1254.8" rx="12.2" ry="6.4"/>
			<path fill="#4D6777" d="M1243.1,1254.8c0,3.5-4.8,6.4-10.7,6.4s-10.7-2.8-10.7-6.4c0-0.9,0-3.7,0-3.7s6.4-2.7,10.7-2.7
				c4.8,0,10.7,3,10.7,3S1243.1,1254.1,1243.1,1254.8z"/>
			<ellipse fill="#597385" cx="1232.4" cy="1251.5" rx="10.7" ry="6.4"/>
		</g>
		<g>
			<ellipse opacity="0.1" enable-background="new    " cx="1052" cy="1222.2" rx="30.7" ry="16.1"/>
			<path fill="#4D6777" d="M1083.8,1222.2c0,8.9-12.1,16.1-27.1,16.1s-27.1-7.2-27.1-16.1c0-2.4,0.1-9.3,0.1-9.3s16.1-6.7,27-6.7
				c12,0,27.1,7.6,27.1,7.6S1083.8,1220.5,1083.8,1222.2z"/>
			<ellipse fill="#597385" cx="1056.8" cy="1213.7" rx="27.1" ry="16.1"/>
		</g>
		<g>
			<polygon opacity="0.2" enable-background="new    " points="1075.9,1098.5 1098.4,1085 1109.7,1090.7 1087,1103.7 		"/>
			<polygon fill="#DE6F36" points="1097.4,1108.7 1086.3,1103.5 1086.3,1085.4 1097.4,1090.6 		"/>
			<polygon fill="#F58957" points="1120.2,1095.6 1097.4,1108.7 1097.4,1090.6 1120.2,1077.5 		"/>
			<polygon fill="#F37E3E" points="1086.3,1085.4 1108.8,1071.8 1120.2,1077.5 1097.4,1090.6 		"/>
		</g>
		<g>
			<polygon opacity="0.2" enable-background="new    " points="1038.2,1076.4 1060.7,1062.9 1072.1,1068.6 1049.3,1081.6 		"/>
			<polygon fill="#DE6F36" points="1059.7,1086.6 1048.6,1081.4 1048.6,1063.3 1059.7,1068.5 		"/>
			<polygon fill="#F58957" points="1082.5,1073.5 1059.7,1086.6 1059.7,1068.5 1082.5,1055.4 		"/>
			<polygon fill="#F37E3E" points="1048.6,1063.3 1071.1,1049.7 1082.5,1055.4 1059.7,1068.5 		"/>
		</g>
		<g>
			<polygon opacity="0.2" enable-background="new    " points="1000.5,1054.3 1023,1040.8 1034.4,1046.5 1011.6,1059.5 		"/>
			<polygon fill="#DE6F36" points="1022,1064.5 1011,1059.2 1011,1041.2 1022,1046.4 		"/>
			<polygon fill="#F58957" points="1044.8,1051.4 1022,1064.4 1022,1046.4 1044.8,1033.3 		"/>
			<polygon fill="#F37E3E" points="1011,1041.2 1033.4,1027.6 1044.8,1033.3 1022,1046.4 		"/>
		</g>
		<g>
			<polygon opacity="0.2" enable-background="new    " points="962.9,1032.2 985.3,1018.7 996.7,1024.4 973.9,1037.4 		"/>
			<polygon fill="#DE6F36" points="984.4,1042.4 973.3,1037.1 973.3,1019.1 984.4,1024.3 		"/>
			<polygon fill="#F58957" points="1007.1,1029.3 984.4,1042.3 984.4,1024.3 1007.1,1011.2 		"/>
			<polygon fill="#F37E3E" points="973.3,1019.1 995.8,1005.5 1007.1,1011.2 984.4,1024.3 		"/>
		</g>
		<g>
			<polygon opacity="0.2" enable-background="new    " points="925.2,1010.1 947.7,996.6 959.1,1002.3 936.3,1015.3 		"/>
			<polygon fill="#DE6F36" points="946.7,1020.2 935.6,1015 935.6,996.9 946.7,1002.2 		"/>
			<polygon fill="#F58957" points="969.5,1007.2 946.7,1020.2 946.7,1002.1 969.5,989.1 		"/>
			<polygon fill="#F37E3E" points="935.6,996.9 958.1,983.4 969.5,989.1 946.7,1002.1 		"/>
		</g>
		<g>
			<polygon opacity="0.2" enable-background="new    " points="1037.9,1121 1060.4,1107.4 1071.8,1113.1 1049,1126.2 		"/>
			<polygon fill="#DE6F36" points="1059.5,1131.1 1048.4,1125.9 1048.4,1107.8 1059.5,1113 		"/>
			<polygon fill="#F58957" points="1082.2,1118.1 1059.5,1131.1 1059.5,1113 1082.2,1100 		"/>
			<polygon fill="#F37E3E" points="1048.4,1107.8 1070.8,1094.3 1082.2,1100 1059.5,1113 		"/>
		</g>
		<g>
			<polygon opacity="0.2" enable-background="new    " points="1000.3,1098.9 1022.7,1085.3 1034.1,1091 1011.4,1104.1 		"/>
			<polygon fill="#DE6F36" points="1021.8,1109 1010.7,1103.8 1010.7,1085.7 1021.8,1090.9 		"/>
			<polygon fill="#F58957" points="1044.6,1096 1021.8,1109 1021.8,1090.9 1044.6,1077.9 		"/>
			<polygon fill="#F37E3E" points="1010.7,1085.7 1033.2,1072.1 1044.6,1077.9 1021.8,1090.9 		"/>
		</g>
		<g>
			<polygon opacity="0.2" enable-background="new    " points="962.6,1076.8 985.1,1063.2 996.5,1068.9 973.7,1082 		"/>
			<polygon fill="#DE6F36" points="984.1,1086.9 973,1081.7 973,1063.6 984.1,1068.8 		"/>
			<polygon fill="#F58957" points="1006.9,1073.8 984.1,1086.9 984.1,1068.8 1006.9,1055.8 		"/>
			<polygon fill="#F37E3E" points="973,1063.6 995.5,1050 1006.9,1055.8 984.1,1068.8 		"/>
		</g>
		<g>
			<polygon opacity="0.2" enable-background="new    " points="924.9,1054.7 947.4,1041.1 958.8,1046.8 936,1059.9 		"/>
			<polygon fill="#DE6F36" points="946.4,1064.8 935.4,1059.6 935.4,1041.5 946.4,1046.7 		"/>
			<polygon fill="#F58957" points="969.2,1051.7 946.4,1064.8 946.4,1046.7 969.2,1033.7 		"/>
			<polygon fill="#F37E3E" points="935.4,1041.5 957.8,1027.9 969.2,1033.7 946.4,1046.7 		"/>
		</g>
		<g>
			<polygon opacity="0.2" enable-background="new    " points="887.3,1032.6 909.7,1019 921.1,1024.7 898.3,1037.8 		"/>
			<polygon fill="#DE6F36" points="908.8,1042.7 897.7,1037.5 897.7,1019.4 908.8,1024.6 		"/>
			<polygon fill="#F58957" points="931.5,1029.6 908.8,1042.7 908.8,1024.6 931.5,1011.5 		"/>
			<polygon fill="#F37E3E" points="897.7,1019.4 920.2,1005.8 931.5,1011.5 908.8,1024.6 		"/>
		</g>
		<g>
			<polygon opacity="0.2" enable-background="new    " points="969.9,1161.1 992.3,1147.5 1003.7,1153.3 980.9,1166.3 		"/>
			<polygon fill="#DE6F36" points="991.4,1171.2 980.3,1166 980.3,1147.9 991.4,1153.2 		"/>
			<polygon fill="#F58957" points="1014.1,1158.2 991.4,1171.2 991.4,1153.1 1014.1,1140.1 		"/>
			<polygon fill="#F37E3E" points="980.3,1147.9 1002.7,1134.4 1014.1,1140.1 991.4,1153.1 		"/>
		</g>
		<g>
			<polygon opacity="0.2" enable-background="new    " points="932.2,1139 954.7,1125.4 966,1131.2 943.3,1144.2 		"/>
			<polygon fill="#DE6F36" points="953.7,1149.1 942.6,1143.9 942.6,1125.8 953.7,1131 		"/>
			<polygon fill="#F58957" points="976.5,1136.1 953.7,1149.1 953.7,1131 976.5,1118 		"/>
			<polygon fill="#F37E3E" points="942.6,1125.8 965.1,1112.3 976.5,1118 953.7,1131 		"/>
		</g>
		<g>
			<polygon opacity="0.2" enable-background="new    " points="894.5,1116.9 917,1103.3 928.4,1109.1 905.6,1122.1 		"/>
			<polygon fill="#DE6F36" points="916,1127 904.9,1121.8 904.9,1103.7 916,1108.9 		"/>
			<polygon fill="#F58957" points="938.8,1114 916,1127 916,1108.9 938.8,1095.9 		"/>
			<polygon fill="#F37E3E" points="904.9,1103.7 927.4,1090.2 938.8,1095.9 916,1108.9 		"/>
		</g>
		<g>
			<polygon opacity="0.2" enable-background="new    " points="856.8,1094.8 879.3,1081.2 890.7,1086.9 867.9,1100 		"/>
			<polygon fill="#DE6F36" points="878.3,1104.9 867.3,1099.7 867.3,1081.6 878.3,1086.8 		"/>
			<polygon fill="#F58957" points="901.1,1091.9 878.3,1104.9 878.3,1086.8 901.1,1073.8 		"/>
			<polygon fill="#F37E3E" points="867.3,1081.6 889.7,1068.1 901.1,1073.8 878.3,1086.8 		"/>
		</g>
		<g>
			<polygon opacity="0.2" enable-background="new    " points="819.2,1072.7 841.6,1059.1 853,1064.8 830.2,1077.9 		"/>
			<polygon fill="#DE6F36" points="840.7,1082.8 829.6,1077.6 829.6,1059.5 840.7,1064.7 		"/>
			<polygon fill="#F58957" points="863.4,1069.8 840.7,1082.8 840.7,1064.7 863.4,1051.7 		"/>
			<polygon fill="#F37E3E" points="829.6,1059.5 852.1,1045.9 863.4,1051.7 840.7,1064.7 		"/>
		</g>
		<g>
			<polygon opacity="0.2" enable-background="new    " points="931.9,1183.5 954.4,1170 965.8,1175.7 943,1188.7 		"/>
			<polygon fill="#DE6F36" points="953.4,1193.7 942.3,1188.5 942.3,1170.4 953.4,1175.6 		"/>
			<polygon fill="#F58957" points="976.2,1180.6 953.4,1193.7 953.4,1175.6 976.2,1162.5 		"/>
			<polygon fill="#F37E3E" points="942.3,1170.4 964.8,1156.8 976.2,1162.5 953.4,1175.6 		"/>
		</g>
		<g>
			<polygon opacity="0.2" enable-background="new    " points="894.3,1161.4 916.7,1147.9 928.1,1153.6 905.3,1166.6 		"/>
			<polygon fill="#DE6F36" points="915.8,1171.6 904.7,1166.4 904.7,1148.3 915.8,1153.5 		"/>
			<polygon fill="#F58957" points="938.5,1158.5 915.8,1171.6 915.8,1153.5 938.5,1140.4 		"/>
			<polygon fill="#F37E3E" points="904.7,1148.3 927.1,1134.7 938.5,1140.4 915.8,1153.5 		"/>
		</g>
		<g>
			<polygon opacity="0.2" enable-background="new    " points="856.6,1139.3 879,1125.8 890.4,1131.5 867.7,1144.5 		"/>
			<polygon fill="#DE6F36" points="878.1,1149.5 867,1144.3 867,1126.2 878.1,1131.4 		"/>
			<polygon fill="#F58957" points="900.9,1136.4 878.1,1149.5 878.1,1131.4 900.9,1118.3 		"/>
			<polygon fill="#F37E3E" points="867,1126.2 889.5,1112.6 900.9,1118.3 878.1,1131.4 		"/>
		</g>
		<g>
			<polygon opacity="0.2" enable-background="new    " points="818.9,1117.2 841.4,1103.7 852.8,1109.4 830,1122.4 		"/>
			<polygon fill="#DE6F36" points="840.4,1127.4 829.3,1122.1 829.3,1104.1 840.4,1109.3 		"/>
			<polygon fill="#F58957" points="863.2,1114.3 840.4,1127.3 840.4,1109.3 863.2,1096.2 		"/>
			<polygon fill="#F37E3E" points="829.3,1104.1 851.8,1090.5 863.2,1096.2 840.4,1109.3 		"/>
		</g>
		<g>
			<polygon opacity="0.2" enable-background="new    " points="781.2,1095.1 803.7,1081.6 815.1,1087.3 792.3,1100.3 		"/>
			<polygon fill="#DE6F36" points="802.7,1105.2 791.7,1100 791.7,1081.9 802.7,1087.2 		"/>
			<polygon fill="#F58957" points="825.5,1092.2 802.7,1105.2 802.7,1087.1 825.5,1074.1 		"/>
			<polygon fill="#F37E3E" points="791.7,1081.9 814.1,1068.4 825.5,1074.1 802.7,1087.1 		"/>
		</g>
		<g>
			<ellipse opacity="0.1" enable-background="new    " cx="994.6" cy="1114.7" rx="12.2" ry="6.4"/>
			<path fill="#4D6777" d="M1007.2,1114.7c0,3.5-4.8,6.4-10.7,6.4c-5.9,0-10.7-2.8-10.7-6.4c0-0.9,0-3.7,0-3.7s6.4-2.7,10.7-2.7
				c4.8,0,10.7,3,10.7,3S1007.2,1114,1007.2,1114.7z"/>
			<ellipse fill="#597385" cx="996.5" cy="1111.4" rx="10.7" ry="6.4"/>
		</g>
		<g>
			<ellipse opacity="0.1" enable-background="new    " cx="917.1" cy="1072.7" rx="12.2" ry="6.4"/>
			<path fill="#4D6777" d="M929.7,1072.7c0,3.5-4.8,6.4-10.7,6.4s-10.7-2.8-10.7-6.4c0-0.9,0-3.7,0-3.7s6.4-2.7,10.7-2.7
				c4.8,0,10.7,3,10.7,3S929.7,1072,929.7,1072.7z"/>
			<ellipse fill="#597385" cx="919" cy="1069.3" rx="10.7" ry="6.4"/>
		</g>
		<g>
			<ellipse opacity="5.000000e-02" enable-background="new    " cx="1054.5" cy="1213.5" rx="16.7" ry="8.7"/>
			<path fill="#4D6B79" d="M1071.8,1213.5c0,4.8-6.6,8.7-14.7,8.7s-14.7-3.9-14.7-8.7c0-1.3,0-5.1,0-5.1s8.7-3.6,14.7-3.6
				c6.5,0,14.7,4.1,14.7,4.1S1071.8,1212.5,1071.8,1213.5z"/>
			<ellipse fill="#6F90A6" cx="1057.1" cy="1208.9" rx="14.7" ry="8.7"/>
		</g>
		<g>
			<ellipse opacity="0.1" enable-background="new    " cx="1107.7" cy="1186.3" rx="30.7" ry="16.1"/>
			<path fill="#4D6777" d="M1139.5,1186.3c0,8.9-12.1,16.1-27.1,16.1c-14.9,0-27.1-7.2-27.1-16.1c0-2.4,0.1-9.3,0.1-9.3
				s16.1-6.7,27-6.7c12,0,27.1,7.6,27.1,7.6S1139.5,1184.5,1139.5,1186.3z"/>
			<ellipse fill="#597385" cx="1112.5" cy="1177.8" rx="27.1" ry="16.1"/>
		</g>
		<g>
			<ellipse opacity="5.000000e-02" enable-background="new    " cx="1110.2" cy="1177.6" rx="16.7" ry="8.7"/>
			<path fill="#4D6B79" d="M1127.5,1177.6c0,4.8-6.6,8.7-14.7,8.7s-14.7-3.9-14.7-8.7c0-1.3,0-5.1,0-5.1s8.7-3.6,14.7-3.6
				c6.5,0,14.7,4.1,14.7,4.1S1127.5,1176.6,1127.5,1177.6z"/>
			<ellipse fill="#6F90A6" cx="1112.8" cy="1173" rx="14.7" ry="8.7"/>
		</g>
		<g>
			<ellipse opacity="0.1" enable-background="new    " cx="1161.9" cy="1150" rx="30.7" ry="16.1"/>
			<path fill="#4D6777" d="M1193.7,1150c0,8.9-12.1,16.1-27.1,16.1s-27.1-7.2-27.1-16.1c0-2.4,0.1-9.3,0.1-9.3s16.1-6.7,27-6.7
				c12,0,27.1,7.6,27.1,7.6S1193.7,1148.2,1193.7,1150z"/>
			<ellipse fill="#597385" cx="1166.6" cy="1141.5" rx="27.1" ry="16.1"/>
		</g>
		<g>
			<ellipse opacity="5.000000e-02" enable-background="new    " cx="1164.4" cy="1141.3" rx="16.7" ry="8.7"/>
			<path fill="#4D6B79" d="M1181.7,1141.3c0,4.8-6.6,8.7-14.7,8.7s-14.7-3.9-14.7-8.7c0-1.3,0-5.1,0-5.1s8.7-3.6,14.7-3.6
				c6.5,0,14.7,4.1,14.7,4.1S1181.7,1140.3,1181.7,1141.3z"/>
			<ellipse fill="#6F90A6" cx="1167" cy="1136.7" rx="14.7" ry="8.7"/>
		</g>
		<polygon fill="#CBD3DE" points="677.1,934.9 661.1,944.3 661.1,936.9 677.1,927.5 	"/>
		<polygon fill="#CBD3DE" points="677.1,950.7 661.1,960.1 661.1,952.7 677.1,943.2 	"/>
		<polygon fill="#CBD3DE" points="677.1,966.4 661.1,975.9 661.1,968.4 677.1,959 	"/>
		<polygon fill="#CBD3DE" points="690.4,854.7 674.3,864.1 674.3,856.6 690.4,847.2 	"/>
		<polygon fill="#CBD3DE" points="690.4,870.4 674.3,879.8 674.3,872.4 690.4,863 	"/>
		<polygon fill="#CBD3DE" points="690.4,886.2 674.3,895.6 674.3,888.2 690.4,878.8 	"/>
		<polygon fill="#CBD3DE" points="744.9,822 728.8,831.5 728.8,824 744.9,814.6 	"/>
		<polygon fill="#CBD3DE" points="744.9,837.8 728.8,847.2 728.8,839.8 744.9,830.4 	"/>
		<polygon fill="#CBD3DE" points="744.9,853.6 728.8,863 728.8,855.6 744.9,846.1 	"/>
		<polygon fill="#CBD3DE" points="727.2,908.4 711.1,917.8 711.1,910.3 727.2,900.9 	"/>
		<polygon fill="#CBD3DE" points="727.2,924.1 711.1,933.5 711.1,926.1 727.2,916.7 	"/>
		<polygon fill="#CBD3DE" points="727.2,939.9 711.1,949.3 711.1,941.9 727.2,932.5 	"/>
		<polygon fill="#CBD3DE" points="772.7,884.2 756.7,893.6 756.7,886.2 772.7,876.7 	"/>
		<polygon fill="#CBD3DE" points="772.7,899.9 756.7,909.4 756.7,901.9 772.7,892.5 	"/>
		<polygon fill="#CBD3DE" points="772.7,915.7 756.7,925.1 756.7,917.7 772.7,908.3 	"/>
		<polygon opacity="0.29" fill="#26C2E7" enable-background="new    " points="642.2,832.4 775.2,754.2 771.1,789.2 647.7,861.5 	"/>
		<polygon opacity="0.29" fill="#26C2E7" enable-background="new    " points="559.2,784 639,832.1 645,861.5 577.8,820.8 	"/>
	</g>
</svg>