<?xml version="1.0" standalone="no"?>
<!DOCTYPE svg PUBLIC "-//W3C//DTD SVG 20010904//EN"
 "http://www.w3.org/TR/2001/REC-SVG-20010904/DTD/svg10.dtd">
<svg version="1.0" xmlns="http://www.w3.org/2000/svg"
 width="1105.000000pt" height="908.000000pt" viewBox="0 0 1105.000000 908.000000"
 preserveAspectRatio="xMidYMid meet">

<g transform="translate(0.000000,908.000000) scale(0.100000,-0.100000)"
fill="#e95224" stroke="none">
<path d="M5060 9069 c-792 -49 -1621 -339 -2285 -798 -460 -318 -862 -724
-1178 -1188 l-56 -83 87 1 87 0 82 112 c45 62 90 122 100 132 10 11 52 61 93
110 87 106 363 386 457 465 36 30 71 60 77 65 35 32 102 75 118 75 9 0 64 -29
122 -64 57 -36 156 -92 220 -126 77 -41 116 -67 116 -78 0 -10 -22 -43 -50
-75 -79 -93 -202 -254 -274 -361 -68 -100 -156 -247 -156 -260 0 -4 35 -6 77
-4 l77 3 38 55 c21 30 44 62 51 70 7 8 27 36 44 63 18 26 37 53 43 60 6 6 24
30 40 52 16 22 33 45 37 50 13 17 107 130 113 135 3 3 30 33 59 68 30 34 61
62 69 62 15 0 184 -60 352 -125 47 -18 159 -57 248 -86 l164 -54 -6 -33 c-3
-18 -30 -86 -60 -152 -30 -65 -58 -130 -62 -145 l-6 -26 78 3 79 3 25 50 c14
28 47 97 74 153 27 56 52 102 56 102 4 0 65 -11 136 -24 275 -52 513 -80 771
-92 78 -4 147 -11 154 -15 8 -4 15 -39 18 -86 l6 -78 49 -6 c26 -3 61 -3 76
-1 27 4 28 5 32 82 1 43 5 81 8 84 3 3 75 10 160 16 293 20 567 56 772 101 53
12 103 19 111 16 8 -3 46 -71 86 -151 l71 -146 80 0 c44 0 80 2 80 5 0 7 -27
73 -78 186 -27 60 -57 158 -50 164 2 2 28 10 58 18 83 22 439 148 570 201 63
25 124 46 135 46 44 0 257 -257 468 -564 16 -22 36 -47 45 -53 16 -13 100 -16
140 -5 22 7 22 9 -30 88 -29 45 -75 117 -103 160 -27 43 -62 90 -77 106 -15
16 -29 37 -33 47 -3 10 -16 30 -29 42 -12 13 -49 57 -82 98 -32 41 -68 86 -80
100 -12 14 -24 38 -28 54 -7 30 -15 24 135 107 44 25 121 71 171 103 49 32
103 60 119 64 34 7 81 -26 227 -158 17 -16 32 -28 32 -25 0 2 30 -27 66 -65
37 -38 71 -66 76 -63 5 3 7 0 6 -8 -2 -7 3 -12 10 -10 8 1 11 -1 8 -6 -7 -12
48 -64 59 -55 4 5 5 3 2 -3 -4 -6 29 -46 72 -88 43 -42 77 -76 74 -76 -2 0 25
-33 59 -72 35 -40 87 -107 117 -148 112 -154 134 -181 141 -170 5 8 9 7 13 -4
5 -12 21 -16 69 -16 35 0 69 4 76 9 10 6 -13 44 -88 149 -56 78 -105 142 -111
142 -5 0 -9 5 -9 11 0 6 -15 28 -32 49 -18 21 -51 59 -73 86 -188 228 -505
529 -740 704 -22 16 -45 33 -50 37 -292 222 -625 408 -1010 564 -622 250
-1319 361 -2005 318z m705 -165 c157 -14 377 -47 503 -74 45 -10 52 -15 52
-35 0 -19 -17 -34 -82 -73 -446 -268 -1101 -307 -1581 -95 -42 19 -82 31 -89
27 -7 -4 -8 -3 -4 4 4 7 -4 17 -21 24 -15 7 -54 30 -85 51 -43 29 -58 45 -58
62 0 20 7 25 53 35 119 26 351 61 487 74 206 19 617 20 825 0z m879 -175 c385
-111 690 -248 1071 -482 134 -83 200 -132 203 -153 3 -22 -13 -35 -128 -97
-30 -16 -70 -40 -90 -52 -87 -55 -170 -95 -197 -95 -23 0 -46 17 -109 78 -83
82 -218 203 -294 262 -24 19 -58 47 -75 61 -102 86 -360 264 -493 339 -65 37
-78 64 -49 101 11 15 76 59 86 59 2 0 36 -9 75 -21z m-2423 -26 c55 -42 64
-74 27 -94 -28 -15 -201 -126 -283 -182 -168 -114 -381 -281 -525 -413 -25
-23 -67 -61 -94 -85 -27 -24 -61 -57 -75 -72 -32 -36 -57 -31 -171 33 -47 26
-112 62 -145 80 -155 85 -165 94 -145 130 10 18 113 97 170 130 15 8 72 41
128 74 59 33 99 62 95 69 -3 6 -1 7 5 3 6 -4 64 20 129 53 183 92 406 189 553
238 41 14 84 30 95 36 28 15 113 35 154 36 24 1 47 -9 82 -36z m2159 -210
c162 -83 289 -165 480 -309 246 -185 450 -372 450 -412 0 -25 -8 -29 -215
-112 -169 -67 -497 -164 -508 -149 -2 2 -27 45 -56 94 -128 223 -382 616 -473
733 -70 90 -68 95 77 158 75 33 127 51 140 47 11 -3 58 -25 105 -50z m-1779
-9 l108 -46 -6 -31 c-4 -17 -33 -65 -66 -107 -104 -131 -293 -426 -446 -697
-28 -50 -60 -94 -69 -98 -31 -9 -338 88 -594 188 -137 53 -139 59 -30 161 90
86 220 199 277 241 22 17 46 36 54 43 55 53 334 242 491 334 89 52 121 66 144
63 15 -3 77 -26 137 -51z m504 -137 l170 -22 7 -55 c10 -88 9 -893 -2 -910
-13 -22 -280 -16 -485 10 -204 26 -399 58 -447 72 -68 20 -56 54 111 323 34
55 68 109 74 120 7 11 14 22 17 25 5 5 56 79 110 160 26 39 38 56 115 155 25
33 60 79 78 102 38 50 26 49 252 20z m802 -79 c89 -114 128 -169 242 -338 108
-159 273 -450 266 -468 -3 -8 -8 -12 -11 -9 -3 2 -29 -1 -57 -9 -66 -18 -248
-49 -397 -68 -154 -20 -479 -41 -488 -32 -4 4 -8 226 -10 492 -3 395 -1 484
10 485 7 0 78 11 158 24 219 35 194 42 287 -77z"/>
<path d="M8705 6599 c-363 -17 -659 -92 -1030 -262 -170 -77 -294 -168 -441
-319 -215 -223 -378 -527 -435 -813 -79 -395 -94 -804 -44 -1138 43 -286 150
-575 288 -782 55 -82 142 -191 195 -245 63 -63 264 -211 280 -205 7 3 11 1 8
-3 -3 -5 18 -23 47 -40 64 -39 303 -157 337 -167 14 -4 52 -17 85 -30 124 -49
460 -125 484 -111 5 3 11 2 13 -3 1 -5 71 -15 153 -21 336 -28 739 17 1065
119 212 66 375 134 365 151 -3 5 0 12 6 16 8 4 9 3 5 -4 -12 -19 3 -14 72 24
100 55 262 181 357 279 176 181 330 488 414 825 144 582 87 1238 -155 1767
-44 97 -142 237 -244 347 -65 70 -347 286 -374 286 -3 0 -28 14 -56 31 -73 45
-249 122 -375 163 -331 110 -650 152 -1020 135z m368 -1015 c117 -24 212 -70
277 -133 31 -31 69 -79 83 -106 27 -54 69 -215 87 -335 18 -118 24 -608 11
-819 -23 -355 -56 -467 -173 -583 -37 -38 -71 -67 -75 -66 -5 1 -29 -7 -54
-19 -62 -28 -206 -60 -304 -68 -134 -11 -319 22 -430 76 -120 59 -180 137
-224 290 -57 196 -66 287 -66 669 0 625 34 817 167 948 29 29 62 58 73 66 51
34 242 88 360 99 60 6 191 -3 268 -19z"/>
<path d="M4140 6594 c-14 -2 -65 -9 -115 -15 -417 -51 -813 -260 -1002 -530
-140 -200 -203 -418 -203 -706 0 -239 23 -342 117 -528 104 -206 350 -432 612
-565 111 -56 338 -136 486 -172 22 -5 49 -14 60 -18 11 -5 36 -13 55 -18 19
-5 134 -40 255 -77 361 -110 545 -165 635 -191 156 -45 264 -92 304 -131 30
-30 36 -43 36 -79 0 -57 -39 -97 -118 -119 -132 -39 -192 -47 -387 -52 -178
-5 -213 -3 -313 16 -397 76 -722 273 -874 529 l-43 72 -397 0 -398 0 0 -735 0
-735 440 0 440 0 0 135 c0 160 -4 157 115 89 240 -137 523 -233 825 -278 471
-72 888 -22 1248 149 255 122 427 287 559 535 129 242 165 558 97 835 -8 33
-19 69 -24 80 -4 11 -16 42 -26 68 -16 45 -117 225 -132 237 -4 3 -21 23 -37
45 -95 128 -275 282 -440 378 -147 86 -184 99 -755 263 -69 20 -168 49 -220
64 -243 71 -346 101 -480 140 -332 95 -386 120 -414 190 -21 53 -20 75 5 119
44 79 137 111 324 111 226 -1 408 -28 605 -92 280 -90 506 -243 648 -440 l34
-48 409 0 409 0 0 685 0 685 -425 0 -425 0 0 -110 0 -110 -29 0 c-25 0 -91 31
-171 80 -8 5 -61 32 -118 60 -154 77 -334 127 -592 165 -99 15 -523 29 -580
19z"/>
<path d="M50 6070 l0 -490 295 0 295 0 -2 -1032 -3 -1033 -292 -3 -293 -2 0
-485 0 -485 1275 0 1275 0 0 485 0 485 -295 0 -295 0 2 1033 3 1032 299 3 299
2 -7 62 c-3 33 -6 254 -6 489 l0 429 -1275 0 -1275 0 0 -490z"/>
<path d="M1560 2099 c0 -11 55 -95 134 -204 172 -238 468 -559 700 -758 157
-136 272 -227 284 -227 5 0 15 -6 21 -14 39 -47 558 -366 595 -366 9 0 16 -4
16 -8 0 -8 210 -112 224 -112 2 0 33 -13 68 -29 85 -40 278 -111 418 -154 481
-149 870 -207 1375 -207 138 1 264 2 280 4 17 2 66 7 110 10 299 25 648 91
955 183 47 14 94 29 105 33 11 5 67 25 125 45 289 103 641 280 914 460 171
113 313 216 371 268 11 11 46 39 78 64 32 25 54 49 51 55 -4 6 -3 8 2 5 10 -6
225 199 355 338 166 177 482 601 458 615 -5 4 -42 7 -82 8 l-72 3 -51 -73
c-44 -63 -168 -223 -184 -238 -3 -3 -21 -25 -40 -50 -51 -66 -84 -103 -195
-218 -152 -158 -165 -172 -245 -242 -41 -36 -95 -84 -121 -107 -35 -33 -54
-43 -81 -43 -18 0 -38 4 -44 9 -5 4 -34 22 -64 38 -30 16 -124 69 -207 117
-164 94 -178 110 -132 152 12 10 66 75 121 144 118 149 106 133 148 195 18 28
37 52 40 55 7 5 127 197 149 238 12 22 11 22 -73 22 l-84 0 -23 -37 c-73 -119
-367 -501 -436 -566 l-30 -28 -244 92 c-134 50 -307 112 -384 137 -77 25 -142
47 -144 48 -5 4 49 144 69 179 18 30 60 147 60 165 0 6 -32 10 -75 10 l-75 0
-76 -155 c-52 -105 -82 -155 -93 -155 -9 0 -36 5 -61 11 -217 50 -592 98 -960
122 l-35 2 -2 55 c-2 30 -5 70 -8 88 l-6 32 -74 0 -75 0 0 -84 c0 -47 -4 -88
-10 -91 -5 -3 -49 -8 -97 -11 -219 -11 -650 -65 -873 -108 -58 -11 -78 -12
-87 -3 -7 7 -42 71 -79 142 -36 72 -71 136 -76 143 -7 7 -37 12 -83 12 -88 0
-89 12 1 -182 35 -76 64 -145 66 -154 2 -14 -44 -33 -252 -104 -140 -47 -307
-108 -370 -134 -63 -27 -131 -51 -150 -53 -33 -4 -39 0 -105 78 -38 45 -74 87
-80 93 -56 63 -167 210 -256 340 l-75 111 -82 3 c-45 2 -82 0 -82 -4 0 -8 94
-164 125 -209 64 -91 174 -235 263 -345 99 -121 116 -156 90 -178 -19 -14
-306 -182 -350 -204 -20 -10 -40 -22 -43 -28 -13 -21 -71 -10 -106 19 -19 15
-68 56 -109 90 -119 99 -359 339 -480 482 -25 29 -89 111 -143 183 -164 219
-137 196 -228 196 -49 0 -79 -4 -79 -11z m3750 -833 l0 -494 -87 -12 c-49 -6
-115 -16 -148 -22 -33 -6 -81 -13 -106 -15 -43 -4 -48 -3 -70 29 -13 18 -26
35 -29 38 -11 9 -176 235 -227 310 -56 83 -233 369 -233 377 0 2 -16 32 -36
65 -50 86 -46 97 46 119 205 50 549 91 813 97 l77 2 0 -494z m410 484 c313
-22 726 -87 737 -117 12 -31 -254 -470 -422 -698 -28 -38 -75 -103 -105 -143
-50 -68 -55 -72 -92 -72 -21 0 -71 6 -111 14 -40 8 -106 17 -147 21 -42 3 -82
10 -89 15 -11 6 -15 94 -19 453 -2 245 -1 466 2 491 l7 46 47 0 c26 0 112 -5
192 -10z m-1565 -156 c9 -4 25 -25 36 -47 82 -159 282 -477 458 -726 56 -80
100 -149 98 -155 -3 -9 -26 -20 -211 -97 l-70 -28 -80 43 c-45 25 -98 56 -119
70 -21 14 -40 26 -42 26 -8 0 -269 179 -336 230 -92 71 -232 188 -295 245 -6
6 -43 39 -82 74 -58 52 -72 70 -72 93 0 26 7 32 68 59 111 51 298 119 462 170
174 54 163 51 185 43z m2617 -33 c147 -38 326 -99 458 -154 138 -58 139 -63
28 -169 -161 -155 -282 -257 -431 -364 -56 -40 -120 -86 -142 -101 -49 -36
-259 -163 -269 -163 -3 0 -24 -11 -46 -25 -22 -14 -53 -25 -69 -25 -17 0 -79
20 -138 44 -103 43 -108 46 -107 74 1 19 33 71 96 158 109 149 228 329 228
343 0 5 4 11 8 13 9 3 89 134 177 291 39 68 66 107 77 107 9 0 68 -13 130 -29z
m-3386 -417 c156 -147 169 -158 234 -210 86 -68 173 -137 206 -161 16 -12 52
-38 79 -59 58 -44 274 -186 326 -213 76 -41 77 -84 3 -127 -45 -26 -49 -27
-105 -15 -64 13 -351 111 -466 160 -100 42 -315 145 -393 189 -36 20 -67 37
-70 37 -3 0 -16 8 -30 16 -14 9 -93 60 -177 113 -129 83 -153 101 -158 127 -4
17 -5 32 -3 34 6 6 254 149 306 177 51 27 110 48 123 45 4 -1 60 -52 125 -113z
m4286 58 c57 -32 128 -72 158 -89 158 -87 163 -97 73 -166 -100 -75 -368 -232
-543 -318 -212 -103 -303 -141 -490 -204 -212 -72 -258 -82 -296 -62 -37 19
-84 66 -84 83 0 8 80 68 178 133 163 110 370 257 382 270 3 3 37 33 75 66 39
33 93 81 120 106 28 26 72 67 99 90 27 24 74 67 105 96 74 70 91 69 223 -5z
m-1976 -616 c233 -39 402 -100 592 -214 64 -39 73 -47 70 -70 -4 -32 -11 -34
-248 -72 -302 -47 -394 -54 -715 -54 -355 0 -493 13 -828 75 -119 22 -145 36
-132 71 6 15 97 70 200 121 147 73 379 137 570 157 110 12 381 4 491 -14z"/>
</g>
</svg>
