<?xml version="1.0" encoding="utf-8"?>
<!-- Generator: Adobe Illustrator 21.0.0, SVG Export Plug-In . SVG Version: 6.00 Build 0)  -->
<svg version="1.1" id="Layer_1" xmlns="http://www.w3.org/2000/svg" xmlns:xlink="http://www.w3.org/1999/xlink" x="0px" y="0px"
	 viewBox="0 0 419 512" style="enable-background:new 0 0 419 512;" xml:space="preserve">
<g>
	<g>
		<path fill="#e95224" d="M384,0H35C15.2,0,0,15.1,0,34.9C0,50,9.3,62.8,23.3,67.5v86.1C9.3,158.3,0,171.1,0,186.2s9.3,27.9,23.3,32.6v74.5
			C9.3,298,0,310.8,0,325.9s9.3,27.9,23.3,32.6v48.9c0,7,4.7,11.6,11.6,11.6s11.6-4.7,11.6-11.6v-46.5h93.1c7,0,11.6-4.7,11.6-11.6
			c0-7-4.7-11.6-11.6-11.6H35c-7,0-11.6-4.7-11.6-11.6s4.7-11.6,11.6-11.6h69.8c7,0,11.6-4.7,11.6-11.6s-4.7-11.6-11.6-11.6H46.6
			v-69.8h46.5c7,0,11.6-4.7,11.6-11.6c0-7-4.7-11.6-11.6-11.6H35c-7,0-11.6-4.7-11.6-11.6s4.7-11.6,11.6-11.6h104.7
			c7,0,11.6-4.7,11.6-11.6c0-7-4.7-11.6-11.6-11.6H46.6V58.2c0-7-4.7-11.6-11.6-11.6S23.4,41.9,23.4,35c0-7,4.7-11.6,11.6-11.6
			h349.1c7,0,11.6,4.7,11.6,11.6c0,7-4.7,11.6-11.6,11.6H81.5c-7,0-11.6,4.7-11.6,11.6s4.6,11.6,11.6,11.6H384
			c19.8,0,34.9-15.1,34.9-34.9C419,15.1,403.8,0,384,0z"/>
	</g>
</g>
<g>
	<g>
		<path fill="#e95224" d="M218.8,179.2c-4.7-5.8-14-5.8-18.6,0c-4.7,7-48.9,67.5-48.9,102.4c0,31.4,25.6,55.9,58.2,55.9s58.2-25.6,58.2-55.9
			C267.7,246.7,223.5,186.2,218.8,179.2z M209.5,314.2c-19.8,0-34.9-15.1-34.9-32.6c0-16.3,18.6-50,34.9-74.5
			c16.3,23.3,34.9,57,34.9,74.5C244.4,300.2,229.3,314.2,209.5,314.2z"/>
	</g>
</g>
<g>
	<g>
		<path fill="#e95224" d="M419,325.8c0-15.1-9.3-27.9-23.3-32.6v-74.5c14-4.7,23.3-17.5,23.3-32.6s-9.3-27.9-23.3-32.6v-48.9
			c0-7-4.7-11.6-11.6-11.6s-11.6,4.7-11.6,11.6v46.5h-93.1c-7,0-11.6,4.7-11.6,11.6c0,7,4.7,11.6,11.6,11.6h104.7
			c7,0,11.6,4.7,11.6,11.6s-4.7,11.6-11.6,11.6h-46.6c-7,0-11.6,4.7-11.6,11.6c0,7,4.7,11.6,11.6,11.6h34.9v69.8h-34.9
			c-7,0-11.6,4.7-11.6,11.6s4.7,11.6,11.6,11.6H384c7,0,11.6,4.7,11.6,11.6s-4.7,11.6-11.6,11.6h-81.5c-7,0-11.6,4.7-11.6,11.6
			c0,7,4.7,11.6,11.6,11.6h69.8v93.1c0,7,4.7,11.6,11.6,11.6s11.6,4.7,11.6,11.6s-4.7,11.6-11.6,11.6H35c-7,0-11.6-4.7-11.6-11.6
			s4.7-11.6,11.6-11.6h302.5c7,0,11.6-4.7,11.6-11.6s-4.7-11.6-11.6-11.6H35c-19.8,0-34.9,15.1-34.9,34.9s15.1,34.9,34.9,34.9h349.1
			c19.8,0,34.9-15.1,34.9-34.9c0-15.1-9.3-27.9-23.3-32.6v-86.1C409.6,353.7,419,340.9,419,325.8z"/>
	</g>
</g>
</svg>
