<svg id="laboratory_svg" xmlns="http://www.w3.org/2000/svg" xmlns:xlink="http://www.w3.org/1999/xlink" x="0px" y="0px" viewBox="0 0 999 1077" enable-background="new 0 0 999 1077" xml:space="preserve">
	<g>
		<rect x="254" y="79.7" fill="#A5D9EE" width="9.1" height="677.2"/>
		<polygon fill="#C2E7F2" points="272.2,82.4 263.1,79.7 263.1,756.9 272.2,756.9 	"/>
		<polygon fill="#80C1D7" points="254,79.7 244.9,82.6 244.9,756.9 254,756.9 	"/>
		<polygon fill="#E6E8ED" points="146.5,812.7 506.5,1018.2 853.8,817.3 512,634.5 	"/>
		<polygon fill="#DBDEE2" points="506.5,1018.2 506.5,975.5 853.8,770 853.8,817.3 	"/>
		<polygon fill="#CAC9C9" points="146.5,746.8 468.1,586.6 697.1,701.7 429.4,850.9 429.4,900.2 	"/>
		<polygon fill="#9397A5" points="416.9,840.2 714.9,671.1 714.9,692.9 416.9,862 	"/>
		<polygon fill="#EDEDEE" points="506.5,975.5 429.4,850.9 737.6,679.1 853.8,770 	"/>
		<polygon fill="#E2E2E2" points="146.5,812.7 146.5,746.8 429.4,894.1 429.4,850.9 506.5,975.5 506.5,1018.2 	"/>
		<path fill="#54ACDC" d="M511.3,921.6l-42.5-68.7c-3.3-5.3-1.5-12.3,4-15.4l243.5-135.8c3.9-2.2,8.6-1.8,12.1,0.9l60.7,47.5
			c6,4.7,5.5,14-1,18l-27.8,17c-1.9,1.2-3.4,2.9-4.3,5c-22.5,50.8-96.9,94.3-183,109.7c-1.2,0.2-2.3,0.6-3.3,1.2L526,925.4
			C520.8,928.3,514.3,926.6,511.3,921.6z"/>
		<polygon fill="#808494" points="146.5,727 146.5,705.2 416.9,840.2 416.9,862 	"/>
		<path fill="none" stroke="#A5D9EE" stroke-miterlimit="10" d="M530.6,904.2l-35.7-57.6c-2.8-4.5-1.2-10.4,3.4-12.9l204.2-113.9
			c3.2-1.8,7.3-1.5,10.2,0.8l50.9,39.8c5.1,4,4.6,11.8-0.9,15.1l-23.3,14.3c-1.6,1-2.9,2.5-3.6,4.2c-18.9,42.6-81.3,79.1-153.5,92
			c-1,0.2-1.9,0.5-2.8,1L543,907.4C538.6,909.8,533.2,908.4,530.6,904.2z"/>
		<polygon fill="#A7AEBA" points="146.5,705.2 473.1,546.4 714.9,671.1 416.9,840.2 	"/>
		<g>
			<circle fill="#404C54" cx="545.6" cy="856.5" r="30.2"/>
			<path fill="#242D32" d="M576.2,869.2c-3.4,4.1-7.3,7.6-11.5,10.7c-7.2,6.6-16.8,8.3-27.2,5.7l7.7-6.8L576.2,869.2z"/>
			<path fill="#4C5C64" d="M535.1,825.5c-5.7,4.2-14.4,13.3-14.2,13.7c-2.4,3.1-3.8,6.7-4.7,10.5l7.6-7L535.1,825.5z"/>
			<circle fill="#1C2123" cx="553.1" cy="849.7" r="30.2"/>
			<path fill="#313537" d="M565.9,820.9l-27.9,2.7c-7.1,3.9-11.7,10.4-14.2,19.1l25.5-2.5L565.9,820.9z"/>
			<path fill="#141718" d="M549.3,840.2l-25.5,2.5c-1.8,9.1-0.1,17.5,5.3,25.1l24.7-15.2L549.3,840.2z"/>
			
				<ellipse transform="matrix(0.824 -0.5666 0.5666 0.824 -376.878 469.3863)" fill="#101213" cx="567.1" cy="841.3" rx="17.1" ry="22.6"/>
			
				<ellipse transform="matrix(0.824 -0.5666 0.5666 0.824 -376.9198 470.0423)" fill="#232729" cx="568.1" cy="841.7" rx="13.2" ry="17.5"/>
			
				<ellipse transform="matrix(0.824 -0.5666 0.5666 0.824 -376.7874 470.1119)" fill="#7B848A" cx="568.3" cy="841.5" rx="11.2" ry="14.8"/>
		</g>
		<g>
			<circle fill="#404C54" cx="710.3" cy="759" r="30.2"/>
			<path fill="#242D32" d="M740.9,771.7c-3.4,4.1-7.3,7.6-11.5,10.7c-7.2,6.6-16.8,8.3-27.2,5.7l7.7-6.8L740.9,771.7z"/>
			<path fill="#4C5C64" d="M699.8,728c-5.7,4.2-14.4,13.3-14.2,13.7c-2.4,3.1-3.8,6.7-4.7,10.5l7.6-7L699.8,728z"/>
			<circle fill="#1C2123" cx="717.8" cy="752.2" r="30.2"/>
			<path fill="#313537" d="M730.6,723.4l-27.9,2.7c-7.1,3.9-11.7,10.4-14.2,19.1l25.5-2.5L730.6,723.4z"/>
			<path fill="#141718" d="M714,742.7l-25.5,2.5c-1.8,9.1-0.1,17.5,5.3,25.1l24.7-15.2L714,742.7z"/>
			
				<ellipse transform="matrix(0.824 -0.5666 0.5666 0.824 -292.6461 545.5472)" fill="#101213" cx="731.8" cy="743.8" rx="17.1" ry="22.6"/>
			
				<ellipse transform="matrix(0.824 -0.5666 0.5666 0.824 -292.688 546.2031)" fill="#232729" cx="732.8" cy="744.2" rx="13.2" ry="17.5"/>
			
				<ellipse transform="matrix(0.824 -0.5666 0.5666 0.824 -292.5556 546.2727)" fill="#7B848A" cx="733" cy="744" rx="11.2" ry="14.8"/>
		</g>
		<g>
			<ellipse fill="#D4D3D3" cx="392.2" cy="809.4" rx="13.2" ry="7.2"/>
			<path fill="#E2E2E2" d="M405.4,808.8c0-1.8,0-8.3,0-8.3s-9.2,1.1-13.2,1.1s-13.2-1.1-13.2-1.1s0,6.5,0,8.3c0,4,5.9,7.2,13.2,7.2
				S405.4,812.8,405.4,808.8z"/>
			<ellipse fill="#C2C1C1" cx="392.2" cy="800.5" rx="13.2" ry="7.2"/>
		</g>
		<g>
			<ellipse fill="#D4D3D3" cx="661.7" cy="657.5" rx="13.2" ry="7.2"/>
			<path fill="#E2E2E2" d="M674.9,656.9c0-1.8,0-8.3,0-8.3s-9.2,1.1-13.2,1.1s-13.2-1.1-13.2-1.1s0,6.5,0,8.3c0,4,5.9,7.2,13.2,7.2
				S674.9,660.9,674.9,656.9z"/>
			<ellipse fill="#C2C1C1" cx="661.7" cy="648.6" rx="13.2" ry="7.2"/>
		</g>
		<g>
			<ellipse fill="#D4D3D3" cx="219.7" cy="723.1" rx="13.2" ry="7.2"/>
			<path fill="#E2E2E2" d="M232.9,722.5c0-1.8,0-8.3,0-8.3s-9.2,1.1-13.2,1.1s-13.2-1.1-13.2-1.1s0,6.5,0,8.3c0,4,5.9,7.2,13.2,7.2
				S232.9,726.4,232.9,722.5z"/>
			<ellipse fill="#C2C1C1" cx="219.7" cy="714.1" rx="13.2" ry="7.2"/>
		</g>
		<g>
			<ellipse fill="#D4D3D3" cx="466" cy="581.8" rx="13.2" ry="7.2"/>
			<path fill="#E2E2E2" d="M479.2,581.2c0-1.8,0-8.3,0-8.3S470,574,466,574s-13.2-1.1-13.2-1.1s0,6.5,0,8.3c0,4,5.9,7.2,13.2,7.2
				C473.3,588.4,479.2,585.2,479.2,581.2z"/>
			<ellipse fill="#C2C1C1" cx="466" cy="572.9" rx="13.2" ry="7.2"/>
		</g>
		<polygon fill="#9397A5" points="416.9,800.1 714.9,631 714.9,652.8 416.9,821.9 	"/>
		<polygon fill="#808494" points="146.5,686.9 146.5,665.1 416.9,800.1 416.9,821.9 	"/>
		<polygon fill="#A7AEBA" points="146.5,665.1 473.1,506.2 714.9,631 416.9,800.1 	"/>
		<ellipse opacity="0.1" enable-background="new    " cx="441.7" cy="677.5" rx="139.2" ry="66.2"/>
		<g>
			<path fill="#A7C4E6" d="M509.9,500.7V396.9H367.1v103.8c-26.2,21-43,53.1-43,89.3c0,63.2,51.2,114.4,114.4,114.4
				S552.9,653.2,552.9,590C552.9,553.8,536,521.6,509.9,500.7z"/>
			<ellipse fill="#80B1DE" cx="438.5" cy="594" rx="104.6" ry="40.1"/>
			<path fill="#5D9BD3" d="M438.5,630c-53.7,0-97.9-15.2-104.6-34.9c2.7,55.5,48.4,99.7,104.6,99.7s101.9-44.2,104.6-99.7
				C536.4,614.8,492.2,630,438.5,630z"/>
			<path fill="#9DC0E5" d="M500.9,496.4c-41.6,12.7-83.2,12.7-124.7,0V389.6c41.6,23.6,83.2,23.6,124.7,0L500.9,496.4L500.9,496.4z"
				/>
			<path fill="#8DB4DF" d="M513.3,387.6c0,18.1-33.5,32.8-74.8,32.8s-74.8-14.7-74.8-32.8c0-5.4,0-23.4,0-23.4s45.9-9.3,74.8-9.3
				c28.4,0,74.8,9.3,74.8,9.3S513.3,381.9,513.3,387.6z"/>
			<ellipse fill="#82A8CF" cx="438.5" cy="364.1" rx="74.8" ry="32.8"/>
			<ellipse fill="#5280A7" cx="438.5" cy="363.8" rx="57.9" ry="22.4"/>
		</g>
		<g>
			<path fill="#FFFFFF" d="M645.8,797.7l-9.6,3.3c-0.4,0.1-0.9,0.3-1.3,0.5c-2.6,1.5-3.2,5.1-1.3,8c1.8,2.9,5.4,4,8,2.4
				c1.3-0.8,2.1-2.1,2.3-3.6l0,0L645.8,797.7z"/>
			<path fill="#FFFFFF" d="M641.8,785.4L641.8,785.4l-10.8-3.3l4.5,10.4c0.2,0.5,0.4,0.9,0.7,1.4c1.8,2.9,5.4,4,8,2.4
				c2.6-1.5,3.2-5.1,1.3-8C644.7,786.8,643.3,785.8,641.8,785.4"/>
			<path fill="#FFFFFF" d="M621.9,781.1c-1.3,0.8-2.1,2.1-2.3,3.6l0,0l-1.8,10.8l9.6-3.3c0.4-0.1,0.9-0.3,1.3-0.5
				c2.6-1.5,3.2-5.1,1.3-8C628.1,780.7,624.5,779.6,621.9,781.1"/>
			<path fill="#FFFFFF" d="M627.3,799.3c-1.8-2.9-5.4-4-8-2.4c-2.6,1.5-3.2,5.1-1.3,8c0.9,1.5,2.3,2.5,3.8,2.9l0,0l10.8,3.3
				l-4.5-10.4C627.8,800.2,627.6,799.7,627.3,799.3"/>
			<path fill="#FFFFFF" d="M627.8,837.7c-2.5-3.9-1.7-8.8,2.1-11.1s8.6-0.8,11.2,3.2c2.5,3.9,1.7,8.8-2.1,11.1
				S630.4,841.7,627.8,837.7 M637.6,831.9c-1.3-2-3.7-2.9-5.5-1.8c-1.9,1.1-2,3.5-0.7,5.6c1.3,2,3.7,2.9,5.5,1.8
				C638.7,836.4,638.9,833.9,637.6,831.9"/>
			<polygon fill="#FFFFFF" points="638.5,821.9 641.9,819.9 648.5,830.3 654.5,826.7 656.6,830.1 647.2,835.6 		"/>
			<polygon fill="#FFFFFF" points="649.4,815.4 652.8,813.4 661.6,827.1 658.1,829.2 		"/>
			<path fill="#FFFFFF" d="M655,812.1l5.8-3.5c1.9-1.1,3.5-1.3,4.9-0.9c1.2,0.4,2.3,1.2,3.2,2.6c1.3,2.1,1.2,4.1,0.2,5.7l6,3
				l-3.9,2.3l-5.1-2.7l-1.5,0.9l2.7,4.2l-3.4,2L655,812.1z M664.9,815.3c1.2-0.7,1.4-1.7,0.8-2.8c-0.7-1.1-1.7-1.2-2.9-0.5l-2.2,1.3
				l2.1,3.3L664.9,815.3z"/>
			<path fill="#FFFFFF" d="M636.3,847.9l1.4-0.9c0.8-0.5,1.5-0.3,1.9,0.4c0.4,0.6,0.3,1.1-0.1,1.6l1.7,0.8l-0.7,0.4l-1.6-0.8
				l-0.7,0.4l0.8,1.3l-0.6,0.3L636.3,847.9z M638.8,848.8c0.4-0.2,0.5-0.6,0.3-1s-0.6-0.4-1.1-0.2l-0.8,0.5l0.8,1.2L638.8,848.8z"/>
			<polygon fill="#FFFFFF" points="641.1,845 643.5,843.6 643.9,844.2 642.1,845.2 642.7,846.2 644.3,845.2 644.6,845.8 643,846.8 
				643.6,847.7 645.5,846.6 645.9,847.2 643.4,848.6 		"/>
			<path fill="#FFFFFF" d="M647.5,845.5l0.1-0.7c0.5,0.1,0.9,0.1,1.3-0.1c0.4-0.2,0.5-0.5,0.3-0.8s-0.4-0.3-1.1-0.1
				c-0.8,0.2-1.3,0.2-1.8-0.4c-0.4-0.6-0.2-1.3,0.4-1.7c0.5-0.3,0.9-0.3,1.5-0.2v0.7c-0.4-0.1-0.8,0-1.1,0.2s-0.4,0.5-0.2,0.8
				s0.4,0.3,1.1,0.1c0.8-0.2,1.3-0.2,1.7,0.4c0.4,0.7,0.2,1.4-0.5,1.8C648.7,845.6,648.1,845.7,647.5,845.5"/>
			<path fill="#FFFFFF" d="M651.2,841.5c-0.7-1-0.5-2.3,0.5-2.9c1-0.6,2.2-0.2,2.9,0.9c0.7,1,0.5,2.3-0.5,2.9
				C653,843,651.8,842.6,651.2,841.5 M654,839.9c-0.4-0.7-1.3-1-1.9-0.6c-0.6,0.4-0.7,1.2-0.3,1.9s1.3,1,1.9,0.6
				C654.3,841.4,654.4,840.6,654,839.9"/>
			<path fill="#FFFFFF" d="M656.8,838.5l-1.3-2.1l0.6-0.3l1.3,2.1c0.4,0.7,1,0.8,1.5,0.5s0.6-0.8,0.2-1.5l-1.3-2.1l0.6-0.3l1.3,2
				c0.7,1.1,0.5,1.9-0.4,2.4C658.4,839.8,657.5,839.6,656.8,838.5"/>
			<path fill="#FFFFFF" d="M660.5,833.5l1.4-0.9c0.8-0.5,1.5-0.3,1.9,0.4c0.4,0.6,0.3,1.1-0.1,1.6l1.7,0.8l-0.7,0.4l-1.6-0.8
				l-0.7,0.4l0.8,1.3l-0.6,0.3L660.5,833.5z M663.1,834.4c0.4-0.2,0.5-0.6,0.3-1s-0.6-0.4-1.1-0.2l-0.8,0.5l0.8,1.2L663.1,834.4z"/>
			<path fill="#FFFFFF" d="M666.4,832.5c-0.7-1-0.5-2.3,0.5-2.9c0.6-0.4,1.1-0.3,1.6-0.2l-0.1,0.7c-0.4-0.1-0.8-0.1-1.2,0.1
				c-0.6,0.4-0.7,1.2-0.2,1.9s1.3,1,1.9,0.6c0.4-0.2,0.5-0.6,0.6-1l0.6,0.2c-0.1,0.6-0.3,1.1-0.9,1.4
				C668.3,833.9,667.1,833.5,666.4,832.5"/>
			<polygon fill="#FFFFFF" points="670.3,827.7 672.7,826.2 673,826.8 671.2,827.9 671.8,828.8 673.4,827.9 673.8,828.4 672.2,829.4 
				672.8,830.4 674.6,829.3 675,829.8 672.6,831.3 		"/>
			<path fill="#FFFFFF" d="M676.6,828.2l0.1-0.7c0.5,0.1,0.9,0.1,1.3-0.1c0.4-0.2,0.5-0.5,0.3-0.8s-0.4-0.3-1.1-0.1
				c-0.8,0.2-1.3,0.2-1.8-0.4c-0.4-0.6-0.2-1.3,0.4-1.7c0.5-0.3,0.9-0.3,1.5-0.2v0.7c-0.4-0.1-0.8,0-1.1,0.2s-0.4,0.5-0.2,0.8
				s0.4,0.3,1.1,0.1c0.8-0.2,1.3-0.2,1.7,0.4c0.4,0.7,0.2,1.4-0.5,1.8C677.8,828.2,677.2,828.3,676.6,828.2"/>
		</g>
		<path fill="#A5D9EE" d="M422.8,244.2c0.2-0.2,0.5-0.4,0.7-0.7L61.8,63.4c-2.3,2.3-3.8,4.9-4.6,7.9l360.7,179.6
			C419.3,248.6,421,246.3,422.8,244.2z"/>
		<path fill="#C2E7F2" d="M430.9,237.1L73.5,59c-4.9-0.9-8.8,0.8-11.7,4.4l361.7,180.1C425.6,241.1,428.2,238.9,430.9,237.1z"/>
		<path fill="#80C1D7" d="M417.9,250.9L57.2,71.3c-1.1,4.9,0,9,4.1,12.1L413.9,259C414.9,256.2,416.3,253.5,417.9,250.9z"/>
		<g>
			<ellipse fill="#D4D3D3" cx="441.7" cy="275.1" rx="31.2" ry="17"/>
			<path fill="#E2E2E2" d="M472.9,274c0-4.2,0-34.9,0-34.9l-31.2-5.4l-31.1,5.4c0,0,0,30.7,0,34.9c0,9.4,14,17,31.2,17
				C458.9,291,472.9,283.4,472.9,274z"/>
			<ellipse fill="#C2C1C1" cx="441.7" cy="239.8" rx="31.2" ry="17"/>
			<ellipse fill="#323131" cx="441.7" cy="239.8" rx="9.6" ry="5.2"/>
		</g>
		<path fill="#A5D9EE" d="M817.3,439.8c0.2-0.2,0.5-0.4,0.7-0.7L456.2,259c-2.3,2.3-3.8,4.9-4.6,7.9l360.7,179.6
			C813.8,444.2,815.5,441.9,817.3,439.8z"/>
		<path fill="#C2E7F2" d="M825.4,432.7L468,254.7c-4.9-0.9-8.8,0.8-11.7,4.4L818,439.2C820.1,436.7,822.6,434.5,825.4,432.7z"/>
		<path fill="#80C1D7" d="M812.4,446.5L451.7,266.9c-1.1,4.9,0,9,4.1,12.1l352.6,175.6C809.4,451.8,810.8,449.1,812.4,446.5z"/>
		<ellipse transform="matrix(0.6 -0.8 0.8 0.6 -28.0894 830.3968)" fill="#68B2C6" cx="816.4" cy="443.3" rx="13.9" ry="6.5"/>
		<polygon fill="#E5E5E4" points="438.3,386.2 435.4,386.2 435.4,291.8 438.3,292 	"/>
		<polygon fill="#CECFCF" points="441.2,386.2 438.3,386.2 438.3,292 441.2,292.1 	"/>
		<polygon fill="#C2C1C1" points="444.2,386 441.2,386.2 441.2,292.1 444.2,292.1 	"/>
		<polygon opacity="0.1" enable-background="new    " points="441.2,341.5 438.3,341.4 435.4,341.3 435.4,386.2 438.3,386.2 
			441.2,386.2 444.2,386.1 444.2,341.5 	"/>
		<ellipse fill="#C2C1C1" cx="258.5" cy="82.6" rx="13.6" ry="7.4"/>
		<ellipse fill="#323131" cx="258.5" cy="82.6" rx="4.2" ry="2.3"/>
	</g>
	<polygon opacity="0.1" enable-background="new    " points="506.5,1018.2 699.8,1042.8 971.9,884.2 853.8,817.3 "/>
</svg>