<?xml version="1.0" encoding="utf-8"?>
<!-- Generator: Adobe Illustrator 21.0.0, SVG Export Plug-In . SVG Version: 6.00 Build 0)  -->
<svg version="1.1" id="Слой_1" xmlns="http://www.w3.org/2000/svg" xmlns:xlink="http://www.w3.org/1999/xlink" x="0px" y="0px"
	 viewBox="0 0 169.9 169.8" enable-background="new 0 0 169.9 169.8" xml:space="preserve">
<path id="drib_x5F_4" fill="#EA580C" d="M143.8,122.6l-52-9.4c-2.3-0.6-4.7-0.9-7.1-0.9c-15.9,0-28.8,12.9-28.8,28.8
	s12.9,28.8,28.8,28.8c8,0,15.3-3.3,20.5-8.6l0,0L143.8,122.6z"/>
<path id="drib_x5F_3" fill="#EF7D00" d="M161.2,64.2L161.2,64.2l-38.6-38.6l-9.4,52c-0.6,2.3-0.9,4.7-0.9,7.2
	c0,15.9,12.9,28.8,28.8,28.8s28.8-12.9,28.8-28.8C169.8,76.7,166.5,69.4,161.2,64.2"/>
<path id="drib_x5F_2" fill="#0096D6" d="M85.1,0c-8,0-15.3,3.3-20.5,8.6l0,0L26,47.2l52,9.3c2.3,0.6,4.7,0.9,7.2,0.9
	c15.9,0,28.8-12.9,28.8-28.7C113.9,12.9,101,0,85.1,0"/>
<path id="drib_x5F_1" fill="#1652A1" d="M57.5,85.1c0-15.9-12.9-28.8-28.8-28.8C12.9,56.4,0,69.2,0,85.1c0,8,3.3,15.3,8.6,20.5l0,0
	l38.6,38.6l9.4-52C57.2,90,57.5,87.6,57.5,85.1"/>
</svg>
