<svg xmlns="http://www.w3.org/2000/svg" xmlns:xlink="http://www.w3.org/1999/xlink" width="36px" height="36px"><path fill-rule="evenodd"  fill="rgb(255, 255, 255)" d="M35.995,17.952 C35.995,21.318 33.267,24.047 29.900,24.047 C26.533,24.047 23.805,21.318 23.805,17.952 C23.805,17.425 23.880,16.916 24.005,16.430 L25.988,5.418 L34.174,13.604 L34.172,13.605 C35.296,14.711 35.995,16.248 35.995,17.952 ZM18.041,12.187 C17.516,12.187 17.009,12.115 16.522,11.989 L5.506,10.007 L13.694,1.819 L13.694,1.822 C14.801,0.697 16.338,-0.003 18.041,-0.003 C21.408,-0.003 24.138,2.726 24.138,6.094 C24.138,9.458 21.408,12.187 18.041,12.187 ZM12.186,18.043 C12.186,18.566 12.114,19.071 11.989,19.556 L10.004,30.577 L1.817,22.390 L1.819,22.389 C0.695,21.284 -0.005,19.745 -0.005,18.043 C-0.005,14.676 2.725,11.946 6.092,11.946 C9.457,11.946 12.186,14.676 12.186,18.043 ZM17.950,23.806 C18.475,23.806 18.980,23.879 19.466,24.004 L30.485,25.988 L22.298,34.175 L22.296,34.172 C21.190,35.297 19.653,35.996 17.950,35.996 C14.584,35.996 11.853,33.267 11.853,29.901 C11.853,26.535 14.584,23.806 17.950,23.806 Z"/></svg>