<?xml version="1.0" encoding="utf-8"?>
<!-- Generator: Adobe Illustrator 21.1.0, SVG Export Plug-In . SVG Version: 6.00 Build 0)  -->
<svg version="1.1" id="Слой_1" xmlns="http://www.w3.org/2000/svg" xmlns:xlink="http://www.w3.org/1999/xlink" x="0px" y="0px"
	 viewBox="0 0 463.9 169.8" style="enable-background:new 0 0 463.9 169.8;" xml:space="preserve">
<style type="text/css">
	.st0{fill:#EA580C;}
	.st1{fill:#EF7D00;}
	.st2{fill:#0096D6;}
	.st3{fill:#000;}
	.st4{fill:#1652A1;}
</style>
<g>
	<path class="st0" d="M143.8,122.6l-52-9.4c-2.3-0.6-4.7-0.9-7.1-0.9c-15.9,0-28.8,12.9-28.8,28.8c0,15.9,12.9,28.8,28.8,28.8
		c8,0,15.3-3.3,20.5-8.6l0,0L143.8,122.6z"/>
	<path class="st1" d="M161.2,64.2L161.2,64.2l-38.6-38.6l-9.4,52c-0.6,2.3-0.9,4.7-0.9,7.2c0,15.9,12.9,28.8,28.8,28.8
		c15.9,0,28.8-12.9,28.8-28.8C169.8,76.7,166.5,69.4,161.2,64.2"/>
	<path class="st2" d="M85.1,0c-8,0-15.3,3.3-20.5,8.6l0,0L26,47.2l52,9.3c2.3,0.6,4.7,0.9,7.2,0.9c15.9,0,28.8-12.9,28.8-28.7
		C113.9,12.9,101,0,85.1,0"/>
	<path class="st4" d="M57.5,85.1c0-15.9-12.9-28.8-28.8-28.8C12.9,56.4,0,69.2,0,85.1c0,8,3.3,15.3,8.6,20.5l0,0l38.6,38.6l9.4-52
		C57.2,90,57.5,87.6,57.5,85.1"/>
	<path class="st3" d="M200.7,81c0-21.7,17.5-39.2,40.7-39.2c23.3,0,40.5,17.3,40.5,39.2c0,21.7-17.5,39.2-40.7,39.2
		S200.7,102.8,200.7,81 M260.6,81c0-10.9-7.9-20.4-19.4-20.4c-11.4,0-19.1,9.3-19.1,20.4c0,10.9,7.9,20.4,19.3,20.4
		C253,101.3,260.6,92.1,260.6,81"/>
	<polygon class="st3" points="292.9,43.2 313.8,43.2 313.8,100.4 350.3,100.4 350.3,118.7 292.9,118.7 	"/>
	<rect x="359.7" y="43.2" class="st3" width="21" height="75.4"/>
	<path class="st3" d="M394.5,43.2h35.7c11.5,0,19.5,3,24.6,8.1c4.4,4.4,6.7,10.2,6.7,17.9c0,11.5-6.1,19.2-15.5,23.2l18,26.3h-24.1
		l-15.2-22.8h-9.2v22.8h-20.9V43.2z M429.2,79.4c7.1,0,11.2-3.4,11.2-9.2c0-5.9-4.3-8.9-11.3-8.9h-13.7v18.1H429.2z"/>
	<path class="st3" d="M209.6,141.5h8.8c4.7,0,7.4,2.5,7.4,6.3c0,3.3-2,5.2-4.7,6l5.4,7.5h-4.1l-4.9-6.9h-4.3v6.9h-3.5V141.5z
		 M218.2,151.4c2.5,0,4.1-1.3,4.1-3.4c0-2.1-1.5-3.3-4.1-3.3h-5.1v6.7H218.2z"/>
	<polygon class="st3" points="239.1,141.5 253.9,141.5 253.9,144.6 242.6,144.6 242.6,149.8 252.6,149.8 252.6,152.9 242.6,152.9 
		242.6,158.3 254,158.3 254,161.4 239.1,161.4 	"/>
	<path class="st3" d="M265.9,158.5l2.1-2.5c1.9,1.6,3.8,2.6,6.3,2.6c2.2,0,3.5-1,3.5-2.5c0-1.4-0.8-2.2-4.5-3.1
		c-4.2-1-6.6-2.2-6.6-6c0-3.4,2.8-5.8,6.8-5.8c2.9,0,5.2,0.9,7.2,2.5l-1.9,2.6c-1.8-1.3-3.6-2-5.4-2c-2,0-3.2,1.1-3.2,2.4
		c0,1.5,0.9,2.2,4.7,3.1c4.2,1,6.4,2.5,6.4,5.9c0,3.7-2.9,5.9-7.1,5.9C271.1,161.7,268.3,160.6,265.9,158.5"/>
	<path class="st3" d="M293.6,151.4c0-5.6,4.3-10.3,10.4-10.3c6.1,0,10.4,4.6,10.4,10.3c0,5.6-4.3,10.3-10.4,10.3
		C297.8,161.7,293.6,157.1,293.6,151.4 M310.7,151.4c0-3.9-2.8-7.1-6.8-7.1s-6.7,3.1-6.7,7.1c0,3.9,2.8,7.1,6.8,7.1
		C307.9,158.5,310.7,155.4,310.7,151.4"/>
	<path class="st3" d="M327.3,153v-11.4h3.5v11.3c0,3.7,1.9,5.7,5,5.7c3.1,0,5-1.9,5-5.5v-11.4h3.5v11.3c0,5.9-3.3,8.9-8.5,8.9
		C330.6,161.7,327.3,158.7,327.3,153"/>
	<path class="st3" d="M358.2,141.5h8.8c4.7,0,7.4,2.5,7.4,6.3c0,3.3-2,5.2-4.7,6l5.4,7.5h-4.1l-4.9-6.9h-4.3v6.9h-3.5V141.5z
		 M366.8,151.4c2.5,0,4.1-1.3,4.1-3.4c0-2.1-1.5-3.3-4.1-3.3h-5.1v6.7H366.8z"/>
	<path class="st3" d="M386.9,151.4c0-5.7,4.2-10.3,10.2-10.3c3.7,0,5.9,1.3,7.8,3.1l-2.2,2.6c-1.6-1.5-3.3-2.5-5.6-2.5
		c-3.8,0-6.6,3.1-6.6,7.1c0,3.9,2.8,7.1,6.6,7.1c2.4,0,4-1,5.7-2.6l2.2,2.3c-2.1,2.2-4.3,3.5-8.1,3.5
		C391.2,161.7,386.9,157.2,386.9,151.4"/>
	<polygon class="st3" points="417.8,141.5 432.5,141.5 432.5,144.6 421.3,144.6 421.3,149.8 431.3,149.8 431.3,152.9 421.3,152.9 
		421.3,158.3 432.7,158.3 432.7,161.4 417.8,161.4 	"/>
	<path class="st3" d="M444.6,158.5l2.1-2.5c1.9,1.6,3.8,2.6,6.3,2.6c2.2,0,3.5-1,3.5-2.5c0-1.4-0.8-2.2-4.5-3.1
		c-4.2-1-6.6-2.2-6.6-6c0-3.4,2.8-5.8,6.8-5.8c2.9,0,5.2,0.9,7.2,2.5l-1.9,2.6c-1.8-1.3-3.6-2-5.4-2c-2,0-3.2,1.1-3.2,2.4
		c0,1.5,0.9,2.2,4.7,3.1c4.2,1,6.4,2.5,6.4,5.9c0,3.7-2.9,5.9-7.1,5.9C449.8,161.7,446.9,160.6,444.6,158.5"/>
</g>
</svg>
