<svg xmlns="http://www.w3.org/2000/svg" width="19" height="18" viewBox="0 0 19 18"><path fill="#ef7b22" d="M18.36 2.32l-.04-.04L16.18.41a1.49 1.49 0 0 0-1.14-.38 1.68 1.68 0 0 0-1.09.55l-2.1 2.66a1.51 1.51 0 0 0 .16 2.2l1.07.71c-.09.38-.65 1.46-2.61 3.43-1.96 1.97-3.04 2.53-3.41 2.62l-.72-1.08c-.02-.05-.06-.09-.1-.13a1.51 1.51 0 0 0-2.09-.03l-2.65 2.1-.07.07c-.6.61-.64 1.6-.09 2.18l1.86 2.14.04.04c.37.37.92.51 1.52.51 1.1 0 2.36-.44 3.01-.7 1.27-.5 3.77-1.71 6.23-4.18a18.77 18.77 0 0 0 4.17-6.25c.4-1.02 1.22-3.51.19-4.55zm-5.48 9.67c-3.69 3.7-7.82 4.7-8.52 4.36l-1.81-2.08 2.6-2.07.7 1.06.04.06c.24.29.59.46.98.48.39.02 1.56.08 4.73-3.09.78-.79 3.16-3.18 3.08-4.74-.02-.4-.19-.75-.48-.99l-.06-.04-1.05-.7 2.05-2.61h.01l2.07 1.81c.34.71-.66 4.85-4.34 8.55z"/></svg>