<svg xmlns="http://www.w3.org/2000/svg" width="17.9" height="17.97" viewBox="0 0 17.9 17.97">
  <metadata><?xpacket begin="﻿" id="W5M0MpCehiHzreSzNTczkc9d"?>
<x:xmpmeta xmlns:x="adobe:ns:meta/" x:xmptk="Adobe XMP Core 5.6-c138 79.159824, 2016/09/14-01:09:01        ">
   <rdf:RDF xmlns:rdf="http://www.w3.org/1999/02/22-rdf-syntax-ns#">
      <rdf:Description rdf:about=""/>
   </rdf:RDF>
</x:xmpmeta>
                                                                                                    
                                                                                                    
                                                                                                    
                                                                                                    
                                                                                                    
                                                                                                    
                                                                                                    
                                                                                                    
                                                                                                    
                                                                                                    
                                                                                                    
                                                                                                    
                                                                                                    
                                                                                                    
                                                                                                    
                                                                                                    
                                                                                                    
                                                                                                    
                                                                                                    
                                                                                                    
                           
<?xpacket end="w"?></metadata>
<defs>
    <style>
      .cls-1 {
        fill: #fff;
        fill-rule: evenodd;
      }
    </style>
  </defs>
  <path id="phone" class="cls-1" d="M3330.36,3685.32a0.151,0.151,0,0,1-.04-0.04l-2.14-1.87a1.485,1.485,0,0,0-1.14-.38,1.736,1.736,0,0,0-1.04.48,0.435,0.435,0,0,0-.06.07l-2.1,2.66a1.52,1.52,0,0,0,.04,2.09,0.53,0.53,0,0,0,.12.1l1.08,0.72c-0.09.38-.65,1.46-2.61,3.43s-3.04,2.53-3.41,2.61l-0.72-1.07a0.642,0.642,0,0,0-.1-0.13,1.51,1.51,0,0,0-2.09-.03l-2.65,2.1a0.462,0.462,0,0,0-.07.07,1.6,1.6,0,0,0-.09,2.18l1.86,2.14a0.151,0.151,0,0,0,.04.04,2.1,2.1,0,0,0,1.52.51,9.076,9.076,0,0,0,3.01-.7,19.3,19.3,0,0,0,10.4-10.43C3330.57,3688.85,3331.39,3686.36,3330.36,3685.32Zm-5.49,9.67c-3.68,3.7-7.81,4.7-8.51,4.36l-1.81-2.08h0l2.6-2.07,0.7,1.06c0.01,0.02.03,0.04,0.04,0.06a1.345,1.345,0,0,0,.98.48c0.39,0.02,1.56.08,4.73-3.09,0.78-.79,3.16-3.18,3.08-4.74a1.324,1.324,0,0,0-.49-0.99,0.218,0.218,0,0,0-.05-0.04l-1.06-.7,2.06-2.61h0.01l2.07,1.81C3329.56,3687.15,3328.56,3691.29,3324.87,3694.99Z" transform="translate(-3312.94 -3683.03)"/>
</svg>
