<?xml version="1.0" encoding="utf-8"?>
<!-- Generator: Adobe Illustrator 20.1.0, SVG Export Plug-In . SVG Version: 6.00 Build 0)  -->
<svg version="1.1" id="Layer_1" xmlns="http://www.w3.org/2000/svg" xmlns:xlink="http://www.w3.org/1999/xlink" x="0px" y="0px"
	 viewBox="0 0 512 512" style="enable-background:new 0 0 512 512;" xml:space="preserve">
<g>
	<g>
		<g>
			<path fill="#ef7b22" d="M490.4,30.3H376.6c-4.5,0-8.1,3.6-8.1,8.1s3.6,8.1,8.1,8.1h113.8c11.9,0,21.6-9.7,21.6-21.6v-3.3
				C512,9.7,502.3,0,490.4,0H21.6C9.7,0,0,9.7,0,21.6v3.3c0,11.9,9.7,21.6,21.6,21.6h226.3v47.9c-9.4,3.3-16.2,12.3-16.2,22.9
				c0,1.3,0.1,2.5,0.3,3.7L75,205.2c-3.9-4.2-9.5-6.9-15.7-6.9H56c-11.9,0-21.6,9.7-21.6,21.6v7.8H21c-21,0-21,28-21,37.2v205.5V491
				c0,11.6,9.4,21,21,21h470c11.6,0,21-9.4,21-21v-20.5V265c0-9.2,0-37.2-21-37.2h-13.4V220c0-11.9-9.7-21.6-21.6-21.6h-3.3
				c-6.2,0-11.8,2.7-15.7,6.9L280,121c0.2-1.2,0.3-2.4,0.3-3.7c0-10.5-6.8-19.5-16.2-22.9V46.5h82.3c4.5,0,8.1-3.6,8.1-8.1
				s-3.6-8.1-8.1-8.1H21.6c-3,0-5.4-2.4-5.4-5.4v-3.3c0-3,2.4-5.4,5.4-5.4h468.8c3,0,5.4,2.4,5.4,5.4v3.3
				C495.8,27.9,493.4,30.3,490.4,30.3z M50.6,219.9c0-3,2.4-5.4,5.4-5.4h3.3c3,0,5.4,2.4,5.4,5.4v7.8H50.6V219.9z M447.2,219.9
				c0-3,2.4-5.4,5.4-5.4h3.3c3,0,5.4,2.4,5.4,5.4v7.8h-14.2v-7.8H447.2z M439.2,243.9h30.3H491c0.8,0,1.2,0,2,1.5
				c1.1,2,2.8,7.1,2.8,19.5v197.5h-39.3c-4.5,0-8.1,3.6-8.1,8.1s3.6,8.1,8.1,8.1h39.3V491c0,2.7-2.2,4.9-4.9,4.9H21
				c-2.7,0-4.9-2.2-4.9-4.9v-12.4H428c4.5,0,8.1-3.6,8.1-8.1s-3.6-8.1-8.1-8.1H16.2V265c0-12.4,1.8-17.5,2.8-19.5
				c0.8-1.5,1.2-1.5,2-1.5h21.5h30.3L439.2,243.9L439.2,243.9z M272.3,135.2l158.8,85.2v7.4H80.9v-7.4l158.8-85.2
				c4.3,3.9,10,6.3,16.3,6.3S268,139.1,272.3,135.2z M256,109.2c4.5,0,8.1,3.6,8.1,8.1s-3.6,8.1-8.1,8.1s-8.1-3.6-8.1-8.1
				S251.5,109.2,256,109.2z"/>
			<path fill="#ef7b22" d="M107.3,448.4c4.5,0,8.1-3.6,8.1-8.1V264.6c0-4.5-3.6-8.1-8.1-8.1s-8.1,3.6-8.1,8.1v175.7
				C99.2,444.8,102.8,448.4,107.3,448.4z"/>
			<path fill="#ef7b22" d="M206.4,448.4c4.5,0,8.1-3.6,8.1-8.1V264.6c0-4.5-3.6-8.1-8.1-8.1s-8.1,3.6-8.1,8.1v175.7
				C198.3,444.8,202,448.4,206.4,448.4z"/>
			<path fill="#ef7b22" d="M305.6,448.4c4.5,0,8.1-3.6,8.1-8.1V264.6c0-4.5-3.6-8.1-8.1-8.1s-8.1,3.6-8.1,8.1v175.7
				C297.5,444.8,301.1,448.4,305.6,448.4z"/>
			<path fill="#ef7b22" d="M404.7,448.4c4.5,0,8.1-3.6,8.1-8.1V264.6c0-4.5-3.6-8.1-8.1-8.1s-8.1,3.6-8.1,8.1v175.7
				C396.7,444.8,400.3,448.4,404.7,448.4z"/>
		</g>
	</g>
</g>
</svg>
