<?xml version="1.0" encoding="utf-8"?>
<!-- Generator: Adobe Illustrator 21.0.0, SVG Export Plug-In . SVG Version: 6.00 Build 0)  -->
<svg version="1.1" id="Capa_1" xmlns="http://www.w3.org/2000/svg" xmlns:xlink="http://www.w3.org/1999/xlink" x="0px" y="0px"
	 viewBox="0 0 612 333.6" style="enable-background:new 0 0 612 333.6;" xml:space="preserve">
<style type="text/css">
	.st0{fill:#EF7B22;}
</style>
<g>
	<g id="Shape_2_2_">
		<g>
			<path class="st0" d="M98.2,319l4.2,0.4c1.6,0.1,158.6,14.2,286.1,14.2c131.8,0,159.8-14.8,169.5-25.9
				c41.7-48.1,32-131.2,31.5-134.8l-1.1-8.6H446L429.1,184H150.3l-13.6-19.7H0L5.7,178c20.9,49.8,87.1,134.2,89.9,137.7L98.2,319z
				 M126.5,184l13.6,19.7h298L455,184h115.9c1.2,21.4,1.3,77.5-27.5,110.7c-5,5.8-30.1,19.2-154.8,19.2
				c-115,0-254.4-11.5-280.1-13.8C97.1,285.6,52,226.4,30.1,184H126.5L126.5,184L126.5,184z M281.9,0H150.6v72.9h131.3L281.9,0
				L281.9,0z M262.4,53.2h-92.3V19.7h92.3V53.2z M419,0H287.7v72.9H419V0L419,0z M399.6,53.2h-92.3V19.7h92.3L399.6,53.2L399.6,53.2
				z M281.9,86.5H150.6v72.9h131.3L281.9,86.5L281.9,86.5z M262.4,139.7h-92.3v-33.5h92.3V139.7z M419,86.5H287.7v72.9H419V86.5
				L419,86.5L419,86.5z M399.6,139.7h-92.3v-33.5h92.3L399.6,139.7L399.6,139.7z M475.1,132.8H534c17.5,0,31.7-14.3,31.7-32V41.7
				c0-17.6-14.2-32-31.7-32h-58.9c-17.5,0-31.7,14.3-31.7,32v59C443.4,118.5,457.6,132.8,475.1,132.8z M462.9,41.8
				c0-6.8,5.5-12.3,12.2-12.3H534c6.7,0,12.2,5.5,12.2,12.3V66h-34.6v19.7h34.6v15.2c0,6.8-5.5,12.3-12.2,12.3h-58.9
				c-6.7,0-12.2-5.5-12.2-12.3V41.8z"/>
		</g>
	</g>
</g>
</svg>
