<?xml version="1.0" encoding="utf-8"?>
<!-- Generator: Adobe Illustrator 21.0.0, SVG Export Plug-In . SVG Version: 6.00 Build 0)  -->
<svg version="1.1" id="Layer_1" xmlns="http://www.w3.org/2000/svg" xmlns:xlink="http://www.w3.org/1999/xlink" x="0px" y="0px"
	 viewBox="0 0 512 330.3" style="enable-background:new 0 0 512 330.3;" xml:space="preserve">
<style type="text/css">
	.st0{fill:#EF7B22;}
</style>
<g>
	<g>
		<g>
			<path class="st0" d="M385.1,162.4c-0.1-4.3-3.6-7.6-7.8-7.6H256.5V108c0-12.9-10.5-23.4-23.4-23.4h-7.8V30c0-4.3-3.5-7.8-7.8-7.8
				H163c-4.3,0-7.8,3.5-7.8,7.8v54.6h-15.6H69.5h-8c-12.9,0-23.4,10.5-23.4,23.4v46.8H10.9c-4.3,0-7.7,3.4-7.8,7.6
				c0,0.7-0.4,17.4,2.2,40.2c3.8,32.8,11.5,60.1,22.9,81c16.9,31,41.3,46.7,72.3,46.7h187.1c51.9,0,85.8-45.4,95.2-127.7
				C385.5,179.8,385.1,163.1,385.1,162.4z M170.7,37.9h39v11.7h-39V37.9L170.7,37.9z M170.7,65.1h39v19.5h-39V65.1L170.7,65.1z
				 M61.5,100.2H233c4.3,0,7.8,3.5,7.8,7.8H53.7C53.7,103.7,57.2,100.2,61.5,100.2z M53.7,123.6h187.1v31.2H53.7V123.6z
				 M346.3,276.1c-14.2,26-33.4,38.6-58.7,38.6H100.5c-25.3,0-44.5-12.6-58.7-38.6c-9.3-17-16.1-39.9-20-66.6h344.4
				C362.4,236.1,355.6,259,346.3,276.1z M368.1,193.8H20c-0.9-9.7-1.3-17.8-1.3-23.4h350.8C369.4,175.9,369,184.1,368.1,193.8z"/>
			<rect x="104.4" y="131.4" class="st0" width="15.6" height="15.6"/>
			<rect x="143.4" y="131.4" class="st0" width="15.6" height="15.6"/>
		</g>
	</g>
</g>
<g>
	<g>
		<g>
			<path class="st0" d="M509.7,140.2c-0.1-4.3-3.6-7.6-7.8-7.6H381V85.8c0-12.9-10.5-23.4-23.4-23.4h-7.8V7.8c0-4.3-3.5-7.8-7.8-7.8
				h-54.6c-4.3,0-7.8,3.5-7.8,7.8v54.6h-48.2V78h126c4.3,0,7.8,3.5,7.8,7.8H249.5l11.4,11.4c1.3,1.3,2.4,2.8,3.2,4.3h101.2v31.2
				H264.4v15.6H494c-0.1,5.5-0.4,13.7-1.3,23.4H393v15.7h97.8c-3.7,26.6-10.6,49.6-19.9,66.6c-14.2,26-33.4,38.6-58.7,38.6h-44.5
				l-15.5,15.5h60c51.9,0,85.8-45.4,95.2-127.7C510,157.6,509.7,140.9,509.7,140.2z M334.2,62.4h-39V42.9h39V62.4z M334.2,27.4h-39
				V15.7h39V27.4z"/>
			<rect x="265.3" y="109.2" class="st0" width="15.6" height="15.6"/>
		</g>
	</g>
</g>
</svg>
