<?xml version="1.0" encoding="utf-8"?>
<!-- Generator: Adobe Illustrator 21.0.0, SVG Export Plug-In . SVG Version: 6.00 Build 0)  -->
<svg version="1.1" id="Layer_1" xmlns="http://www.w3.org/2000/svg" xmlns:xlink="http://www.w3.org/1999/xlink" x="0px" y="0px"
	 viewBox="0 0 512.9 368.1" style="enable-background:new 0 0 512.9 368.1;" xml:space="preserve">
<style type="text/css">
	.st0{display:none;fill:#EF7B22;}
	.st1{fill:#EF7B22;}
</style>
<g transform="translate(1 1)">
	<g>
		<g>
			<path class="st0" d="M76.2,298.9c-9.4,0-17.1,7.7-17.1,17.1c0,9.4,7.7,17.1,17.1,17.1s17.1-7.7,17.1-17.1
				C93.3,306.6,85.6,298.9,76.2,298.9z"/>
			<path class="st0" d="M161.6,298.9c-9.4,0-17.1,7.7-17.1,17.1c0,9.4,7.7,17.1,17.1,17.1c9.4,0,17.1-7.7,17.1-17.1
				C178.7,306.6,170.9,298.9,161.6,298.9z"/>
			<path class="st0" d="M349.3,298.9c-9.4,0-17.1,7.7-17.1,17.1c0,9.4,7.7,17.1,17.1,17.1s17.1-7.7,17.1-17.1
				C366.4,306.6,358.7,298.9,349.3,298.9z"/>
			<path class="st0" d="M434.6,298.9c-9.4,0-17.1,7.7-17.1,17.1c0,9.4,7.7,17.1,17.1,17.1s17.1-7.7,17.1-17.1
				C451.7,306.6,444,298.9,434.6,298.9z"/>
			<path class="st1" d="M27,239.1H8c-5.1,0-8.5,3.4-8.5,8.5v68.3c0,5.1,3.4,8.5,8.5,8.5h17.8c4.1,24.1,25.2,42.7,50.5,42.7
				c17.8,0,33.5-9.2,42.7-23c9.2,13.8,24.9,23,42.7,23c25.3,0,46.4-18.5,50.5-42.7H299c4.1,24.1,25.2,42.7,50.5,42.7
				c17.8,0,33.5-9.2,42.7-23c9.2,13.8,24.9,23,42.7,23c25.3,0,46.4-18.5,50.5-42.7h17.8c5.1,0,8.5-3.4,8.5-8.5v-68.3
				c-0.3-5.1-3.7-8.5-8.8-8.5h-19.1 M76.2,350.1c-18.8,0-34.1-15.4-34.1-34.1s15.4-34.1,34.1-34.1s34.1,15.4,34.1,34.1
				S95,350.1,76.2,350.1z M161.6,350.1c-18.8,0-34.1-15.4-34.1-34.1s15.4-34.1,34.1-34.1s34.1,15.4,34.1,34.1
				S180.3,350.1,161.6,350.1z M349.3,350.1c-18.8,0-34.1-15.4-34.1-34.1s15.4-34.1,34.1-34.1s34.1,15.4,34.1,34.1
				S368.1,350.1,349.3,350.1z M434.6,350.1c-18.8,0-34.1-15.4-34.1-34.1s15.4-34.1,34.1-34.1s34.1,15.4,34.1,34.1
				S453.4,350.1,434.6,350.1z M494.4,307.4h-9.3c-2.9-17-14.2-31.2-29.4-38.1c-0.3-0.2-0.7-0.3-1-0.5c-0.2-0.1-0.4-0.2-0.6-0.3
				c-0.6-0.2-1.1-0.5-1.7-0.7c-0.2-0.1-0.3-0.1-0.5-0.2c-0.6-0.2-1.3-0.4-1.9-0.6c-0.1,0-0.3-0.1-0.4-0.1c-0.6-0.2-1.3-0.4-2-0.6
				c-0.1,0-0.3-0.1-0.4-0.1c-0.6-0.2-1.3-0.3-2-0.5c-0.2,0-0.3-0.1-0.5-0.1c-0.6-0.1-1.3-0.2-1.9-0.3c-0.2,0-0.4-0.1-0.6-0.1
				c-0.6-0.1-1.2-0.2-1.9-0.2c-0.2,0-0.4-0.1-0.6-0.1c-0.6-0.1-1.3-0.1-1.9-0.1c-0.2,0-0.4,0-0.6,0c-0.8,0-1.7-0.1-2.5-0.1
				c-1,0-2,0-3.1,0.1c-0.3,0-0.6,0-0.8,0.1c-0.8,0.1-1.5,0.1-2.3,0.2c-0.2,0-0.5,0.1-0.7,0.1c-14.9,2-27.8,10.5-35.7,22.5
				c-8-12-20.9-20.5-35.7-22.5c-0.2,0-0.5-0.1-0.7-0.1c-0.8-0.1-1.5-0.2-2.3-0.2c-0.3,0-0.6,0-0.8-0.1c-1-0.1-2-0.1-3.1-0.1
				c-0.8,0-1.7,0-2.5,0.1c-0.2,0-0.4,0-0.6,0c-0.6,0-1.3,0.1-1.9,0.1c-0.2,0-0.4,0-0.6,0.1c-0.6,0.1-1.3,0.1-1.9,0.2
				c-0.2,0-0.4,0.1-0.6,0.1c-0.6,0.1-1.3,0.2-1.9,0.3c-0.2,0-0.3,0.1-0.5,0.1c-0.7,0.1-1.3,0.3-2,0.5c-0.1,0-0.3,0.1-0.4,0.1
				c-0.7,0.2-1.3,0.4-2,0.6c-0.1,0-0.3,0.1-0.4,0.1c-0.6,0.2-1.3,0.4-1.9,0.6c-0.2,0.1-0.3,0.1-0.5,0.2c-0.6,0.2-1.1,0.4-1.7,0.7
				c-0.2,0.1-0.4,0.2-0.6,0.3c-0.3,0.1-0.7,0.3-1,0.5c-15.3,6.9-26.6,21.1-29.4,38.1H212c-2.9-17-14.2-31.2-29.4-38.1
				c-0.3-0.2-0.7-0.3-1-0.5c-0.2-0.1-0.4-0.2-0.6-0.3c-0.6-0.2-1.1-0.5-1.7-0.7c-0.2-0.1-0.3-0.1-0.5-0.2c-0.6-0.2-1.3-0.4-1.9-0.6
				c-0.1,0-0.3-0.1-0.4-0.1c-0.6-0.2-1.3-0.4-2-0.6c-0.1,0-0.3-0.1-0.4-0.1c-0.6-0.2-1.3-0.3-2-0.5c-0.2,0-0.3-0.1-0.5-0.1
				c-0.6-0.1-1.3-0.2-1.9-0.3c-0.2,0-0.4-0.1-0.6-0.1c-0.6-0.1-1.2-0.2-1.9-0.2c-0.2,0-0.4-0.1-0.6-0.1c-0.6-0.1-1.3-0.1-1.9-0.1
				c-0.2,0-0.4,0-0.6,0c-0.8,0-1.7-0.1-2.5-0.1c-1,0-2,0-3.1,0.1c-0.3,0-0.6,0-0.8,0.1c-0.8,0.1-1.5,0.1-2.3,0.2
				c-0.2,0-0.5,0.1-0.7,0.1c-14.9,2-27.8,10.5-35.7,22.5c-8-12-20.9-20.5-35.7-22.5c-0.2,0-0.5-0.1-0.7-0.1
				c-0.8-0.1-1.5-0.2-2.3-0.2c-0.3,0-0.6,0-0.8-0.1c-1-0.1-2-0.1-3.1-0.1c-0.8,0-1.7,0-2.5,0.1c-0.2,0-0.4,0-0.6,0
				c-0.6,0-1.3,0.1-1.9,0.1c-0.2,0-0.4,0-0.6,0.1c-0.6,0.1-1.3,0.1-1.9,0.2c-0.2,0-0.4,0.1-0.6,0.1c-0.6,0.1-1.3,0.2-1.9,0.3
				c-0.2,0-0.3,0.1-0.5,0.1c-0.7,0.1-1.3,0.3-2,0.5c-0.1,0-0.3,0.1-0.4,0.1c-0.7,0.2-1.3,0.4-2,0.6c-0.1,0-0.3,0.1-0.4,0.1
				c-0.6,0.2-1.3,0.4-1.9,0.6c-0.2,0.1-0.3,0.1-0.5,0.2c-0.6,0.2-1.1,0.4-1.7,0.7c-0.2,0.1-0.4,0.2-0.7,0.3c-0.3,0.1-0.7,0.3-1,0.5
				c-15.3,6.9-26.6,21.1-29.4,38.1h-9.3v-51.2h24.8h428.4h24.7v51.2H494.4z"/>
		</g>
	</g>
</g>
<g>
	<g>
		<path class="st1" d="M455.2,0H55.7C38.9,0,25.2,13.8,25.2,30.8v194.8c0,16.8,13.7,30.5,30.5,30.5h399.5
			c16.8,0,30.5-13.7,30.5-30.5V30.8C485.7,13.8,472,0,455.2,0z M467.3,225.6c0,6.7-5.4,12.1-12.1,12.1H55.7
			c-6.7,0-12.1-5.4-12.1-12.1V30.8c0-6.8,5.5-12.5,12.1-12.5h399.5c6.6,0,12.1,5.7,12.1,12.5L467.3,225.6L467.3,225.6z"/>
	</g>
</g>
<g>
	<g>
		<path class="st1" d="M109.2,42.5c-5.1,0-9.2,4.1-9.2,9.2v149.5c0,5.1,4.1,9.2,9.2,9.2s9.2-4.1,9.2-9.2V51.6
			C118.3,46.6,114.2,42.5,109.2,42.5z"/>
	</g>
</g>
<g>
	<g>
		<path class="st1" d="M181.6,42.5c-5.1,0-9.2,4.1-9.2,9.2v149.5c0,5.1,4.1,9.2,9.2,9.2c5.1,0,9.2-4.1,9.2-9.2V51.6
			C190.8,46.6,186.7,42.5,181.6,42.5z"/>
	</g>
</g>
<g>
	<g>
		<path class="st1" d="M255,42.5c-5.1,0-9.2,4.1-9.2,9.2v149.5c0,5.1,4.1,9.2,9.2,9.2c5.1,0,9.2-4.1,9.2-9.2V51.6
			C264.2,46.6,260.1,42.5,255,42.5z"/>
	</g>
</g>
<g>
	<g>
		<path class="st1" d="M328.4,42.5c-5.1,0-9.2,4.1-9.2,9.2v149.5c0,5.1,4.1,9.2,9.2,9.2s9.2-4.1,9.2-9.2V51.6
			C337.5,46.6,333.4,42.5,328.4,42.5z"/>
	</g>
</g>
<g>
	<g>
		<path class="st1" d="M401.7,42.5c-5.1,0-9.2,4.1-9.2,9.2v149.5c0,5.1,4.1,9.2,9.2,9.2s9.2-4.1,9.2-9.2V51.6
			C410.9,46.6,406.8,42.5,401.7,42.5z"/>
	</g>
</g>
</svg>
