<?xml version="1.0" encoding="utf-8"?>
<!-- Generator: Adobe Illustrator 21.0.0, SVG Export Plug-In . SVG Version: 6.00 Build 0)  -->
<svg version="1.1" id="Layer_2" xmlns="http://www.w3.org/2000/svg" xmlns:xlink="http://www.w3.org/1999/xlink" x="0px" y="0px"
	 viewBox="0 0 55.8 39.2" enable-background="new 0 0 55.8 39.2" xml:space="preserve">
<rect x="0.8" y="24.1" fill="none" stroke="#4C4C4C" stroke-linecap="round" stroke-linejoin="round" stroke-miterlimit="10" width="11.3" height="13.9"/>
<rect x="16.5" y="14.4" fill="none" stroke="#4C4C4C" stroke-linecap="round" stroke-linejoin="round" stroke-miterlimit="10" width="11.3" height="23.6"/>
<path fill="none" stroke="#E95224" stroke-linecap="round" stroke-linejoin="round" stroke-miterlimit="10" d="M40,9.4v7.7l-1.3,3.8
	c-2.2,2.9-3.4,6.4-3.5,10.5c-2,0-2,3,0,3c-1.9,1-2.9,2.3-2.2,4.2h21.8c0.8-2-0.1-3.4-2.3-4.4c2,0,2-3.1,0-3.1
	c-0.1-3.8-1.6-7.3-4.1-10.6l-1.1-3.3V9.4L40,9.4z"/>
<path fill="none" stroke="#E95224" stroke-linecap="round" stroke-linejoin="round" stroke-miterlimit="10" d="M39.7,0.6H37v8.7
	h13.6c0,0,0.3-8.5,0-8.7s-3.3,0-3.3,0v3.6h-2.1V0.5H42v3.9h-2.4L39.7,0.6z"/>
</svg>
