<?xml version="1.0" encoding="utf-8"?>
<!-- Generator: Adobe Illustrator 21.0.0, SVG Export Plug-In . SVG Version: 6.00 Build 0)  -->
<svg version="1.1" id="Layer_2" xmlns="http://www.w3.org/2000/svg" xmlns:xlink="http://www.w3.org/1999/xlink" x="0px" y="0px"
	 viewBox="0 0 62.1 34.7" enable-background="new 0 0 62.1 34.7" xml:space="preserve">
<polyline fill="none" stroke="#4C4C4C" stroke-linecap="round" stroke-linejoin="round" stroke-miterlimit="10" points="12.2,5.4 
	15.1,5.4 20.6,0.9 31.4,0.6 33.1,2.2 "/>
<rect x="0.6" y="2.7" fill="none" stroke="#E95224" stroke-linecap="round" stroke-linejoin="round" stroke-miterlimit="10" width="11.3" height="20"/>
<path fill="none" stroke="#4C4C4C" stroke-linecap="round" stroke-linejoin="round" stroke-miterlimit="10" d="M49.2,8.9l-3.6,0
	c-0.6-2.7-2.4-4.7-5.2-6.1c-3.6-0.8-7.1-0.9-10.4,0l-10.5,9.4c2.3,1.9,4.9,2.4,7.8,1.1l4.9-5.5c1.7,3.9,4.5,5,8.9,2.7"/>
<path fill="none" stroke="#4C4C4C" stroke-linecap="round" stroke-linejoin="round" stroke-miterlimit="10" d="M39.5,11.5l9.4,10.2
	c1.3,1.5-2.5,4.7-3.8,3.2L34.8,13.4"/>
<rect x="50.2" y="7.7" fill="none" stroke="#E95224" stroke-linecap="round" stroke-linejoin="round" stroke-miterlimit="10" width="11.3" height="20"/>
<path fill="none" stroke="#4C4C4C" stroke-linecap="round" stroke-linejoin="round" stroke-miterlimit="10" d="M45.1,24.9
	c2.1,2.2-1.1,5.3-3.2,3.1L31.2,16.9"/>
<path fill="none" stroke="#4C4C4C" stroke-linecap="round" stroke-linejoin="round" stroke-miterlimit="10" d="M41.8,28
	c2.1,2.3-1.6,5.6-3.7,3.4l-3.5-3.4"/>
<path fill="none" stroke="#4C4C4C" stroke-linecap="round" stroke-linejoin="round" stroke-miterlimit="10" d="M16.7,24.7
	c-0.9,1.1-3.8-1.4-2.9-2.5l4.4-5.2c1-1.2,4,1.3,2.9,2.5L16.7,24.7z"/>
<path fill="none" stroke="#4C4C4C" stroke-linecap="round" stroke-linejoin="round" stroke-miterlimit="10" d="M20.6,28.2
	c-1.1,1.3-4.6-1.7-3.5-3l5.3-6.2c1.2-1.5,4.7,1.5,3.5,3L20.6,28.2z"/>
<path fill="none" stroke="#4C4C4C" stroke-linecap="round" stroke-linejoin="round" stroke-miterlimit="10" d="M30,33.8
	c-0.9,1.1-3.9-1.4-2.9-2.5l4.4-5.2c1-1.2,4,1.3,2.9,2.5L30,33.8z"/>
<path fill="none" stroke="#4C4C4C" stroke-linecap="round" stroke-linejoin="round" stroke-miterlimit="10" d="M25.3,31.9
	c-1.3,1.5-5.3-1.9-4-3.4l6.1-7.2c1.4-1.7,5.5,1.7,4,3.4L25.3,31.9z"/>
</svg>
